<?xml version="1.0" standalone="no"?>
<!DOCTYPE svg PUBLIC "-//W3C//DTD SVG 20010904//EN"
 "http://www.w3.org/TR/2001/REC-SVG-20010904/DTD/svg10.dtd">
<svg version="1.0" xmlns="http://www.w3.org/2000/svg"
 width="1000.000000pt" height="1041.000000pt" viewBox="0 0 1000.000000 1041.000000"
 preserveAspectRatio="xMidYMid meet">

<g transform="translate(0.000000,1041.000000) scale(0.100000,-0.100000)"
fill="#000000" stroke="none">
<path d="M400 4815 l0 -4415 4600 0 4600 0 0 4415 0 4415 -150 0 -149 0 -11
-42 c-70 -282 -269 -524 -533 -653 -153 -74 -223 -89 -427 -89 -154 -1 -185 2
-255 22 -337 97 -582 332 -691 662 l-31 95 -3477 3 -3476 2 0 -4415z m2500
3519 c0 -3 -20 -31 -44 -62 -110 -144 -179 -353 -206 -622 -7 -79 -10 -420 -8
-1076 l3 -961 712 901 c392 496 749 951 794 1011 154 210 260 403 294 535 17
66 17 223 0 263 -7 16 55 17 1211 16 1135 0 1217 -1 1195 -17 -172 -119 -368
-300 -551 -509 -276 -313 -2344 -2889 -2333 -2906 46 -76 2250 -3095 2348
-3217 248 -307 435 -507 540 -576 14 -9 25 -20 25 -25 0 -5 -530 -9 -1246 -9
l-1246 0 7 38 c35 179 18 298 -69 487 -39 84 -138 250 -215 360 -47 68 -1456
1991 -1468 2005 -2 2 -2 -500 0 -1115 3 -1091 4 -1123 25 -1230 40 -209 95
-350 186 -473 25 -34 46 -64 46 -67 0 -3 -511 -5 -1135 -5 -624 0 -1135 2
-1135 5 0 3 24 34 52 69 119 145 180 294 198 486 8 81 10 1023 8 3150 -4 3357
2 3067 -67 3246 -31 81 -107 202 -162 259 -16 17 -29 34 -29 38 0 4 511 7
1135 7 624 0 1135 -3 1135 -6z m6280 -4291 c1 -1388 5 -2411 10 -2472 15 -170
59 -285 156 -414 l54 -72 -1062 -3 c-583 -1 -1063 0 -1066 2 -2 3 17 33 43 68
58 77 118 201 142 294 17 65 18 199 18 2309 l0 2240 -23 78 c-27 96 -75 192
-136 275 l-46 62 955 0 955 0 0 -2367z"/>
</g>
</svg>
