<?xml version="1.0" standalone="no"?>
<!DOCTYPE svg PUBLIC "-//W3C//DTD SVG 20010904//EN"
 "http://www.w3.org/TR/2001/REC-SVG-20010904/DTD/svg10.dtd">
<svg version="1.0" xmlns="http://www.w3.org/2000/svg"
 width="1192.000000pt" height="840.000000pt" viewBox="0 0 1192.000000 840.000000"
 preserveAspectRatio="xMidYMid meet">

<g transform="translate(0.000000,840.000000) scale(0.100000,-0.100000)"
fill="#000000" stroke="none">
<path d="M3836 7479 c-566 -58 -1076 -254 -1513 -581 -590 -440 -998 -1076
-1146 -1783 -48 -226 -61 -361 -61 -625 0 -264 13 -399 61 -625 126 -602 459
-1183 912 -1592 468 -421 1015 -673 1646 -759 138 -19 583 -26 658 -11 l37 8
0 450 0 450 -92 -8 c-154 -13 -412 -8 -537 11 -369 56 -723 211 -1012 444
-104 83 -302 291 -373 391 -195 272 -317 561 -378 891 -18 96 -22 153 -22 350
0 197 4 254 22 350 60 329 181 614 378 891 76 108 345 377 453 453 279 199
569 321 896 378 130 23 434 31 588 15 l77 -8 0 450 c0 319 -3 452 -11 457 -18
11 -485 14 -583 3z"/>
<path d="M8936 7479 c-1049 -101 -1960 -731 -2421 -1674 -147 -302 -234 -592
-281 -940 -25 -181 -25 -569 0 -750 47 -348 134 -638 281 -940 406 -830 1174
-1431 2070 -1618 228 -48 361 -61 635 -61 140 -1 263 2 273 6 16 7 17 38 17
458 l0 450 -82 -7 c-140 -13 -404 -8 -527 11 -370 56 -723 211 -1012 444 -104
83 -302 291 -373 391 -148 207 -256 427 -322 654 -19 65 -34 123 -34 128 0 5
349 9 875 9 l875 0 0 450 0 450 -875 0 c-526 0 -875 4 -875 9 0 5 15 63 34
128 65 226 172 444 322 654 76 108 345 377 453 453 279 198 567 320 896 378
95 17 162 22 325 22 113 1 231 -2 263 -7 l57 -7 0 453 0 454 -82 6 c-110 9
-381 6 -492 -4z"/>
</g>
</svg>
