solid ascii
  facet normal 0.000000e+000 1.000000e+000 -0.000000e+000
    outer loop
      vertex   1.050000e+001 -1.175000e+001 5.235787e+000
      vertex   -1.350000e+001 -1.175000e+001 5.235787e+000
      vertex   1.050000e+001 -1.175000e+001 5.250000e+000
    endloop
  endfacet
  facet normal 0.000000e+000 5.922118e-004 0.000000e+000
    outer loop
      vertex   1.050000e+001 -1.175000e+001 5.250000e+000
      vertex   -1.350000e+001 -1.175000e+001 5.235787e+000
      vertex   -1.350000e+001 -1.175000e+001 5.250000e+000
    endloop
  endfacet
  facet normal 0.000000e+000 -1.000000e+000 0.000000e+000
    outer loop
      vertex   -1.350000e+001 -1.750000e+001 5.250000e+000
      vertex   -1.350000e+001 -1.750000e+001 0.000000e+000
      vertex   1.550000e+001 -1.750000e+001 5.250000e+000
    endloop
  endfacet
  facet normal 0.000000e+000 -9.840053e-001 -0.000000e+000
    outer loop
      vertex   1.550000e+001 -1.750000e+001 5.250000e+000
      vertex   -1.350000e+001 -1.750000e+001 0.000000e+000
      vertex   1.550000e+001 -1.750000e+001 0.000000e+000
    endloop
  endfacet
  facet normal 0.000000e+000 0.000000e+000 6.561787e-001
    outer loop
      vertex   1.550000e+001 1.750000e+001 5.250000e+000
      vertex   1.050000e+001 1.175000e+001 5.250000e+000
      vertex   1.550000e+001 -1.750000e+001 5.250000e+000
    endloop
  endfacet
  facet normal 0.000000e+000 0.000000e+000 5.196487e-001
    outer loop
      vertex   1.550000e+001 -1.750000e+001 5.250000e+000
      vertex   1.050000e+001 1.175000e+001 5.250000e+000
      vertex   1.050000e+001 -1.175000e+001 5.250000e+000
    endloop
  endfacet
  facet normal 0.000000e+000 0.000000e+000 7.546056e-001
    outer loop
      vertex   1.550000e+001 -1.750000e+001 5.250000e+000
      vertex   1.050000e+001 -1.175000e+001 5.250000e+000
      vertex   -1.350000e+001 -1.750000e+001 5.250000e+000
    endloop
  endfacet
  facet normal 0.000000e+000 0.000000e+000 9.724792e-001
    outer loop
      vertex   -1.350000e+001 -1.750000e+001 5.250000e+000
      vertex   1.050000e+001 -1.175000e+001 5.250000e+000
      vertex   -1.350000e+001 -1.175000e+001 5.250000e+000
    endloop
  endfacet
  facet normal 0.000000e+000 0.000000e+000 7.546056e-001
    outer loop
      vertex   1.550000e+001 1.750000e+001 5.250000e+000
      vertex   -1.350000e+001 1.750000e+001 5.250000e+000
      vertex   1.050000e+001 1.175000e+001 5.250000e+000
    endloop
  endfacet
  facet normal 0.000000e+000 0.000000e+000 2.329898e-001
    outer loop
      vertex   1.050000e+001 1.175000e+001 5.250000e+000
      vertex   -1.350000e+001 1.750000e+001 5.250000e+000
      vertex   -1.350000e+001 1.175000e+001 5.250000e+000
    endloop
  endfacet
  facet normal 1.000000e+000 0.000000e+000 -0.000000e+000
    outer loop
      vertex   1.550000e+001 1.750000e+001 0.000000e+000
      vertex   1.550000e+001 1.750000e+001 5.250000e+000
      vertex   1.550000e+001 -1.750000e+001 0.000000e+000
    endloop
  endfacet
  facet normal 9.889364e-001 0.000000e+000 0.000000e+000
    outer loop
      vertex   1.550000e+001 -1.750000e+001 0.000000e+000
      vertex   1.550000e+001 1.750000e+001 5.250000e+000
      vertex   1.550000e+001 -1.750000e+001 5.250000e+000
    endloop
  endfacet
  facet normal 0.000000e+000 0.000000e+000 -1.000000e+000
    outer loop
      vertex   -1.350000e+001 -7.000000e+000 0.000000e+000
      vertex   1.050000e+001 -7.000000e+000 0.000000e+000
      vertex   -1.350000e+001 -1.750000e+001 0.000000e+000
    endloop
  endfacet
  facet normal 0.000000e+000 0.000000e+000 -4.008188e-001
    outer loop
      vertex   -1.350000e+001 -1.750000e+001 0.000000e+000
      vertex   1.050000e+001 -7.000000e+000 0.000000e+000
      vertex   1.550000e+001 -1.750000e+001 0.000000e+000
    endloop
  endfacet
  facet normal 0.000000e+000 0.000000e+000 -2.407146e-001
    outer loop
      vertex   1.550000e+001 -1.750000e+001 0.000000e+000
      vertex   1.050000e+001 -7.000000e+000 0.000000e+000
      vertex   1.050000e+001 7.000000e+000 0.000000e+000
    endloop
  endfacet
  facet normal 0.000000e+000 0.000000e+000 -1.999600e-001
    outer loop
      vertex   1.550000e+001 -1.750000e+001 0.000000e+000
      vertex   1.050000e+001 7.000000e+000 0.000000e+000
      vertex   1.550000e+001 1.750000e+001 0.000000e+000
    endloop
  endfacet
  facet normal -0.000000e+000 0.000000e+000 -9.028605e-001
    outer loop
      vertex   1.550000e+001 1.750000e+001 0.000000e+000
      vertex   1.050000e+001 7.000000e+000 0.000000e+000
      vertex   -1.350000e+001 1.750000e+001 0.000000e+000
    endloop
  endfacet
  facet normal 0.000000e+000 0.000000e+000 -9.161573e-001
    outer loop
      vertex   -1.350000e+001 1.750000e+001 0.000000e+000
      vertex   1.050000e+001 7.000000e+000 0.000000e+000
      vertex   -1.350000e+001 7.000000e+000 0.000000e+000
    endloop
  endfacet
  facet normal 0.000000e+000 1.000000e+000 -0.000000e+000
    outer loop
      vertex   1.050000e+001 -7.000000e+000 0.000000e+000
      vertex   -1.350000e+001 -7.000000e+000 0.000000e+000
      vertex   1.050000e+001 -7.000000e+000 4.857869e-001
    endloop
  endfacet
  facet normal 0.000000e+000 2.023698e-002 0.000000e+000
    outer loop
      vertex   1.050000e+001 -7.000000e+000 4.857869e-001
      vertex   -1.350000e+001 -7.000000e+000 0.000000e+000
      vertex   -1.350000e+001 -7.000000e+000 4.857869e-001
    endloop
  endfacet
  facet normal 0.000000e+000 7.071068e-001 7.071068e-001
    outer loop
      vertex   1.050000e+001 -1.175000e+001 5.235787e+000
      vertex   1.050000e+001 -7.000000e+000 4.857869e-001
      vertex   -1.350000e+001 -1.175000e+001 5.235787e+000
    endloop
  endfacet
  facet normal 0.000000e+000 6.809367e-001 6.809367e-001
    outer loop
      vertex   -1.350000e+001 -1.175000e+001 5.235787e+000
      vertex   1.050000e+001 -7.000000e+000 4.857869e-001
      vertex   -1.350000e+001 -7.000000e+000 4.857869e-001
    endloop
  endfacet
  facet normal -7.071068e-001 -1.419683e-007 -0.000000e+000
    outer loop
      vertex   -1.350000e+001 -7.000000e+000 4.857869e-001
      vertex   -1.350000e+001 -7.000000e+000 0.000000e+000
      vertex   -1.350000e+001 -1.175000e+001 5.235787e+000
    endloop
  endfacet
  facet normal -9.999983e-001 -9.082597e-008 9.974610e-008
    outer loop
      vertex   -1.350000e+001 -1.175000e+001 5.235787e+000
      vertex   -1.350000e+001 -7.000000e+000 0.000000e+000
      vertex   -1.350000e+001 -1.750000e+001 0.000000e+000
    endloop
  endfacet
  facet normal -6.750976e-001 -0.000000e+000 0.000000e+000
    outer loop
      vertex   -1.350000e+001 -1.175000e+001 5.235787e+000
      vertex   -1.350000e+001 -1.750000e+001 0.000000e+000
      vertex   -1.350000e+001 -1.750000e+001 5.250000e+000
    endloop
  endfacet
  facet normal -2.471833e-003 0.000000e+000 0.000000e+000
    outer loop
      vertex   -1.350000e+001 -1.750000e+001 5.250000e+000
      vertex   -1.350000e+001 -1.175000e+001 5.250000e+000
      vertex   -1.350000e+001 -1.175000e+001 5.235787e+000
    endloop
  endfacet
  facet normal -8.591015e-001 0.000000e+000 0.000000e+000
    outer loop
      vertex   1.050000e+001 -7.000000e+000 4.857869e-001
      vertex   1.050000e+001 -1.175000e+001 5.235787e+000
      vertex   1.050000e+001 1.175000e+001 5.235787e+000
    endloop
  endfacet
  facet normal -6.048120e-004 0.000000e+000 0.000000e+000
    outer loop
      vertex   1.050000e+001 1.175000e+001 5.235787e+000
      vertex   1.050000e+001 -1.175000e+001 5.235787e+000
      vertex   1.050000e+001 -1.175000e+001 5.250000e+000
    endloop
  endfacet
  facet normal -9.999998e-001 0.000000e+000 0.000000e+000
    outer loop
      vertex   1.050000e+001 1.175000e+001 5.235787e+000
      vertex   1.050000e+001 -1.175000e+001 5.250000e+000
      vertex   1.050000e+001 1.175000e+001 5.250000e+000
    endloop
  endfacet
  facet normal -5.118052e-001 0.000000e+000 0.000000e+000
    outer loop
      vertex   1.050000e+001 1.175000e+001 5.235787e+000
      vertex   1.050000e+001 7.000000e+000 4.857869e-001
      vertex   1.050000e+001 -7.000000e+000 4.857869e-001
    endloop
  endfacet
  facet normal -3.467819e-002 0.000000e+000 0.000000e+000
    outer loop
      vertex   1.050000e+001 -7.000000e+000 4.857869e-001
      vertex   1.050000e+001 7.000000e+000 4.857869e-001
      vertex   1.050000e+001 7.000000e+000 0.000000e+000
    endloop
  endfacet
  facet normal -9.993985e-001 0.000000e+000 0.000000e+000
    outer loop
      vertex   1.050000e+001 -7.000000e+000 4.857869e-001
      vertex   1.050000e+001 7.000000e+000 0.000000e+000
      vertex   1.050000e+001 -7.000000e+000 0.000000e+000
    endloop
  endfacet
  facet normal 0.000000e+000 -7.071068e-001 7.071068e-001
    outer loop
      vertex   1.050000e+001 1.175000e+001 5.235787e+000
      vertex   -1.350000e+001 1.175000e+001 5.235787e+000
      vertex   1.050000e+001 7.000000e+000 4.857869e-001
    endloop
  endfacet
  facet normal 0.000000e+000 -1.905918e-001 1.905918e-001
    outer loop
      vertex   1.050000e+001 7.000000e+000 4.857869e-001
      vertex   -1.350000e+001 1.175000e+001 5.235787e+000
      vertex   -1.350000e+001 7.000000e+000 4.857869e-001
    endloop
  endfacet
  facet normal -0.000000e+000 -1.000000e+000 -0.000000e+000
    outer loop
      vertex   1.050000e+001 7.000000e+000 4.857869e-001
      vertex   -1.350000e+001 7.000000e+000 4.857869e-001
      vertex   1.050000e+001 7.000000e+000 0.000000e+000
    endloop
  endfacet
  facet normal 0.000000e+000 -2.023698e-002 0.000000e+000
    outer loop
      vertex   1.050000e+001 7.000000e+000 0.000000e+000
      vertex   -1.350000e+001 7.000000e+000 4.857869e-001
      vertex   -1.350000e+001 7.000000e+000 0.000000e+000
    endloop
  endfacet
  facet normal -1.000000e+000 0.000000e+000 0.000000e+000
    outer loop
      vertex   -1.350000e+001 1.175000e+001 5.250000e+000
      vertex   -1.350000e+001 1.750000e+001 5.250000e+000
      vertex   -1.350000e+001 1.175000e+001 5.235787e+000
    endloop
  endfacet
  facet normal -6.750976e-001 0.000000e+000 0.000000e+000
    outer loop
      vertex   -1.350000e+001 1.175000e+001 5.235787e+000
      vertex   -1.350000e+001 1.750000e+001 5.250000e+000
      vertex   -1.350000e+001 1.750000e+001 0.000000e+000
    endloop
  endfacet
  facet normal -9.989063e-001 0.000000e+000 -0.000000e+000
    outer loop
      vertex   -1.350000e+001 1.175000e+001 5.235787e+000
      vertex   -1.350000e+001 1.750000e+001 0.000000e+000
      vertex   -1.350000e+001 7.000000e+000 4.857869e-001
    endloop
  endfacet
  facet normal -9.989315e-001 0.000000e+000 0.000000e+000
    outer loop
      vertex   -1.350000e+001 7.000000e+000 4.857869e-001
      vertex   -1.350000e+001 1.750000e+001 0.000000e+000
      vertex   -1.350000e+001 7.000000e+000 0.000000e+000
    endloop
  endfacet
  facet normal 0.000000e+000 -1.000000e+000 0.000000e+000
    outer loop
      vertex   -1.350000e+001 1.175000e+001 5.235787e+000
      vertex   1.050000e+001 1.175000e+001 5.235787e+000
      vertex   -1.350000e+001 1.175000e+001 5.250000e+000
    endloop
  endfacet
  facet normal 0.000000e+000 -5.922118e-004 0.000000e+000
    outer loop
      vertex   -1.350000e+001 1.175000e+001 5.250000e+000
      vertex   1.050000e+001 1.175000e+001 5.235787e+000
      vertex   1.050000e+001 1.175000e+001 5.250000e+000
    endloop
  endfacet
  facet normal 0.000000e+000 1.000000e+000 0.000000e+000
    outer loop
      vertex   1.550000e+001 1.750000e+001 5.250000e+000
      vertex   1.550000e+001 1.750000e+001 0.000000e+000
      vertex   -1.350000e+001 1.750000e+001 5.250000e+000
    endloop
  endfacet
  facet normal 0.000000e+000 9.840053e-001 0.000000e+000
    outer loop
      vertex   -1.350000e+001 1.750000e+001 5.250000e+000
      vertex   1.550000e+001 1.750000e+001 0.000000e+000
      vertex   -1.350000e+001 1.750000e+001 0.000000e+000
    endloop
  endfacet
endsolid
