<?xml version="1.0" encoding="UTF-8" standalone="no"?>
<svg
   xmlns:dc="http://purl.org/dc/elements/1.1/"
   xmlns:cc="http://creativecommons.org/ns#"
   xmlns:rdf="http://www.w3.org/1999/02/22-rdf-syntax-ns#"
   xmlns:svg="http://www.w3.org/2000/svg"
   xmlns="http://www.w3.org/2000/svg"
   xmlns:sodipodi="http://sodipodi.sourceforge.net/DTD/sodipodi-0.dtd"
   xmlns:inkscape="http://www.inkscape.org/namespaces/inkscape"
   width="210mm"
   height="297mm"
   viewBox="0 0 210 297"
   version="1.1"
   id="svg8"
   inkscape:version="1.0.1 (3bc2e813f5, 2020-09-07)"
   sodipodi:docname="svartvitepipcb.svg">
  <defs
     id="defs2">
    <rect
       x="448.78278"
       y="284.08726"
       width="110.13074"
       height="20.274069"
       id="rect2266" />
    <rect
       x="309.01897"
       y="621.93165"
       width="74.511447"
       height="29.733784"
       id="rect4002" />
    <rect
       x="269.55091"
       y="371.6723"
       width="84.599695"
       height="35.043389"
       id="rect2935" />
    <rect
       x="249.90538"
       y="302.11649"
       width="115.3954"
       height="65.839094"
       id="rect2159" />
    <rect
       x="256.09992"
       y="404.06089"
       width="78.22817"
       height="12.920037"
       id="rect2138" />
    <rect
       x="294.24057"
       y="350.87635"
       width="18.406628"
       height="11.858116"
       id="rect2021" />
    <rect
       x="272.82389"
       y="334.27184"
       width="61.823396"
       height="20.649515"
       id="rect2015" />
    <rect
       x="10.51248"
       y="-108.87926"
       width="76.090332"
       height="24.153675"
       id="rect1785" />
    <rect
       x="276.80737"
       y="321.93901"
       width="69.208579"
       height="13.055606"
       id="rect1909" />
    <rect
       x="18.406628"
       y="-53.00755"
       width="56.281807"
       height="12.654557"
       id="rect1749" />
    <rect
       x="82.185379"
       y="135.10475"
       width="51.625901"
       height="15.630485"
       id="rect877" />
    <rect
       x="18.406628"
       y="-53.007549"
       width="56.281807"
       height="12.654557"
       id="rect1749-7" />
    <rect
       x="18.406628"
       y="-53.007549"
       width="56.281807"
       height="12.654557"
       id="rect1828" />
    <rect
       x="18.406628"
       y="-53.007549"
       width="56.281807"
       height="12.654557"
       id="rect1749-7-3" />
    <rect
       x="18.406628"
       y="-53.007549"
       width="56.281807"
       height="12.654557"
       id="rect2038" />
    <rect
       x="272.82388"
       y="334.27185"
       width="61.823395"
       height="20.649515"
       id="rect2015-1" />
    <rect
       x="272.82388"
       y="334.27185"
       width="61.823395"
       height="20.649515"
       id="rect3361" />
    <rect
       x="256.09991"
       y="404.06088"
       width="78.228172"
       height="12.920037"
       id="rect2138-9" />
    <rect
       x="256.09991"
       y="404.06088"
       width="78.228172"
       height="12.920037"
       id="rect3364" />
    <rect
       x="18.406628"
       y="-53.007549"
       width="72.564593"
       height="13.893465"
       id="rect1749-7-5" />
    <rect
       x="18.406628"
       y="-53.007549"
       width="56.281807"
       height="12.654557"
       id="rect2159-5" />
  </defs>
  <sodipodi:namedview
     id="base"
     pagecolor="#ffffff"
     bordercolor="#666666"
     borderopacity="1.0"
     inkscape:pageopacity="0.0"
     inkscape:pageshadow="2"
     inkscape:zoom="16.913231"
     inkscape:cx="415.19797"
     inkscape:cy="552.29574"
     inkscape:document-units="mm"
     inkscape:current-layer="layer2"
     inkscape:document-rotation="0"
     showgrid="false"
     inkscape:window-width="1920"
     inkscape:window-height="1057"
     inkscape:window-x="-8"
     inkscape:window-y="-4"
     inkscape:window-maximized="1" />
  <metadata
     id="metadata5">
    <rdf:RDF>
      <cc:Work
         rdf:about="">
        <dc:format>image/svg+xml</dc:format>
        <dc:type
           rdf:resource="http://purl.org/dc/dcmitype/StillImage" />
        <dc:title />
      </cc:Work>
    </rdf:RDF>
  </metadata>
  <g
     inkscape:label="Lager 1"
     inkscape:groupmode="layer"
     id="layer1"
     style="display:inline" />
  <g
     inkscape:groupmode="layer"
     id="layer6"
     inkscape:label="Lager 6"
     style="display:inline" />
  <g
     inkscape:groupmode="layer"
     id="layer2"
     inkscape:label="Lager 2"
     style="display:inline">
    <path
       id="path1472-0-3-0-6"
       style="fill:none;stroke:#000000;stroke-width:0.3;stroke-linecap:round;stroke-linejoin:round;stroke-miterlimit:4;stroke-dasharray:none;stroke-opacity:1"
       d="m 111.15806,143.23815 c 0.029,0.36563 0.0342,0.67782 0.01,1.22131 m 1.44381,-0.63512 c -0.44372,-0.3208 -0.88622,-0.64535 -1.45354,-0.58619 -0.18042,0.0188 -0.37346,0.0764 -0.58318,0.18532 m -1.27549,0.38872 c 0.31916,-0.36604 0.67894,-0.64146 1.27549,-0.38872 m 0.33608,-1.46983 c -0.2026,0.39937 -0.36836,0.83558 -0.33608,1.46983 m -1.27549,0.38872 c 0.33463,-0.71677 0.86784,-1.35305 1.61157,-1.85855 1.17874,0.58122 1.45554,1.29529 1.70064,1.8707 m -0.49681,3.33749 c -0.32052,-0.0161 -0.94923,-0.0717 -0.998,-0.55985 1.33485,-0.0294 1.62908,-1.47726 -0.14598,-2.18451 1.33003,0.71989 1.132,1.88254 -5e-5,1.98109 m 8e-5,0.77769 c 0.87512,0.0501 1.78624,1.12092 1.07083,1.3364 -0.27247,0.0379 -0.52817,0.0279 -0.68524,0.48361 -0.043,0.15686 0.025,0.19051 0.025,0.19051 m 0.98642,-0.007 c -0.26367,-0.0507 -0.78317,-0.0741 -0.98642,0.007 m 0.82021,-2.31367 c -0.0514,0.0917 -0.0846,0.18711 -0.0868,0.28872 -0.001,0.0525 0.006,0.10671 0.0232,0.16292 0.28219,0.48367 0.55477,1.14596 0.22988,1.8551 0.84347,0.25633 0.77696,1.13334 0.1592,2.031 -0.50914,0.65719 -1.02714,1.01988 -1.55642,0.98531 m 1.4e-4,-7.77869 c 0.0663,0.0105 0.13209,0.0245 0.19696,0.042 0.15623,0.042 0.30716,0.10384 0.44735,0.18294 0.35503,0.20031 0.64117,0.51154 0.76997,0.89386 0.13026,0.38665 0.0996,0.846 -0.18346,1.33685 m 3.4242,-2.08986 c -1.23632,-0.34964 -2.37676,-0.53159 -3.24074,0.75301 m 3.82033,5.68373 c -1.08313,-0.18776 -2.03751,-0.54181 -3.67838,-0.009 m 2.10017,-5.08375 c 1.05984,1.15727 2.21034,2.15023 1.57821,5.09289 -0.82249,-2.42852 -2.37069,-3.31929 -4.06746,-3.89524 m -0.52284,-2.68235 c 0.71008,-1.65115 4.03506,-0.67308 4.01071,0.14085 -0.16502,0.49133 -0.53876,0.96527 -0.99862,1.34385 -0.75751,0.62363 -1.74869,0.98849 -2.42558,0.74601 m -2.37491,0.28872 c 0.32052,-0.016 0.94923,-0.0717 0.998,-0.55985 -1.33485,-0.0294 -1.62909,-1.47727 0.14598,-2.18452 -1.33003,0.71989 -1.132,1.88254 5e-5,1.9811 m 8e-5,0.77767 c -0.87512,0.0501 -1.7864,1.12093 -1.07099,1.33642 0.27247,0.0379 0.63952,0.0157 0.75408,0.50182 0.049,0.17104 -0.0391,0.18785 -0.0391,0.18785 m -1.04117,-0.0225 c 0.26367,-0.0506 0.83792,-0.0585 1.04117,0.0225 m -0.87495,-2.32922 c 0.0514,0.0917 0.0846,0.1871 0.0868,0.28871 10e-4,0.0525 -0.006,0.10672 -0.0232,0.16292 -0.28219,0.48367 -0.55477,1.14596 -0.22988,1.85511 -0.84347,0.25633 -0.77695,1.13333 -0.1592,2.031 0.50915,0.65719 1.02687,1.01987 1.55616,0.9853 m 7e-5,-7.77869 c -0.22599,0.0357 -0.44591,0.113 -0.64431,0.22493 -0.35503,0.20031 -0.64117,0.51154 -0.76997,0.89386 -0.13026,0.38665 -0.0996,0.84601 0.18347,1.33686 m -3.42414,-2.08985 c 1.23633,-0.34964 2.37676,-0.53159 3.24074,0.75301 m -3.82032,5.68373 c 1.08312,-0.18775 2.0375,-0.54181 3.67837,-0.009 m -2.10017,-5.08376 c -1.05984,1.15726 -2.21034,2.15023 -1.5782,5.09288 0.82248,-2.42851 2.37068,-3.31928 4.06745,-3.89524 m 0.52284,-2.68234 c -0.71008,-1.65114 -4.03505,-0.67309 -4.01071,0.14085 0.16503,0.49132 0.53877,0.96527 0.99862,1.34385 0.75751,0.62363 1.7487,0.98849 2.42558,0.74601" />
    <path
       style="fill:none;stroke:#000000;stroke-width:0.3;stroke-linecap:butt;stroke-linejoin:miter;stroke-miterlimit:4;stroke-dasharray:none;stroke-opacity:1"
       d="m 110.82466,146.60197 0.29213,1e-5"
       id="path1313-7-1-1" />
  </g>
  <g
     inkscape:groupmode="layer"
     id="layer5"
     inkscape:label="Lager 5"
     style="display:inline" />
  <g
     inkscape:groupmode="layer"
     id="layer4"
     inkscape:label="Lager 4"
     style="display:inline" />
  <g
     inkscape:groupmode="layer"
     id="layer3"
     inkscape:label="Lager 3"
     style="display:inline" />
</svg>
