%TF.GenerationSoftware,KiCad,Pcbnew,7.0.2*%
%TF.CreationDate,2023-07-26T16:03:34+02:00*%
%TF.ProjectId,epi,6570692e-6b69-4636-9164-5f7063625858,1_2_0*%
%TF.SameCoordinates,Original*%
%TF.FileFunction,Legend,Bot*%
%TF.FilePolarity,Positive*%
%FSLAX46Y46*%
G04 Gerber Fmt 4.6, Leading zero omitted, Abs format (unit mm)*
G04 Created by KiCad (PCBNEW 7.0.2) date 2023-07-26 16:03:34*
%MOMM*%
%LPD*%
G01*
G04 APERTURE LIST*
%ADD10C,0.180000*%
%ADD11C,0.160000*%
%ADD12C,0.210000*%
%ADD13C,0.200000*%
G04 APERTURE END LIST*
D10*
X103943087Y-64109203D02*
X103877506Y-64095833D01*
X104890958Y-64326426D02*
X104886442Y-64336999D01*
X103302677Y-65589440D02*
X103317877Y-65629065D01*
X103870472Y-65660467D02*
X103904484Y-65666583D01*
X103567335Y-63108429D02*
X103535336Y-63140361D01*
X104295933Y-62264942D02*
X104298987Y-62346034D01*
X103014052Y-65911171D02*
X102998023Y-65944865D01*
X107221440Y-64963363D02*
X107258291Y-65050554D01*
X103741227Y-63818822D02*
X103774634Y-63850176D01*
X103059737Y-66833705D02*
X103239627Y-66887564D01*
X103959345Y-62203047D02*
X103935868Y-62214941D01*
X104398200Y-65636147D02*
X104400179Y-65644197D01*
X102961057Y-66217823D02*
X102966050Y-66261326D01*
X104970472Y-65092853D02*
X104967973Y-65121721D01*
X104579235Y-65644260D02*
X104541469Y-65647461D01*
X106555983Y-62928568D02*
X106422595Y-62904527D01*
X107421334Y-65888928D02*
X107422156Y-66014815D01*
X101207791Y-64798262D02*
X101165197Y-64879408D01*
X103902724Y-62201645D02*
X103935868Y-62214941D01*
X103206996Y-65721647D02*
X103170505Y-65743297D01*
X105028467Y-64014922D02*
X105011777Y-64067782D01*
X104028405Y-62171584D02*
X104005610Y-62181379D01*
X104403715Y-64109084D02*
X104469297Y-64095714D01*
X104994154Y-64792219D02*
X105020040Y-64856758D01*
X103032885Y-65879000D02*
X103014052Y-65911171D01*
X101401733Y-64498096D02*
X101350124Y-64569940D01*
X103445920Y-64305570D02*
X103451027Y-64316024D01*
X103239591Y-66887472D02*
X103296931Y-66959321D01*
X103506256Y-63854894D02*
X103480720Y-63811587D01*
X101380356Y-63030923D02*
X101518742Y-62992958D01*
X103906606Y-65402758D02*
X103918634Y-65418458D01*
X103399592Y-63319044D02*
X103377837Y-63358340D01*
X103959108Y-61831851D02*
X103949571Y-61890036D01*
X101032607Y-66892965D02*
X101513171Y-66799643D01*
X104866081Y-63811469D02*
X104886602Y-63766022D01*
X104877079Y-67149014D02*
X104819219Y-67203394D01*
X103635559Y-63048648D02*
X103600768Y-63077846D01*
X106839187Y-63302804D02*
X106806113Y-63355694D01*
X104173442Y-62811343D02*
X104188345Y-62813804D01*
X101032607Y-66893039D02*
X101080136Y-66759116D01*
X103335112Y-65668869D02*
X103289260Y-65684367D01*
X103274382Y-64322814D02*
X103315952Y-64316412D01*
X104895775Y-64315914D02*
X104890958Y-64326426D01*
X103570177Y-65646975D02*
X103661095Y-65646000D01*
X101753218Y-65604341D02*
X101901345Y-65448942D01*
X103942110Y-61950297D02*
X103936868Y-62012777D01*
X104068824Y-64197895D02*
X104076355Y-64174101D01*
X105440216Y-63057369D02*
X105384886Y-63094978D01*
X104285778Y-62103750D02*
X104285778Y-62103750D01*
X104864198Y-64412902D02*
X104862494Y-64424042D01*
X103978889Y-65669666D02*
X103975025Y-65673760D01*
X106920525Y-62892347D02*
X106946518Y-62938602D01*
X104287257Y-64220176D02*
X104277979Y-64197774D01*
X104905354Y-64611356D02*
X104936295Y-64669402D01*
X104761223Y-67253180D02*
X104703090Y-67298283D01*
X105728665Y-62926683D02*
X105669467Y-62945648D01*
X103318307Y-64015018D02*
X103334997Y-64067877D01*
X104860311Y-64481777D02*
X104861260Y-64493836D01*
X103964535Y-65680756D02*
X103962064Y-65681730D01*
X103396260Y-64297508D02*
X103434877Y-64284930D01*
X103289449Y-65550008D02*
X103302677Y-65589440D01*
X103404756Y-64229837D02*
X103434841Y-64284829D01*
X104173424Y-62811343D02*
X104173424Y-62811343D01*
X103811846Y-63879114D02*
X103852799Y-63905470D01*
X104605575Y-63818712D02*
X104572169Y-63850066D01*
X104442811Y-65468581D02*
X104432818Y-65488832D01*
X104510676Y-64562477D02*
X104555706Y-64586404D01*
X104871610Y-64379945D02*
X104868767Y-64390855D01*
X104859843Y-64469817D02*
X104860311Y-64481777D01*
X104880349Y-63407887D02*
X104856685Y-63353857D01*
X107322248Y-65235278D02*
X107348942Y-65333277D01*
X102915762Y-64305898D02*
X103008916Y-64320947D01*
X105373313Y-66305663D02*
X105363459Y-66350960D01*
X104968635Y-64175229D02*
X104942022Y-64229744D01*
X104906268Y-64295063D02*
X104900883Y-64305460D01*
X104474620Y-65416070D02*
X104463722Y-65432256D01*
X104859813Y-64457956D02*
X104780070Y-64452762D01*
X103376341Y-65092952D02*
X103378837Y-65121821D01*
X106828075Y-62992857D02*
X106691196Y-62958392D01*
X105011690Y-65668768D02*
X105011690Y-65668768D01*
X105337900Y-64320855D02*
X105246757Y-64328895D01*
X104399203Y-65583186D02*
X104398029Y-65590554D01*
X104235417Y-63992613D02*
X104173392Y-64000000D01*
X102966375Y-66054424D02*
X102961173Y-66093549D01*
X103762722Y-63037974D02*
X103830982Y-62988886D01*
X101252947Y-64719791D02*
X101207791Y-64798262D01*
X105410212Y-62415897D02*
X105512517Y-62409012D01*
X104574641Y-61606991D02*
X104657950Y-61678359D01*
X106945079Y-64498000D02*
X106996688Y-64569844D01*
X103137056Y-65766864D02*
X103106608Y-65792284D01*
X104641604Y-64030903D02*
X104690517Y-64001855D01*
X105061668Y-63664409D02*
X105065322Y-63712139D01*
X105385750Y-66217726D02*
X105380757Y-66261230D01*
X103977486Y-64504489D02*
X103929545Y-64521360D01*
X104870815Y-63208043D02*
X104898041Y-63243815D01*
X104530880Y-64078069D02*
X104588354Y-64056386D01*
X104992403Y-67026837D02*
X104934807Y-67090132D01*
X103490808Y-62192329D02*
X103514051Y-62183541D01*
X103831970Y-62922201D02*
X103809211Y-62934055D01*
X102341558Y-64085573D02*
X102436669Y-64136242D01*
X104024926Y-67471155D02*
X104054519Y-67475380D01*
X104396839Y-65626836D02*
X104398200Y-65636147D01*
X106869864Y-63249326D02*
X106839187Y-63302804D01*
X103950839Y-65473908D02*
X103960155Y-65495382D01*
X104950552Y-64297417D02*
X104911934Y-64284839D01*
X101476951Y-63249414D02*
X101507629Y-63302891D01*
X103758449Y-64056505D02*
X103705199Y-64031021D01*
X103774634Y-63850176D02*
X103811846Y-63879114D01*
X103436767Y-63515100D02*
X103448707Y-63461792D01*
X101623504Y-64225849D02*
X101509963Y-64359412D01*
X102155897Y-63969950D02*
X102247807Y-64030040D01*
X105814156Y-64181648D02*
X105717771Y-64221669D01*
X104410061Y-62100778D02*
X104379600Y-62099646D01*
X104774882Y-63934019D02*
X104810108Y-63895705D01*
X104604458Y-62858095D02*
X104657425Y-62778725D01*
X104860304Y-64446566D02*
X104859841Y-64457956D01*
X106066799Y-66718982D02*
X105924429Y-66724369D01*
X107348942Y-65333277D02*
X107371838Y-65435343D01*
X104916948Y-63619210D02*
X104916281Y-63567574D01*
X103990380Y-64312960D02*
X104006925Y-64296864D01*
X104224071Y-62112600D02*
X104203131Y-62116692D01*
X103882391Y-64540789D02*
X103836206Y-64562569D01*
X104404792Y-65558621D02*
X104404792Y-65558621D01*
X105223976Y-63233317D02*
X105172098Y-63288410D01*
X102677350Y-62945748D02*
X102735813Y-62968157D01*
X104322591Y-61433090D02*
X104378387Y-61467234D01*
X104269653Y-62852388D02*
X104173424Y-62811343D01*
X104886442Y-64336999D02*
X104882237Y-64347636D01*
X105057542Y-65684267D02*
X105100235Y-65701882D01*
X103423249Y-63280888D02*
X103399592Y-63319044D01*
X103792615Y-65318261D02*
X103808235Y-65325410D01*
X106723308Y-64225752D02*
X106836849Y-64359315D01*
X103106608Y-65792284D02*
X103079124Y-65819491D01*
X104961034Y-65149025D02*
X104949472Y-65174558D01*
X104866292Y-64401840D02*
X104864198Y-64412902D01*
X107408498Y-66283204D02*
X107393606Y-66426171D01*
X104173424Y-62811343D02*
X104245563Y-62852588D01*
X104936295Y-64669402D02*
X104966067Y-64729728D01*
X104396251Y-65616186D02*
X104396438Y-65621683D01*
X103760578Y-65306264D02*
X103792615Y-65318261D01*
X106898037Y-63195330D02*
X106869864Y-63249326D01*
X106422595Y-62904527D02*
X106291190Y-62887410D01*
X107346668Y-66730810D02*
X107314209Y-66892947D01*
X101300460Y-64643761D02*
X101252947Y-64719791D01*
X103555652Y-63246132D02*
X103597750Y-63192796D01*
X102731656Y-64861961D02*
X102912102Y-64775043D01*
X104380808Y-67458598D02*
X104351288Y-67465492D01*
X103010131Y-66443977D02*
X103026982Y-66491470D01*
X103335112Y-65668869D02*
X103335112Y-65668869D01*
X103865099Y-63029931D02*
X103818841Y-63076475D01*
X104864662Y-64518262D02*
X104867147Y-64530634D01*
X104292134Y-67475282D02*
X104262499Y-67478156D01*
X104348741Y-62099736D02*
X104317472Y-62101090D01*
X102961173Y-66093549D02*
X102958579Y-66133869D01*
X103378102Y-65062725D02*
X103376341Y-65092952D01*
X103255573Y-65133184D02*
X103248446Y-65206228D01*
X105788576Y-62911019D02*
X105728665Y-62926683D01*
X106693592Y-63510157D02*
X106652011Y-63560013D01*
X106131349Y-62473740D02*
X106323803Y-62528345D01*
X103054562Y-65848418D02*
X103032885Y-65879000D01*
X103356599Y-64307990D02*
X103396260Y-64297508D01*
X104181999Y-62121375D02*
X104160671Y-62126657D01*
X103972675Y-64327924D02*
X103990380Y-64312960D01*
X105910461Y-62889022D02*
X105849181Y-62898513D01*
X101353836Y-66165890D02*
X101415342Y-66061582D01*
X105049871Y-66959220D02*
X104992403Y-67026837D01*
X102973493Y-66305760D02*
X102983348Y-66351056D01*
X100931129Y-65768365D02*
X100925480Y-65889023D01*
X105052483Y-63911112D02*
X105042008Y-63962687D01*
X104022810Y-62845853D02*
X103998229Y-62853543D01*
X104990215Y-64307898D02*
X104950552Y-64297417D01*
X104689235Y-64442583D02*
X104641610Y-64434760D01*
X103929545Y-64521360D02*
X103882391Y-64540789D01*
X103560460Y-62645659D02*
X103485811Y-62591258D01*
X101612252Y-65774915D02*
X101753218Y-65604341D01*
X100924658Y-66014910D02*
X100928868Y-66146258D01*
X104746002Y-63077754D02*
X104779436Y-63108337D01*
X103471992Y-64369215D02*
X103475193Y-64380053D01*
X104660710Y-63749415D02*
X104635111Y-63785106D01*
X107422156Y-66014815D02*
X107417946Y-66146163D01*
X105011777Y-64067782D02*
X104991860Y-64121230D01*
X103455845Y-64326536D02*
X103460361Y-64337109D01*
X107046352Y-64643664D02*
X107093865Y-64719694D01*
X103393930Y-62060060D02*
X103447094Y-61986319D01*
X105028926Y-65628964D02*
X105011690Y-65668768D01*
X105496358Y-63023774D02*
X105440216Y-63057369D01*
X103473041Y-64555807D02*
X103473041Y-64555807D01*
X104779436Y-63108337D02*
X104811434Y-63140269D01*
X104005610Y-62181379D02*
X103982591Y-62191863D01*
X103444805Y-63718790D02*
X103434652Y-63669773D01*
X101507629Y-63302891D02*
X101540703Y-63355782D01*
D11*
X99042268Y-62767000D02*
X99542268Y-62767000D01*
D10*
X104585260Y-62130829D02*
X104528209Y-62116664D01*
X104300583Y-62430127D02*
X104300684Y-62519221D01*
X101518742Y-62992958D02*
X101655621Y-62958493D01*
X104645629Y-63088366D02*
X104584079Y-63037861D01*
X103877540Y-67430151D02*
X103906941Y-67440964D01*
X104047559Y-62838712D02*
X104022810Y-62845853D01*
X101544613Y-65866229D02*
X101612252Y-65774915D01*
X104270447Y-64173981D02*
X104264759Y-64148754D01*
X102436669Y-64136242D02*
X102532658Y-64181740D01*
X104867147Y-64530634D02*
X104870175Y-64543115D01*
X103936380Y-67450483D02*
X103965857Y-67458695D01*
X104433232Y-64366320D02*
X104412630Y-64354495D01*
X106806113Y-63355694D02*
X106770751Y-63407929D01*
X104291619Y-62836548D02*
X104291619Y-62836548D01*
X105620760Y-66759597D02*
X105458028Y-66791290D01*
X103435049Y-65219594D02*
X103461572Y-65238581D01*
X104953159Y-64998924D02*
X104962883Y-65031248D01*
X104555706Y-64586404D02*
X104599402Y-64612269D01*
X103144244Y-66736613D02*
X103174023Y-66786717D01*
X104933106Y-65198115D02*
X104911752Y-65219489D01*
X104432818Y-65488832D02*
X104423144Y-65510552D01*
X104015188Y-61617042D02*
X103998761Y-61668338D01*
X103597750Y-63192796D02*
X103646219Y-63140167D01*
X102966050Y-66261326D02*
X102973493Y-66305760D01*
X102436357Y-62889123D02*
X102497637Y-62898614D01*
X103897427Y-63929078D02*
X103945665Y-63949773D01*
X105431054Y-64305806D02*
X105337900Y-64320855D01*
X103906941Y-67440964D02*
X103936380Y-67450483D01*
X103930040Y-65435508D02*
X103940788Y-65453970D01*
X105910144Y-64136150D02*
X105814156Y-64181648D01*
X103480510Y-64401947D02*
X103482605Y-64413008D01*
X103514051Y-62183541D02*
X103537804Y-62175889D01*
X102961931Y-63095078D02*
X103016427Y-63136844D01*
X102280015Y-66719085D02*
X102422384Y-66724471D01*
X104520963Y-65363185D02*
X104508983Y-65374740D01*
X104791466Y-64763479D02*
X104823318Y-64796654D01*
X103448707Y-63461792D02*
X103466452Y-63408004D01*
X103036922Y-62428742D02*
X102936601Y-62415990D01*
X104076355Y-64174101D02*
X104082043Y-64148873D01*
X102888784Y-66791391D02*
X103059737Y-66833705D01*
X103070070Y-63182910D02*
X103122841Y-63233418D01*
X106923599Y-63140883D02*
X106898037Y-63195330D01*
X103243757Y-62368874D02*
X103281637Y-62332097D01*
X106563383Y-63656868D02*
X106516552Y-63703730D01*
X106005255Y-64085482D02*
X105910144Y-64136150D01*
X101088521Y-65050650D02*
X101054850Y-65141210D01*
X101979528Y-63837320D02*
X101979528Y-63837320D01*
X103451027Y-64316024D02*
X103455845Y-64326536D01*
X103239591Y-66887472D02*
X103239591Y-66887472D01*
X104203112Y-67479804D02*
X104173360Y-67478555D01*
X103484097Y-64506101D02*
X103482140Y-64518367D01*
X104469297Y-64095714D02*
X104530880Y-64078069D01*
X101540703Y-63355782D02*
X101576065Y-63408017D01*
X104998526Y-62112390D02*
X105035882Y-62183472D01*
D11*
X108997030Y-60220000D02*
X108997030Y-59720000D01*
D10*
X103268648Y-65471784D02*
X103278127Y-65510785D01*
X104396438Y-65621683D02*
X104396839Y-65626836D01*
X103343611Y-62135153D02*
X103393930Y-62060060D01*
X107371838Y-65435343D02*
X107390731Y-65541709D01*
X102912102Y-64775043D02*
X103096159Y-64695776D01*
X105006429Y-63440120D02*
X105022013Y-63482626D01*
X104052003Y-61518414D02*
X104032982Y-61567115D01*
X103618815Y-63500855D02*
X103619426Y-63545582D01*
X104571271Y-65326565D02*
X104558354Y-65334393D01*
X103753249Y-64424797D02*
X103800955Y-64412062D01*
X103689387Y-62778817D02*
X103628537Y-62708077D01*
X104122669Y-62820639D02*
X104097502Y-62826099D01*
X103429853Y-63619328D02*
X103430520Y-63567691D01*
X103460199Y-63766140D02*
X103444805Y-63718790D01*
X103968698Y-65518456D02*
X103976429Y-65543192D01*
X102023010Y-62528435D02*
X101846204Y-62595461D01*
X103326763Y-64856858D02*
X103303596Y-64923330D01*
X104584079Y-63037861D02*
X104515820Y-62988773D01*
X105525739Y-64284054D02*
X105431054Y-64305806D01*
X103934172Y-64354628D02*
X103953906Y-64341799D01*
X105055430Y-63617556D02*
X105061668Y-63664409D01*
X103304764Y-63962782D02*
X103318307Y-64015018D01*
X103460361Y-64337109D02*
X103464565Y-64347745D01*
X104082043Y-64148873D02*
X104085790Y-64122168D01*
X105332753Y-65911072D02*
X105348781Y-65944766D01*
X103892198Y-64377323D02*
X103913570Y-64366455D01*
X104430401Y-62984006D02*
X104481704Y-63029821D01*
X104440138Y-62103088D02*
X104410061Y-62100778D01*
X102215465Y-62473831D02*
X102023010Y-62528435D01*
X103170574Y-62448172D02*
X103209618Y-62368109D01*
X102055628Y-62887511D02*
X102184891Y-62878460D01*
X103484309Y-64424147D02*
X103485610Y-64435366D01*
X107216661Y-66630373D02*
X107164219Y-66506858D01*
X104334250Y-64117941D02*
X104403715Y-64109084D01*
X107417946Y-66146163D02*
X107408498Y-66283204D01*
D11*
X99542268Y-61467000D02*
X99542268Y-60967000D01*
D10*
X104463722Y-65432256D02*
X104453115Y-65449741D01*
X107164219Y-66506858D02*
X107109415Y-66388348D01*
X103246622Y-65280626D02*
X103247860Y-65318297D01*
X105720464Y-62411619D02*
X105928488Y-62434013D01*
X103473041Y-64555807D02*
X103441449Y-64611457D01*
X101655621Y-62958493D02*
X101790835Y-62928669D01*
X101979528Y-63837311D02*
X101740710Y-64095550D01*
X104815937Y-65268454D02*
X104755199Y-65276236D01*
X104941566Y-62544470D02*
X105027393Y-62505179D01*
X104968934Y-63358249D02*
X104988710Y-63398650D01*
X104857779Y-61895558D02*
X104910240Y-61968195D01*
X104644818Y-67338612D02*
X104586404Y-67374077D01*
X104560028Y-62946402D02*
X104604458Y-62858095D01*
X104735648Y-64448468D02*
X104689235Y-64442583D01*
X103503113Y-61913976D02*
X103561999Y-61843073D01*
X104392896Y-64341667D02*
X104374128Y-64327794D01*
X103096159Y-64695776D02*
X103283320Y-64623087D01*
X103970580Y-61775601D02*
X103959108Y-61831851D01*
X103445763Y-62213119D02*
X103468052Y-62202204D01*
X104885227Y-65238474D02*
X104853350Y-65254864D01*
X103630838Y-63408786D02*
X103622598Y-63455201D01*
X106280502Y-63905516D02*
X106190915Y-63969858D01*
X103402411Y-65658730D02*
X103482352Y-65651327D01*
X106323803Y-62528345D02*
X106500610Y-62595372D01*
X103008916Y-64320947D02*
X103100058Y-64328987D01*
X104815937Y-65268454D02*
X104815937Y-65268454D01*
X104588354Y-64056386D02*
X104641604Y-64030903D01*
X105240195Y-65792185D02*
X105267680Y-65819391D01*
X105300721Y-66539465D02*
X105279403Y-66588091D01*
X103285103Y-63664501D02*
X103281449Y-63712232D01*
X103628537Y-62708077D02*
X103560460Y-62645659D01*
X104675141Y-63020778D02*
X104711211Y-63048556D01*
D11*
X109497030Y-60220000D02*
X108997030Y-60220000D01*
D10*
X101426288Y-62892437D02*
X101400294Y-62938692D01*
X103633566Y-63631595D02*
X103646965Y-63672549D01*
X104586404Y-67374077D02*
X104527846Y-67404588D01*
X101653225Y-63510245D02*
X101694806Y-63560102D01*
X106996688Y-64569844D02*
X107046352Y-64643664D01*
X105085857Y-65432920D02*
X105078155Y-65471683D01*
X104956901Y-62040551D02*
X104998526Y-62112390D01*
X103324758Y-63482718D02*
X103311249Y-63526720D01*
X101740710Y-64095550D02*
X101623504Y-64225849D01*
X105319824Y-66491373D02*
X105300721Y-66539465D01*
X103291341Y-63617648D02*
X103285103Y-63664501D01*
X104641110Y-62148686D02*
X104585260Y-62130829D01*
X105022013Y-63482626D02*
X105022013Y-63482626D01*
X103026982Y-66491470D02*
X103046086Y-66539562D01*
X102558242Y-62911120D02*
X102618153Y-62926784D01*
X106770751Y-63407929D02*
X106733208Y-63459439D01*
X103987473Y-65654436D02*
X103985978Y-65658114D01*
X103527549Y-67203492D02*
X103585531Y-67253278D01*
X105035882Y-62183472D02*
X105069732Y-62253558D01*
X104572169Y-63850066D02*
X104534956Y-63879004D01*
X104725363Y-65280245D02*
X104695980Y-65284935D01*
X103434652Y-63669773D02*
X103429853Y-63619328D01*
X103750314Y-65648726D02*
X103792788Y-65651579D01*
X103990898Y-65641268D02*
X103989958Y-65646028D01*
X103523533Y-64796747D02*
X103494289Y-64830420D01*
X103090895Y-66637283D02*
X103116522Y-66686780D01*
X104244824Y-62109086D02*
X104224071Y-62112600D01*
X104584400Y-65319529D02*
X104571271Y-65326565D01*
X104173456Y-64466708D02*
X104124197Y-64471286D01*
X103467842Y-64864383D02*
X103444373Y-64898430D01*
X103933986Y-62077616D02*
X103933605Y-62144957D01*
X106839767Y-62801175D02*
X106884723Y-62846436D01*
X104160671Y-62126657D02*
X104139145Y-62132552D01*
X103378837Y-65121821D02*
X103385773Y-65149126D01*
X104453115Y-65449741D02*
X104442811Y-65468581D01*
X103447094Y-61986319D02*
X103503113Y-61913976D01*
X102217056Y-65179372D02*
X102383626Y-65063050D01*
X104637112Y-63218716D02*
X104663839Y-63266520D01*
X103985978Y-65658114D02*
X103984348Y-65661460D01*
X103555389Y-64763572D02*
X103523533Y-64796747D01*
X104900883Y-64305460D02*
X104895775Y-64315914D01*
X103486959Y-64469919D02*
X103486491Y-64481879D01*
X104718275Y-62707984D02*
X104786352Y-62645566D01*
X107291962Y-65141114D02*
X107322248Y-65235278D01*
X104841920Y-63173517D02*
X104870815Y-63208043D01*
X102066310Y-63905607D02*
X102155897Y-63969950D01*
X103833041Y-65655479D02*
X103870472Y-65660467D01*
X105434710Y-64774948D02*
X105250652Y-64695682D01*
X104494004Y-63905360D02*
X104449376Y-63928968D01*
D11*
X108697030Y-59920000D02*
X108697030Y-60520000D01*
D10*
X104667120Y-65290757D02*
X104638855Y-65298162D01*
X103626210Y-64699536D02*
X103589676Y-64731099D01*
X104854710Y-62250237D02*
X104802558Y-62221013D01*
X104264759Y-64148754D02*
X104261013Y-64122049D01*
X103486491Y-64481879D02*
X103485543Y-64493939D01*
X103755956Y-61639456D02*
X103826411Y-61574760D01*
X103913570Y-64366455D02*
X103934172Y-64354628D01*
X104398029Y-65590554D02*
X104397166Y-65597528D01*
X103638337Y-62157601D02*
X103664958Y-62156350D01*
X103300083Y-63571709D02*
X103291341Y-63617648D01*
X100925480Y-65889023D02*
X100924658Y-66014910D01*
X103688410Y-61705769D02*
X103755956Y-61639456D01*
X104402617Y-65651066D02*
X104405358Y-65656832D01*
X101613609Y-63459527D02*
X101653225Y-63510245D01*
X103504851Y-63173608D02*
X103475956Y-63208135D01*
X103566733Y-64452897D02*
X103611154Y-64448608D01*
X106833647Y-66799539D02*
X106712657Y-66777303D01*
X106734561Y-65774822D02*
X106593595Y-65604247D01*
X102834295Y-62409105D02*
X102730660Y-62407781D01*
X104533191Y-65352646D02*
X104520963Y-65363185D01*
X103475193Y-64380053D02*
X103478036Y-64390963D01*
X105512517Y-62409012D02*
X105616153Y-62407689D01*
X104397166Y-65597528D02*
X104396596Y-65604118D01*
X103315952Y-64316412D02*
X103356599Y-64307990D01*
X104882237Y-64347636D02*
X104878356Y-64358337D01*
X106161927Y-62878359D02*
X106034964Y-62878516D01*
X106946518Y-62938602D02*
X106962047Y-62984893D01*
X105246757Y-64328895D02*
X105158108Y-64329620D01*
X103975025Y-65673760D02*
X103971213Y-65676892D01*
X101032607Y-66893039D02*
X101032607Y-66893039D01*
X106802200Y-65866136D02*
X106734561Y-65774822D01*
X104416197Y-65670441D02*
X104418090Y-65671873D01*
X103311249Y-63526720D02*
X103300083Y-63571709D01*
X104173378Y-62811453D02*
X104101239Y-62852698D01*
X105068675Y-65510684D02*
X105057354Y-65549907D01*
X104137517Y-61333041D02*
X104202252Y-61365963D01*
X103046086Y-66539562D02*
X103067403Y-66588189D01*
X103188708Y-64329711D02*
X103274382Y-64322814D01*
X103444373Y-64898430D02*
X103424066Y-64932357D01*
X104819219Y-67203394D02*
X104761223Y-67253180D01*
X104685847Y-63314225D02*
X104703200Y-63361665D01*
X104361274Y-62857657D02*
X104395559Y-62869839D01*
X103485811Y-62591258D02*
X103405246Y-62544564D01*
X104410290Y-67450386D02*
X104380808Y-67458598D01*
X104113823Y-67479766D02*
X104143535Y-67479903D01*
X104527962Y-63076366D02*
X104569239Y-63123473D01*
X104294093Y-63981651D02*
X104235417Y-63992613D01*
X107314209Y-66892947D02*
X107266679Y-66759024D01*
X105099963Y-65243165D02*
X105100180Y-65280526D01*
X104464494Y-64540697D02*
X104510676Y-64562477D01*
X104378387Y-61467234D02*
X104431394Y-61501726D01*
X103393665Y-64999020D02*
X103383938Y-65031346D01*
X105011644Y-65668722D02*
X104945793Y-65658172D01*
X104055326Y-61390823D02*
X104137517Y-61333041D01*
X102143000Y-66720617D02*
X102280015Y-66719085D01*
X103818850Y-67404685D02*
X103877540Y-67430151D01*
X103988082Y-62895911D02*
X104077149Y-62852499D01*
X104262327Y-62829065D02*
X104276997Y-62832708D01*
X103358061Y-63398741D02*
X103340342Y-63440212D01*
X104059546Y-64220298D02*
X104068824Y-64197895D01*
X105172098Y-63288410D02*
X105121132Y-63348231D01*
X104703090Y-67298283D02*
X104644818Y-67338612D01*
X103742354Y-62858187D02*
X103689387Y-62778817D01*
X103225684Y-63348332D02*
X103275718Y-63413023D01*
X104939726Y-64965859D02*
X104953159Y-64998924D01*
X103283664Y-64991619D02*
X103267484Y-65061609D01*
X103808235Y-65325410D02*
X103823540Y-65333409D01*
X103493449Y-65254973D02*
X103530861Y-65268564D01*
X101846204Y-62595461D02*
X101690287Y-62672455D01*
X105066310Y-63760710D02*
X105064554Y-63810087D01*
X104560028Y-62946310D02*
X104560028Y-62946310D01*
X103899783Y-61511727D02*
X103976085Y-61450399D01*
X103852799Y-63905470D02*
X103897427Y-63929078D01*
X103949571Y-61890036D02*
X103942110Y-61950297D01*
X104173378Y-62811453D02*
X104173378Y-62811453D01*
X103116522Y-66686780D02*
X103144244Y-66736613D01*
X101621800Y-62713922D02*
X101560502Y-62756961D01*
X104906214Y-62281453D02*
X104854710Y-62250237D01*
X104317472Y-62101090D02*
X104285778Y-62103750D01*
X106606102Y-64095452D02*
X106723308Y-64225752D01*
X103378141Y-64175323D02*
X103404756Y-64229837D01*
X105107212Y-66887372D02*
X105049871Y-66959220D01*
X105063139Y-64991518D02*
X105079318Y-65061508D01*
X105928488Y-62434013D02*
X106131349Y-62473740D01*
X106966455Y-63030914D02*
X106966455Y-63030914D01*
X103960155Y-65495382D02*
X103968698Y-65518456D01*
X104798754Y-61822881D02*
X104857779Y-61895558D01*
X104695980Y-65284935D02*
X104667120Y-65290757D01*
X104326615Y-62846554D02*
X104361274Y-62857657D01*
X104469847Y-62106534D02*
X104440138Y-62103088D01*
X104232825Y-67479667D02*
X104203112Y-67479804D01*
X105388253Y-66175218D02*
X105385750Y-66217726D01*
X103440535Y-64295173D02*
X103445920Y-64305570D01*
X103992063Y-65618162D02*
X103992210Y-65624578D01*
X103686093Y-63749525D02*
X103711692Y-63785216D01*
X104597732Y-65313226D02*
X104584400Y-65319529D01*
X104898094Y-63461675D02*
X104880349Y-63407887D01*
X103988808Y-65650413D02*
X103987473Y-65654436D01*
X103562087Y-62169421D02*
X103586923Y-62164185D01*
X105615156Y-64861865D02*
X105434710Y-64774948D01*
X104599472Y-62969620D02*
X104637868Y-62994454D01*
X106418395Y-63793978D02*
X106367284Y-63837228D01*
X102958553Y-66175315D02*
X102961057Y-66217823D01*
X105717771Y-64221669D02*
X105621471Y-64255907D01*
X103478036Y-64390963D02*
X103480510Y-64401947D01*
X103622598Y-63455201D02*
X103618815Y-63500855D01*
X103997447Y-63967389D02*
X104052709Y-63981761D01*
X103998229Y-62853543D02*
X103973828Y-62861774D01*
X104401138Y-63949663D02*
X104349355Y-63967279D01*
X104469142Y-67430054D02*
X104439735Y-67440868D01*
X104085790Y-64122168D02*
X104085790Y-64122168D01*
X102906601Y-63057469D02*
X102961931Y-63095078D01*
X103206794Y-62407693D02*
X103243757Y-62368874D01*
X105362044Y-65979917D02*
X105372581Y-66016459D01*
X103254957Y-65394509D02*
X103260946Y-65433021D01*
X104861192Y-64435263D02*
X104860304Y-64446566D01*
X104262499Y-67478156D02*
X104232825Y-67479667D01*
X105209747Y-65766764D02*
X105240195Y-65792185D01*
X103985830Y-65579005D02*
X103987892Y-65587830D01*
X101462090Y-62846525D02*
X101426288Y-62892437D01*
X104485803Y-65401127D02*
X104474620Y-65416070D01*
X103624365Y-63589217D02*
X103633566Y-63631595D01*
X105100842Y-62322411D02*
X105157900Y-62455459D01*
X103411983Y-67090232D02*
X103469700Y-67149114D01*
X105287075Y-66833604D02*
X105107184Y-66887463D01*
X103809211Y-62934055D02*
X103786742Y-62946402D01*
D11*
X99542268Y-62767000D02*
X99542268Y-62267000D01*
D10*
X104396596Y-65604118D02*
X104396297Y-65610334D01*
X104528209Y-62116664D02*
X104499199Y-62111074D01*
X104497260Y-65387369D02*
X104485803Y-65401127D01*
X103464565Y-64347745D02*
X103468446Y-64358446D01*
X104440738Y-62941340D02*
X104358720Y-62895799D01*
X105043207Y-64923229D02*
X105063139Y-64991518D01*
X103530861Y-65268564D02*
X103530861Y-65268564D01*
X103786783Y-62946493D02*
X103742354Y-62858187D01*
X104405358Y-65656832D02*
X104408244Y-65661574D01*
D11*
X108997030Y-60220000D02*
X108997030Y-60720000D01*
D10*
X103385773Y-65149126D02*
X103397332Y-65174660D01*
X103430520Y-63567691D02*
X103436767Y-63515100D01*
X104084151Y-67478254D02*
X104113823Y-67479766D01*
X104947179Y-63318953D02*
X104968934Y-63358249D01*
X105616153Y-62407689D02*
X105720464Y-62411619D01*
X103962064Y-65681730D02*
X103959850Y-65682364D01*
X103246568Y-65701982D02*
X103206996Y-65721647D01*
X104296239Y-62720425D02*
X104291614Y-62836538D01*
X105669467Y-62945648D02*
X105611004Y-62968056D01*
X101423215Y-63140972D02*
X101448777Y-63195418D01*
X101924223Y-62904627D02*
X102055628Y-62887511D01*
X104032982Y-61567115D02*
X104015188Y-61617042D01*
X105230283Y-66686682D02*
X105202560Y-66736515D01*
X100928868Y-66146258D02*
X100938317Y-66283299D01*
X103990744Y-65603960D02*
X103991583Y-65611294D01*
X102730660Y-62407781D02*
X102626349Y-62411711D01*
X105044125Y-65589339D02*
X105028926Y-65628964D01*
X104942022Y-64229744D02*
X104911939Y-64284738D01*
X104400179Y-65644197D02*
X104402617Y-65651066D01*
X106962047Y-62984893D02*
X106966455Y-63030914D01*
X104657950Y-61678359D02*
X104732399Y-61750402D01*
X103476628Y-64543218D02*
X103474905Y-64549499D01*
X106593595Y-65604247D02*
X106445468Y-65448848D01*
X104073337Y-62154015D02*
X104050979Y-62162466D01*
X102311854Y-62878617D02*
X102436357Y-62889123D01*
X105267680Y-65819391D02*
X105292242Y-65848319D01*
X103904484Y-65666583D02*
X103934476Y-65673869D01*
X101878628Y-63749547D02*
X101928418Y-63794070D01*
X105157900Y-62455468D02*
X105057950Y-62383637D01*
X104034407Y-62895333D02*
X103972816Y-62939195D01*
X105924429Y-66724369D02*
X105775989Y-66737598D01*
X104369404Y-64504398D02*
X104417343Y-64521268D01*
X103940788Y-65453970D02*
X103950839Y-65473908D01*
X104412630Y-64354495D02*
X104392896Y-64341667D01*
X102422384Y-66724471D02*
X102570824Y-66737700D01*
X103296126Y-62211555D02*
X103343611Y-62135153D01*
X104454605Y-64377186D02*
X104433232Y-64366320D01*
X103867180Y-65363133D02*
X103880841Y-65375158D01*
X103791173Y-64586495D02*
X103747474Y-64612361D01*
X102418325Y-62434105D02*
X102215465Y-62473831D01*
X103267484Y-65061609D02*
X103255573Y-65133184D01*
X103991603Y-65636116D02*
X103990898Y-65641268D01*
X101509963Y-64359412D02*
X101401733Y-64498096D01*
X105027393Y-62505179D02*
X105117827Y-62472983D01*
X106589896Y-66757357D02*
X106464646Y-66740626D01*
X105035522Y-63526629D02*
X105046688Y-63571617D01*
X104966067Y-64729728D02*
X104994154Y-64792219D01*
X104117416Y-62139069D02*
X104095481Y-62146220D01*
X105611004Y-62968056D02*
X105553294Y-62994051D01*
X104690517Y-64001855D02*
X104734981Y-63969482D01*
X104853350Y-65254864D02*
X104815937Y-65268454D01*
X104702123Y-65641167D02*
X104660065Y-65641181D01*
X101738245Y-63609030D02*
X101783433Y-63656959D01*
X106786312Y-62756872D02*
X106839767Y-62801175D01*
X101478956Y-65961740D02*
X101544613Y-65866229D01*
X103248446Y-65206228D02*
X103246839Y-65243265D01*
X103530861Y-65268564D02*
X103660859Y-65284187D01*
X103536694Y-63895824D02*
X103506256Y-63854894D01*
X103808073Y-62172415D02*
X103838849Y-62180430D01*
X104356422Y-64312832D02*
X104339878Y-64296737D01*
X105276747Y-63182809D02*
X105223976Y-63233317D01*
X103352648Y-64792319D02*
X103326763Y-64856858D01*
X103933605Y-62144957D02*
X103935868Y-62214941D01*
X104605600Y-63170978D02*
X104637112Y-63218716D01*
X105380430Y-66054326D02*
X105385633Y-66093452D01*
X105139807Y-65721547D02*
X105176298Y-65743196D01*
X103777564Y-63123583D02*
X103741202Y-63171088D01*
X103317877Y-65629065D02*
X103335112Y-65668869D01*
X105313919Y-65878901D02*
X105332753Y-65911072D01*
X105121132Y-63348231D02*
X105071099Y-63412922D01*
X107405416Y-65652607D02*
X107415685Y-65768269D01*
X103708902Y-62994546D02*
X103671630Y-63020869D01*
X103413696Y-65198218D02*
X103435049Y-65219594D01*
X103079124Y-65819491D02*
X103054562Y-65848418D01*
X105059972Y-63860233D02*
X105052483Y-63911112D01*
X104173438Y-64466617D02*
X104222696Y-64471194D01*
X104462853Y-62897369D02*
X104495786Y-62912682D01*
X102793523Y-62994151D02*
X102850459Y-63023875D01*
X104277979Y-64197774D02*
X104270447Y-64173981D01*
X104245563Y-62852588D02*
X104312396Y-62895224D01*
X104852557Y-64830326D02*
X104878999Y-64864288D01*
X101380356Y-63031006D02*
X101380356Y-63031006D01*
X103282217Y-63810182D02*
X103286800Y-63860328D01*
X104734981Y-63969482D02*
X104774882Y-63934019D01*
X103720138Y-62158167D02*
X103748739Y-62161332D01*
X103847532Y-64396352D02*
X103892198Y-64377323D01*
X104898041Y-63243815D02*
X104923522Y-63280796D01*
X104052709Y-63981761D02*
X104111385Y-63992723D01*
X105042008Y-63962687D02*
X105028467Y-64014922D01*
X104291619Y-62836548D02*
X104326615Y-62846554D01*
X103660859Y-65284187D02*
X103694396Y-65289727D01*
X105140985Y-66836926D02*
X105107212Y-66887372D01*
X103705292Y-64639961D02*
X103664810Y-64669088D01*
X105348781Y-65944766D02*
X105362044Y-65979917D01*
X104988710Y-63398650D02*
X105006429Y-63440120D01*
X101882170Y-66740731D02*
X102010624Y-66728141D01*
X100997871Y-65333373D02*
X100974975Y-65435439D01*
X104902464Y-64898336D02*
X104922767Y-64932261D01*
X103482605Y-64413008D02*
X103484309Y-64424147D01*
X103709691Y-63218826D02*
X103682964Y-63266630D01*
X104618935Y-65642189D02*
X104579235Y-65644260D01*
X101384765Y-62984984D02*
X101380356Y-63031006D01*
X103826411Y-61574760D02*
X103899783Y-61511727D01*
X103335149Y-65668860D02*
X103366896Y-65663474D01*
X103537804Y-62175889D02*
X103562087Y-62169421D01*
X101080136Y-66759116D02*
X101130154Y-66630464D01*
X105963186Y-65062955D02*
X105791484Y-64957509D01*
X102936601Y-62415990D02*
X102834295Y-62409105D01*
X102850459Y-63023875D02*
X102906601Y-63057469D01*
X105372581Y-66016459D02*
X105380430Y-66054326D01*
X103281449Y-63712232D02*
X103280461Y-63760804D01*
X106336190Y-66728037D02*
X106203814Y-66720513D01*
X103830982Y-62988886D02*
X103906064Y-62941452D01*
X104499271Y-64396213D02*
X104454605Y-64377186D01*
X103586923Y-62164185D02*
X103612332Y-62160229D01*
X103748739Y-62161332D02*
X103778044Y-62166065D01*
X101400372Y-63086145D02*
X101423215Y-63140972D01*
X103643603Y-63361775D02*
X103630838Y-63408786D01*
X100938317Y-66283299D02*
X100953209Y-66426265D01*
X104429432Y-62883083D02*
X104462853Y-62897369D01*
X103354394Y-67026938D02*
X103411983Y-67090232D01*
X105098356Y-65206128D02*
X105099963Y-65243165D01*
X104949472Y-65174558D02*
X104933106Y-65198115D01*
X101507047Y-62801264D02*
X101462090Y-62846525D01*
X102958579Y-66133869D02*
X102958553Y-66175315D01*
X103469700Y-67149114D02*
X103527549Y-67203492D01*
X106966460Y-63030822D02*
X106828075Y-62992857D01*
X105212211Y-62447575D02*
X105309891Y-62428649D01*
X100953209Y-66426265D02*
X100973751Y-66575389D01*
X103989522Y-65596143D02*
X103990744Y-65603960D01*
X103973828Y-62861774D02*
X103949621Y-62870541D01*
X104074994Y-64479246D02*
X104026029Y-64490382D01*
X104637868Y-62994454D02*
X104675141Y-63020778D01*
X104527846Y-67404588D02*
X104469142Y-67430054D01*
X104901996Y-63718671D02*
X104912149Y-63669655D01*
X107093865Y-64719694D02*
X107139021Y-64798166D01*
X102974225Y-66016557D02*
X102966375Y-66054424D01*
X103792788Y-65651579D02*
X103833041Y-65655479D01*
X104515820Y-62988773D02*
X104440738Y-62941340D01*
X107373065Y-66575296D02*
X107346668Y-66730810D01*
X103800955Y-64412062D02*
X103847532Y-64396352D01*
X104124197Y-64471286D02*
X104074994Y-64479246D01*
X104715964Y-63408676D02*
X104724205Y-63455091D01*
X103275718Y-63413023D02*
X103324799Y-63482727D01*
X106500610Y-62595372D02*
X106656527Y-62672366D01*
X103619426Y-63545582D02*
X103624365Y-63589217D01*
X104320862Y-64490291D02*
X104369404Y-64504398D01*
X103434882Y-64284829D02*
X103440535Y-64295173D01*
X103260946Y-65433021D02*
X103268648Y-65471784D01*
X104358720Y-62895799D02*
X104269653Y-62852388D01*
X105100180Y-65280526D02*
X105098943Y-65318196D01*
X105202560Y-66736515D02*
X105172781Y-66786618D01*
X103383938Y-65031346D02*
X103378102Y-65062725D01*
X104811434Y-63140269D02*
X104841920Y-63173517D01*
X105309891Y-62428649D02*
X105410212Y-62415897D01*
X103945665Y-63949773D02*
X103997447Y-63967389D01*
X104339878Y-64296737D02*
X104324591Y-64279468D01*
X103402495Y-62237876D02*
X103423917Y-62225026D01*
X103995372Y-67465589D02*
X104024926Y-67471155D01*
X103296931Y-66959321D02*
X103354394Y-67026938D01*
X103623761Y-61773656D02*
X103688410Y-61705769D01*
X105079318Y-65061508D02*
X105091230Y-65133083D01*
X101901345Y-65448942D02*
X102056127Y-65307644D01*
X102735813Y-62968157D02*
X102793523Y-62994151D01*
X103174719Y-63288511D02*
X103225684Y-63348332D01*
X103466452Y-63408004D02*
X103490116Y-63353973D01*
X105071099Y-63412922D02*
X105022017Y-63482626D01*
X103893996Y-65388346D02*
X103906606Y-65402758D01*
X106290685Y-65307549D02*
X106129756Y-65179276D01*
X105011690Y-65668768D02*
X105057542Y-65684267D01*
X105100235Y-65701882D02*
X105139807Y-65721547D01*
X107415685Y-65768269D02*
X107421334Y-65888928D01*
X102983348Y-66351056D02*
X102995574Y-66397151D01*
X103482140Y-64518367D02*
X103479655Y-64530739D01*
X103855003Y-62910846D02*
X103831970Y-62922201D01*
X105849181Y-62898513D02*
X105788576Y-62911019D01*
X104147949Y-62815752D02*
X104122669Y-62820639D01*
X102056127Y-65307644D02*
X102217056Y-65179372D01*
X104682307Y-63711804D02*
X104660710Y-63749415D01*
X101790835Y-62928669D02*
X101924223Y-62904627D01*
X103561999Y-61843073D02*
X103623761Y-61773656D01*
X104036142Y-64261104D02*
X104048619Y-64241353D01*
X103661095Y-65646000D02*
X103750314Y-65648726D01*
X106725014Y-62713833D02*
X106786312Y-62756872D01*
X104823318Y-64796654D02*
X104852557Y-64830326D01*
X104012553Y-64118060D02*
X103943087Y-64109203D01*
X106608572Y-63608940D02*
X106563383Y-63656868D01*
X104922767Y-64932261D02*
X104939726Y-64965859D01*
X103278127Y-65510785D02*
X103289449Y-65550008D01*
X104757184Y-64731007D02*
X104791466Y-64763479D01*
X101165197Y-64879408D02*
X101125372Y-64963460D01*
D11*
X99042268Y-61467000D02*
X99542268Y-61467000D01*
D10*
X105117827Y-62472983D02*
X105212211Y-62447575D01*
X103134602Y-62447669D02*
X103036922Y-62428742D01*
X104641610Y-64434760D02*
X104593554Y-64424654D01*
X104780070Y-64452762D02*
X104735648Y-64448468D01*
X106367284Y-63837228D02*
X106280502Y-63905516D01*
X102821077Y-64284146D02*
X102915762Y-64305898D01*
X104072109Y-61470797D02*
X104052003Y-61518414D01*
X103289260Y-65684367D02*
X103246568Y-65701982D01*
X102629044Y-64221761D02*
X102725344Y-64255998D01*
X103656285Y-64001974D02*
X103611821Y-63969601D01*
X104431394Y-61501726D02*
X104481708Y-61536536D01*
X104682058Y-64668995D02*
X104720653Y-64699443D01*
X107181615Y-64879312D02*
X107221440Y-64963363D01*
X105158108Y-64329620D02*
X105072433Y-64322723D01*
X103340342Y-63440212D02*
X103324758Y-63482718D01*
X102998023Y-65944865D02*
X102984761Y-65980015D01*
X103486498Y-64446669D02*
X103486962Y-64458056D01*
X104261013Y-64122049D02*
X104261013Y-64122049D01*
X104861260Y-64493836D02*
X104862705Y-64505997D01*
X104635111Y-63785106D02*
X104605575Y-63818712D01*
X104859841Y-64457956D02*
X104859843Y-64469817D01*
X107393606Y-66426171D02*
X107373065Y-66575296D01*
X105351233Y-66397054D02*
X105336675Y-66443881D01*
X104749648Y-62194119D02*
X104695869Y-62169896D01*
X105380757Y-66261230D02*
X105373313Y-66305663D01*
X103983310Y-65569653D02*
X103985830Y-65579005D01*
X102184891Y-62878460D02*
X102311854Y-62878617D01*
X107052314Y-66274705D02*
X106992979Y-66165797D01*
X103407102Y-64965955D02*
X103393665Y-64999020D01*
X104663839Y-63266520D02*
X104685847Y-63314225D01*
X103823540Y-65333409D02*
X103838492Y-65342321D01*
X104871897Y-64549397D02*
X104873761Y-64555707D01*
X104749050Y-63192681D02*
X104700581Y-63140052D01*
X103494289Y-64830420D02*
X103467842Y-64864383D01*
X104095481Y-62146220D02*
X104073337Y-62154015D01*
X103468052Y-62202204D02*
X103490808Y-62192329D01*
X101415342Y-66061582D02*
X101478956Y-65961740D01*
X104934807Y-67090132D02*
X104877079Y-67149014D01*
X103984348Y-65661460D02*
X103982606Y-65664491D01*
X104873761Y-64555707D02*
X104873761Y-64555707D01*
X103448729Y-63243907D02*
X103423249Y-63280888D01*
X106931472Y-66061489D02*
X106867858Y-65961647D01*
X103646219Y-63140167D02*
X103701172Y-63088480D01*
X105107212Y-66887372D02*
X105107212Y-66887372D01*
X104423144Y-65510552D02*
X104413799Y-65533796D01*
X103705199Y-64031021D02*
X103656285Y-64001974D01*
X105330390Y-63136744D02*
X105276747Y-63182809D01*
X103657568Y-64442725D02*
X103705193Y-64434903D01*
X103643649Y-67298381D02*
X103701907Y-67338709D01*
X101000148Y-66730903D02*
X101032607Y-66893039D01*
X104050979Y-62162466D02*
X104028405Y-62171584D01*
X103989958Y-65646028D02*
X103988808Y-65650413D01*
X101448777Y-63195418D02*
X101476951Y-63249414D01*
X103972816Y-62939195D02*
X103916402Y-62984116D01*
X101634160Y-66777408D02*
X101756920Y-66757462D01*
X104541469Y-65647461D02*
X104506139Y-65651860D01*
X101350124Y-64569940D02*
X101300460Y-64643761D01*
X104859841Y-64457956D02*
X104859841Y-64457956D01*
X104802558Y-62221013D02*
X104749648Y-62194119D01*
X103786742Y-62946402D02*
X103747299Y-62969711D01*
X102984761Y-65980015D02*
X102974225Y-66016557D01*
X104840545Y-63854775D02*
X104866081Y-63811469D01*
X104085790Y-64122168D02*
X104012553Y-64118060D01*
X103786742Y-62946402D02*
X103786742Y-62946402D01*
X106712657Y-66777303D02*
X106589896Y-66757357D01*
X101576065Y-63408017D02*
X101613609Y-63459527D01*
X105336675Y-66443881D02*
X105319824Y-66491373D01*
X104247611Y-62825619D02*
X104262327Y-62829065D01*
X103998761Y-61668338D02*
X103983845Y-61721143D01*
X103485543Y-64493939D02*
X103484097Y-64506101D01*
X102010624Y-66728141D02*
X102143000Y-66720617D01*
X103965857Y-67458695D02*
X103995372Y-67465589D01*
X104912149Y-63669655D02*
X104916948Y-63619210D01*
X104395559Y-62869839D02*
X104429432Y-62883083D01*
X104911752Y-65219489D02*
X104885227Y-65238474D01*
X104786352Y-62645566D02*
X104861001Y-62591163D01*
X102626349Y-62411711D02*
X102418325Y-62434105D01*
X105176298Y-65743196D02*
X105209747Y-65766764D01*
X106129756Y-65179276D02*
X105963186Y-65062955D01*
X104569239Y-63123473D02*
X104605600Y-63170978D01*
D11*
X99842268Y-61767000D02*
X99842268Y-61167000D01*
D10*
X103247860Y-65318297D02*
X103250616Y-65356263D01*
X103870392Y-62190157D02*
X103902724Y-62201645D01*
X103585531Y-67253278D02*
X103643649Y-67298381D01*
X104298987Y-62346034D02*
X104300583Y-62430127D01*
X104137517Y-61333041D02*
X104093157Y-61424124D01*
X101294500Y-66274797D02*
X101353836Y-66165890D01*
X104444798Y-65664524D02*
X104419793Y-65672925D01*
X104085575Y-64122049D02*
X104260852Y-64122058D01*
X105078155Y-65471683D02*
X105068675Y-65510684D01*
X103320605Y-62297749D02*
X103360833Y-62266214D01*
X104560028Y-62946310D02*
X104599472Y-62969620D01*
X103519812Y-63299937D02*
X103555652Y-63246132D01*
X103441449Y-64611457D02*
X103410508Y-64669503D01*
X106367284Y-63837228D02*
X106367284Y-63837228D01*
X104910034Y-63514983D02*
X104898094Y-63461675D01*
X104722438Y-63589108D02*
X104713237Y-63631485D01*
X104545847Y-64411920D02*
X104499271Y-64396213D01*
X106733208Y-63459439D02*
X106693592Y-63510157D01*
X104481704Y-63029821D02*
X104527962Y-63076366D01*
X104878356Y-64358337D02*
X104874810Y-64369106D01*
X103480720Y-63811587D02*
X103460199Y-63766140D01*
X105791484Y-64957509D02*
X105615156Y-64861865D01*
X104593554Y-64424654D02*
X104545847Y-64411920D01*
X106203814Y-66720513D02*
X106066799Y-66718982D01*
X103646965Y-63672549D02*
X103664495Y-63711914D01*
X103878299Y-62899997D02*
X103855003Y-62910846D01*
X104449376Y-63928968D02*
X104401138Y-63949663D01*
X104202252Y-61365963D02*
X104263911Y-61399323D01*
X103170574Y-62448172D02*
X103206794Y-62407693D01*
X103486989Y-64458075D02*
X103566733Y-64452897D01*
X103209618Y-62368109D02*
X103251465Y-62289222D01*
X101125372Y-64963460D02*
X101088521Y-65050650D01*
X103701907Y-67338709D02*
X103760306Y-67374174D01*
X104611258Y-65307602D02*
X104597732Y-65313226D01*
X104101239Y-62852698D02*
X104034407Y-62895333D01*
X103475956Y-63208135D02*
X103448729Y-63243907D01*
X104910240Y-61968195D02*
X104956901Y-62040551D01*
X103976085Y-61450399D02*
X104055326Y-61390823D01*
X104957182Y-62314318D02*
X104906214Y-62281453D01*
X101928418Y-63794070D02*
X101979528Y-63837320D01*
X104265391Y-62106140D02*
X104244824Y-62109086D01*
X107314209Y-66892947D02*
X107314209Y-66892947D01*
X103760306Y-67374174D02*
X103818850Y-67404685D01*
X103485610Y-64435366D02*
X103486498Y-64446669D01*
X103122841Y-63233418D02*
X103174719Y-63288511D01*
X103377837Y-63358340D02*
X103358061Y-63398741D01*
X104727377Y-63545472D02*
X104722438Y-63589108D01*
X106946441Y-63086055D02*
X106923599Y-63140883D01*
X104417343Y-64521268D02*
X104464494Y-64540697D01*
X101054850Y-65141210D02*
X101024565Y-65235374D01*
X104991860Y-64121230D02*
X104968635Y-64175229D01*
X104638855Y-65298162D02*
X104611258Y-65307602D01*
X104271899Y-64479154D02*
X104320862Y-64490291D01*
X103934476Y-65673869D02*
X103959850Y-65682364D01*
X104599402Y-64612269D02*
X104641580Y-64639869D01*
X104528190Y-62929001D02*
X104560028Y-62946310D01*
X102555328Y-64957605D02*
X102731656Y-64861961D01*
X106656527Y-62672366D02*
X106725014Y-62713833D01*
X104404792Y-65558621D02*
X104402565Y-65567229D01*
X103701172Y-63088480D02*
X103762722Y-63037974D01*
X103660956Y-63314335D02*
X103643603Y-63361775D01*
X103664810Y-64669088D02*
X103626210Y-64699536D01*
X106691196Y-62958392D02*
X106555983Y-62928568D01*
X102618153Y-62926784D02*
X102677350Y-62945748D01*
X105292242Y-65848319D02*
X105313919Y-65878901D01*
X105388227Y-66133771D02*
X105388253Y-66175218D01*
X104878999Y-64864288D02*
X104902464Y-64898336D01*
X101830263Y-63703821D02*
X101878628Y-63749547D01*
X104787010Y-65643852D02*
X104702123Y-65641167D01*
X104408244Y-65661574D02*
X104411117Y-65665370D01*
X104137517Y-61333041D02*
X104137517Y-61333041D01*
X104232852Y-62822370D02*
X104247611Y-62825619D01*
X103283320Y-64623087D02*
X103473078Y-64555899D01*
X103589676Y-64731099D02*
X103555389Y-64763572D01*
X103747299Y-62969711D02*
X103708902Y-62994546D01*
X105172781Y-66786618D02*
X105140985Y-66836926D01*
X103423917Y-62225026D02*
X103445763Y-62213119D01*
X104711211Y-63048556D02*
X104746002Y-63077754D01*
X103983845Y-61721143D02*
X103970580Y-61775601D01*
X105022013Y-63482626D02*
X105035522Y-63526629D01*
X104413821Y-65668300D02*
X104416197Y-65670441D01*
X103286800Y-63860328D02*
X103294289Y-63911207D01*
X103901843Y-62889659D02*
X103878299Y-62899997D01*
X103246839Y-65243265D02*
X103246622Y-65280626D01*
X103682964Y-63266630D02*
X103660956Y-63314335D01*
X105279403Y-66588091D02*
X105255911Y-66637186D01*
X102247807Y-64030040D02*
X102341558Y-64085573D01*
X103100058Y-64328987D02*
X103188708Y-64329711D01*
X101182596Y-66506950D02*
X101237399Y-66388439D01*
X104439735Y-67440868D02*
X104410290Y-67450386D01*
X106468187Y-63749456D02*
X106418395Y-63793978D01*
X103482352Y-65651327D02*
X103570177Y-65646975D01*
X105063491Y-64622994D02*
X104873734Y-64555807D01*
X104861001Y-62591163D02*
X104941566Y-62544470D01*
X103294289Y-63911207D02*
X103304764Y-63962782D01*
X105030862Y-64316321D02*
X104990215Y-64307898D01*
X101130154Y-66630464D02*
X101182596Y-66506950D01*
X105057354Y-65549907D02*
X105044125Y-65589339D01*
X104724205Y-63455091D02*
X104727987Y-63500745D01*
X103479655Y-64530739D02*
X103476628Y-64543218D01*
X104143535Y-67479903D02*
X104173287Y-67478656D01*
X104720653Y-64699443D02*
X104757184Y-64731007D01*
X103205818Y-66837025D02*
X103239591Y-66887472D01*
X102726052Y-66759699D02*
X102888784Y-66791391D01*
X104700581Y-63140052D02*
X104645629Y-63088366D01*
X104699838Y-63672439D02*
X104682307Y-63711804D01*
X104495786Y-62912682D02*
X104528190Y-62929001D01*
X101690287Y-62672455D02*
X101621800Y-62713922D01*
X104810108Y-63895705D02*
X104840545Y-63854775D01*
X103611821Y-63969601D02*
X103571920Y-63934138D01*
X103992210Y-65624578D02*
X103992049Y-65630558D01*
X105057950Y-62383637D02*
X104957182Y-62314318D01*
X103600768Y-63077846D02*
X103567335Y-63108429D01*
X104111385Y-63992723D02*
X104173410Y-64000110D01*
X104508983Y-65374740D02*
X104497260Y-65387369D01*
X104374128Y-64327794D02*
X104356422Y-64312832D01*
X103976429Y-65543192D02*
X103983310Y-65569653D01*
X101783433Y-63656959D02*
X101830263Y-63703821D01*
X106445468Y-65448848D02*
X106290685Y-65307549D01*
X103334997Y-64067877D02*
X103354915Y-64121325D01*
X106867858Y-65961647D02*
X106802200Y-65866136D01*
X104276997Y-62832708D02*
X104291619Y-62836548D01*
X103906064Y-62941452D02*
X103988082Y-62895911D01*
X104911921Y-64284720D02*
X104906268Y-64295063D01*
X104203131Y-62116692D02*
X104181999Y-62121375D01*
X104188345Y-62813804D02*
X104203216Y-62816462D01*
X103741202Y-63171088D02*
X103709691Y-63218826D01*
X104713237Y-63631485D02*
X104699838Y-63672439D01*
X104534956Y-63879004D02*
X104494004Y-63905360D01*
X106992979Y-66165797D02*
X106931472Y-66061489D01*
X107139021Y-64798166D02*
X107181615Y-64879312D01*
X105064554Y-63810087D02*
X105059972Y-63860233D01*
X104703200Y-63361665D02*
X104715964Y-63408676D01*
X105363459Y-66350960D02*
X105351233Y-66397054D01*
X103486962Y-64458056D02*
X103486962Y-64458056D01*
X105091846Y-65394408D02*
X105085857Y-65432920D01*
X103918634Y-65418458D02*
X103930040Y-65435508D01*
X105091230Y-65133083D02*
X105098356Y-65206128D01*
X104874810Y-64369106D02*
X104871610Y-64379945D01*
X103251465Y-62289222D02*
X103296126Y-62211555D01*
X104862705Y-64505997D02*
X104864662Y-64518262D01*
X103747474Y-64612361D02*
X103705292Y-64639961D01*
X104869575Y-65649701D02*
X104787010Y-65643852D01*
X104499199Y-62111074D02*
X104469847Y-62106534D01*
X104097502Y-62826099D02*
X104072460Y-62832125D01*
X103880841Y-65375158D02*
X103893996Y-65388346D01*
X104373986Y-62939085D02*
X104430401Y-62984006D01*
X104755199Y-65276236D02*
X104725363Y-65280245D01*
X103953906Y-64341799D02*
X103972675Y-64327924D01*
X105553294Y-62994051D02*
X105496358Y-63023774D01*
X104285778Y-62103750D02*
X104265391Y-62106140D01*
X104298183Y-64241231D02*
X104287257Y-64220176D01*
X101237399Y-66388439D02*
X101294500Y-66274797D01*
X104261013Y-64122049D02*
X104334250Y-64117941D01*
X103170505Y-65743297D02*
X103137056Y-65766864D01*
X106034964Y-62878516D02*
X105910461Y-62889022D01*
X102570824Y-66737700D02*
X102726052Y-66759699D01*
X101400294Y-62938692D02*
X101384765Y-62984984D01*
X104481708Y-61536536D02*
X104574641Y-61606991D01*
X102725344Y-64255998D02*
X102821077Y-64284146D01*
X103535336Y-63140361D02*
X103504851Y-63173608D01*
X104203216Y-62816462D02*
X104218052Y-62819317D01*
X106367284Y-63837210D02*
X106606102Y-64095452D01*
X104856685Y-63353857D02*
X104826989Y-63299821D01*
X103982606Y-65664491D02*
X103978889Y-65669666D01*
X104695869Y-62169896D02*
X104641110Y-62148686D01*
X104093157Y-61424124D02*
X104072109Y-61470797D01*
X103461572Y-65238581D02*
X103493449Y-65254973D01*
X104054519Y-67475380D02*
X104084151Y-67478254D01*
X106291190Y-62887410D02*
X106161927Y-62878359D01*
X103354915Y-64121325D02*
X103378141Y-64175323D01*
X103410508Y-64669503D02*
X103380735Y-64729829D01*
X103174023Y-66786717D02*
X103205818Y-66837025D01*
X104324591Y-64279468D02*
X104310660Y-64260980D01*
X105775989Y-66737598D02*
X105620760Y-66759597D01*
X104473747Y-65657525D02*
X104444798Y-65664524D01*
X103611154Y-64448608D02*
X103657568Y-64442725D01*
X104657425Y-62778725D02*
X104718275Y-62707984D01*
X104968715Y-65062626D02*
X104970472Y-65092853D01*
D11*
X99542268Y-62767000D02*
X99542268Y-63267000D01*
D10*
X104139145Y-62132552D02*
X104117416Y-62139069D01*
X106464646Y-66740626D02*
X106336190Y-66728037D01*
X100973751Y-66575389D02*
X101000148Y-66730903D01*
X107266679Y-66759024D02*
X107216661Y-66630373D01*
X104263911Y-61399323D02*
X104322591Y-61433090D01*
X103381474Y-62251621D02*
X103402495Y-62237876D01*
X104732399Y-61750402D02*
X104798754Y-61822881D01*
X107109415Y-66388348D02*
X107052314Y-66274705D01*
X103877506Y-64095833D02*
X103815922Y-64078188D01*
X101694806Y-63560102D02*
X101738245Y-63609030D01*
X104026029Y-64490382D02*
X103977486Y-64504489D01*
X104022211Y-64279593D02*
X104036142Y-64261104D01*
X103692218Y-62156522D02*
X103720138Y-62158167D01*
X104418090Y-65671873D02*
X104419793Y-65672925D01*
X101380356Y-63031006D02*
X101400372Y-63086145D01*
X104967973Y-65121721D02*
X104961034Y-65149025D01*
X104222696Y-64471194D02*
X104271899Y-64479154D01*
X102995574Y-66397151D02*
X103010131Y-66443977D01*
X103967650Y-65679184D02*
X103964535Y-65680756D01*
X103486962Y-64458056D02*
X103486959Y-64469919D01*
X102383626Y-65063050D02*
X102555328Y-64957605D01*
X104077149Y-62852499D02*
X104173378Y-62811453D01*
X103991583Y-65611294D02*
X103992063Y-65618162D01*
X106884723Y-62846436D02*
X106920525Y-62892347D01*
X106099005Y-64029949D02*
X106005255Y-64085482D01*
X103694396Y-65289727D02*
X103727737Y-65296919D01*
X104916281Y-63567574D02*
X104910034Y-63514983D01*
X107258291Y-65050554D02*
X107291962Y-65141114D01*
X106966455Y-63030914D02*
X106946441Y-63086055D01*
X104351288Y-67465492D02*
X104321730Y-67471057D01*
X103366896Y-65663474D02*
X103402411Y-65658730D01*
X105069732Y-62253558D02*
X105100842Y-62322411D01*
X104413799Y-65533796D02*
X104404792Y-65558621D01*
X103936868Y-62012777D02*
X103933986Y-62077616D01*
X101024565Y-65235374D02*
X100997871Y-65333373D01*
X100941398Y-65652703D02*
X100931129Y-65768365D01*
X103380735Y-64729829D02*
X103352648Y-64792319D01*
X103360833Y-62266214D02*
X103381474Y-62251621D01*
X103705193Y-64434903D02*
X103753249Y-64424797D01*
X104396297Y-65610334D02*
X104396251Y-65616186D01*
X103067403Y-66588189D02*
X103090895Y-66637283D01*
X103987892Y-65587830D02*
X103989522Y-65596143D01*
X103250616Y-65356263D02*
X103254957Y-65394509D01*
X103571920Y-63934138D02*
X103536694Y-63895824D01*
X105072433Y-64322723D02*
X105030862Y-64316321D01*
X103468446Y-64358446D02*
X103471992Y-64369215D01*
X104321730Y-67471057D02*
X104292134Y-67475282D01*
X103281637Y-62332097D02*
X103320605Y-62297749D01*
X103671630Y-63020869D02*
X103635559Y-63048648D01*
X105384886Y-63094978D02*
X105330390Y-63136744D01*
X103664495Y-63711914D02*
X103686093Y-63749525D01*
X104506139Y-65651860D02*
X104473747Y-65657525D01*
X103664958Y-62156350D02*
X103692218Y-62156522D01*
X104558354Y-65334393D02*
X104545658Y-65343068D01*
X104826989Y-63299821D02*
X104791148Y-63246017D01*
X105621471Y-64255907D02*
X105525739Y-64284054D01*
X100956082Y-65541805D02*
X100941398Y-65652703D01*
X103424066Y-64932357D02*
X103407102Y-64965955D01*
X106836849Y-64359315D02*
X106945079Y-64498000D01*
X103490116Y-63353973D02*
X103519812Y-63299937D01*
X103016427Y-63136844D02*
X103070070Y-63182910D01*
X102497637Y-62898614D02*
X102558242Y-62911120D01*
X104349355Y-63967279D02*
X104294093Y-63981651D01*
X105098943Y-65318196D02*
X105096186Y-65356162D01*
X102532658Y-64181740D02*
X102629044Y-64221761D01*
X104945793Y-65658172D02*
X104869575Y-65649701D01*
X104873761Y-64555707D02*
X104905354Y-64611356D01*
X103228986Y-62473077D02*
X103134602Y-62447669D01*
X104402565Y-65567229D02*
X104400709Y-65575415D01*
X103711692Y-63785216D02*
X103741227Y-63818822D01*
X104923522Y-63280796D02*
X104947179Y-63318953D01*
X103727737Y-65296919D02*
X103760578Y-65306264D01*
X103838492Y-65342321D02*
X103853051Y-65352208D01*
X104048619Y-64241353D02*
X104059546Y-64220298D01*
X103925621Y-62879838D02*
X103901843Y-62889659D01*
X103474905Y-64549499D02*
X103473041Y-64555807D01*
X103778044Y-62166065D02*
X103808073Y-62172415D01*
X103405246Y-62544564D02*
X103319419Y-62505273D01*
X104299249Y-62615320D02*
X104296239Y-62720425D01*
X103397332Y-65174660D02*
X103413696Y-65198218D01*
X104218052Y-62819317D02*
X104232852Y-62822370D01*
X105046688Y-63571617D02*
X105055430Y-63617556D01*
X104870175Y-64543115D02*
X104871897Y-64549397D01*
X103992049Y-65630558D02*
X103991603Y-65636116D01*
X104379600Y-62099646D02*
X104348741Y-62099736D01*
X105065322Y-63712139D02*
X105066310Y-63760710D01*
X103815922Y-64078188D02*
X103758449Y-64056505D01*
X101756920Y-66757462D02*
X101882170Y-66740731D01*
X107314214Y-66892865D02*
X106833647Y-66799539D01*
X103982591Y-62191863D02*
X103959345Y-62203047D01*
X104291462Y-62184848D02*
X104295933Y-62264942D01*
X100974975Y-65435439D02*
X100956082Y-65541805D01*
X104886602Y-63766022D02*
X104901996Y-63718671D01*
X104727987Y-63500745D02*
X104727377Y-63545472D01*
X104862494Y-64424042D02*
X104861192Y-64435263D01*
X101560502Y-62756961D02*
X101507047Y-62801264D01*
X103319419Y-62505273D02*
X103228986Y-62473077D01*
X103303596Y-64923330D02*
X103283664Y-64991619D01*
X105385633Y-66093452D02*
X105388227Y-66133771D01*
X104962883Y-65031248D02*
X104968715Y-65062626D01*
X103818841Y-63076475D02*
X103777564Y-63123583D01*
X104173328Y-62811444D02*
X104147949Y-62815752D01*
X104641580Y-64639869D02*
X104682058Y-64668995D01*
X103853051Y-65352208D02*
X103867180Y-65363133D01*
X105458028Y-66791290D02*
X105287075Y-66833604D01*
X104312396Y-62895224D02*
X104373986Y-62939085D01*
X104660065Y-65641181D02*
X104618935Y-65642189D01*
D11*
X99842268Y-63067000D02*
X99842268Y-62467000D01*
D10*
X105096186Y-65356162D02*
X105091846Y-65394408D01*
X103836206Y-64562569D02*
X103791173Y-64586495D01*
X103838849Y-62180430D02*
X103870392Y-62190157D01*
X106652011Y-63560013D02*
X106608572Y-63608940D01*
X105020040Y-64856758D02*
X105043207Y-64923229D01*
X104545658Y-65343068D02*
X104533191Y-65352646D01*
X103280461Y-63760804D02*
X103282217Y-63810182D01*
X103983310Y-65569653D02*
X103983310Y-65569653D01*
X104072460Y-62832125D02*
X104047559Y-62838712D01*
X104300684Y-62519221D02*
X104299249Y-62615320D01*
X104791148Y-63246017D02*
X104749050Y-63192681D01*
X107390731Y-65541709D02*
X107405416Y-65652607D01*
D11*
X99542268Y-61467000D02*
X99542268Y-61967000D01*
D10*
X103971213Y-65676892D02*
X103967650Y-65679184D01*
X101513171Y-66799643D02*
X101634160Y-66777408D01*
X104310660Y-64260980D02*
X104298183Y-64241231D01*
X106516552Y-63703730D02*
X106468187Y-63749456D01*
X106190915Y-63969858D02*
X106099005Y-64029949D01*
X101979528Y-63837320D02*
X102066310Y-63905607D01*
X104400709Y-65575415D02*
X104399203Y-65583186D01*
X103916402Y-62984116D02*
X103865099Y-63029931D01*
X104868767Y-64390855D02*
X104866292Y-64401840D01*
X103324758Y-63482718D02*
X103324758Y-63482718D01*
X103949621Y-62870541D02*
X103925621Y-62879838D01*
X105250652Y-64695682D02*
X105063491Y-64622994D01*
X104285613Y-62103750D02*
X104291462Y-62184848D01*
X105255911Y-66637186D02*
X105230283Y-66686682D01*
X103612332Y-62160229D02*
X103638337Y-62157601D01*
X104006925Y-64296864D02*
X104022211Y-64279593D01*
X104411117Y-65665370D02*
X104413821Y-65668300D01*
D11*
X109594648Y-66754523D02*
X109213695Y-66754523D01*
X109670838Y-66983095D02*
X109404171Y-66183095D01*
X109404171Y-66183095D02*
X109137505Y-66983095D01*
X108451791Y-66983095D02*
X108908934Y-66983095D01*
X108680362Y-66983095D02*
X108680362Y-66183095D01*
X108680362Y-66183095D02*
X108756553Y-66297380D01*
X108756553Y-66297380D02*
X108832743Y-66373571D01*
X108832743Y-66373571D02*
X108908934Y-66411666D01*
D12*
X107844647Y-60342930D02*
X107511314Y-60342930D01*
X107368457Y-60866740D02*
X107844647Y-60866740D01*
X107844647Y-60866740D02*
X107844647Y-59866740D01*
X107844647Y-59866740D02*
X107368457Y-59866740D01*
X106939885Y-60200073D02*
X106939885Y-61200073D01*
X106939885Y-60247692D02*
X106844647Y-60200073D01*
X106844647Y-60200073D02*
X106654171Y-60200073D01*
X106654171Y-60200073D02*
X106558933Y-60247692D01*
X106558933Y-60247692D02*
X106511314Y-60295311D01*
X106511314Y-60295311D02*
X106463695Y-60390549D01*
X106463695Y-60390549D02*
X106463695Y-60676263D01*
X106463695Y-60676263D02*
X106511314Y-60771501D01*
X106511314Y-60771501D02*
X106558933Y-60819121D01*
X106558933Y-60819121D02*
X106654171Y-60866740D01*
X106654171Y-60866740D02*
X106844647Y-60866740D01*
X106844647Y-60866740D02*
X106939885Y-60819121D01*
X106035123Y-60866740D02*
X106035123Y-60200073D01*
X106035123Y-59866740D02*
X106082742Y-59914359D01*
X106082742Y-59914359D02*
X106035123Y-59961978D01*
X106035123Y-59961978D02*
X105987504Y-59914359D01*
X105987504Y-59914359D02*
X106035123Y-59866740D01*
X106035123Y-59866740D02*
X106035123Y-59961978D01*
X104892266Y-60200073D02*
X104654171Y-60866740D01*
X104654171Y-60866740D02*
X104416076Y-60200073D01*
X103511314Y-60866740D02*
X104082742Y-60866740D01*
X103797028Y-60866740D02*
X103797028Y-59866740D01*
X103797028Y-59866740D02*
X103892266Y-60009597D01*
X103892266Y-60009597D02*
X103987504Y-60104835D01*
X103987504Y-60104835D02*
X104082742Y-60152454D01*
X103035123Y-60819121D02*
X103035123Y-60866740D01*
X103035123Y-60866740D02*
X103082742Y-60961978D01*
X103082742Y-60961978D02*
X103130361Y-61009597D01*
X102654171Y-59961978D02*
X102606552Y-59914359D01*
X102606552Y-59914359D02*
X102511314Y-59866740D01*
X102511314Y-59866740D02*
X102273219Y-59866740D01*
X102273219Y-59866740D02*
X102177981Y-59914359D01*
X102177981Y-59914359D02*
X102130362Y-59961978D01*
X102130362Y-59961978D02*
X102082743Y-60057216D01*
X102082743Y-60057216D02*
X102082743Y-60152454D01*
X102082743Y-60152454D02*
X102130362Y-60295311D01*
X102130362Y-60295311D02*
X102701790Y-60866740D01*
X102701790Y-60866740D02*
X102082743Y-60866740D01*
X101606552Y-60819121D02*
X101606552Y-60866740D01*
X101606552Y-60866740D02*
X101654171Y-60961978D01*
X101654171Y-60961978D02*
X101701790Y-61009597D01*
X100749410Y-60200073D02*
X100749410Y-60866740D01*
X100987505Y-59819121D02*
X101225600Y-60533406D01*
X101225600Y-60533406D02*
X100606553Y-60533406D01*
D11*
X109175600Y-58563095D02*
X109556552Y-58563095D01*
X109556552Y-58563095D02*
X109594648Y-58944047D01*
X109594648Y-58944047D02*
X109556552Y-58905952D01*
X109556552Y-58905952D02*
X109480362Y-58867857D01*
X109480362Y-58867857D02*
X109289886Y-58867857D01*
X109289886Y-58867857D02*
X109213695Y-58905952D01*
X109213695Y-58905952D02*
X109175600Y-58944047D01*
X109175600Y-58944047D02*
X109137505Y-59020238D01*
X109137505Y-59020238D02*
X109137505Y-59210714D01*
X109137505Y-59210714D02*
X109175600Y-59286904D01*
X109175600Y-59286904D02*
X109213695Y-59325000D01*
X109213695Y-59325000D02*
X109289886Y-59363095D01*
X109289886Y-59363095D02*
X109480362Y-59363095D01*
X109480362Y-59363095D02*
X109556552Y-59325000D01*
X109556552Y-59325000D02*
X109594648Y-59286904D01*
X108908933Y-58563095D02*
X108642266Y-59363095D01*
X108642266Y-59363095D02*
X108375600Y-58563095D01*
X104363553Y-71274761D02*
X104325458Y-71312856D01*
X104325458Y-71312856D02*
X104287362Y-71389047D01*
X104287362Y-71389047D02*
X104363553Y-71541428D01*
X104363553Y-71541428D02*
X104325458Y-71617618D01*
X104325458Y-71617618D02*
X104287362Y-71655713D01*
X104668315Y-72379523D02*
X104668315Y-71922380D01*
X104668315Y-72150952D02*
X103868315Y-72150952D01*
X103868315Y-72150952D02*
X103982600Y-72074761D01*
X103982600Y-72074761D02*
X104058791Y-71998571D01*
X104058791Y-71998571D02*
X104096886Y-71922380D01*
X103868315Y-72646190D02*
X103868315Y-73141428D01*
X103868315Y-73141428D02*
X104173077Y-72874762D01*
X104173077Y-72874762D02*
X104173077Y-72989047D01*
X104173077Y-72989047D02*
X104211172Y-73065238D01*
X104211172Y-73065238D02*
X104249267Y-73103333D01*
X104249267Y-73103333D02*
X104325458Y-73141428D01*
X104325458Y-73141428D02*
X104515934Y-73141428D01*
X104515934Y-73141428D02*
X104592124Y-73103333D01*
X104592124Y-73103333D02*
X104630220Y-73065238D01*
X104630220Y-73065238D02*
X104668315Y-72989047D01*
X104668315Y-72989047D02*
X104668315Y-72760476D01*
X104668315Y-72760476D02*
X104630220Y-72684285D01*
X104630220Y-72684285D02*
X104592124Y-72646190D01*
X109594648Y-68024523D02*
X109213695Y-68024523D01*
X109670838Y-68253095D02*
X109404171Y-67453095D01*
X109404171Y-67453095D02*
X109137505Y-68253095D01*
X108718457Y-67453095D02*
X108642267Y-67453095D01*
X108642267Y-67453095D02*
X108566076Y-67491190D01*
X108566076Y-67491190D02*
X108527981Y-67529285D01*
X108527981Y-67529285D02*
X108489886Y-67605476D01*
X108489886Y-67605476D02*
X108451791Y-67757857D01*
X108451791Y-67757857D02*
X108451791Y-67948333D01*
X108451791Y-67948333D02*
X108489886Y-68100714D01*
X108489886Y-68100714D02*
X108527981Y-68176904D01*
X108527981Y-68176904D02*
X108566076Y-68215000D01*
X108566076Y-68215000D02*
X108642267Y-68253095D01*
X108642267Y-68253095D02*
X108718457Y-68253095D01*
X108718457Y-68253095D02*
X108794648Y-68215000D01*
X108794648Y-68215000D02*
X108832743Y-68176904D01*
X108832743Y-68176904D02*
X108870838Y-68100714D01*
X108870838Y-68100714D02*
X108908934Y-67948333D01*
X108908934Y-67948333D02*
X108908934Y-67757857D01*
X108908934Y-67757857D02*
X108870838Y-67605476D01*
X108870838Y-67605476D02*
X108832743Y-67529285D01*
X108832743Y-67529285D02*
X108794648Y-67491190D01*
X108794648Y-67491190D02*
X108718457Y-67453095D01*
X105955815Y-72379522D02*
X105955815Y-71922379D01*
X105955815Y-72150951D02*
X105155815Y-72150951D01*
X105155815Y-72150951D02*
X105270100Y-72074760D01*
X105270100Y-72074760D02*
X105346291Y-71998570D01*
X105346291Y-71998570D02*
X105384386Y-71922379D01*
X105232005Y-72684284D02*
X105193910Y-72722380D01*
X105193910Y-72722380D02*
X105155815Y-72798570D01*
X105155815Y-72798570D02*
X105155815Y-72989046D01*
X105155815Y-72989046D02*
X105193910Y-73065237D01*
X105193910Y-73065237D02*
X105232005Y-73103332D01*
X105232005Y-73103332D02*
X105308196Y-73141427D01*
X105308196Y-73141427D02*
X105384386Y-73141427D01*
X105384386Y-73141427D02*
X105498672Y-73103332D01*
X105498672Y-73103332D02*
X105955815Y-72646189D01*
X105955815Y-72646189D02*
X105955815Y-73141427D01*
X100049410Y-65405333D02*
X100011315Y-65367238D01*
X100011315Y-65367238D02*
X99935124Y-65329142D01*
X99935124Y-65329142D02*
X99782743Y-65405333D01*
X99782743Y-65405333D02*
X99706553Y-65367238D01*
X99706553Y-65367238D02*
X99668458Y-65329142D01*
X99439886Y-64910095D02*
X98944648Y-64910095D01*
X98944648Y-64910095D02*
X99211314Y-65214857D01*
X99211314Y-65214857D02*
X99097029Y-65214857D01*
X99097029Y-65214857D02*
X99020838Y-65252952D01*
X99020838Y-65252952D02*
X98982743Y-65291047D01*
X98982743Y-65291047D02*
X98944648Y-65367238D01*
X98944648Y-65367238D02*
X98944648Y-65557714D01*
X98944648Y-65557714D02*
X98982743Y-65633904D01*
X98982743Y-65633904D02*
X99020838Y-65672000D01*
X99020838Y-65672000D02*
X99097029Y-65710095D01*
X99097029Y-65710095D02*
X99325600Y-65710095D01*
X99325600Y-65710095D02*
X99401791Y-65672000D01*
X99401791Y-65672000D02*
X99439886Y-65633904D01*
X99439886Y-69990095D02*
X98906552Y-69990095D01*
X98906552Y-69990095D02*
X99249410Y-70790095D01*
X98944648Y-59360095D02*
X99401791Y-59360095D01*
X99173219Y-59360095D02*
X99173219Y-58560095D01*
X99173219Y-58560095D02*
X99249410Y-58674380D01*
X99249410Y-58674380D02*
X99325600Y-58750571D01*
X99325600Y-58750571D02*
X99401791Y-58788666D01*
X99249410Y-71602952D02*
X99325600Y-71564857D01*
X99325600Y-71564857D02*
X99363695Y-71526761D01*
X99363695Y-71526761D02*
X99401791Y-71450571D01*
X99401791Y-71450571D02*
X99401791Y-71412476D01*
X99401791Y-71412476D02*
X99363695Y-71336285D01*
X99363695Y-71336285D02*
X99325600Y-71298190D01*
X99325600Y-71298190D02*
X99249410Y-71260095D01*
X99249410Y-71260095D02*
X99097029Y-71260095D01*
X99097029Y-71260095D02*
X99020838Y-71298190D01*
X99020838Y-71298190D02*
X98982743Y-71336285D01*
X98982743Y-71336285D02*
X98944648Y-71412476D01*
X98944648Y-71412476D02*
X98944648Y-71450571D01*
X98944648Y-71450571D02*
X98982743Y-71526761D01*
X98982743Y-71526761D02*
X99020838Y-71564857D01*
X99020838Y-71564857D02*
X99097029Y-71602952D01*
X99097029Y-71602952D02*
X99249410Y-71602952D01*
X99249410Y-71602952D02*
X99325600Y-71641047D01*
X99325600Y-71641047D02*
X99363695Y-71679142D01*
X99363695Y-71679142D02*
X99401791Y-71755333D01*
X99401791Y-71755333D02*
X99401791Y-71907714D01*
X99401791Y-71907714D02*
X99363695Y-71983904D01*
X99363695Y-71983904D02*
X99325600Y-72022000D01*
X99325600Y-72022000D02*
X99249410Y-72060095D01*
X99249410Y-72060095D02*
X99097029Y-72060095D01*
X99097029Y-72060095D02*
X99020838Y-72022000D01*
X99020838Y-72022000D02*
X98982743Y-71983904D01*
X98982743Y-71983904D02*
X98944648Y-71907714D01*
X98944648Y-71907714D02*
X98944648Y-71755333D01*
X98944648Y-71755333D02*
X98982743Y-71679142D01*
X98982743Y-71679142D02*
X99020838Y-71641047D01*
X99020838Y-71641047D02*
X99097029Y-71602952D01*
X109137506Y-72063095D02*
X109594649Y-72063095D01*
X109366077Y-72063095D02*
X109366077Y-71263095D01*
X109366077Y-71263095D02*
X109442268Y-71377380D01*
X109442268Y-71377380D02*
X109518458Y-71453571D01*
X109518458Y-71453571D02*
X109594649Y-71491666D01*
X108451791Y-71263095D02*
X108604172Y-71263095D01*
X108604172Y-71263095D02*
X108680363Y-71301190D01*
X108680363Y-71301190D02*
X108718458Y-71339285D01*
X108718458Y-71339285D02*
X108794648Y-71453571D01*
X108794648Y-71453571D02*
X108832744Y-71605952D01*
X108832744Y-71605952D02*
X108832744Y-71910714D01*
X108832744Y-71910714D02*
X108794648Y-71986904D01*
X108794648Y-71986904D02*
X108756553Y-72025000D01*
X108756553Y-72025000D02*
X108680363Y-72063095D01*
X108680363Y-72063095D02*
X108527982Y-72063095D01*
X108527982Y-72063095D02*
X108451791Y-72025000D01*
X108451791Y-72025000D02*
X108413696Y-71986904D01*
X108413696Y-71986904D02*
X108375601Y-71910714D01*
X108375601Y-71910714D02*
X108375601Y-71720238D01*
X108375601Y-71720238D02*
X108413696Y-71644047D01*
X108413696Y-71644047D02*
X108451791Y-71605952D01*
X108451791Y-71605952D02*
X108527982Y-71567857D01*
X108527982Y-71567857D02*
X108680363Y-71567857D01*
X108680363Y-71567857D02*
X108756553Y-71605952D01*
X108756553Y-71605952D02*
X108794648Y-71644047D01*
X108794648Y-71644047D02*
X108832744Y-71720238D01*
D13*
X105773219Y-57941666D02*
X105011315Y-57941666D01*
X104535124Y-58322619D02*
X104535124Y-57322619D01*
X104535124Y-57322619D02*
X104297029Y-57322619D01*
X104297029Y-57322619D02*
X104154172Y-57370238D01*
X104154172Y-57370238D02*
X104058934Y-57465476D01*
X104058934Y-57465476D02*
X104011315Y-57560714D01*
X104011315Y-57560714D02*
X103963696Y-57751190D01*
X103963696Y-57751190D02*
X103963696Y-57894047D01*
X103963696Y-57894047D02*
X104011315Y-58084523D01*
X104011315Y-58084523D02*
X104058934Y-58179761D01*
X104058934Y-58179761D02*
X104154172Y-58275000D01*
X104154172Y-58275000D02*
X104297029Y-58322619D01*
X104297029Y-58322619D02*
X104535124Y-58322619D01*
X103535124Y-57941666D02*
X102773220Y-57941666D01*
X103154172Y-58322619D02*
X103154172Y-57560714D01*
D11*
X109137506Y-69523095D02*
X109594649Y-69523095D01*
X109366077Y-69523095D02*
X109366077Y-68723095D01*
X109366077Y-68723095D02*
X109442268Y-68837380D01*
X109442268Y-68837380D02*
X109518458Y-68913571D01*
X109518458Y-68913571D02*
X109594649Y-68951666D01*
X108413696Y-68723095D02*
X108794648Y-68723095D01*
X108794648Y-68723095D02*
X108832744Y-69104047D01*
X108832744Y-69104047D02*
X108794648Y-69065952D01*
X108794648Y-69065952D02*
X108718458Y-69027857D01*
X108718458Y-69027857D02*
X108527982Y-69027857D01*
X108527982Y-69027857D02*
X108451791Y-69065952D01*
X108451791Y-69065952D02*
X108413696Y-69104047D01*
X108413696Y-69104047D02*
X108375601Y-69180238D01*
X108375601Y-69180238D02*
X108375601Y-69370714D01*
X108375601Y-69370714D02*
X108413696Y-69446904D01*
X108413696Y-69446904D02*
X108451791Y-69485000D01*
X108451791Y-69485000D02*
X108527982Y-69523095D01*
X108527982Y-69523095D02*
X108718458Y-69523095D01*
X108718458Y-69523095D02*
X108794648Y-69485000D01*
X108794648Y-69485000D02*
X108832744Y-69446904D01*
X106938553Y-71274761D02*
X106900458Y-71312856D01*
X106900458Y-71312856D02*
X106862362Y-71389047D01*
X106862362Y-71389047D02*
X106938553Y-71541428D01*
X106938553Y-71541428D02*
X106900458Y-71617618D01*
X106900458Y-71617618D02*
X106862362Y-71655713D01*
X107243315Y-72379523D02*
X107243315Y-71922380D01*
X107243315Y-72150952D02*
X106443315Y-72150952D01*
X106443315Y-72150952D02*
X106557600Y-72074761D01*
X106557600Y-72074761D02*
X106633791Y-71998571D01*
X106633791Y-71998571D02*
X106671886Y-71922380D01*
X107243315Y-73141428D02*
X107243315Y-72684285D01*
X107243315Y-72912857D02*
X106443315Y-72912857D01*
X106443315Y-72912857D02*
X106557600Y-72836666D01*
X106557600Y-72836666D02*
X106633791Y-72760476D01*
X106633791Y-72760476D02*
X106671886Y-72684285D01*
X100049410Y-69215333D02*
X100011315Y-69177238D01*
X100011315Y-69177238D02*
X99935124Y-69139142D01*
X99935124Y-69139142D02*
X99782743Y-69215333D01*
X99782743Y-69215333D02*
X99706553Y-69177238D01*
X99706553Y-69177238D02*
X99668458Y-69139142D01*
X99020838Y-68720095D02*
X99173219Y-68720095D01*
X99173219Y-68720095D02*
X99249410Y-68758190D01*
X99249410Y-68758190D02*
X99287505Y-68796285D01*
X99287505Y-68796285D02*
X99363695Y-68910571D01*
X99363695Y-68910571D02*
X99401791Y-69062952D01*
X99401791Y-69062952D02*
X99401791Y-69367714D01*
X99401791Y-69367714D02*
X99363695Y-69443904D01*
X99363695Y-69443904D02*
X99325600Y-69482000D01*
X99325600Y-69482000D02*
X99249410Y-69520095D01*
X99249410Y-69520095D02*
X99097029Y-69520095D01*
X99097029Y-69520095D02*
X99020838Y-69482000D01*
X99020838Y-69482000D02*
X98982743Y-69443904D01*
X98982743Y-69443904D02*
X98944648Y-69367714D01*
X98944648Y-69367714D02*
X98944648Y-69177238D01*
X98944648Y-69177238D02*
X98982743Y-69101047D01*
X98982743Y-69101047D02*
X99020838Y-69062952D01*
X99020838Y-69062952D02*
X99097029Y-69024857D01*
X99097029Y-69024857D02*
X99249410Y-69024857D01*
X99249410Y-69024857D02*
X99325600Y-69062952D01*
X99325600Y-69062952D02*
X99363695Y-69101047D01*
X99363695Y-69101047D02*
X99401791Y-69177238D01*
X99211314Y-59830095D02*
X99135124Y-59830095D01*
X99135124Y-59830095D02*
X99058933Y-59868190D01*
X99058933Y-59868190D02*
X99020838Y-59906285D01*
X99020838Y-59906285D02*
X98982743Y-59982476D01*
X98982743Y-59982476D02*
X98944648Y-60134857D01*
X98944648Y-60134857D02*
X98944648Y-60325333D01*
X98944648Y-60325333D02*
X98982743Y-60477714D01*
X98982743Y-60477714D02*
X99020838Y-60553904D01*
X99020838Y-60553904D02*
X99058933Y-60592000D01*
X99058933Y-60592000D02*
X99135124Y-60630095D01*
X99135124Y-60630095D02*
X99211314Y-60630095D01*
X99211314Y-60630095D02*
X99287505Y-60592000D01*
X99287505Y-60592000D02*
X99325600Y-60553904D01*
X99325600Y-60553904D02*
X99363695Y-60477714D01*
X99363695Y-60477714D02*
X99401791Y-60325333D01*
X99401791Y-60325333D02*
X99401791Y-60134857D01*
X99401791Y-60134857D02*
X99363695Y-59982476D01*
X99363695Y-59982476D02*
X99325600Y-59906285D01*
X99325600Y-59906285D02*
X99287505Y-59868190D01*
X99287505Y-59868190D02*
X99211314Y-59830095D01*
X109099410Y-61840095D02*
X109366077Y-61459142D01*
X109556553Y-61840095D02*
X109556553Y-61040095D01*
X109556553Y-61040095D02*
X109251791Y-61040095D01*
X109251791Y-61040095D02*
X109175601Y-61078190D01*
X109175601Y-61078190D02*
X109137506Y-61116285D01*
X109137506Y-61116285D02*
X109099410Y-61192476D01*
X109099410Y-61192476D02*
X109099410Y-61306761D01*
X109099410Y-61306761D02*
X109137506Y-61382952D01*
X109137506Y-61382952D02*
X109175601Y-61421047D01*
X109175601Y-61421047D02*
X109251791Y-61459142D01*
X109251791Y-61459142D02*
X109556553Y-61459142D01*
X109137506Y-73333095D02*
X109594649Y-73333095D01*
X109366077Y-73333095D02*
X109366077Y-72533095D01*
X109366077Y-72533095D02*
X109442268Y-72647380D01*
X109442268Y-72647380D02*
X109518458Y-72723571D01*
X109518458Y-72723571D02*
X109594649Y-72761666D01*
X108642267Y-72533095D02*
X108566077Y-72533095D01*
X108566077Y-72533095D02*
X108489886Y-72571190D01*
X108489886Y-72571190D02*
X108451791Y-72609285D01*
X108451791Y-72609285D02*
X108413696Y-72685476D01*
X108413696Y-72685476D02*
X108375601Y-72837857D01*
X108375601Y-72837857D02*
X108375601Y-73028333D01*
X108375601Y-73028333D02*
X108413696Y-73180714D01*
X108413696Y-73180714D02*
X108451791Y-73256904D01*
X108451791Y-73256904D02*
X108489886Y-73295000D01*
X108489886Y-73295000D02*
X108566077Y-73333095D01*
X108566077Y-73333095D02*
X108642267Y-73333095D01*
X108642267Y-73333095D02*
X108718458Y-73295000D01*
X108718458Y-73295000D02*
X108756553Y-73256904D01*
X108756553Y-73256904D02*
X108794648Y-73180714D01*
X108794648Y-73180714D02*
X108832744Y-73028333D01*
X108832744Y-73028333D02*
X108832744Y-72837857D01*
X108832744Y-72837857D02*
X108794648Y-72685476D01*
X108794648Y-72685476D02*
X108756553Y-72609285D01*
X108756553Y-72609285D02*
X108718458Y-72571190D01*
X108718458Y-72571190D02*
X108642267Y-72533095D01*
X108147029Y-73028333D02*
X108108934Y-72990238D01*
X108108934Y-72990238D02*
X108032743Y-72952142D01*
X108032743Y-72952142D02*
X107880362Y-73028333D01*
X107880362Y-73028333D02*
X107804172Y-72990238D01*
X107804172Y-72990238D02*
X107766077Y-72952142D01*
X100049410Y-67945333D02*
X100011315Y-67907238D01*
X100011315Y-67907238D02*
X99935124Y-67869142D01*
X99935124Y-67869142D02*
X99782743Y-67945333D01*
X99782743Y-67945333D02*
X99706553Y-67907238D01*
X99706553Y-67907238D02*
X99668458Y-67869142D01*
X98982743Y-67450095D02*
X99363695Y-67450095D01*
X99363695Y-67450095D02*
X99401791Y-67831047D01*
X99401791Y-67831047D02*
X99363695Y-67792952D01*
X99363695Y-67792952D02*
X99287505Y-67754857D01*
X99287505Y-67754857D02*
X99097029Y-67754857D01*
X99097029Y-67754857D02*
X99020838Y-67792952D01*
X99020838Y-67792952D02*
X98982743Y-67831047D01*
X98982743Y-67831047D02*
X98944648Y-67907238D01*
X98944648Y-67907238D02*
X98944648Y-68097714D01*
X98944648Y-68097714D02*
X98982743Y-68173904D01*
X98982743Y-68173904D02*
X99020838Y-68212000D01*
X99020838Y-68212000D02*
X99097029Y-68250095D01*
X99097029Y-68250095D02*
X99287505Y-68250095D01*
X99287505Y-68250095D02*
X99363695Y-68212000D01*
X99363695Y-68212000D02*
X99401791Y-68173904D01*
X109594648Y-65484523D02*
X109213695Y-65484523D01*
X109670838Y-65713095D02*
X109404171Y-64913095D01*
X109404171Y-64913095D02*
X109137505Y-65713095D01*
X108908934Y-64989285D02*
X108870838Y-64951190D01*
X108870838Y-64951190D02*
X108794648Y-64913095D01*
X108794648Y-64913095D02*
X108604172Y-64913095D01*
X108604172Y-64913095D02*
X108527981Y-64951190D01*
X108527981Y-64951190D02*
X108489886Y-64989285D01*
X108489886Y-64989285D02*
X108451791Y-65065476D01*
X108451791Y-65065476D02*
X108451791Y-65141666D01*
X108451791Y-65141666D02*
X108489886Y-65255952D01*
X108489886Y-65255952D02*
X108947029Y-65713095D01*
X108947029Y-65713095D02*
X108451791Y-65713095D01*
X103373315Y-72379522D02*
X103373315Y-71922379D01*
X103373315Y-72150951D02*
X102573315Y-72150951D01*
X102573315Y-72150951D02*
X102687600Y-72074760D01*
X102687600Y-72074760D02*
X102763791Y-71998570D01*
X102763791Y-71998570D02*
X102801886Y-71922379D01*
X102573315Y-72646189D02*
X102573315Y-73179523D01*
X102573315Y-73179523D02*
X103373315Y-72836665D01*
X99020838Y-66446761D02*
X99020838Y-66980095D01*
X99211314Y-66142000D02*
X99401791Y-66713428D01*
X99401791Y-66713428D02*
X98906552Y-66713428D01*
X99401791Y-63716285D02*
X99363695Y-63678190D01*
X99363695Y-63678190D02*
X99287505Y-63640095D01*
X99287505Y-63640095D02*
X99097029Y-63640095D01*
X99097029Y-63640095D02*
X99020838Y-63678190D01*
X99020838Y-63678190D02*
X98982743Y-63716285D01*
X98982743Y-63716285D02*
X98944648Y-63792476D01*
X98944648Y-63792476D02*
X98944648Y-63868666D01*
X98944648Y-63868666D02*
X98982743Y-63982952D01*
X98982743Y-63982952D02*
X99439886Y-64440095D01*
X99439886Y-64440095D02*
X98944648Y-64440095D01*
D13*
X105399886Y-68807380D02*
X105447505Y-68855000D01*
X105447505Y-68855000D02*
X105590362Y-68902619D01*
X105590362Y-68902619D02*
X105685600Y-68902619D01*
X105685600Y-68902619D02*
X105828457Y-68855000D01*
X105828457Y-68855000D02*
X105923695Y-68759761D01*
X105923695Y-68759761D02*
X105971314Y-68664523D01*
X105971314Y-68664523D02*
X106018933Y-68474047D01*
X106018933Y-68474047D02*
X106018933Y-68331190D01*
X106018933Y-68331190D02*
X105971314Y-68140714D01*
X105971314Y-68140714D02*
X105923695Y-68045476D01*
X105923695Y-68045476D02*
X105828457Y-67950238D01*
X105828457Y-67950238D02*
X105685600Y-67902619D01*
X105685600Y-67902619D02*
X105590362Y-67902619D01*
X105590362Y-67902619D02*
X105447505Y-67950238D01*
X105447505Y-67950238D02*
X105399886Y-67997857D01*
X104971314Y-68378809D02*
X104637981Y-68378809D01*
X104495124Y-68902619D02*
X104971314Y-68902619D01*
X104971314Y-68902619D02*
X104971314Y-67902619D01*
X104971314Y-67902619D02*
X104495124Y-67902619D01*
X103495124Y-68902619D02*
X103828457Y-68426428D01*
X104066552Y-68902619D02*
X104066552Y-67902619D01*
X104066552Y-67902619D02*
X103685600Y-67902619D01*
X103685600Y-67902619D02*
X103590362Y-67950238D01*
X103590362Y-67950238D02*
X103542743Y-67997857D01*
X103542743Y-67997857D02*
X103495124Y-68093095D01*
X103495124Y-68093095D02*
X103495124Y-68235952D01*
X103495124Y-68235952D02*
X103542743Y-68331190D01*
X103542743Y-68331190D02*
X103590362Y-68378809D01*
X103590362Y-68378809D02*
X103685600Y-68426428D01*
X103685600Y-68426428D02*
X104066552Y-68426428D01*
X103066552Y-68902619D02*
X103066552Y-67902619D01*
X103066552Y-67902619D02*
X102495124Y-68902619D01*
X102495124Y-68902619D02*
X102495124Y-67902619D01*
X106376076Y-69522619D02*
X106185600Y-69522619D01*
X106185600Y-69522619D02*
X106090362Y-69570238D01*
X106090362Y-69570238D02*
X105995124Y-69665476D01*
X105995124Y-69665476D02*
X105947505Y-69855952D01*
X105947505Y-69855952D02*
X105947505Y-70189285D01*
X105947505Y-70189285D02*
X105995124Y-70379761D01*
X105995124Y-70379761D02*
X106090362Y-70475000D01*
X106090362Y-70475000D02*
X106185600Y-70522619D01*
X106185600Y-70522619D02*
X106376076Y-70522619D01*
X106376076Y-70522619D02*
X106471314Y-70475000D01*
X106471314Y-70475000D02*
X106566552Y-70379761D01*
X106566552Y-70379761D02*
X106614171Y-70189285D01*
X106614171Y-70189285D02*
X106614171Y-69855952D01*
X106614171Y-69855952D02*
X106566552Y-69665476D01*
X106566552Y-69665476D02*
X106471314Y-69570238D01*
X106471314Y-69570238D02*
X106376076Y-69522619D01*
X105518933Y-70522619D02*
X105518933Y-69522619D01*
X105518933Y-69998809D02*
X104947505Y-69998809D01*
X104947505Y-70522619D02*
X104947505Y-69522619D01*
X103995124Y-70522619D02*
X104471314Y-70522619D01*
X104471314Y-70522619D02*
X104471314Y-69522619D01*
X103661790Y-70141666D02*
X102899886Y-70141666D01*
X102423695Y-70522619D02*
X102423695Y-69522619D01*
X102423695Y-69522619D02*
X102042743Y-69522619D01*
X102042743Y-69522619D02*
X101947505Y-69570238D01*
X101947505Y-69570238D02*
X101899886Y-69617857D01*
X101899886Y-69617857D02*
X101852267Y-69713095D01*
X101852267Y-69713095D02*
X101852267Y-69855952D01*
X101852267Y-69855952D02*
X101899886Y-69951190D01*
X101899886Y-69951190D02*
X101947505Y-69998809D01*
X101947505Y-69998809D02*
X102042743Y-70046428D01*
X102042743Y-70046428D02*
X102423695Y-70046428D01*
D11*
X109594648Y-62944523D02*
X109213695Y-62944523D01*
X109670838Y-63173095D02*
X109404171Y-62373095D01*
X109404171Y-62373095D02*
X109137505Y-63173095D01*
X108527981Y-62639761D02*
X108527981Y-63173095D01*
X108718457Y-62335000D02*
X108908934Y-62906428D01*
X108908934Y-62906428D02*
X108413695Y-62906428D01*
X101874743Y-71998571D02*
X101874743Y-72379524D01*
X102103315Y-71922381D02*
X101303315Y-72189048D01*
X101303315Y-72189048D02*
X102103315Y-72455714D01*
X101303315Y-73103333D02*
X101303315Y-72722381D01*
X101303315Y-72722381D02*
X101684267Y-72684285D01*
X101684267Y-72684285D02*
X101646172Y-72722381D01*
X101646172Y-72722381D02*
X101608077Y-72798571D01*
X101608077Y-72798571D02*
X101608077Y-72989047D01*
X101608077Y-72989047D02*
X101646172Y-73065238D01*
X101646172Y-73065238D02*
X101684267Y-73103333D01*
X101684267Y-73103333D02*
X101760458Y-73141428D01*
X101760458Y-73141428D02*
X101950934Y-73141428D01*
X101950934Y-73141428D02*
X102027124Y-73103333D01*
X102027124Y-73103333D02*
X102065220Y-73065238D01*
X102065220Y-73065238D02*
X102103315Y-72989047D01*
X102103315Y-72989047D02*
X102103315Y-72798571D01*
X102103315Y-72798571D02*
X102065220Y-72722381D01*
X102065220Y-72722381D02*
X102027124Y-72684285D01*
X109594648Y-64214523D02*
X109213695Y-64214523D01*
X109670838Y-64443095D02*
X109404171Y-63643095D01*
X109404171Y-63643095D02*
X109137505Y-64443095D01*
X108947029Y-63643095D02*
X108451791Y-63643095D01*
X108451791Y-63643095D02*
X108718457Y-63947857D01*
X108718457Y-63947857D02*
X108604172Y-63947857D01*
X108604172Y-63947857D02*
X108527981Y-63985952D01*
X108527981Y-63985952D02*
X108489886Y-64024047D01*
X108489886Y-64024047D02*
X108451791Y-64100238D01*
X108451791Y-64100238D02*
X108451791Y-64290714D01*
X108451791Y-64290714D02*
X108489886Y-64366904D01*
X108489886Y-64366904D02*
X108527981Y-64405000D01*
X108527981Y-64405000D02*
X108604172Y-64443095D01*
X108604172Y-64443095D02*
X108832743Y-64443095D01*
X108832743Y-64443095D02*
X108908934Y-64405000D01*
X108908934Y-64405000D02*
X108947029Y-64366904D01*
X100049410Y-73025333D02*
X100011315Y-72987238D01*
X100011315Y-72987238D02*
X99935124Y-72949142D01*
X99935124Y-72949142D02*
X99782743Y-73025333D01*
X99782743Y-73025333D02*
X99706553Y-72987238D01*
X99706553Y-72987238D02*
X99668458Y-72949142D01*
X99325600Y-73330095D02*
X99173219Y-73330095D01*
X99173219Y-73330095D02*
X99097029Y-73292000D01*
X99097029Y-73292000D02*
X99058933Y-73253904D01*
X99058933Y-73253904D02*
X98982743Y-73139619D01*
X98982743Y-73139619D02*
X98944648Y-72987238D01*
X98944648Y-72987238D02*
X98944648Y-72682476D01*
X98944648Y-72682476D02*
X98982743Y-72606285D01*
X98982743Y-72606285D02*
X99020838Y-72568190D01*
X99020838Y-72568190D02*
X99097029Y-72530095D01*
X99097029Y-72530095D02*
X99249410Y-72530095D01*
X99249410Y-72530095D02*
X99325600Y-72568190D01*
X99325600Y-72568190D02*
X99363695Y-72606285D01*
X99363695Y-72606285D02*
X99401791Y-72682476D01*
X99401791Y-72682476D02*
X99401791Y-72872952D01*
X99401791Y-72872952D02*
X99363695Y-72949142D01*
X99363695Y-72949142D02*
X99325600Y-72987238D01*
X99325600Y-72987238D02*
X99249410Y-73025333D01*
X99249410Y-73025333D02*
X99097029Y-73025333D01*
X99097029Y-73025333D02*
X99020838Y-72987238D01*
X99020838Y-72987238D02*
X98982743Y-72949142D01*
X98982743Y-72949142D02*
X98944648Y-72872952D01*
X109137506Y-70793095D02*
X109594649Y-70793095D01*
X109366077Y-70793095D02*
X109366077Y-69993095D01*
X109366077Y-69993095D02*
X109442268Y-70107380D01*
X109442268Y-70107380D02*
X109518458Y-70183571D01*
X109518458Y-70183571D02*
X109594649Y-70221666D01*
X108451791Y-70259761D02*
X108451791Y-70793095D01*
X108642267Y-69955000D02*
X108832744Y-70526428D01*
X108832744Y-70526428D02*
X108337505Y-70526428D01*
M02*
