%TF.GenerationSoftware,KiCad,Pcbnew,7.0.2*%
%TF.CreationDate,2023-07-26T16:03:34+02:00*%
%TF.ProjectId,epi,6570692e-6b69-4636-9164-5f7063625858,1_2_0*%
%TF.SameCoordinates,Original*%
%TF.FileFunction,Copper,L1,Top*%
%TF.FilePolarity,Positive*%
%FSLAX46Y46*%
G04 Gerber Fmt 4.6, Leading zero omitted, Abs format (unit mm)*
G04 Created by KiCad (PCBNEW 7.0.2) date 2023-07-26 16:03:34*
%MOMM*%
%LPD*%
G01*
G04 APERTURE LIST*
G04 Aperture macros list*
%AMRoundRect*
0 Rectangle with rounded corners*
0 $1 Rounding radius*
0 $2 $3 $4 $5 $6 $7 $8 $9 X,Y pos of 4 corners*
0 Add a 4 corners polygon primitive as box body*
4,1,4,$2,$3,$4,$5,$6,$7,$8,$9,$2,$3,0*
0 Add four circle primitives for the rounded corners*
1,1,$1+$1,$2,$3*
1,1,$1+$1,$4,$5*
1,1,$1+$1,$6,$7*
1,1,$1+$1,$8,$9*
0 Add four rect primitives between the rounded corners*
20,1,$1+$1,$2,$3,$4,$5,0*
20,1,$1+$1,$4,$5,$6,$7,0*
20,1,$1+$1,$6,$7,$8,$9,0*
20,1,$1+$1,$8,$9,$2,$3,0*%
%AMOutline5P*
0 Free polygon, 5 corners , with rotation*
0 The origin of the aperture is its center*
0 number of corners: always 5*
0 $1 to $10 corner X, Y*
0 $11 Rotation angle, in degrees counterclockwise*
0 create outline with 5 corners*
4,1,5,$1,$2,$3,$4,$5,$6,$7,$8,$9,$10,$1,$2,$11*%
%AMOutline6P*
0 Free polygon, 6 corners , with rotation*
0 The origin of the aperture is its center*
0 number of corners: always 6*
0 $1 to $12 corner X, Y*
0 $13 Rotation angle, in degrees counterclockwise*
0 create outline with 6 corners*
4,1,6,$1,$2,$3,$4,$5,$6,$7,$8,$9,$10,$11,$12,$1,$2,$13*%
%AMOutline7P*
0 Free polygon, 7 corners , with rotation*
0 The origin of the aperture is its center*
0 number of corners: always 7*
0 $1 to $14 corner X, Y*
0 $15 Rotation angle, in degrees counterclockwise*
0 create outline with 7 corners*
4,1,7,$1,$2,$3,$4,$5,$6,$7,$8,$9,$10,$11,$12,$13,$14,$1,$2,$15*%
%AMOutline8P*
0 Free polygon, 8 corners , with rotation*
0 The origin of the aperture is its center*
0 number of corners: always 8*
0 $1 to $16 corner X, Y*
0 $17 Rotation angle, in degrees counterclockwise*
0 create outline with 8 corners*
4,1,8,$1,$2,$3,$4,$5,$6,$7,$8,$9,$10,$11,$12,$13,$14,$15,$16,$1,$2,$17*%
G04 Aperture macros list end*
%TA.AperFunction,SMDPad,CuDef*%
%ADD10RoundRect,0.140000X-0.140000X-0.170000X0.140000X-0.170000X0.140000X0.170000X-0.140000X0.170000X0*%
%TD*%
%TA.AperFunction,SMDPad,CuDef*%
%ADD11RoundRect,0.140000X-0.170000X0.140000X-0.170000X-0.140000X0.170000X-0.140000X0.170000X0.140000X0*%
%TD*%
%TA.AperFunction,SMDPad,CuDef*%
%ADD12RoundRect,0.135000X-0.185000X0.135000X-0.185000X-0.135000X0.185000X-0.135000X0.185000X0.135000X0*%
%TD*%
%TA.AperFunction,SMDPad,CuDef*%
%ADD13R,0.900000X0.800000*%
%TD*%
%TA.AperFunction,SMDPad,CuDef*%
%ADD14Outline5P,-0.450000X0.400000X0.450000X0.400000X0.450000X-0.160000X0.210000X-0.400000X-0.450000X-0.400000X0.000000*%
%TD*%
%TA.AperFunction,SMDPad,CuDef*%
%ADD15RoundRect,0.140000X0.170000X-0.140000X0.170000X0.140000X-0.170000X0.140000X-0.170000X-0.140000X0*%
%TD*%
%TA.AperFunction,SMDPad,CuDef*%
%ADD16RoundRect,0.135000X0.185000X-0.135000X0.185000X0.135000X-0.185000X0.135000X-0.185000X-0.135000X0*%
%TD*%
%TA.AperFunction,SMDPad,CuDef*%
%ADD17RoundRect,0.135000X-0.135000X-0.185000X0.135000X-0.185000X0.135000X0.185000X-0.135000X0.185000X0*%
%TD*%
%TA.AperFunction,SMDPad,CuDef*%
%ADD18RoundRect,0.062500X-0.062500X0.475000X-0.062500X-0.475000X0.062500X-0.475000X0.062500X0.475000X0*%
%TD*%
%TA.AperFunction,SMDPad,CuDef*%
%ADD19RoundRect,0.062500X-0.475000X0.062500X-0.475000X-0.062500X0.475000X-0.062500X0.475000X0.062500X0*%
%TD*%
%TA.AperFunction,SMDPad,CuDef*%
%ADD20RoundRect,0.175000X-0.825000X0.700000X-0.825000X-0.700000X0.825000X-0.700000X0.825000X0.700000X0*%
%TD*%
%TA.AperFunction,SMDPad,CuDef*%
%ADD21RoundRect,0.147500X0.172500X-0.147500X0.172500X0.147500X-0.172500X0.147500X-0.172500X-0.147500X0*%
%TD*%
%TA.AperFunction,SMDPad,CuDef*%
%ADD22RoundRect,0.135000X0.135000X0.185000X-0.135000X0.185000X-0.135000X-0.185000X0.135000X-0.185000X0*%
%TD*%
%TA.AperFunction,CastellatedPad*%
%ADD23RoundRect,0.250000X-0.500000X-0.250000X0.500000X-0.250000X0.500000X0.250000X-0.500000X0.250000X0*%
%TD*%
%TA.AperFunction,CastellatedPad*%
%ADD24RoundRect,0.250000X-0.250000X0.500000X-0.250000X-0.500000X0.250000X-0.500000X0.250000X0.500000X0*%
%TD*%
%TA.AperFunction,SMDPad,CuDef*%
%ADD25RoundRect,0.140000X0.140000X0.170000X-0.140000X0.170000X-0.140000X-0.170000X0.140000X-0.170000X0*%
%TD*%
%TA.AperFunction,SMDPad,CuDef*%
%ADD26R,0.615500X1.000000*%
%TD*%
%TA.AperFunction,SMDPad,CuDef*%
%ADD27R,0.307750X1.000000*%
%TD*%
%TA.AperFunction,SMDPad,CuDef*%
%ADD28R,0.307750X0.500000*%
%TD*%
%TA.AperFunction,SMDPad,CuDef*%
%ADD29R,0.307750X1.000860*%
%TD*%
%TA.AperFunction,SMDPad,CuDef*%
%ADD30R,0.607750X0.300000*%
%TD*%
%TA.AperFunction,ComponentPad*%
%ADD31O,1.200000X2.000000*%
%TD*%
%TA.AperFunction,ComponentPad*%
%ADD32O,1.200000X2.300000*%
%TD*%
%TA.AperFunction,SMDPad,CuDef*%
%ADD33RoundRect,0.147500X-0.172500X0.147500X-0.172500X-0.147500X0.172500X-0.147500X0.172500X0.147500X0*%
%TD*%
%TA.AperFunction,SMDPad,CuDef*%
%ADD34R,0.600000X0.450000*%
%TD*%
%TA.AperFunction,ViaPad*%
%ADD35C,0.600000*%
%TD*%
%TA.AperFunction,Conductor*%
%ADD36C,0.200000*%
%TD*%
%TA.AperFunction,Conductor*%
%ADD37C,0.150000*%
%TD*%
%TA.AperFunction,Conductor*%
%ADD38C,0.240000*%
%TD*%
G04 APERTURE END LIST*
D10*
%TO.P,C8,1*%
%TO.N,GND*%
X102864422Y-60550000D03*
%TO.P,C8,2*%
%TO.N,Net-(U1-UCAP)*%
X103824422Y-60550000D03*
%TD*%
D11*
%TO.P,C9,1*%
%TO.N,GND*%
X99673220Y-63180000D03*
%TO.P,C9,2*%
%TO.N,+5V*%
X99673220Y-64140000D03*
%TD*%
D12*
%TO.P,RV1,1*%
%TO.N,Net-(J4-D--PadA7)*%
X105683220Y-58440000D03*
%TO.P,RV1,2*%
%TO.N,GND*%
X105683220Y-59460000D03*
%TD*%
D13*
%TO.P,Y1,1,1*%
%TO.N,Net-(U1-XTAL2)*%
X103563220Y-72320000D03*
%TO.P,Y1,2,2*%
%TO.N,GND*%
X104963220Y-72320000D03*
%TO.P,Y1,3,3*%
%TO.N,Net-(U1-XTAL1)*%
X104963220Y-71220000D03*
D14*
%TO.P,Y1,4,4*%
%TO.N,GND*%
X103563220Y-71220000D03*
%TD*%
D15*
%TO.P,C1,1*%
%TO.N,Net-(J4-SHIELD)*%
X99673220Y-59430000D03*
%TO.P,C1,2*%
%TO.N,GND*%
X99673220Y-58470000D03*
%TD*%
D16*
%TO.P,R4,1*%
%TO.N,GND*%
X101923220Y-59460000D03*
%TO.P,R4,2*%
%TO.N,Net-(J4-CC2)*%
X101923220Y-58440000D03*
%TD*%
D17*
%TO.P,R3,1*%
%TO.N,Net-(J4-SHIELD)*%
X99673220Y-60600000D03*
%TO.P,R3,2*%
%TO.N,GND*%
X100693220Y-60600000D03*
%TD*%
D18*
%TO.P,U1,1,PE6*%
%TO.N,D7*%
X106773220Y-62849000D03*
%TO.P,U1,2,UVCC*%
%TO.N,+5V*%
X106273220Y-62849000D03*
%TO.P,U1,3,D-*%
%TO.N,D-*%
X105773220Y-62849000D03*
%TO.P,U1,4,D+*%
%TO.N,D+*%
X105273220Y-62849000D03*
%TO.P,U1,5,UGND*%
%TO.N,GND*%
X104773220Y-62849000D03*
%TO.P,U1,6,UCAP*%
%TO.N,Net-(U1-UCAP)*%
X104273220Y-62849000D03*
%TO.P,U1,7,VBUS*%
%TO.N,+5V*%
X103773220Y-62849000D03*
%TO.P,U1,8,PB0*%
%TO.N,D17{slash}SS*%
X103273220Y-62849000D03*
%TO.P,U1,9,PB1*%
%TO.N,D15{slash}SCK*%
X102773220Y-62849000D03*
%TO.P,U1,10,PB2*%
%TO.N,D16{slash}MOSI*%
X102273220Y-62849000D03*
%TO.P,U1,11,PB3*%
%TO.N,D14{slash}MISO*%
X101773220Y-62849000D03*
D19*
%TO.P,U1,12,PB7*%
%TO.N,D11*%
X100935720Y-63686500D03*
%TO.P,U1,13,~{RESET}*%
%TO.N,RST*%
X100935720Y-64186500D03*
%TO.P,U1,14,VCC*%
%TO.N,+5V*%
X100935720Y-64686500D03*
%TO.P,U1,15,GND*%
%TO.N,GND*%
X100935720Y-65186500D03*
%TO.P,U1,16,XTAL2*%
%TO.N,Net-(U1-XTAL2)*%
X100935720Y-65686500D03*
%TO.P,U1,17,XTAL1*%
%TO.N,Net-(U1-XTAL1)*%
X100935720Y-66186500D03*
%TO.P,U1,18,PD0*%
%TO.N,D3{slash}SCL*%
X100935720Y-66686500D03*
%TO.P,U1,19,PD1*%
%TO.N,D2{slash}SDA*%
X100935720Y-67186500D03*
%TO.P,U1,20,PD2*%
%TO.N,D0{slash}RX*%
X100935720Y-67686500D03*
%TO.P,U1,21,PD3*%
%TO.N,D1{slash}TX*%
X100935720Y-68186500D03*
%TO.P,U1,22,PD5*%
%TO.N,unconnected-(U1-PD5-Pad22)*%
X100935720Y-68686500D03*
D18*
%TO.P,U1,23,GND*%
%TO.N,GND*%
X101773220Y-69524000D03*
%TO.P,U1,24,AVCC*%
%TO.N,Net-(C2-Pad2)*%
X102273220Y-69524000D03*
%TO.P,U1,25,PD4*%
%TO.N,D4*%
X102773220Y-69524000D03*
%TO.P,U1,26,PD6*%
%TO.N,D12*%
X103273220Y-69524000D03*
%TO.P,U1,27,PD7*%
%TO.N,D6*%
X103773220Y-69524000D03*
%TO.P,U1,28,PB4*%
%TO.N,D8*%
X104273220Y-69524000D03*
%TO.P,U1,29,PB5*%
%TO.N,D9*%
X104773220Y-69524000D03*
%TO.P,U1,30,PB6*%
%TO.N,D10*%
X105273220Y-69524000D03*
%TO.P,U1,31,PC6*%
%TO.N,D5*%
X105773220Y-69524000D03*
%TO.P,U1,32,PC7*%
%TO.N,D13*%
X106273220Y-69524000D03*
%TO.P,U1,33,~{HWB}/PE2*%
%TO.N,Net-(U1-~{HWB}{slash}PE2)*%
X106773220Y-69524000D03*
D19*
%TO.P,U1,34,VCC*%
%TO.N,+5V*%
X107610720Y-68686500D03*
%TO.P,U1,35,GND*%
%TO.N,GND*%
X107610720Y-68186500D03*
%TO.P,U1,36,PF7*%
%TO.N,A0*%
X107610720Y-67686500D03*
%TO.P,U1,37,PF6*%
%TO.N,A1*%
X107610720Y-67186500D03*
%TO.P,U1,38,PF5*%
%TO.N,A2*%
X107610720Y-66686500D03*
%TO.P,U1,39,PF4*%
%TO.N,A3*%
X107610720Y-66186500D03*
%TO.P,U1,40,PF1*%
%TO.N,A4*%
X107610720Y-65686500D03*
%TO.P,U1,41,PF0*%
%TO.N,A5*%
X107610720Y-65186500D03*
%TO.P,U1,42,AREF*%
%TO.N,unconnected-(U1-AREF-Pad42)*%
X107610720Y-64686500D03*
%TO.P,U1,43,GND*%
%TO.N,GND*%
X107610720Y-64186500D03*
%TO.P,U1,44,AVCC*%
%TO.N,Net-(C2-Pad2)*%
X107610720Y-63686500D03*
D20*
%TO.P,U1,45,GND*%
%TO.N,GND*%
X104273220Y-66311500D03*
%TD*%
D21*
%TO.P,D1,1,K*%
%TO.N,GND*%
X107323220Y-72655000D03*
%TO.P,D1,2,A*%
%TO.N,Net-(D1-A)*%
X107323220Y-71685000D03*
%TD*%
D12*
%TO.P,R2,1*%
%TO.N,Net-(J4-D--PadA7)*%
X104743220Y-58440000D03*
%TO.P,R2,2*%
%TO.N,D-*%
X104743220Y-59460000D03*
%TD*%
D22*
%TO.P,R6,1*%
%TO.N,+5V*%
X108923220Y-61590000D03*
%TO.P,R6,2*%
%TO.N,RST*%
X107903220Y-61590000D03*
%TD*%
D17*
%TO.P,R7,1*%
%TO.N,Net-(U1-~{HWB}{slash}PE2)*%
X107623220Y-70770000D03*
%TO.P,R7,2*%
%TO.N,GND*%
X108643220Y-70770000D03*
%TD*%
D16*
%TO.P,RV3,1*%
%TO.N,GND*%
X100983220Y-59460000D03*
%TO.P,RV3,2*%
%TO.N,Net-(FB1-Pad1)*%
X100983220Y-58440000D03*
%TD*%
D12*
%TO.P,R1,1*%
%TO.N,Net-(J4-D+-PadA6)*%
X103803220Y-58440000D03*
%TO.P,R1,2*%
%TO.N,D+*%
X103803220Y-59460000D03*
%TD*%
%TO.P,RV2,1*%
%TO.N,Net-(J4-D+-PadA6)*%
X102863220Y-58440000D03*
%TO.P,RV2,2*%
%TO.N,GND*%
X102863220Y-59460000D03*
%TD*%
D10*
%TO.P,C6,1*%
%TO.N,GND*%
X101453220Y-72100000D03*
%TO.P,C6,2*%
%TO.N,Net-(U1-XTAL2)*%
X102413220Y-72100000D03*
%TD*%
D23*
%TO.P,J1,1,Pin_1*%
%TO.N,D1{slash}TX*%
X97923220Y-58920000D03*
%TO.P,J1,2,Pin_2*%
%TO.N,D0{slash}RX*%
X97923220Y-60190000D03*
%TO.P,J1,3,Pin_3*%
%TO.N,GND*%
X97923220Y-61460000D03*
%TO.P,J1,4,Pin_4*%
X97923220Y-62730000D03*
%TO.P,J1,5,Pin_5*%
%TO.N,D2{slash}SDA*%
X97923220Y-64000000D03*
%TO.P,J1,6,Pin_6*%
%TO.N,D3{slash}SCL*%
X97923220Y-65270000D03*
%TO.P,J1,7,Pin_7*%
%TO.N,D4*%
X97923220Y-66540000D03*
%TO.P,J1,8,Pin_8*%
%TO.N,D5*%
X97923220Y-67810000D03*
%TO.P,J1,9,Pin_9*%
%TO.N,D6*%
X97923220Y-69080000D03*
%TO.P,J1,10,Pin_10*%
%TO.N,D7*%
X97923220Y-70350000D03*
%TO.P,J1,11,Pin_11*%
%TO.N,D8*%
X97923220Y-71620000D03*
%TO.P,J1,12,Pin_12*%
%TO.N,D9*%
X97923220Y-72890000D03*
%TD*%
D24*
%TO.P,J3,1,Pin_1*%
%TO.N,D11*%
X106813220Y-74160000D03*
%TO.P,J3,2,Pin_2*%
%TO.N,D12*%
X105543220Y-74160000D03*
%TO.P,J3,3,Pin_3*%
%TO.N,D13*%
X104273220Y-74160000D03*
%TO.P,J3,4,Pin_4*%
%TO.N,D17{slash}SS*%
X103003220Y-74160000D03*
%TO.P,J3,5,Pin_5*%
%TO.N,A5*%
X101733220Y-74160000D03*
%TD*%
D25*
%TO.P,C4,1*%
%TO.N,+5V*%
X103824422Y-61500000D03*
%TO.P,C4,2*%
%TO.N,GND*%
X102864422Y-61500000D03*
%TD*%
D15*
%TO.P,C2,1*%
%TO.N,GND*%
X108853220Y-65340000D03*
%TO.P,C2,2*%
%TO.N,Net-(C2-Pad2)*%
X108853220Y-64380000D03*
%TD*%
D12*
%TO.P,R9,1*%
%TO.N,+5V*%
X108863220Y-62510000D03*
%TO.P,R9,2*%
%TO.N,Net-(C2-Pad2)*%
X108863220Y-63530000D03*
%TD*%
%TO.P,R8,1*%
%TO.N,D13*%
X108403220Y-71660000D03*
%TO.P,R8,2*%
%TO.N,Net-(D1-A)*%
X108403220Y-72680000D03*
%TD*%
D16*
%TO.P,FB1,1*%
%TO.N,Net-(FB1-Pad1)*%
X107563220Y-59460000D03*
%TO.P,FB1,2*%
%TO.N,Net-(F1-Pad1)*%
X107563220Y-58440000D03*
%TD*%
D26*
%TO.P,J4,A1,GND*%
%TO.N,GND*%
X107473220Y-57341500D03*
X101073220Y-57341500D03*
%TO.P,J4,A4,VBUS*%
%TO.N,Net-(FB1-Pad1)*%
X106673220Y-57341500D03*
D27*
%TO.P,J4,A5,CC1*%
%TO.N,Net-(J4-CC1)*%
X105524143Y-57341500D03*
D28*
%TO.P,J4,A6,D+*%
%TO.N,Net-(J4-D+-PadA6)*%
X104523190Y-57591500D03*
D29*
%TO.P,J4,A7,D-*%
%TO.N,Net-(J4-D--PadA7)*%
X104024389Y-57341930D03*
D26*
%TO.P,J4,A9,VBUS*%
%TO.N,Net-(FB1-Pad1)*%
X101873220Y-57341500D03*
D27*
%TO.P,J4,B5,CC2*%
%TO.N,Net-(J4-CC2)*%
X102521031Y-57341500D03*
%TO.P,J4,B6,D+*%
%TO.N,Net-(J4-D+-PadA6)*%
X103523912Y-57342360D03*
%TO.P,J4,B7,D-*%
%TO.N,Net-(J4-D--PadA7)*%
X105023667Y-57341500D03*
D30*
%TO.P,J4,B12,GND*%
%TO.N,GND*%
X107473220Y-57741500D03*
X101073220Y-57741500D03*
D31*
%TO.P,J4,S1,SHIELD*%
%TO.N,Net-(J4-SHIELD)*%
X109873220Y-56591500D03*
D32*
X109873220Y-52591500D03*
D31*
X98673220Y-56591500D03*
D32*
X98673220Y-52591500D03*
%TD*%
D11*
%TO.P,C3,1*%
%TO.N,GND*%
X108853220Y-68570000D03*
%TO.P,C3,2*%
%TO.N,+5V*%
X108853220Y-69530000D03*
%TD*%
D15*
%TO.P,C5,1*%
%TO.N,GND*%
X106323220Y-72650000D03*
%TO.P,C5,2*%
%TO.N,Net-(U1-XTAL1)*%
X106323220Y-71690000D03*
%TD*%
D10*
%TO.P,C10,1*%
%TO.N,+5V*%
X106093220Y-61600000D03*
%TO.P,C10,2*%
%TO.N,GND*%
X107053220Y-61600000D03*
%TD*%
D12*
%TO.P,R5,1*%
%TO.N,Net-(J4-CC1)*%
X106623220Y-58440000D03*
%TO.P,R5,2*%
%TO.N,GND*%
X106623220Y-59460000D03*
%TD*%
D33*
%TO.P,F1,1*%
%TO.N,Net-(F1-Pad1)*%
X108858220Y-58465000D03*
%TO.P,F1,2*%
%TO.N,Net-(D2-A)*%
X108858220Y-59435000D03*
%TD*%
D34*
%TO.P,D2,1,K*%
%TO.N,+5V*%
X106593220Y-60477500D03*
%TO.P,D2,2,A*%
%TO.N,Net-(D2-A)*%
X108693220Y-60477500D03*
%TD*%
D23*
%TO.P,J2,1,Pin_1*%
%TO.N,+5V*%
X110623220Y-58920000D03*
%TO.P,J2,2,Pin_2*%
%TO.N,GND*%
X110623220Y-60190000D03*
%TO.P,J2,3,Pin_3*%
%TO.N,RST*%
X110623220Y-61460000D03*
%TO.P,J2,4,Pin_4*%
%TO.N,A4*%
X110623220Y-62730000D03*
%TO.P,J2,5,Pin_5*%
%TO.N,A3*%
X110623220Y-64000000D03*
%TO.P,J2,6,Pin_6*%
%TO.N,A2*%
X110623220Y-65270000D03*
%TO.P,J2,7,Pin_7*%
%TO.N,A1*%
X110623220Y-66540000D03*
%TO.P,J2,8,Pin_8*%
%TO.N,A0*%
X110623220Y-67810000D03*
%TO.P,J2,9,Pin_9*%
%TO.N,D15{slash}SCK*%
X110623220Y-69080000D03*
%TO.P,J2,10,Pin_10*%
%TO.N,D14{slash}MISO*%
X110623220Y-70350000D03*
%TO.P,J2,11,Pin_11*%
%TO.N,D16{slash}MOSI*%
X110623220Y-71620000D03*
%TO.P,J2,12,Pin_12*%
%TO.N,D10*%
X110623220Y-72890000D03*
%TD*%
D35*
%TO.N,+5V*%
X108249098Y-69134122D03*
X106062720Y-60900000D03*
X103723720Y-62023055D03*
X100423220Y-62160000D03*
%TO.N,GND*%
X107593220Y-60500000D03*
X102874422Y-61020000D03*
X108333220Y-57700000D03*
X109422512Y-68554867D03*
X100833220Y-72860000D03*
X102623220Y-72860000D03*
X103623220Y-66860000D03*
X101112342Y-69620878D03*
%TO.N,Net-(U1-XTAL1)*%
X104462720Y-71275203D03*
X101933220Y-66100000D03*
%TO.N,RST*%
X104033220Y-63819920D03*
X107903220Y-62260000D03*
%TO.N,D1{slash}TX*%
X99648720Y-65660000D03*
%TO.N,D0{slash}RX*%
X99648720Y-66532544D03*
%TO.N,A4*%
X106533220Y-65500000D03*
%TO.N,Net-(U1-XTAL2)*%
X102208720Y-65402542D03*
X104063718Y-72000000D03*
%TO.N,D17{slash}SS*%
X101765572Y-60363083D03*
%TO.N,Net-(J4-D+-PadA6)*%
X103333220Y-58600000D03*
%TO.N,D7*%
X101941860Y-67908641D03*
%TO.N,D15{slash}SCK*%
X102941848Y-63766872D03*
%TO.N,D16{slash}MOSI*%
X101754098Y-61862000D03*
%TO.N,D14{slash}MISO*%
X101754098Y-61112497D03*
%TO.N,D3{slash}SCL*%
X101933220Y-66850500D03*
%TO.N,Net-(J4-D--PadA7)*%
X105223220Y-58600000D03*
%TO.N,D9*%
X103847220Y-68537000D03*
%TO.N,D5*%
X102797720Y-68537000D03*
%TO.N,D10*%
X106123822Y-70782529D03*
%TO.N,A3*%
X106786311Y-66249757D03*
%TO.N,A5*%
X105533220Y-68224500D03*
%TO.N,D11*%
X100833220Y-63000000D03*
%TO.N,D12*%
X104433220Y-67936000D03*
%TO.N,D13*%
X106873031Y-70761567D03*
X109172720Y-72800000D03*
%TO.N,Net-(FB1-Pad1)*%
X108088720Y-59500000D03*
X106673220Y-57400000D03*
X101873220Y-57400000D03*
X101177662Y-58740576D03*
%TD*%
D36*
%TO.N,+5V*%
X106273220Y-62140000D02*
X106273220Y-62849000D01*
D37*
X99728220Y-63685000D02*
X99994408Y-63685000D01*
D36*
X108873220Y-69530000D02*
X108043220Y-68700000D01*
X100449720Y-64686500D02*
X100935720Y-64686500D01*
X99673220Y-64140000D02*
X99903220Y-64140000D01*
X103723720Y-62023055D02*
X103773220Y-62072555D01*
D37*
X108863220Y-62430000D02*
X108863220Y-61570000D01*
X100423220Y-62660000D02*
X100423220Y-62160000D01*
D36*
X106062720Y-60900000D02*
X106102720Y-60940000D01*
X108043220Y-68700000D02*
X107624220Y-68700000D01*
D37*
X99673220Y-63740000D02*
X99728220Y-63685000D01*
D36*
X103723720Y-61579500D02*
X103723720Y-62023055D01*
D37*
X100208220Y-62875000D02*
X100423220Y-62660000D01*
X100208220Y-63471188D02*
X100208220Y-62875000D01*
X99673220Y-64140000D02*
X99673220Y-63740000D01*
D36*
X106062720Y-61929500D02*
X106273220Y-62140000D01*
X106062720Y-60900000D02*
X106170720Y-60900000D01*
X106170720Y-60900000D02*
X106593220Y-60477500D01*
D37*
X109688220Y-58920000D02*
X110623220Y-58920000D01*
D36*
X106102720Y-60940000D02*
X106163720Y-60940000D01*
X103773220Y-62072555D02*
X103773220Y-62849000D01*
X99903220Y-64140000D02*
X100449720Y-64686500D01*
D37*
X109403220Y-59205000D02*
X109688220Y-58920000D01*
X107624220Y-68700000D02*
X107610720Y-68686500D01*
D36*
X103803220Y-61500000D02*
X103723720Y-61579500D01*
X106062720Y-60900000D02*
X106062720Y-61929500D01*
D37*
X99994408Y-63685000D02*
X100208220Y-63471188D01*
X109403220Y-61030000D02*
X109403220Y-59205000D01*
X108863220Y-61570000D02*
X109403220Y-61030000D01*
D36*
%TO.N,GND*%
X100935720Y-65186500D02*
X100377303Y-65186500D01*
X104321720Y-66311500D02*
X105433220Y-65200000D01*
D37*
X104273220Y-66311500D02*
X104321720Y-66311500D01*
D36*
X101004719Y-57410001D02*
X101073220Y-57341500D01*
X100000803Y-64810000D02*
X99731563Y-64810000D01*
X100377303Y-65186500D02*
X100000803Y-64810000D01*
D37*
%TO.N,Net-(C2-Pad2)*%
X102273220Y-69524000D02*
X102273220Y-68319037D01*
X103294035Y-65200000D02*
X104733220Y-65200000D01*
X108468220Y-63450000D02*
X108863220Y-63450000D01*
X103048220Y-67544037D02*
X103048220Y-65445815D01*
X108231720Y-63686500D02*
X108468220Y-63450000D01*
X107610720Y-63686500D02*
X108231720Y-63686500D01*
X108853220Y-63460000D02*
X108863220Y-63450000D01*
X106181926Y-64308644D02*
X106804070Y-63686500D01*
X104733220Y-65200000D02*
X105624576Y-64308644D01*
X105624576Y-64308644D02*
X106181926Y-64308644D01*
X102273220Y-68319037D02*
X103048220Y-67544037D01*
X108853220Y-64320000D02*
X108853220Y-63460000D01*
X103048220Y-65445815D02*
X103294035Y-65200000D01*
X106804070Y-63686500D02*
X107610720Y-63686500D01*
%TO.N,Net-(U1-XTAL1)*%
X105713220Y-71250000D02*
X106133220Y-71670000D01*
X101933220Y-66100000D02*
X101022220Y-66100000D01*
X104963220Y-71250000D02*
X105713220Y-71250000D01*
X101022220Y-66100000D02*
X100935720Y-66186500D01*
%TO.N,RST*%
X107903220Y-62180000D02*
X107903220Y-61590000D01*
X103561268Y-64291872D02*
X102425092Y-64291872D01*
X102319720Y-64186500D02*
X100935720Y-64186500D01*
X102425092Y-64291872D02*
X102319720Y-64186500D01*
X104033220Y-63819920D02*
X103561268Y-64291872D01*
%TO.N,D1{slash}TX*%
X100219720Y-68186500D02*
X100935720Y-68186500D01*
X99648720Y-65660000D02*
X99123720Y-66185000D01*
X99123720Y-66185000D02*
X99123720Y-67090500D01*
X99123720Y-67090500D02*
X100219720Y-68186500D01*
%TO.N,D0{slash}RX*%
X99648720Y-66532544D02*
X99648720Y-66915500D01*
X99648720Y-66915500D02*
X100419720Y-67686500D01*
X100419720Y-67686500D02*
X100935720Y-67686500D01*
%TO.N,A4*%
X106719720Y-65686500D02*
X107610720Y-65686500D01*
X106533220Y-65500000D02*
X106719720Y-65686500D01*
%TO.N,Net-(U1-XTAL2)*%
X102208720Y-65402542D02*
X101888215Y-65402542D01*
X104063718Y-72000000D02*
X103713718Y-72350000D01*
X102823220Y-72100000D02*
X102413220Y-72100000D01*
X101888215Y-65402542D02*
X101604257Y-65686500D01*
X103713718Y-72350000D02*
X103073220Y-72350000D01*
X103073220Y-72350000D02*
X102823220Y-72100000D01*
X101604257Y-65686500D02*
X100935720Y-65686500D01*
D36*
%TO.N,Net-(U1-UCAP)*%
X104333220Y-61080000D02*
X103803220Y-60550000D01*
X104273220Y-61891543D02*
X104333220Y-61831543D01*
X104333220Y-61831543D02*
X104333220Y-61080000D01*
X104273220Y-62849000D02*
X104273220Y-61891543D01*
D37*
%TO.N,Net-(D1-A)*%
X107408220Y-71685000D02*
X107333220Y-71685000D01*
X108403220Y-72680000D02*
X107408220Y-71685000D01*
D36*
%TO.N,Net-(D2-A)*%
X108693220Y-60040000D02*
X108858220Y-59875000D01*
X108858220Y-59875000D02*
X108858220Y-59435000D01*
X108693220Y-60477500D02*
X108693220Y-60040000D01*
D37*
%TO.N,D17{slash}SS*%
X102298220Y-60895731D02*
X102298220Y-61806188D01*
X102993202Y-62035000D02*
X103273220Y-62315018D01*
X102298220Y-61806188D02*
X102527032Y-62035000D01*
X101765572Y-60363083D02*
X102298220Y-60895731D01*
X103273220Y-62315018D02*
X103273220Y-62849000D01*
X102527032Y-62035000D02*
X102993202Y-62035000D01*
%TO.N,Net-(J4-CC1)*%
X105524143Y-57590923D02*
X105524143Y-57341500D01*
X105833220Y-57900000D02*
X105524143Y-57590923D01*
X106033220Y-57900000D02*
X105833220Y-57900000D01*
X106563220Y-58430000D02*
X106033220Y-57900000D01*
%TO.N,Net-(J4-D+-PadA6)*%
X103493220Y-58440000D02*
X103803220Y-58440000D01*
X103333220Y-58600000D02*
X103754073Y-58600000D01*
X103333220Y-58600000D02*
X103493220Y-58440000D01*
X103803220Y-58440000D02*
X103523912Y-58440000D01*
X104523220Y-57591530D02*
X104523190Y-57591500D01*
X103523912Y-58440000D02*
X103523912Y-57342360D01*
X104523220Y-57830853D02*
X104523220Y-57591530D01*
X103754073Y-58600000D02*
X104523220Y-57830853D01*
D38*
%TO.N,D+*%
X105103240Y-62051364D02*
X105328220Y-62276344D01*
X105103240Y-60940020D02*
X105103240Y-62051364D01*
X105328220Y-62794000D02*
X105273220Y-62849000D01*
X105328220Y-62276344D02*
X105328220Y-62794000D01*
X103773220Y-59610000D02*
X105103240Y-60940020D01*
%TO.N,D-*%
X105375092Y-60459998D02*
X105375092Y-60459999D01*
X105375094Y-60459999D02*
X105375092Y-60459998D01*
X105718220Y-62794000D02*
X105773220Y-62849000D01*
X105718220Y-62114828D02*
X105718220Y-62794000D01*
X105375091Y-60660327D02*
X105493220Y-60778456D01*
X105299651Y-60184228D02*
X105375093Y-60259670D01*
X105493220Y-61889828D02*
X105718220Y-62114828D01*
X105099321Y-60184227D02*
X105099322Y-60184229D01*
X105493220Y-60778456D02*
X105493220Y-61889828D01*
X105375091Y-60660328D02*
X105375091Y-60660327D01*
X104723220Y-59610000D02*
X104723220Y-60008456D01*
X104723220Y-60008456D02*
X104898992Y-60184228D01*
X105299650Y-60184226D02*
X105299651Y-60184228D01*
X105375058Y-60459963D02*
G75*
G03*
X105375092Y-60259671I-100158J100163D01*
G01*
X105299664Y-60184212D02*
G75*
G03*
X105099321Y-60184227I-100164J-100188D01*
G01*
X105375128Y-60460035D02*
G75*
G03*
X105375091Y-60660328I100172J-100165D01*
G01*
X104899037Y-60184184D02*
G75*
G03*
X105099320Y-60184226I100163J100084D01*
G01*
D37*
%TO.N,D7*%
X101941860Y-67908641D02*
X102458220Y-67392281D01*
X106454806Y-63611500D02*
X106773220Y-63293086D01*
X104433220Y-64900000D02*
X105721720Y-63611500D01*
X102458220Y-65895505D02*
X102748220Y-65605505D01*
X103033220Y-64900000D02*
X104433220Y-64900000D01*
X105721720Y-63611500D02*
X106454806Y-63611500D01*
X106773220Y-63293086D02*
X106773220Y-62849000D01*
X102748220Y-65185000D02*
X103033220Y-64900000D01*
X102748220Y-65605505D02*
X102748220Y-65185000D01*
X102458220Y-67392281D02*
X102458220Y-65895505D01*
%TO.N,D15{slash}SCK*%
X102773220Y-63598244D02*
X102773220Y-62849000D01*
X102941848Y-63766872D02*
X102773220Y-63598244D01*
%TO.N,D16{slash}MOSI*%
X102273220Y-62381122D02*
X102273220Y-62849000D01*
X101754098Y-61862000D02*
X102273220Y-62381122D01*
%TO.N,D14{slash}MISO*%
X101482220Y-62849000D02*
X101773220Y-62849000D01*
X101754098Y-61112497D02*
X101229098Y-61637497D01*
X101229098Y-62595878D02*
X101482220Y-62849000D01*
X101229098Y-61637497D02*
X101229098Y-62595878D01*
%TO.N,D3{slash}SCL*%
X101933220Y-66850500D02*
X101769220Y-66686500D01*
X101769220Y-66686500D02*
X100935720Y-66686500D01*
%TO.N,D2{slash}SDA*%
X100491634Y-67186500D02*
X100935720Y-67186500D01*
X99866183Y-65135000D02*
X100173220Y-65442037D01*
X98074971Y-64000000D02*
X99209971Y-65135000D01*
X99209971Y-65135000D02*
X99866183Y-65135000D01*
X100173220Y-66868086D02*
X100491634Y-67186500D01*
X97923220Y-64000000D02*
X98074971Y-64000000D01*
X100173220Y-65442037D02*
X100173220Y-66868086D01*
%TO.N,Net-(J4-D--PadA7)*%
X105023667Y-57949553D02*
X105023667Y-57341500D01*
X104024389Y-57341930D02*
X104249819Y-57116500D01*
X104713220Y-58490000D02*
X104713220Y-58260000D01*
X104713220Y-58260000D02*
X105023667Y-57949553D01*
X104798667Y-57116500D02*
X105023667Y-57341500D01*
X104249819Y-57116500D02*
X104798667Y-57116500D01*
%TO.N,D4*%
X98923220Y-67388249D02*
X98923220Y-68490000D01*
X102773220Y-69968086D02*
X102773220Y-69524000D01*
X97923220Y-66540000D02*
X98074971Y-66540000D01*
X102454806Y-70286500D02*
X102773220Y-69968086D01*
X100719720Y-70286500D02*
X102454806Y-70286500D01*
X98074971Y-66540000D02*
X98923220Y-67388249D01*
X98923220Y-68490000D02*
X100719720Y-70286500D01*
%TO.N,D6*%
X103773220Y-70200000D02*
X103686720Y-70286500D01*
X103773220Y-69524000D02*
X103773220Y-70200000D01*
X102879070Y-70286500D02*
X102465570Y-70700000D01*
X98903220Y-69080000D02*
X97923220Y-69080000D01*
X102465570Y-70700000D02*
X100523220Y-70700000D01*
X100523220Y-70700000D02*
X98903220Y-69080000D01*
X103686720Y-70286500D02*
X102879070Y-70286500D01*
%TO.N,D8*%
X103003334Y-70586500D02*
X102489834Y-71100000D01*
X99433220Y-71100000D02*
X98913220Y-71620000D01*
X102489834Y-71100000D02*
X99433220Y-71100000D01*
X104273220Y-70175000D02*
X103861720Y-70586500D01*
X104273220Y-69524000D02*
X104273220Y-70175000D01*
X98913220Y-71620000D02*
X97923220Y-71620000D01*
X103861720Y-70586500D02*
X103003334Y-70586500D01*
%TO.N,D9*%
X103847220Y-68537000D02*
X104520220Y-68537000D01*
X104773220Y-68790000D02*
X104773220Y-69524000D01*
X104520220Y-68537000D02*
X104773220Y-68790000D01*
%TO.N,D5*%
X102797720Y-68537000D02*
X102797720Y-68411236D01*
X102797720Y-68411236D02*
X103797456Y-67411500D01*
X104958220Y-67718537D02*
X104958220Y-68410736D01*
X105454806Y-68761500D02*
X105773220Y-69079914D01*
X103797456Y-67411500D02*
X104651183Y-67411500D01*
X104651183Y-67411500D02*
X104958220Y-67718537D01*
X105308984Y-68761500D02*
X105454806Y-68761500D01*
X104958220Y-68410736D02*
X105308984Y-68761500D01*
X105773220Y-69079914D02*
X105773220Y-69524000D01*
%TO.N,D10*%
X105273220Y-70240000D02*
X105273220Y-69524000D01*
X105815749Y-70782529D02*
X105273220Y-70240000D01*
X106123822Y-70782529D02*
X105815749Y-70782529D01*
%TO.N,Net-(J4-CC2)*%
X102521031Y-57942189D02*
X102521031Y-57341500D01*
X101873220Y-58590000D02*
X102521031Y-57942189D01*
%TO.N,A0*%
X110499720Y-67686500D02*
X110623220Y-67810000D01*
X107610720Y-67686500D02*
X110499720Y-67686500D01*
%TO.N,A1*%
X108902220Y-67162000D02*
X109524220Y-66540000D01*
X109524220Y-66540000D02*
X110623220Y-66540000D01*
X107610720Y-67186500D02*
X107635220Y-67162000D01*
X107635220Y-67162000D02*
X108902220Y-67162000D01*
%TO.N,A2*%
X107610720Y-66686500D02*
X108546720Y-66686500D01*
X109963220Y-65270000D02*
X110623220Y-65270000D01*
X108546720Y-66686500D02*
X109963220Y-65270000D01*
%TO.N,A3*%
X106849568Y-66186500D02*
X107610720Y-66186500D01*
X106786311Y-66249757D02*
X106849568Y-66186500D01*
%TO.N,A5*%
X106962183Y-65186500D02*
X106737815Y-64962132D01*
X106737815Y-64962132D02*
X106328625Y-64962132D01*
X107610720Y-65186500D02*
X106962183Y-65186500D01*
X105533220Y-65757537D02*
X105533220Y-68224500D01*
X106328625Y-64962132D02*
X105533220Y-65757537D01*
D36*
%TO.N,Net-(J4-SHIELD)*%
X99673220Y-60600000D02*
X99673220Y-59430000D01*
X98673220Y-56591500D02*
X98673220Y-57818798D01*
X99054422Y-58811202D02*
X99673220Y-59430000D01*
X98673220Y-57818798D02*
X99054422Y-58200000D01*
X99054422Y-58200000D02*
X99054422Y-58811202D01*
D37*
%TO.N,Net-(U1-~{HWB}{slash}PE2)*%
X106773220Y-69524000D02*
X106773220Y-69920000D01*
X106773220Y-69920000D02*
X107623220Y-70770000D01*
%TO.N,D11*%
X100935720Y-63102500D02*
X100935720Y-63686500D01*
X100833220Y-63000000D02*
X100935720Y-63102500D01*
%TO.N,D12*%
X103322720Y-68310500D02*
X103322720Y-69474500D01*
X103621220Y-68012000D02*
X103322720Y-68310500D01*
X104433220Y-67936000D02*
X104357220Y-68012000D01*
X104357220Y-68012000D02*
X103621220Y-68012000D01*
X103322720Y-69474500D02*
X103273220Y-69524000D01*
%TO.N,D13*%
X106273220Y-70161756D02*
X106273220Y-69524000D01*
X109172720Y-72800000D02*
X109172720Y-72429500D01*
X108823220Y-73160000D02*
X108798220Y-73185000D01*
X108798220Y-73185000D02*
X105096469Y-73185000D01*
X106873031Y-70761567D02*
X106273220Y-70161756D01*
X109172720Y-72429500D02*
X108403220Y-71660000D01*
X104273220Y-74008249D02*
X104273220Y-74160000D01*
X109172720Y-72800000D02*
X108823220Y-73149500D01*
X105096469Y-73185000D02*
X104273220Y-74008249D01*
X108823220Y-73149500D02*
X108823220Y-73160000D01*
D36*
%TO.N,Net-(F1-Pad1)*%
X107563220Y-58440000D02*
X108833220Y-58440000D01*
X108833220Y-58440000D02*
X108858220Y-58465000D01*
%TD*%
%TA.AperFunction,Conductor*%
%TO.N,GND*%
G36*
X102944475Y-71054773D02*
G01*
X102963220Y-71100028D01*
X102963219Y-71119999D01*
X102963220Y-71120000D01*
X103599220Y-71120000D01*
X103644475Y-71138745D01*
X103663220Y-71184000D01*
X103663220Y-71256000D01*
X103644475Y-71301255D01*
X103599220Y-71320000D01*
X102963221Y-71320000D01*
X102963221Y-71634771D01*
X102971923Y-71678527D01*
X103008985Y-71733993D01*
X103018541Y-71782035D01*
X103008985Y-71805107D01*
X102973737Y-71857859D01*
X102933009Y-71885072D01*
X102910509Y-71885514D01*
X102896136Y-71883237D01*
X102880121Y-71878493D01*
X102862733Y-71870752D01*
X102830215Y-71838135D01*
X102797033Y-71762984D01*
X102720236Y-71686187D01*
X102620882Y-71642318D01*
X102598431Y-71639713D01*
X102598426Y-71639712D01*
X102596593Y-71639500D01*
X102594738Y-71639500D01*
X102231688Y-71639500D01*
X102231670Y-71639500D01*
X102229848Y-71639501D01*
X102228034Y-71639711D01*
X102228023Y-71639712D01*
X102205558Y-71642318D01*
X102106204Y-71686187D01*
X102029406Y-71762985D01*
X101991492Y-71848850D01*
X101956065Y-71882677D01*
X101907094Y-71881544D01*
X101874399Y-71848849D01*
X101836612Y-71763272D01*
X101759946Y-71686606D01*
X101660768Y-71642813D01*
X101638341Y-71640211D01*
X101634679Y-71640000D01*
X101553220Y-71640000D01*
X101553220Y-72560000D01*
X101634679Y-72560000D01*
X101638341Y-72559788D01*
X101660768Y-72557186D01*
X101759946Y-72513393D01*
X101836612Y-72436727D01*
X101874400Y-72351149D01*
X101909828Y-72317322D01*
X101958798Y-72318453D01*
X101991492Y-72351147D01*
X102029407Y-72437016D01*
X102106204Y-72513813D01*
X102205558Y-72557682D01*
X102229847Y-72560500D01*
X102596592Y-72560499D01*
X102620882Y-72557682D01*
X102720236Y-72513813D01*
X102773927Y-72460121D01*
X102819180Y-72441376D01*
X102864435Y-72460121D01*
X102864436Y-72460121D01*
X102908410Y-72504095D01*
X102910699Y-72506507D01*
X102930416Y-72528405D01*
X102946281Y-72546025D01*
X102962719Y-72588849D01*
X102962719Y-72734821D01*
X102971452Y-72778721D01*
X102971453Y-72778722D01*
X103004716Y-72828504D01*
X103048179Y-72857545D01*
X103054498Y-72861767D01*
X103098398Y-72870500D01*
X103098400Y-72870500D01*
X104028042Y-72870500D01*
X104057307Y-72864677D01*
X104071942Y-72861767D01*
X104121724Y-72828504D01*
X104154987Y-72778722D01*
X104163720Y-72734820D01*
X104163720Y-72488065D01*
X104182465Y-72442810D01*
X104209687Y-72426658D01*
X104252787Y-72414004D01*
X104264619Y-72406399D01*
X104312821Y-72397701D01*
X104353059Y-72425636D01*
X104363220Y-72460239D01*
X104363220Y-72734771D01*
X104371923Y-72778527D01*
X104405076Y-72828143D01*
X104454694Y-72861298D01*
X104498443Y-72869999D01*
X104863220Y-72869999D01*
X104863220Y-72284000D01*
X104881965Y-72238745D01*
X104927220Y-72220000D01*
X105563218Y-72220000D01*
X105563219Y-71905228D01*
X105554516Y-71861472D01*
X105517454Y-71806006D01*
X105507898Y-71757964D01*
X105517455Y-71734892D01*
X105521722Y-71728504D01*
X105521724Y-71728504D01*
X105554987Y-71678722D01*
X105562130Y-71642813D01*
X105563720Y-71634821D01*
X105563720Y-71573916D01*
X105582465Y-71528661D01*
X105627720Y-71509916D01*
X105672975Y-71528661D01*
X105843975Y-71699661D01*
X105862720Y-71744916D01*
X105862720Y-71871531D01*
X105862720Y-71871548D01*
X105862721Y-71873372D01*
X105862931Y-71875186D01*
X105862932Y-71875196D01*
X105863712Y-71881919D01*
X105865538Y-71897662D01*
X105909407Y-71997016D01*
X105986204Y-72073813D01*
X106064405Y-72108342D01*
X106072069Y-72111726D01*
X106105896Y-72147154D01*
X106104765Y-72196124D01*
X106072070Y-72228819D01*
X105986493Y-72266606D01*
X105909826Y-72343273D01*
X105866033Y-72442451D01*
X105863431Y-72464878D01*
X105863220Y-72468540D01*
X105863220Y-72550000D01*
X106801259Y-72550000D01*
X106815720Y-72544010D01*
X106842253Y-72555000D01*
X107793219Y-72555000D01*
X107793219Y-72543414D01*
X107811964Y-72498159D01*
X107857219Y-72479414D01*
X107902474Y-72498159D01*
X107913975Y-72509660D01*
X107932720Y-72554915D01*
X107932720Y-72855781D01*
X107932720Y-72855798D01*
X107932721Y-72857622D01*
X107932931Y-72859434D01*
X107932932Y-72859448D01*
X107936259Y-72888127D01*
X107922852Y-72935240D01*
X107880058Y-72959074D01*
X107872685Y-72959500D01*
X107849828Y-72959500D01*
X107804573Y-72940755D01*
X107785828Y-72895500D01*
X107789728Y-72877008D01*
X107793006Y-72848755D01*
X107793220Y-72845062D01*
X107793220Y-72755000D01*
X106835180Y-72755000D01*
X106820715Y-72760990D01*
X106794185Y-72750000D01*
X105863220Y-72750000D01*
X105863220Y-72831459D01*
X105863431Y-72835121D01*
X105866032Y-72857545D01*
X105871377Y-72869648D01*
X105872508Y-72918619D01*
X105838682Y-72954047D01*
X105812830Y-72959500D01*
X105535755Y-72959500D01*
X105490500Y-72940755D01*
X105471755Y-72895500D01*
X105490500Y-72850245D01*
X105500198Y-72842286D01*
X105521363Y-72828143D01*
X105554517Y-72778526D01*
X105563220Y-72734776D01*
X105563220Y-72420000D01*
X105063220Y-72420000D01*
X105063220Y-72881122D01*
X105074100Y-72907389D01*
X105055355Y-72952644D01*
X105023409Y-72969990D01*
X105002699Y-72974392D01*
X104994752Y-72980166D01*
X104980081Y-72988132D01*
X104970909Y-72991653D01*
X104953123Y-73009439D01*
X104945489Y-73015959D01*
X104925147Y-73030738D01*
X104920236Y-73039244D01*
X104910067Y-73052495D01*
X104705840Y-73256722D01*
X104660585Y-73275467D01*
X104650573Y-73274679D01*
X104648525Y-73274354D01*
X104648524Y-73274354D01*
X104554739Y-73259500D01*
X103991700Y-73259500D01*
X103897916Y-73274353D01*
X103784879Y-73331949D01*
X103784878Y-73331949D01*
X103784878Y-73331950D01*
X103695170Y-73421658D01*
X103695169Y-73421659D01*
X103688003Y-73428826D01*
X103687394Y-73428217D01*
X103657992Y-73453325D01*
X103609160Y-73449478D01*
X103588473Y-73428790D01*
X103588438Y-73428826D01*
X103541474Y-73381862D01*
X103491562Y-73331950D01*
X103378524Y-73274354D01*
X103284739Y-73259500D01*
X102721700Y-73259500D01*
X102627916Y-73274353D01*
X102514879Y-73331949D01*
X102514878Y-73331949D01*
X102514878Y-73331950D01*
X102425170Y-73421658D01*
X102425169Y-73421659D01*
X102418003Y-73428826D01*
X102417394Y-73428217D01*
X102387989Y-73453327D01*
X102339157Y-73449478D01*
X102318472Y-73428790D01*
X102318437Y-73428826D01*
X102311271Y-73421660D01*
X102311270Y-73421658D01*
X102221562Y-73331950D01*
X102108524Y-73274354D01*
X102014739Y-73259500D01*
X101451700Y-73259500D01*
X101357916Y-73274353D01*
X101244879Y-73331949D01*
X101155169Y-73421659D01*
X101097574Y-73534695D01*
X101082720Y-73628480D01*
X101082720Y-73945500D01*
X101063975Y-73990755D01*
X101018720Y-74009500D01*
X98137720Y-74009500D01*
X98092465Y-73990755D01*
X98073720Y-73945500D01*
X98073720Y-73604499D01*
X98092465Y-73559244D01*
X98137720Y-73540499D01*
X98454739Y-73540499D01*
X98501630Y-73533072D01*
X98548524Y-73525646D01*
X98661562Y-73468050D01*
X98751270Y-73378342D01*
X98808866Y-73265304D01*
X98823720Y-73171519D01*
X98823719Y-72608482D01*
X98813508Y-72544010D01*
X98808866Y-72514696D01*
X98783482Y-72464878D01*
X98751270Y-72401658D01*
X98661562Y-72311950D01*
X98661561Y-72311949D01*
X98654394Y-72304782D01*
X98655002Y-72304173D01*
X98629897Y-72274778D01*
X98633739Y-72225945D01*
X98654430Y-72205254D01*
X98654394Y-72205218D01*
X98659612Y-72200000D01*
X101023220Y-72200000D01*
X101023220Y-72311459D01*
X101023431Y-72315121D01*
X101026033Y-72337548D01*
X101069826Y-72436726D01*
X101146493Y-72513393D01*
X101245671Y-72557186D01*
X101268098Y-72559788D01*
X101271761Y-72560000D01*
X101353220Y-72560000D01*
X101353220Y-72200000D01*
X101023220Y-72200000D01*
X98659612Y-72200000D01*
X98669858Y-72189754D01*
X98751270Y-72108342D01*
X98806473Y-72000000D01*
X101023220Y-72000000D01*
X101353220Y-72000000D01*
X101353220Y-71640000D01*
X101271761Y-71640000D01*
X101268098Y-71640211D01*
X101245671Y-71642813D01*
X101146493Y-71686606D01*
X101069826Y-71763273D01*
X101026033Y-71862451D01*
X101023431Y-71884878D01*
X101023220Y-71888540D01*
X101023220Y-72000000D01*
X98806473Y-72000000D01*
X98808866Y-71995304D01*
X98823140Y-71905180D01*
X98824042Y-71899488D01*
X98849636Y-71857723D01*
X98887254Y-71845500D01*
X98905635Y-71845500D01*
X98908983Y-71845587D01*
X98949284Y-71847700D01*
X98972768Y-71838684D01*
X98982383Y-71835836D01*
X99006988Y-71830607D01*
X99014936Y-71824831D01*
X99029611Y-71816865D01*
X99038780Y-71813346D01*
X99056564Y-71795561D01*
X99064203Y-71789037D01*
X99073841Y-71782035D01*
X99084543Y-71774260D01*
X99089451Y-71765757D01*
X99099617Y-71752507D01*
X99507880Y-71344244D01*
X99553135Y-71325500D01*
X102482249Y-71325500D01*
X102485597Y-71325587D01*
X102525898Y-71327700D01*
X102549382Y-71318684D01*
X102558997Y-71315836D01*
X102583602Y-71310607D01*
X102591550Y-71304831D01*
X102606225Y-71296865D01*
X102615394Y-71293346D01*
X102633178Y-71275561D01*
X102640817Y-71269037D01*
X102661157Y-71254260D01*
X102666065Y-71245757D01*
X102676231Y-71232507D01*
X102853966Y-71054772D01*
X102899220Y-71036028D01*
X102944475Y-71054773D01*
G37*
%TD.AperFunction*%
%TA.AperFunction,Conductor*%
G36*
X106085772Y-65614399D02*
G01*
X106098733Y-65633067D01*
X106150337Y-65746062D01*
X106224894Y-65832107D01*
X106235171Y-65843967D01*
X106344151Y-65914004D01*
X106361670Y-65919147D01*
X106399809Y-65949883D01*
X106405046Y-65998586D01*
X106401854Y-66007142D01*
X106349614Y-66121529D01*
X106338754Y-66197065D01*
X106331178Y-66249757D01*
X106332724Y-66260512D01*
X106349614Y-66377984D01*
X106403428Y-66495819D01*
X106403429Y-66495820D01*
X106488262Y-66593724D01*
X106597242Y-66663761D01*
X106721539Y-66700257D01*
X106721540Y-66700257D01*
X106858720Y-66700257D01*
X106903975Y-66719002D01*
X106922720Y-66764257D01*
X106922720Y-66769981D01*
X106935077Y-66832108D01*
X106981071Y-66900944D01*
X106990627Y-66948986D01*
X106981071Y-66972056D01*
X106935077Y-67040891D01*
X106922720Y-67103018D01*
X106922720Y-67269981D01*
X106935077Y-67332108D01*
X106981071Y-67400943D01*
X106990627Y-67448985D01*
X106981071Y-67472055D01*
X106935077Y-67540891D01*
X106922720Y-67603018D01*
X106922720Y-67769981D01*
X106928484Y-67798961D01*
X106935078Y-67832109D01*
X106981373Y-67901395D01*
X106990929Y-67949435D01*
X106981373Y-67972506D01*
X106935548Y-68041087D01*
X106926515Y-68086500D01*
X108294922Y-68086500D01*
X108285890Y-68041086D01*
X108266159Y-68011557D01*
X108256603Y-67963515D01*
X108283816Y-67922786D01*
X108319373Y-67912000D01*
X109658721Y-67912000D01*
X109703976Y-67930745D01*
X109722721Y-67976000D01*
X109722721Y-68091518D01*
X109737573Y-68185303D01*
X109737574Y-68185304D01*
X109795170Y-68298342D01*
X109884878Y-68388050D01*
X109884880Y-68388051D01*
X109892046Y-68395217D01*
X109891437Y-68395825D01*
X109916545Y-68425225D01*
X109912700Y-68474057D01*
X109892010Y-68494747D01*
X109892046Y-68494783D01*
X109884879Y-68501949D01*
X109884878Y-68501950D01*
X109832993Y-68553835D01*
X109795169Y-68591659D01*
X109737574Y-68704695D01*
X109722720Y-68798480D01*
X109722720Y-69361519D01*
X109737573Y-69455303D01*
X109784868Y-69548124D01*
X109795170Y-69568342D01*
X109884878Y-69658050D01*
X109884880Y-69658051D01*
X109892046Y-69665217D01*
X109891437Y-69665825D01*
X109916545Y-69695225D01*
X109912700Y-69744057D01*
X109892010Y-69764747D01*
X109892046Y-69764783D01*
X109884879Y-69771949D01*
X109884878Y-69771950D01*
X109819813Y-69837015D01*
X109795169Y-69861659D01*
X109737574Y-69974695D01*
X109722720Y-70068480D01*
X109722720Y-70631519D01*
X109737573Y-70725303D01*
X109777357Y-70803382D01*
X109795170Y-70838342D01*
X109884878Y-70928050D01*
X109884880Y-70928051D01*
X109892046Y-70935217D01*
X109891437Y-70935825D01*
X109916545Y-70965225D01*
X109912700Y-71014057D01*
X109892010Y-71034747D01*
X109892046Y-71034783D01*
X109884879Y-71041949D01*
X109884878Y-71041950D01*
X109843344Y-71083484D01*
X109795169Y-71131659D01*
X109737574Y-71244695D01*
X109722720Y-71338480D01*
X109722720Y-71901519D01*
X109737573Y-71995303D01*
X109779572Y-72077730D01*
X109795170Y-72108342D01*
X109884878Y-72198050D01*
X109884880Y-72198051D01*
X109892046Y-72205217D01*
X109891437Y-72205825D01*
X109916545Y-72235225D01*
X109912700Y-72284057D01*
X109892010Y-72304747D01*
X109892046Y-72304783D01*
X109884879Y-72311949D01*
X109884878Y-72311950D01*
X109836493Y-72360335D01*
X109795169Y-72401659D01*
X109737574Y-72514695D01*
X109722720Y-72608480D01*
X109722720Y-72625670D01*
X109703975Y-72670925D01*
X109658720Y-72689670D01*
X109613465Y-72670925D01*
X109600504Y-72652257D01*
X109555602Y-72553937D01*
X109470768Y-72456032D01*
X109426914Y-72427849D01*
X109401766Y-72396944D01*
X109391409Y-72369963D01*
X109388557Y-72360335D01*
X109383327Y-72335731D01*
X109377557Y-72327790D01*
X109369583Y-72313105D01*
X109366065Y-72303940D01*
X109348281Y-72286156D01*
X109341759Y-72278519D01*
X109333104Y-72266606D01*
X109326980Y-72258177D01*
X109326979Y-72258176D01*
X109318475Y-72253266D01*
X109305222Y-72243097D01*
X108892464Y-71830339D01*
X108873719Y-71785084D01*
X108873719Y-71484218D01*
X108873719Y-71482378D01*
X108870950Y-71458502D01*
X108827836Y-71360859D01*
X108812382Y-71345405D01*
X108793638Y-71300152D01*
X108812383Y-71254897D01*
X108836636Y-71243171D01*
X108835743Y-71241147D01*
X108942074Y-71194195D01*
X109017415Y-71118854D01*
X109060456Y-71021380D01*
X109063008Y-70999379D01*
X109063220Y-70995717D01*
X109063220Y-70870000D01*
X108223220Y-70870000D01*
X108223220Y-70995717D01*
X108223431Y-70999379D01*
X108225983Y-71021380D01*
X108269024Y-71118854D01*
X108280415Y-71130245D01*
X108299160Y-71175500D01*
X108280415Y-71220755D01*
X108235161Y-71239500D01*
X108177438Y-71239500D01*
X108177420Y-71239500D01*
X108175598Y-71239501D01*
X108173784Y-71239711D01*
X108173773Y-71239712D01*
X108151721Y-71242270D01*
X108151722Y-71242270D01*
X108054079Y-71285384D01*
X107978604Y-71360859D01*
X107935490Y-71458502D01*
X107932720Y-71482377D01*
X107932720Y-71484230D01*
X107932720Y-71484231D01*
X107932720Y-71736085D01*
X107913975Y-71781340D01*
X107868720Y-71800085D01*
X107823467Y-71781342D01*
X107820358Y-71778233D01*
X107812464Y-71770339D01*
X107793719Y-71725089D01*
X107793719Y-71493010D01*
X107790829Y-71468091D01*
X107745828Y-71366172D01*
X107729410Y-71349754D01*
X107710665Y-71304499D01*
X107729410Y-71259244D01*
X107774665Y-71240499D01*
X107799002Y-71240499D01*
X107800842Y-71240499D01*
X107824718Y-71237730D01*
X107922361Y-71194616D01*
X107997836Y-71119141D01*
X108040950Y-71021498D01*
X108043720Y-70997623D01*
X108043719Y-70670000D01*
X108223220Y-70670000D01*
X108543220Y-70670000D01*
X108543220Y-70300000D01*
X108743220Y-70300000D01*
X108743220Y-70670000D01*
X109063220Y-70670000D01*
X109063220Y-70544282D01*
X109063008Y-70540620D01*
X109060456Y-70518619D01*
X109017415Y-70421145D01*
X108942074Y-70345804D01*
X108844600Y-70302763D01*
X108822599Y-70300211D01*
X108818937Y-70300000D01*
X108743220Y-70300000D01*
X108543220Y-70300000D01*
X108467503Y-70300000D01*
X108463840Y-70300211D01*
X108441839Y-70302763D01*
X108344365Y-70345804D01*
X108269024Y-70421145D01*
X108225983Y-70518619D01*
X108223431Y-70540620D01*
X108223220Y-70544282D01*
X108223220Y-70670000D01*
X108043719Y-70670000D01*
X108043719Y-70542378D01*
X108040950Y-70518502D01*
X107997836Y-70420859D01*
X107922361Y-70345384D01*
X107824718Y-70302270D01*
X107817664Y-70301451D01*
X107802681Y-70299713D01*
X107802676Y-70299712D01*
X107800843Y-70299500D01*
X107798988Y-70299500D01*
X107498135Y-70299500D01*
X107452880Y-70280755D01*
X107067465Y-69895340D01*
X107048720Y-69850085D01*
X107048720Y-69026000D01*
X107067465Y-68980745D01*
X107112720Y-68962000D01*
X107114740Y-68962000D01*
X107744852Y-68962000D01*
X107790107Y-68980745D01*
X107808852Y-69026000D01*
X107808201Y-69035108D01*
X107793965Y-69134121D01*
X107812401Y-69262349D01*
X107866215Y-69380184D01*
X107866216Y-69380185D01*
X107951049Y-69478089D01*
X108060029Y-69548126D01*
X108184326Y-69584622D01*
X108184327Y-69584622D01*
X108323072Y-69584622D01*
X108323072Y-69586887D01*
X108359386Y-69590789D01*
X108390126Y-69628926D01*
X108392720Y-69646962D01*
X108392720Y-69711531D01*
X108392720Y-69711548D01*
X108392721Y-69713372D01*
X108392931Y-69715186D01*
X108392932Y-69715196D01*
X108392934Y-69715211D01*
X108395538Y-69737662D01*
X108439407Y-69837016D01*
X108516204Y-69913813D01*
X108615558Y-69957682D01*
X108639847Y-69960500D01*
X109066592Y-69960499D01*
X109090882Y-69957682D01*
X109190236Y-69913813D01*
X109267033Y-69837016D01*
X109310902Y-69737662D01*
X109313720Y-69713373D01*
X109313719Y-69346628D01*
X109310902Y-69322338D01*
X109267033Y-69222984D01*
X109190236Y-69146187D01*
X109104369Y-69108273D01*
X109070543Y-69072845D01*
X109071674Y-69023874D01*
X109104370Y-68991179D01*
X109189947Y-68953392D01*
X109266613Y-68876726D01*
X109310406Y-68777548D01*
X109313008Y-68755121D01*
X109313220Y-68751459D01*
X109313220Y-68670000D01*
X108817220Y-68670000D01*
X108771965Y-68651255D01*
X108753220Y-68606000D01*
X108753220Y-68140000D01*
X108953220Y-68140000D01*
X108953220Y-68470000D01*
X109313220Y-68470000D01*
X109313220Y-68388540D01*
X109313008Y-68384878D01*
X109310406Y-68362451D01*
X109266613Y-68263273D01*
X109189946Y-68186606D01*
X109090768Y-68142813D01*
X109068341Y-68140211D01*
X109064679Y-68140000D01*
X108953220Y-68140000D01*
X108753220Y-68140000D01*
X108641761Y-68140000D01*
X108638098Y-68140211D01*
X108615671Y-68142813D01*
X108516493Y-68186606D01*
X108439825Y-68263274D01*
X108419190Y-68310007D01*
X108383762Y-68343834D01*
X108375081Y-68343633D01*
X108392270Y-68369357D01*
X108393394Y-68385525D01*
X108393220Y-68388544D01*
X108393220Y-68489835D01*
X108374475Y-68535090D01*
X108329220Y-68553835D01*
X108283965Y-68535090D01*
X108276006Y-68525392D01*
X108269587Y-68515785D01*
X108240066Y-68471605D01*
X108230511Y-68423563D01*
X108240067Y-68400493D01*
X108276286Y-68346287D01*
X108314094Y-68321023D01*
X108300965Y-68307273D01*
X108299662Y-68292273D01*
X108294925Y-68286500D01*
X106926518Y-68286500D01*
X106935549Y-68331914D01*
X106981372Y-68400493D01*
X106990928Y-68448535D01*
X106981372Y-68471605D01*
X106935077Y-68540891D01*
X106922720Y-68603018D01*
X106922720Y-68772000D01*
X106903975Y-68817255D01*
X106858720Y-68836000D01*
X106689738Y-68836000D01*
X106627611Y-68848357D01*
X106558775Y-68894351D01*
X106510732Y-68903907D01*
X106487663Y-68894351D01*
X106418828Y-68848357D01*
X106356702Y-68836000D01*
X106356700Y-68836000D01*
X106189740Y-68836000D01*
X106189738Y-68836000D01*
X106127611Y-68848357D01*
X106058775Y-68894351D01*
X106010732Y-68903907D01*
X105987663Y-68894351D01*
X105918828Y-68848357D01*
X105865144Y-68837679D01*
X105832375Y-68820164D01*
X105734874Y-68722663D01*
X105716129Y-68677408D01*
X105734874Y-68632153D01*
X105745514Y-68623578D01*
X105831269Y-68568467D01*
X105916102Y-68470563D01*
X105969917Y-68352726D01*
X105988353Y-68224500D01*
X105969917Y-68096274D01*
X105916102Y-67978437D01*
X105831269Y-67880533D01*
X105788118Y-67852801D01*
X105760182Y-67812564D01*
X105758720Y-67798961D01*
X105758720Y-65877452D01*
X105777465Y-65832197D01*
X105886269Y-65723393D01*
X105995263Y-65614398D01*
X106040517Y-65595654D01*
X106085772Y-65614399D01*
G37*
%TD.AperFunction*%
%TA.AperFunction,Conductor*%
G36*
X99257975Y-67543660D02*
G01*
X100054911Y-68340596D01*
X100057217Y-68343027D01*
X100084212Y-68373009D01*
X100107184Y-68383236D01*
X100116007Y-68388026D01*
X100135203Y-68400493D01*
X100137102Y-68401726D01*
X100146800Y-68403262D01*
X100162818Y-68408007D01*
X100171787Y-68412000D01*
X100171788Y-68412000D01*
X100196934Y-68412000D01*
X100206945Y-68412788D01*
X100219805Y-68414824D01*
X100231785Y-68416722D01*
X100231785Y-68416721D01*
X100233649Y-68417017D01*
X100275414Y-68442610D01*
X100286850Y-68490240D01*
X100276853Y-68515785D01*
X100260077Y-68540892D01*
X100247720Y-68603018D01*
X100247720Y-68769981D01*
X100260077Y-68832107D01*
X100260077Y-68832108D01*
X100260078Y-68832109D01*
X100307155Y-68902565D01*
X100377611Y-68949642D01*
X100396464Y-68953392D01*
X100439738Y-68962000D01*
X101434220Y-68962000D01*
X101479475Y-68980745D01*
X101498220Y-69026000D01*
X101498220Y-69424000D01*
X101673219Y-69424000D01*
X101673220Y-68839795D01*
X101655946Y-68825618D01*
X101652151Y-68824863D01*
X101624947Y-68784128D01*
X101623720Y-68771657D01*
X101623720Y-68603018D01*
X101613937Y-68553835D01*
X101611362Y-68540891D01*
X101565367Y-68472055D01*
X101555812Y-68424014D01*
X101565366Y-68400946D01*
X101611362Y-68332109D01*
X101611362Y-68332108D01*
X101618435Y-68321523D01*
X101619464Y-68322210D01*
X101637940Y-68294554D01*
X101685981Y-68284994D01*
X101708101Y-68293924D01*
X101752791Y-68322645D01*
X101877088Y-68359141D01*
X101877089Y-68359141D01*
X101983720Y-68359141D01*
X102028975Y-68377886D01*
X102047720Y-68423141D01*
X102047720Y-68815346D01*
X102028975Y-68860601D01*
X101983720Y-68879346D01*
X101948164Y-68868560D01*
X101918633Y-68848828D01*
X101873220Y-68839795D01*
X101873220Y-69560000D01*
X101854475Y-69605255D01*
X101809220Y-69624000D01*
X101498221Y-69624000D01*
X101498221Y-69997000D01*
X101479476Y-70042255D01*
X101434221Y-70061000D01*
X100839635Y-70061000D01*
X100794380Y-70042255D01*
X99167465Y-68415340D01*
X99148720Y-68370085D01*
X99148720Y-67588915D01*
X99167465Y-67543660D01*
X99212720Y-67524915D01*
X99257975Y-67543660D01*
G37*
%TD.AperFunction*%
%TA.AperFunction,Conductor*%
G36*
X99532975Y-56718950D02*
G01*
X99541757Y-56729912D01*
X99542647Y-56731314D01*
X99542648Y-56731317D01*
X99631390Y-56871152D01*
X99752120Y-56984526D01*
X99840911Y-57033339D01*
X99897254Y-57064314D01*
X100057666Y-57105500D01*
X100057667Y-57105500D01*
X100179698Y-57105500D01*
X100181718Y-57105500D01*
X100304788Y-57089953D01*
X100458775Y-57028985D01*
X100513854Y-56988967D01*
X100561481Y-56977533D01*
X100603247Y-57003126D01*
X100615470Y-57040745D01*
X100615470Y-57241500D01*
X101109220Y-57241500D01*
X101154475Y-57260245D01*
X101173220Y-57305500D01*
X101173220Y-57377500D01*
X101154475Y-57422755D01*
X101109220Y-57441500D01*
X100615471Y-57441500D01*
X100615471Y-57641500D01*
X101109220Y-57641500D01*
X101154475Y-57660245D01*
X101173220Y-57705500D01*
X101173220Y-57777500D01*
X101154475Y-57822755D01*
X101109220Y-57841500D01*
X100615471Y-57841500D01*
X100615471Y-57856274D01*
X100618116Y-57869576D01*
X100619345Y-57882056D01*
X100619345Y-57906276D01*
X100628047Y-57950025D01*
X100647489Y-57979121D01*
X100657045Y-58027163D01*
X100639530Y-58059933D01*
X100634078Y-58065384D01*
X100634079Y-58065384D01*
X100558604Y-58140859D01*
X100530062Y-58205500D01*
X100515490Y-58238502D01*
X100513220Y-58258071D01*
X100512720Y-58262377D01*
X100512720Y-58264230D01*
X100512720Y-58264231D01*
X100512720Y-58615781D01*
X100512720Y-58615798D01*
X100512721Y-58617622D01*
X100512931Y-58619436D01*
X100512932Y-58619446D01*
X100513220Y-58621928D01*
X100515490Y-58641498D01*
X100558604Y-58739141D01*
X100634079Y-58814616D01*
X100714707Y-58850217D01*
X100747072Y-58882177D01*
X100779408Y-58952982D01*
X100781157Y-59001934D01*
X100747779Y-59037785D01*
X100735116Y-59041316D01*
X100634365Y-59085804D01*
X100559024Y-59161145D01*
X100515983Y-59258619D01*
X100513431Y-59280620D01*
X100513220Y-59284282D01*
X100513220Y-59360000D01*
X101823220Y-59360000D01*
X101823220Y-59040000D01*
X102023220Y-59040000D01*
X102023220Y-59360000D01*
X102763220Y-59360000D01*
X102763220Y-59040000D01*
X102637503Y-59040000D01*
X102633840Y-59040211D01*
X102611839Y-59042763D01*
X102514365Y-59085804D01*
X102438475Y-59161695D01*
X102393220Y-59180440D01*
X102347965Y-59161695D01*
X102272074Y-59085804D01*
X102174600Y-59042763D01*
X102152599Y-59040211D01*
X102148937Y-59040000D01*
X102023220Y-59040000D01*
X101823220Y-59040000D01*
X101697503Y-59040000D01*
X101693840Y-59040211D01*
X101671836Y-59042764D01*
X101654327Y-59050495D01*
X101605356Y-59051626D01*
X101569930Y-59017798D01*
X101568799Y-58968827D01*
X101570261Y-58965361D01*
X101602706Y-58894317D01*
X101638555Y-58860941D01*
X101668298Y-58857333D01*
X101692495Y-58860140D01*
X101695597Y-58860500D01*
X102150842Y-58860499D01*
X102174718Y-58857730D01*
X102272361Y-58814616D01*
X102347836Y-58739141D01*
X102347837Y-58739137D01*
X102347965Y-58739010D01*
X102393220Y-58720265D01*
X102438475Y-58739010D01*
X102438602Y-58739137D01*
X102438604Y-58739141D01*
X102514079Y-58814616D01*
X102611722Y-58857730D01*
X102635597Y-58860500D01*
X102933618Y-58860499D01*
X102978873Y-58879244D01*
X102981986Y-58882588D01*
X103026178Y-58933589D01*
X103026612Y-58934089D01*
X103042081Y-58980566D01*
X103020155Y-59024368D01*
X102978244Y-59040000D01*
X102963220Y-59040000D01*
X102963220Y-59880000D01*
X103088937Y-59880000D01*
X103092599Y-59879788D01*
X103114600Y-59877236D01*
X103212074Y-59834195D01*
X103287612Y-59758658D01*
X103332867Y-59739913D01*
X103378122Y-59758658D01*
X103378603Y-59759139D01*
X103378604Y-59759141D01*
X103454079Y-59834616D01*
X103551722Y-59877730D01*
X103575597Y-59880500D01*
X103634663Y-59880499D01*
X103679918Y-59899243D01*
X103760920Y-59980245D01*
X103779665Y-60025500D01*
X103760920Y-60070755D01*
X103715666Y-60089500D01*
X103642890Y-60089500D01*
X103642872Y-60089500D01*
X103641050Y-60089501D01*
X103639236Y-60089711D01*
X103639225Y-60089712D01*
X103616760Y-60092318D01*
X103517406Y-60136187D01*
X103440608Y-60212985D01*
X103402694Y-60298850D01*
X103367267Y-60332677D01*
X103318296Y-60331544D01*
X103285601Y-60298849D01*
X103247814Y-60213272D01*
X103171148Y-60136606D01*
X103071970Y-60092813D01*
X103049543Y-60090211D01*
X103045881Y-60090000D01*
X102964422Y-60090000D01*
X102964422Y-61536000D01*
X102945677Y-61581255D01*
X102900422Y-61600000D01*
X102828422Y-61600000D01*
X102783167Y-61581255D01*
X102764422Y-61536000D01*
X102764422Y-60650000D01*
X102414983Y-60650000D01*
X102402902Y-60655003D01*
X102357653Y-60636258D01*
X102226233Y-60504839D01*
X102207488Y-60459584D01*
X102208139Y-60450476D01*
X102208207Y-60450000D01*
X102434422Y-60450000D01*
X102764422Y-60450000D01*
X102764422Y-60090000D01*
X102682963Y-60090000D01*
X102679300Y-60090211D01*
X102656873Y-60092813D01*
X102557695Y-60136606D01*
X102481028Y-60213273D01*
X102437235Y-60312451D01*
X102434633Y-60334878D01*
X102434422Y-60338540D01*
X102434422Y-60450000D01*
X102208207Y-60450000D01*
X102220705Y-60363083D01*
X102202269Y-60234857D01*
X102148454Y-60117020D01*
X102063621Y-60019116D01*
X102063620Y-60019115D01*
X102030515Y-59997840D01*
X102002579Y-59957604D01*
X102011276Y-59909399D01*
X102051512Y-59881463D01*
X102065116Y-59880000D01*
X102148937Y-59880000D01*
X102152599Y-59879788D01*
X102174600Y-59877236D01*
X102272073Y-59834195D01*
X102347965Y-59758304D01*
X102393220Y-59739559D01*
X102438475Y-59758304D01*
X102514366Y-59834195D01*
X102611839Y-59877236D01*
X102633840Y-59879788D01*
X102637503Y-59880000D01*
X102763220Y-59880000D01*
X102763220Y-59560000D01*
X101083220Y-59560000D01*
X101083220Y-59880000D01*
X101208937Y-59880000D01*
X101212599Y-59879788D01*
X101234600Y-59877236D01*
X101332074Y-59834195D01*
X101407965Y-59758305D01*
X101453220Y-59739560D01*
X101498475Y-59758305D01*
X101582826Y-59842656D01*
X101582151Y-59843330D01*
X101606573Y-59868906D01*
X101605444Y-59917877D01*
X101581497Y-59945868D01*
X101467523Y-60019115D01*
X101382689Y-60117020D01*
X101328875Y-60234855D01*
X101311600Y-60355007D01*
X101310439Y-60363083D01*
X101312040Y-60374218D01*
X101328875Y-60491310D01*
X101382689Y-60609145D01*
X101452106Y-60689258D01*
X101467575Y-60735735D01*
X101452106Y-60773080D01*
X101371215Y-60866434D01*
X101317401Y-60984269D01*
X101303739Y-61079294D01*
X101298965Y-61112497D01*
X101309927Y-61188744D01*
X101311530Y-61199889D01*
X101299415Y-61247351D01*
X101293436Y-61254252D01*
X101075009Y-61472679D01*
X101072579Y-61474984D01*
X101042590Y-61501987D01*
X101042588Y-61501990D01*
X101042589Y-61501990D01*
X101035770Y-61517306D01*
X101032361Y-61524962D01*
X101027569Y-61533786D01*
X101013871Y-61554879D01*
X101012333Y-61564585D01*
X101007591Y-61580593D01*
X101003598Y-61589563D01*
X101003598Y-61614711D01*
X101002809Y-61624722D01*
X100998876Y-61649562D01*
X101001417Y-61659043D01*
X101003598Y-61675609D01*
X101003598Y-62136261D01*
X100994836Y-62157413D01*
X101003598Y-62183738D01*
X101003598Y-62495014D01*
X100984853Y-62540269D01*
X100939598Y-62559014D01*
X100921569Y-62556422D01*
X100897992Y-62549500D01*
X100821954Y-62549500D01*
X100776699Y-62530755D01*
X100757954Y-62485500D01*
X100773586Y-62443589D01*
X100806102Y-62406063D01*
X100859917Y-62288226D01*
X100876249Y-62174628D01*
X100884193Y-62161240D01*
X100876249Y-62145369D01*
X100859917Y-62031774D01*
X100806102Y-61913937D01*
X100721269Y-61816033D01*
X100721268Y-61816032D01*
X100612291Y-61745997D01*
X100612290Y-61745996D01*
X100612289Y-61745996D01*
X100487992Y-61709500D01*
X100358448Y-61709500D01*
X100249399Y-61741519D01*
X100234148Y-61745997D01*
X100125171Y-61816032D01*
X100040337Y-61913937D01*
X99986523Y-62031772D01*
X99968087Y-62160000D01*
X99986523Y-62288227D01*
X100040337Y-62406062D01*
X100040338Y-62406063D01*
X100125171Y-62503967D01*
X100140650Y-62513914D01*
X100168586Y-62554149D01*
X100159890Y-62602354D01*
X100151304Y-62613009D01*
X100054123Y-62710190D01*
X100051693Y-62712496D01*
X100011602Y-62748595D01*
X100010097Y-62746923D01*
X99988941Y-62766996D01*
X99940160Y-62765792D01*
X99910766Y-62752813D01*
X99888339Y-62750211D01*
X99884679Y-62750000D01*
X99773220Y-62750000D01*
X99773220Y-63216000D01*
X99754475Y-63261255D01*
X99709220Y-63280000D01*
X99213220Y-63280000D01*
X99213220Y-63361459D01*
X99213431Y-63365121D01*
X99216033Y-63387548D01*
X99259826Y-63486726D01*
X99336493Y-63563393D01*
X99418596Y-63599647D01*
X99452423Y-63635074D01*
X99451290Y-63684045D01*
X99451213Y-63684219D01*
X99449514Y-63688036D01*
X99416897Y-63720556D01*
X99336205Y-63756186D01*
X99259407Y-63832984D01*
X99215538Y-63932337D01*
X99213384Y-63950907D01*
X99212720Y-63956627D01*
X99212720Y-63958480D01*
X99212720Y-63958481D01*
X99212720Y-64321531D01*
X99212720Y-64321548D01*
X99212721Y-64323372D01*
X99212931Y-64325186D01*
X99212932Y-64325196D01*
X99215074Y-64343664D01*
X99215538Y-64347662D01*
X99259407Y-64447016D01*
X99336204Y-64523813D01*
X99435558Y-64567682D01*
X99459847Y-64570500D01*
X99886592Y-64570499D01*
X99910882Y-64567682D01*
X99916392Y-64565248D01*
X99965358Y-64564114D01*
X99987498Y-64578538D01*
X100133398Y-64724439D01*
X100250684Y-64841725D01*
X100258642Y-64851423D01*
X100269117Y-64867100D01*
X100284436Y-64877335D01*
X100302098Y-64894997D01*
X100304182Y-64898117D01*
X100306376Y-64901400D01*
X100315927Y-64949444D01*
X100306372Y-64972507D01*
X100260548Y-65041087D01*
X100255807Y-65064925D01*
X100228594Y-65105653D01*
X100180551Y-65115209D01*
X100147782Y-65097694D01*
X100030992Y-64980904D01*
X100028704Y-64978493D01*
X100001690Y-64948491D01*
X100001689Y-64948490D01*
X100001688Y-64948489D01*
X99978714Y-64938260D01*
X99969891Y-64933470D01*
X99948799Y-64919773D01*
X99939097Y-64918236D01*
X99923084Y-64913493D01*
X99914115Y-64909500D01*
X99888969Y-64909500D01*
X99878957Y-64908712D01*
X99854118Y-64904778D01*
X99844633Y-64907319D01*
X99828071Y-64909500D01*
X99329886Y-64909500D01*
X99284631Y-64890755D01*
X98826497Y-64432621D01*
X98807752Y-64387366D01*
X98808540Y-64377353D01*
X98808863Y-64375308D01*
X98808866Y-64375304D01*
X98823720Y-64281519D01*
X98823719Y-63718482D01*
X98822519Y-63710907D01*
X98808866Y-63624696D01*
X98787357Y-63582482D01*
X98751270Y-63511658D01*
X98661562Y-63421950D01*
X98661156Y-63421743D01*
X98659998Y-63420387D01*
X98654394Y-63414783D01*
X98654835Y-63414341D01*
X98629345Y-63384496D01*
X98633189Y-63335664D01*
X98661160Y-63307694D01*
X98661265Y-63307640D01*
X98750861Y-63218043D01*
X98808384Y-63105148D01*
X98812367Y-63080000D01*
X99213220Y-63080000D01*
X99573220Y-63080000D01*
X99573220Y-62750000D01*
X99461761Y-62750000D01*
X99458098Y-62750211D01*
X99435671Y-62752813D01*
X99336493Y-62796606D01*
X99259826Y-62873273D01*
X99216033Y-62972451D01*
X99213431Y-62994878D01*
X99213220Y-62998540D01*
X99213220Y-63080000D01*
X98812367Y-63080000D01*
X98823220Y-63011481D01*
X98823220Y-62947712D01*
X98824422Y-62944810D01*
X98824422Y-62495191D01*
X98823219Y-62492287D01*
X98823219Y-62448519D01*
X98808385Y-62354852D01*
X98750861Y-62241956D01*
X98661264Y-62152358D01*
X98660610Y-62152025D01*
X98658730Y-62149825D01*
X98654097Y-62145191D01*
X98654461Y-62144826D01*
X98628797Y-62114778D01*
X98632639Y-62065946D01*
X98660610Y-62037975D01*
X98661264Y-62037641D01*
X98750861Y-61948043D01*
X98808384Y-61835148D01*
X98823220Y-61741481D01*
X98823220Y-61560000D01*
X98232681Y-61560000D01*
X98248220Y-61517306D01*
X98248220Y-61402694D01*
X98232681Y-61360000D01*
X98823219Y-61360000D01*
X98823219Y-61178519D01*
X98808385Y-61084852D01*
X98750861Y-60971956D01*
X98661264Y-60882358D01*
X98661159Y-60882305D01*
X98660855Y-60881949D01*
X98654097Y-60875191D01*
X98654628Y-60874659D01*
X98629346Y-60845057D01*
X98633189Y-60796225D01*
X98661160Y-60768255D01*
X98661260Y-60768203D01*
X98661562Y-60768050D01*
X98751270Y-60678342D01*
X98808866Y-60565304D01*
X98823720Y-60471519D01*
X98823719Y-59908482D01*
X98822427Y-59900327D01*
X98808866Y-59814696D01*
X98785840Y-59769505D01*
X98751270Y-59701658D01*
X98661562Y-59611950D01*
X98661561Y-59611949D01*
X98654394Y-59604782D01*
X98655002Y-59604173D01*
X98629897Y-59574778D01*
X98633739Y-59525945D01*
X98654430Y-59505254D01*
X98654394Y-59505218D01*
X98661562Y-59498050D01*
X98751270Y-59408342D01*
X98808866Y-59295304D01*
X98823720Y-59201519D01*
X98823719Y-59089268D01*
X98842464Y-59044015D01*
X98887718Y-59025269D01*
X98932973Y-59044014D01*
X98932974Y-59044014D01*
X99193975Y-59305015D01*
X99212720Y-59350270D01*
X99212720Y-59611531D01*
X99212720Y-59611548D01*
X99212721Y-59613372D01*
X99212931Y-59615186D01*
X99212932Y-59615196D01*
X99212934Y-59615211D01*
X99215538Y-59637662D01*
X99259407Y-59737016D01*
X99336204Y-59813813D01*
X99384570Y-59835168D01*
X99418398Y-59870594D01*
X99422720Y-59893715D01*
X99422720Y-60112204D01*
X99403975Y-60157459D01*
X99384572Y-60170750D01*
X99374080Y-60175382D01*
X99336191Y-60213272D01*
X99298604Y-60250859D01*
X99255490Y-60348502D01*
X99252720Y-60372377D01*
X99252720Y-60374230D01*
X99252720Y-60374231D01*
X99252720Y-60825781D01*
X99252720Y-60825798D01*
X99252721Y-60827622D01*
X99252931Y-60829436D01*
X99252932Y-60829446D01*
X99254651Y-60844267D01*
X99255490Y-60851498D01*
X99298604Y-60949141D01*
X99374079Y-61024616D01*
X99471722Y-61067730D01*
X99495597Y-61070500D01*
X99850842Y-61070499D01*
X99874718Y-61067730D01*
X99972361Y-61024616D01*
X100047836Y-60949141D01*
X100090950Y-60851498D01*
X100093720Y-60827623D01*
X100093720Y-60700000D01*
X100273220Y-60700000D01*
X100273220Y-60825717D01*
X100273431Y-60829379D01*
X100275983Y-60851380D01*
X100319024Y-60948854D01*
X100394365Y-61024195D01*
X100491839Y-61067236D01*
X100513840Y-61069788D01*
X100517503Y-61070000D01*
X100593220Y-61070000D01*
X100593220Y-60700000D01*
X100793220Y-60700000D01*
X100793220Y-61070000D01*
X100868937Y-61070000D01*
X100872599Y-61069788D01*
X100894600Y-61067236D01*
X100992074Y-61024195D01*
X101067415Y-60948854D01*
X101110456Y-60851380D01*
X101113008Y-60829379D01*
X101113220Y-60825717D01*
X101113220Y-60700000D01*
X100793220Y-60700000D01*
X100593220Y-60700000D01*
X100273220Y-60700000D01*
X100093720Y-60700000D01*
X100093719Y-60500000D01*
X100273220Y-60500000D01*
X100593220Y-60500000D01*
X100593220Y-60130000D01*
X100793220Y-60130000D01*
X100793220Y-60500000D01*
X101113220Y-60500000D01*
X101113220Y-60374282D01*
X101113008Y-60370620D01*
X101110456Y-60348619D01*
X101067415Y-60251145D01*
X100992074Y-60175804D01*
X100894600Y-60132763D01*
X100872599Y-60130211D01*
X100868937Y-60130000D01*
X100793220Y-60130000D01*
X100593220Y-60130000D01*
X100517503Y-60130000D01*
X100513840Y-60130211D01*
X100491839Y-60132763D01*
X100394365Y-60175804D01*
X100319024Y-60251145D01*
X100275983Y-60348619D01*
X100273431Y-60370620D01*
X100273220Y-60374282D01*
X100273220Y-60500000D01*
X100093719Y-60500000D01*
X100093719Y-60372378D01*
X100090950Y-60348502D01*
X100047836Y-60250859D01*
X99972361Y-60175384D01*
X99972360Y-60175383D01*
X99972359Y-60175382D01*
X99961868Y-60170750D01*
X99928041Y-60135322D01*
X99923720Y-60112204D01*
X99923720Y-59893715D01*
X99942465Y-59848460D01*
X99961868Y-59835169D01*
X100010236Y-59813813D01*
X100087033Y-59737016D01*
X100130902Y-59637662D01*
X100133720Y-59613373D01*
X100133720Y-59560000D01*
X100513220Y-59560000D01*
X100513220Y-59635717D01*
X100513431Y-59639379D01*
X100515983Y-59661380D01*
X100559024Y-59758854D01*
X100634365Y-59834195D01*
X100731839Y-59877236D01*
X100753840Y-59879788D01*
X100757503Y-59880000D01*
X100883220Y-59880000D01*
X100883220Y-59560000D01*
X100513220Y-59560000D01*
X100133720Y-59560000D01*
X100133719Y-59246628D01*
X100130902Y-59222338D01*
X100087033Y-59122984D01*
X100010236Y-59046187D01*
X99930866Y-59011141D01*
X99924369Y-59008273D01*
X99890543Y-58972845D01*
X99891674Y-58923874D01*
X99924370Y-58891179D01*
X100009947Y-58853392D01*
X100086613Y-58776726D01*
X100130406Y-58677548D01*
X100133008Y-58655121D01*
X100133220Y-58651459D01*
X100133220Y-58570000D01*
X99637220Y-58570000D01*
X99591965Y-58551255D01*
X99573220Y-58506000D01*
X99573220Y-58040000D01*
X99773220Y-58040000D01*
X99773220Y-58370000D01*
X100133220Y-58370000D01*
X100133220Y-58288540D01*
X100133008Y-58284878D01*
X100130406Y-58262451D01*
X100086613Y-58163273D01*
X100009946Y-58086606D01*
X99910768Y-58042813D01*
X99888341Y-58040211D01*
X99884679Y-58040000D01*
X99773220Y-58040000D01*
X99573220Y-58040000D01*
X99461761Y-58040000D01*
X99458098Y-58040211D01*
X99435673Y-58042813D01*
X99342006Y-58084172D01*
X99293036Y-58085303D01*
X99262951Y-58061197D01*
X99262237Y-58060128D01*
X99237022Y-58022391D01*
X99235022Y-58019397D01*
X99219342Y-58008920D01*
X99209644Y-58000962D01*
X98980439Y-57771757D01*
X98961694Y-57726502D01*
X98980439Y-57681247D01*
X99000342Y-57667738D01*
X99051024Y-57645877D01*
X99191750Y-57541110D01*
X99304522Y-57406714D01*
X99383260Y-57249933D01*
X99423720Y-57079221D01*
X99423720Y-56764204D01*
X99442465Y-56718950D01*
X99487720Y-56700205D01*
X99532975Y-56718950D01*
G37*
%TD.AperFunction*%
%TA.AperFunction,Conductor*%
G36*
X108397956Y-58709245D02*
G01*
X108411248Y-58728649D01*
X108435611Y-58783827D01*
X108514392Y-58862608D01*
X108579720Y-58891453D01*
X108613547Y-58926880D01*
X108612416Y-58975851D01*
X108579720Y-59008547D01*
X108514392Y-59037391D01*
X108428705Y-59123079D01*
X108383450Y-59141824D01*
X108348850Y-59131664D01*
X108299772Y-59100124D01*
X108277791Y-59085997D01*
X108277790Y-59085996D01*
X108277789Y-59085996D01*
X108153492Y-59049500D01*
X108023948Y-59049500D01*
X107930580Y-59076914D01*
X107886699Y-59074053D01*
X107814718Y-59042270D01*
X107792681Y-59039713D01*
X107792676Y-59039712D01*
X107790843Y-59039500D01*
X107788988Y-59039500D01*
X107337438Y-59039500D01*
X107337420Y-59039500D01*
X107335598Y-59039501D01*
X107333784Y-59039711D01*
X107333773Y-59039712D01*
X107311721Y-59042270D01*
X107311722Y-59042270D01*
X107214079Y-59085384D01*
X107138604Y-59160859D01*
X107138603Y-59160860D01*
X107138122Y-59161342D01*
X107092867Y-59180087D01*
X107047612Y-59161342D01*
X106972074Y-59085804D01*
X106874600Y-59042763D01*
X106852599Y-59040211D01*
X106848937Y-59040000D01*
X106723220Y-59040000D01*
X106723220Y-59880000D01*
X106848937Y-59880000D01*
X106852599Y-59879788D01*
X106874600Y-59877236D01*
X106972074Y-59834195D01*
X107047612Y-59758658D01*
X107092867Y-59739913D01*
X107138122Y-59758658D01*
X107138603Y-59759139D01*
X107138604Y-59759141D01*
X107214079Y-59834616D01*
X107311722Y-59877730D01*
X107335597Y-59880500D01*
X107790842Y-59880499D01*
X107814718Y-59877730D01*
X107814721Y-59877728D01*
X107816123Y-59877566D01*
X107858098Y-59887299D01*
X107899651Y-59914004D01*
X108023948Y-59950500D01*
X108023949Y-59950500D01*
X108153491Y-59950500D01*
X108153492Y-59950500D01*
X108277789Y-59914004D01*
X108366814Y-59856790D01*
X108415018Y-59848094D01*
X108455254Y-59876030D01*
X108463951Y-59924235D01*
X108458096Y-59938022D01*
X108435726Y-60050486D01*
X108408513Y-60091214D01*
X108384151Y-60098604D01*
X108384582Y-60100770D01*
X108334498Y-60110732D01*
X108284716Y-60143996D01*
X108251452Y-60193778D01*
X108242720Y-60237678D01*
X108242720Y-60717321D01*
X108251452Y-60761221D01*
X108256336Y-60768530D01*
X108284716Y-60811004D01*
X108328607Y-60840331D01*
X108334498Y-60844267D01*
X108378398Y-60853000D01*
X108378400Y-60853000D01*
X109008042Y-60853000D01*
X109037307Y-60847178D01*
X109051942Y-60844267D01*
X109078163Y-60826746D01*
X109126205Y-60817190D01*
X109166933Y-60844402D01*
X109177720Y-60879960D01*
X109177720Y-60910084D01*
X109158975Y-60955339D01*
X109013558Y-61100755D01*
X108968303Y-61119500D01*
X108747438Y-61119500D01*
X108747420Y-61119500D01*
X108745598Y-61119501D01*
X108743784Y-61119711D01*
X108743773Y-61119712D01*
X108721721Y-61122270D01*
X108721722Y-61122270D01*
X108624079Y-61165384D01*
X108548604Y-61240859D01*
X108505489Y-61338501D01*
X108505490Y-61338502D01*
X108502996Y-61360000D01*
X108502720Y-61362377D01*
X108502720Y-61364230D01*
X108502720Y-61364231D01*
X108502720Y-61815781D01*
X108502720Y-61815798D01*
X108502721Y-61817622D01*
X108502931Y-61819436D01*
X108502932Y-61819446D01*
X108504772Y-61835304D01*
X108505490Y-61841498D01*
X108548604Y-61939141D01*
X108578898Y-61969435D01*
X108608099Y-61998636D01*
X108626844Y-62043891D01*
X108608099Y-62089146D01*
X108588697Y-62102436D01*
X108560747Y-62114778D01*
X108514079Y-62135384D01*
X108452671Y-62196792D01*
X108407416Y-62215537D01*
X108362161Y-62196792D01*
X108344068Y-62160646D01*
X108339917Y-62131774D01*
X108286102Y-62013937D01*
X108285312Y-62013025D01*
X108284306Y-62010005D01*
X108282280Y-62005567D01*
X108282757Y-62005349D01*
X108269842Y-61966548D01*
X108275133Y-61945261D01*
X108277834Y-61939142D01*
X108277836Y-61939141D01*
X108320950Y-61841498D01*
X108323720Y-61817623D01*
X108323719Y-61362378D01*
X108320950Y-61338502D01*
X108277836Y-61240859D01*
X108202361Y-61165384D01*
X108104718Y-61122270D01*
X108097664Y-61121451D01*
X108082681Y-61119713D01*
X108082676Y-61119712D01*
X108080843Y-61119500D01*
X108078988Y-61119500D01*
X107727438Y-61119500D01*
X107727420Y-61119500D01*
X107725598Y-61119501D01*
X107723784Y-61119711D01*
X107723773Y-61119712D01*
X107701721Y-61122270D01*
X107701722Y-61122270D01*
X107604079Y-61165384D01*
X107528604Y-61240859D01*
X107528603Y-61240860D01*
X107520145Y-61249319D01*
X107518143Y-61247317D01*
X107495869Y-61268583D01*
X107446898Y-61267448D01*
X107427498Y-61254158D01*
X107359946Y-61186606D01*
X107260768Y-61142813D01*
X107238341Y-61140211D01*
X107234679Y-61140000D01*
X107153220Y-61140000D01*
X107153220Y-62060000D01*
X107234679Y-62060000D01*
X107238341Y-62059788D01*
X107260768Y-62057186D01*
X107359947Y-62013393D01*
X107404781Y-61968559D01*
X107450035Y-61949813D01*
X107495290Y-61968558D01*
X107514036Y-62013812D01*
X107508252Y-62040400D01*
X107466523Y-62131772D01*
X107450724Y-62241658D01*
X107448087Y-62260000D01*
X107457304Y-62324113D01*
X107466523Y-62388227D01*
X107520337Y-62506062D01*
X107520338Y-62506063D01*
X107605171Y-62603967D01*
X107714151Y-62674004D01*
X107838448Y-62710500D01*
X107838449Y-62710500D01*
X107967991Y-62710500D01*
X107967992Y-62710500D01*
X108092289Y-62674004D01*
X108201269Y-62603967D01*
X108280353Y-62512697D01*
X108324154Y-62490772D01*
X108370631Y-62506241D01*
X108392557Y-62550043D01*
X108392720Y-62554609D01*
X108392720Y-62685781D01*
X108392720Y-62685798D01*
X108392721Y-62687622D01*
X108392931Y-62689436D01*
X108392932Y-62689446D01*
X108395035Y-62707580D01*
X108395490Y-62711498D01*
X108438604Y-62809141D01*
X108514079Y-62884616D01*
X108611722Y-62927730D01*
X108635597Y-62930500D01*
X109090842Y-62930499D01*
X109114718Y-62927730D01*
X109212361Y-62884616D01*
X109287836Y-62809141D01*
X109330950Y-62711498D01*
X109333720Y-62687623D01*
X109333719Y-62332378D01*
X109330950Y-62308502D01*
X109287836Y-62210859D01*
X109212361Y-62135384D01*
X109212359Y-62135383D01*
X109203901Y-62126925D01*
X109204344Y-62126481D01*
X109179370Y-62100323D01*
X109180505Y-62051352D01*
X109213198Y-62018661D01*
X109222361Y-62014616D01*
X109297836Y-61939141D01*
X109340950Y-61841498D01*
X109343720Y-61817623D01*
X109343719Y-61434914D01*
X109362463Y-61389661D01*
X109557325Y-61194798D01*
X109559715Y-61192530D01*
X109589729Y-61165507D01*
X109599959Y-61142525D01*
X109604751Y-61133703D01*
X109606165Y-61131526D01*
X109646535Y-61103785D01*
X109694698Y-61112715D01*
X109722439Y-61153085D01*
X109723050Y-61176393D01*
X109722720Y-61178477D01*
X109722720Y-61741519D01*
X109737573Y-61835303D01*
X109777640Y-61913937D01*
X109795170Y-61948342D01*
X109884878Y-62038050D01*
X109884880Y-62038051D01*
X109892046Y-62045217D01*
X109891437Y-62045825D01*
X109916545Y-62075225D01*
X109912700Y-62124057D01*
X109892010Y-62144746D01*
X109892046Y-62144783D01*
X109884879Y-62151949D01*
X109884878Y-62151950D01*
X109840036Y-62196792D01*
X109795169Y-62241659D01*
X109737574Y-62354695D01*
X109722720Y-62448480D01*
X109722720Y-63011519D01*
X109737573Y-63105303D01*
X109787522Y-63203332D01*
X109795170Y-63218342D01*
X109884878Y-63308050D01*
X109884880Y-63308051D01*
X109892046Y-63315217D01*
X109891437Y-63315825D01*
X109916545Y-63345225D01*
X109912700Y-63394057D01*
X109892010Y-63414746D01*
X109892046Y-63414783D01*
X109884879Y-63421949D01*
X109884878Y-63421950D01*
X109843384Y-63463444D01*
X109795169Y-63511659D01*
X109737574Y-63624695D01*
X109722720Y-63718480D01*
X109722720Y-64281519D01*
X109737573Y-64375303D01*
X109774179Y-64447145D01*
X109795170Y-64488342D01*
X109884878Y-64578050D01*
X109884880Y-64578051D01*
X109892046Y-64585217D01*
X109891437Y-64585825D01*
X109916545Y-64615225D01*
X109912700Y-64664057D01*
X109892010Y-64684746D01*
X109892046Y-64684783D01*
X109884879Y-64691949D01*
X109884878Y-64691950D01*
X109842397Y-64734431D01*
X109795169Y-64781659D01*
X109737574Y-64894695D01*
X109722720Y-64988480D01*
X109722720Y-65165084D01*
X109703975Y-65210339D01*
X109422475Y-65491839D01*
X109377220Y-65510584D01*
X109331965Y-65491839D01*
X109313220Y-65446584D01*
X109313220Y-65440000D01*
X108953220Y-65440000D01*
X108953220Y-65770000D01*
X108989805Y-65770000D01*
X109035060Y-65788745D01*
X109053805Y-65834000D01*
X109035060Y-65879255D01*
X108472060Y-66442255D01*
X108426805Y-66461000D01*
X108319975Y-66461000D01*
X108274720Y-66442255D01*
X108255975Y-66397000D01*
X108266760Y-66361444D01*
X108286362Y-66332109D01*
X108298720Y-66269980D01*
X108298720Y-66103020D01*
X108292948Y-66074004D01*
X108286362Y-66040892D01*
X108286362Y-66040891D01*
X108240367Y-65972055D01*
X108230812Y-65924014D01*
X108240366Y-65900946D01*
X108286362Y-65832109D01*
X108298720Y-65769980D01*
X108298720Y-65630544D01*
X108317465Y-65585289D01*
X108362720Y-65566544D01*
X108407975Y-65585289D01*
X108421267Y-65604693D01*
X108439827Y-65646727D01*
X108516493Y-65723393D01*
X108615671Y-65767186D01*
X108638098Y-65769788D01*
X108641761Y-65770000D01*
X108753220Y-65770000D01*
X108753220Y-65440000D01*
X108393220Y-65440000D01*
X108393219Y-65489836D01*
X108374473Y-65535090D01*
X108329218Y-65553835D01*
X108283964Y-65535089D01*
X108276010Y-65525399D01*
X108240366Y-65472054D01*
X108230812Y-65424012D01*
X108240365Y-65400947D01*
X108286362Y-65332109D01*
X108296013Y-65283587D01*
X108323226Y-65242860D01*
X108371268Y-65233303D01*
X108383798Y-65240000D01*
X109313220Y-65240000D01*
X109313220Y-65158540D01*
X109313008Y-65154878D01*
X109310406Y-65132451D01*
X109266613Y-65033273D01*
X109189946Y-64956606D01*
X109104368Y-64918818D01*
X109070541Y-64883390D01*
X109071674Y-64834420D01*
X109104367Y-64801727D01*
X109190236Y-64763813D01*
X109267033Y-64687016D01*
X109310902Y-64587662D01*
X109313720Y-64563373D01*
X109313719Y-64196628D01*
X109310902Y-64172338D01*
X109267033Y-64072984D01*
X109199551Y-64005502D01*
X109180807Y-63960249D01*
X109199552Y-63914994D01*
X109207262Y-63909713D01*
X109212357Y-63904617D01*
X109212361Y-63904616D01*
X109287836Y-63829141D01*
X109330950Y-63731498D01*
X109333720Y-63707623D01*
X109333719Y-63352378D01*
X109330950Y-63328502D01*
X109287836Y-63230859D01*
X109212361Y-63155384D01*
X109114718Y-63112270D01*
X109107664Y-63111451D01*
X109092681Y-63109713D01*
X109092676Y-63109712D01*
X109090843Y-63109500D01*
X109088988Y-63109500D01*
X108637438Y-63109500D01*
X108637420Y-63109500D01*
X108635598Y-63109501D01*
X108633784Y-63109711D01*
X108633773Y-63109712D01*
X108611721Y-63112270D01*
X108611722Y-63112270D01*
X108575586Y-63128226D01*
X108514077Y-63155385D01*
X108466130Y-63203332D01*
X108443809Y-63217827D01*
X108408673Y-63231313D01*
X108399048Y-63234164D01*
X108374450Y-63239393D01*
X108366503Y-63245166D01*
X108351832Y-63253132D01*
X108342660Y-63256653D01*
X108324874Y-63274439D01*
X108317240Y-63280959D01*
X108296898Y-63295738D01*
X108291987Y-63304244D01*
X108281818Y-63317495D01*
X108198962Y-63400351D01*
X108153707Y-63419096D01*
X108141222Y-63417866D01*
X108106702Y-63411000D01*
X108106700Y-63411000D01*
X107114740Y-63411000D01*
X107112720Y-63411000D01*
X107067465Y-63392255D01*
X107048720Y-63347000D01*
X107048720Y-62353018D01*
X107036362Y-62290892D01*
X107036362Y-62290891D01*
X106989285Y-62220435D01*
X106924598Y-62177212D01*
X106897386Y-62136486D01*
X106906942Y-62088443D01*
X106947670Y-62061230D01*
X106952462Y-62060757D01*
X106953220Y-62059999D01*
X106953220Y-61140000D01*
X106871761Y-61140000D01*
X106868098Y-61140211D01*
X106845671Y-61142813D01*
X106746493Y-61186606D01*
X106669826Y-61263273D01*
X106632038Y-61348851D01*
X106596610Y-61382678D01*
X106547640Y-61381545D01*
X106514947Y-61348852D01*
X106477033Y-61262984D01*
X106448046Y-61233997D01*
X106429302Y-61188744D01*
X106442053Y-61154558D01*
X106441780Y-61154433D01*
X106443529Y-61150601D01*
X106444936Y-61146831D01*
X106445602Y-61146063D01*
X106499417Y-61028226D01*
X106513625Y-60929403D01*
X106531717Y-60893261D01*
X106553237Y-60871742D01*
X106598489Y-60853000D01*
X106908042Y-60853000D01*
X106937307Y-60847178D01*
X106951942Y-60844267D01*
X107001724Y-60811004D01*
X107034987Y-60761222D01*
X107043720Y-60717320D01*
X107043720Y-60237680D01*
X107043158Y-60234857D01*
X107034987Y-60193778D01*
X107022977Y-60175804D01*
X107001724Y-60143996D01*
X106951942Y-60110733D01*
X106951941Y-60110732D01*
X106908042Y-60102000D01*
X106908040Y-60102000D01*
X106278400Y-60102000D01*
X106278398Y-60102000D01*
X106234498Y-60110732D01*
X106184716Y-60143996D01*
X106151452Y-60193778D01*
X106142720Y-60237678D01*
X106142720Y-60385500D01*
X106123975Y-60430755D01*
X106078720Y-60449500D01*
X105997948Y-60449500D01*
X105873651Y-60485996D01*
X105873648Y-60485997D01*
X105764212Y-60556327D01*
X105716006Y-60565024D01*
X105675771Y-60537088D01*
X105667074Y-60488882D01*
X105667789Y-60485933D01*
X105687041Y-60414120D01*
X105687059Y-60305620D01*
X105659000Y-60200810D01*
X105644328Y-60175382D01*
X105604775Y-60106832D01*
X105596552Y-60098604D01*
X105589836Y-60091884D01*
X105589772Y-60091805D01*
X105585204Y-60087237D01*
X105585203Y-60087235D01*
X105566426Y-60068458D01*
X105532710Y-60034721D01*
X105524938Y-60026944D01*
X105524878Y-60026901D01*
X105505764Y-60007791D01*
X105500454Y-60001770D01*
X105486072Y-59983239D01*
X105473135Y-59935996D01*
X105497393Y-59893440D01*
X105536632Y-59880000D01*
X105583220Y-59880000D01*
X105583220Y-59560000D01*
X105783220Y-59560000D01*
X105783220Y-59880000D01*
X105908937Y-59880000D01*
X105912599Y-59879788D01*
X105934600Y-59877236D01*
X106032073Y-59834195D01*
X106107965Y-59758304D01*
X106153220Y-59739559D01*
X106198475Y-59758304D01*
X106274366Y-59834195D01*
X106371839Y-59877236D01*
X106393840Y-59879788D01*
X106397503Y-59880000D01*
X106523220Y-59880000D01*
X106523220Y-59560000D01*
X105783220Y-59560000D01*
X105583220Y-59560000D01*
X105583220Y-59040000D01*
X105783220Y-59040000D01*
X105783220Y-59360000D01*
X106523220Y-59360000D01*
X106523220Y-59040000D01*
X106397503Y-59040000D01*
X106393840Y-59040211D01*
X106371839Y-59042763D01*
X106274365Y-59085804D01*
X106198475Y-59161695D01*
X106153220Y-59180440D01*
X106107965Y-59161695D01*
X106032074Y-59085804D01*
X105934600Y-59042763D01*
X105912599Y-59040211D01*
X105908937Y-59040000D01*
X105783220Y-59040000D01*
X105583220Y-59040000D01*
X105578196Y-59040000D01*
X105532941Y-59021255D01*
X105514196Y-58976000D01*
X105529827Y-58934090D01*
X105552772Y-58907609D01*
X105574451Y-58882588D01*
X105618253Y-58860662D01*
X105622820Y-58860499D01*
X105909002Y-58860499D01*
X105910842Y-58860499D01*
X105934718Y-58857730D01*
X106032361Y-58814616D01*
X106107836Y-58739141D01*
X106107837Y-58739137D01*
X106107965Y-58739010D01*
X106153220Y-58720265D01*
X106198475Y-58739010D01*
X106198602Y-58739137D01*
X106198604Y-58739141D01*
X106274079Y-58814616D01*
X106371722Y-58857730D01*
X106395597Y-58860500D01*
X106850842Y-58860499D01*
X106874718Y-58857730D01*
X106972361Y-58814616D01*
X107047836Y-58739141D01*
X107047836Y-58739139D01*
X107047965Y-58739011D01*
X107093220Y-58720266D01*
X107138475Y-58739011D01*
X107138603Y-58739139D01*
X107138604Y-58739141D01*
X107214079Y-58814616D01*
X107311722Y-58857730D01*
X107335597Y-58860500D01*
X107790842Y-58860499D01*
X107814718Y-58857730D01*
X107912361Y-58814616D01*
X107987836Y-58739141D01*
X107992469Y-58728647D01*
X108027896Y-58694822D01*
X108051015Y-58690500D01*
X108352701Y-58690500D01*
X108397956Y-58709245D01*
G37*
%TD.AperFunction*%
%TA.AperFunction,Conductor*%
G36*
X103370000Y-60768453D02*
G01*
X103402694Y-60801147D01*
X103440609Y-60887016D01*
X103517406Y-60963813D01*
X103521985Y-60965835D01*
X103523387Y-60966454D01*
X103557214Y-61001881D01*
X103556081Y-61050852D01*
X103523387Y-61083546D01*
X103517407Y-61086186D01*
X103440608Y-61162985D01*
X103402694Y-61248850D01*
X103367267Y-61282677D01*
X103318296Y-61281544D01*
X103285601Y-61248849D01*
X103247814Y-61163272D01*
X103171149Y-61086607D01*
X103164218Y-61083547D01*
X103130391Y-61048120D01*
X103131522Y-60999149D01*
X103164218Y-60966453D01*
X103171149Y-60963392D01*
X103247814Y-60886727D01*
X103285602Y-60801149D01*
X103321030Y-60767322D01*
X103370000Y-60768453D01*
G37*
%TD.AperFunction*%
%TA.AperFunction,Conductor*%
G36*
X104638520Y-60857845D02*
G01*
X104813994Y-61033319D01*
X104832739Y-61078573D01*
X104832739Y-62018421D01*
X104831510Y-62030905D01*
X104827440Y-62051363D01*
X104831510Y-62071818D01*
X104831510Y-62071822D01*
X104848434Y-62156906D01*
X104848434Y-62156907D01*
X104848435Y-62156908D01*
X104859427Y-62173358D01*
X104862431Y-62177854D01*
X104873220Y-62213414D01*
X104873220Y-63533202D01*
X104918633Y-63524170D01*
X104987212Y-63478347D01*
X105035254Y-63468791D01*
X105058325Y-63478347D01*
X105127611Y-63524642D01*
X105189738Y-63537000D01*
X105322804Y-63537000D01*
X105368059Y-63555745D01*
X105386804Y-63601000D01*
X105368059Y-63646255D01*
X104358560Y-64655755D01*
X104313305Y-64674500D01*
X103040805Y-64674500D01*
X103037456Y-64674412D01*
X103035665Y-64674318D01*
X102997155Y-64672299D01*
X102973673Y-64681313D01*
X102964048Y-64684164D01*
X102939450Y-64689393D01*
X102931503Y-64695166D01*
X102916832Y-64703132D01*
X102907660Y-64706653D01*
X102889874Y-64724439D01*
X102882240Y-64730959D01*
X102861898Y-64745738D01*
X102856987Y-64754244D01*
X102846818Y-64767495D01*
X102594122Y-65020191D01*
X102591692Y-65022497D01*
X102569258Y-65042697D01*
X102523084Y-65059048D01*
X102491833Y-65048976D01*
X102397789Y-64988538D01*
X102273492Y-64952042D01*
X102143948Y-64952042D01*
X102019842Y-64988482D01*
X102019648Y-64988539D01*
X101910671Y-65058574D01*
X101825836Y-65156480D01*
X101824177Y-65160113D01*
X101803579Y-65185299D01*
X101786501Y-65197706D01*
X101771825Y-65205675D01*
X101762655Y-65209195D01*
X101744869Y-65226981D01*
X101737235Y-65233501D01*
X101716893Y-65248280D01*
X101711982Y-65256786D01*
X101701813Y-65270037D01*
X101699346Y-65272504D01*
X101654091Y-65291249D01*
X101642626Y-65286500D01*
X100899720Y-65286500D01*
X100854465Y-65267755D01*
X100835720Y-65222500D01*
X100835720Y-65150500D01*
X100854465Y-65105245D01*
X100899720Y-65086500D01*
X101619922Y-65086500D01*
X101610890Y-65041085D01*
X101565067Y-64972506D01*
X101555511Y-64924464D01*
X101565065Y-64901397D01*
X101611362Y-64832109D01*
X101623720Y-64769980D01*
X101623720Y-64603020D01*
X101611362Y-64540891D01*
X101591760Y-64511555D01*
X101582205Y-64463515D01*
X101609418Y-64422786D01*
X101644975Y-64412000D01*
X102199805Y-64412000D01*
X102245060Y-64430745D01*
X102260284Y-64445969D01*
X102262590Y-64448400D01*
X102276199Y-64463515D01*
X102289585Y-64478381D01*
X102312562Y-64488610D01*
X102321381Y-64493398D01*
X102342475Y-64507098D01*
X102352171Y-64508633D01*
X102368189Y-64513377D01*
X102377160Y-64517372D01*
X102402307Y-64517372D01*
X102412319Y-64518160D01*
X102437158Y-64522094D01*
X102446642Y-64519552D01*
X102463205Y-64517372D01*
X103553683Y-64517372D01*
X103557031Y-64517459D01*
X103597332Y-64519572D01*
X103620816Y-64510556D01*
X103630431Y-64507708D01*
X103655036Y-64502479D01*
X103662984Y-64496703D01*
X103677659Y-64488737D01*
X103686828Y-64485218D01*
X103704612Y-64467433D01*
X103712251Y-64460909D01*
X103732591Y-64446132D01*
X103737499Y-64437629D01*
X103747665Y-64424379D01*
X103889942Y-64282101D01*
X103935196Y-64263357D01*
X103953220Y-64265948D01*
X103968448Y-64270420D01*
X103968451Y-64270420D01*
X104097991Y-64270420D01*
X104097992Y-64270420D01*
X104222289Y-64233924D01*
X104331269Y-64163887D01*
X104416102Y-64065983D01*
X104469917Y-63948146D01*
X104488353Y-63819920D01*
X104469917Y-63691694D01*
X104422143Y-63587086D01*
X104420395Y-63538135D01*
X104444801Y-63507287D01*
X104488115Y-63478346D01*
X104536156Y-63468791D01*
X104559226Y-63478347D01*
X104627805Y-63524170D01*
X104673220Y-63533202D01*
X104673220Y-62164795D01*
X104627805Y-62173828D01*
X104623273Y-62176857D01*
X104575231Y-62186412D01*
X104534504Y-62159196D01*
X104523720Y-62123645D01*
X104523719Y-62016739D01*
X104534503Y-61981190D01*
X104569186Y-61929283D01*
X104588629Y-61831543D01*
X104584949Y-61813047D01*
X104583720Y-61800562D01*
X104583720Y-61110975D01*
X104584950Y-61098488D01*
X104588628Y-61080000D01*
X104588344Y-61078573D01*
X104569186Y-60982259D01*
X104547057Y-60949141D01*
X104540052Y-60938656D01*
X104530497Y-60890613D01*
X104557712Y-60849886D01*
X104605755Y-60840331D01*
X104638520Y-60857845D01*
G37*
%TD.AperFunction*%
%TA.AperFunction,Conductor*%
G36*
X106918379Y-63981605D02*
G01*
X106937124Y-64026860D01*
X106935894Y-64039345D01*
X106926515Y-64086499D01*
X106926515Y-64086500D01*
X107646720Y-64086500D01*
X107691975Y-64105245D01*
X107710720Y-64150500D01*
X107710720Y-64222500D01*
X107691975Y-64267755D01*
X107646720Y-64286500D01*
X106926518Y-64286500D01*
X106935549Y-64331914D01*
X106981372Y-64400493D01*
X106990928Y-64448535D01*
X106981372Y-64471605D01*
X106935077Y-64540891D01*
X106922720Y-64603018D01*
X106922720Y-64695458D01*
X106903975Y-64740713D01*
X106858720Y-64759458D01*
X106823865Y-64749134D01*
X106820433Y-64746905D01*
X106810729Y-64745368D01*
X106794716Y-64740625D01*
X106785747Y-64736632D01*
X106760601Y-64736632D01*
X106750589Y-64735844D01*
X106725750Y-64731910D01*
X106716265Y-64734451D01*
X106699703Y-64736632D01*
X106336210Y-64736632D01*
X106332861Y-64736544D01*
X106331070Y-64736450D01*
X106292560Y-64734431D01*
X106269078Y-64743445D01*
X106259453Y-64746296D01*
X106234855Y-64751525D01*
X106226908Y-64757298D01*
X106212237Y-64765264D01*
X106203065Y-64768785D01*
X106185279Y-64786571D01*
X106177645Y-64793091D01*
X106157303Y-64807870D01*
X106152392Y-64816376D01*
X106142223Y-64829627D01*
X105490770Y-65481079D01*
X105445515Y-65499824D01*
X105400260Y-65481079D01*
X105387511Y-65462871D01*
X105368552Y-65422212D01*
X105287507Y-65341167D01*
X105183635Y-65292731D01*
X105138378Y-65286773D01*
X105134204Y-65286500D01*
X105120134Y-65286500D01*
X105074879Y-65267755D01*
X105056134Y-65222500D01*
X105074878Y-65177247D01*
X105699236Y-64552889D01*
X105744492Y-64534144D01*
X106174341Y-64534144D01*
X106177689Y-64534231D01*
X106217990Y-64536344D01*
X106241474Y-64527328D01*
X106251089Y-64524480D01*
X106275694Y-64519251D01*
X106283642Y-64513475D01*
X106298317Y-64505509D01*
X106307486Y-64501990D01*
X106325270Y-64484205D01*
X106332909Y-64477681D01*
X106353249Y-64462904D01*
X106358157Y-64454401D01*
X106368323Y-64441151D01*
X106827870Y-63981604D01*
X106873124Y-63962860D01*
X106918379Y-63981605D01*
G37*
%TD.AperFunction*%
%TA.AperFunction,Conductor*%
G36*
X98575677Y-62648745D02*
G01*
X98594422Y-62694000D01*
X98594422Y-62766000D01*
X98575677Y-62811255D01*
X98530422Y-62830000D01*
X98232681Y-62830000D01*
X98248220Y-62787306D01*
X98248220Y-62672694D01*
X98232681Y-62630000D01*
X98530422Y-62630000D01*
X98575677Y-62648745D01*
G37*
%TD.AperFunction*%
%TA.AperFunction,Conductor*%
G36*
X109085970Y-56691480D02*
G01*
X109118936Y-56727710D01*
X109122720Y-56749389D01*
X109122720Y-57035209D01*
X109122936Y-57037063D01*
X109122937Y-57037068D01*
X109137978Y-57165756D01*
X109197981Y-57330615D01*
X109248033Y-57406714D01*
X109294390Y-57477196D01*
X109422002Y-57597592D01*
X109573939Y-57685312D01*
X109742010Y-57735630D01*
X109906322Y-57745200D01*
X109917154Y-57745831D01*
X109917154Y-57745830D01*
X109917155Y-57745831D01*
X110089931Y-57715365D01*
X110251024Y-57645877D01*
X110370503Y-57556927D01*
X110417995Y-57544940D01*
X110460056Y-57570046D01*
X110472720Y-57608264D01*
X110472720Y-58205500D01*
X110453975Y-58250755D01*
X110408720Y-58269500D01*
X110091700Y-58269500D01*
X109997916Y-58284353D01*
X109884879Y-58341949D01*
X109795169Y-58431659D01*
X109737574Y-58544695D01*
X109722699Y-58638608D01*
X109697105Y-58680373D01*
X109656140Y-58692508D01*
X109652156Y-58692299D01*
X109628673Y-58701313D01*
X109619048Y-58704164D01*
X109594450Y-58709393D01*
X109586503Y-58715166D01*
X109571832Y-58723132D01*
X109562660Y-58726653D01*
X109544874Y-58744439D01*
X109537240Y-58750959D01*
X109516898Y-58765738D01*
X109511987Y-58774244D01*
X109501818Y-58787495D01*
X109267646Y-59021667D01*
X109222391Y-59040412D01*
X109196541Y-59034959D01*
X109136720Y-59008546D01*
X109102892Y-58973119D01*
X109104023Y-58924149D01*
X109136718Y-58891453D01*
X109202048Y-58862608D01*
X109280828Y-58783828D01*
X109325829Y-58681909D01*
X109328720Y-58656991D01*
X109328719Y-58273010D01*
X109325829Y-58248091D01*
X109280828Y-58146172D01*
X109202048Y-58067392D01*
X109202047Y-58067391D01*
X109100129Y-58022391D01*
X109077049Y-58019713D01*
X109077044Y-58019712D01*
X109075211Y-58019500D01*
X109073356Y-58019500D01*
X108643070Y-58019500D01*
X108643052Y-58019500D01*
X108641230Y-58019501D01*
X108639416Y-58019711D01*
X108639405Y-58019712D01*
X108616309Y-58022391D01*
X108514392Y-58067391D01*
X108435611Y-58146172D01*
X108433325Y-58151351D01*
X108397897Y-58185178D01*
X108374778Y-58189500D01*
X108051015Y-58189500D01*
X108005760Y-58170755D01*
X107992469Y-58151353D01*
X107987836Y-58140859D01*
X107912361Y-58065384D01*
X107912359Y-58065383D01*
X107906910Y-58059934D01*
X107888165Y-58014679D01*
X107898951Y-57979122D01*
X107918393Y-57950025D01*
X107927094Y-57906277D01*
X107927094Y-57882062D01*
X107928324Y-57869571D01*
X107930970Y-57856272D01*
X107930970Y-57841500D01*
X107437220Y-57841500D01*
X107391965Y-57822755D01*
X107373220Y-57777500D01*
X107373220Y-57705500D01*
X107391965Y-57660245D01*
X107437220Y-57641500D01*
X107930970Y-57641500D01*
X107930970Y-57441500D01*
X107437220Y-57441500D01*
X107391965Y-57422755D01*
X107373220Y-57377500D01*
X107373220Y-57305500D01*
X107391965Y-57260245D01*
X107437220Y-57241500D01*
X107930969Y-57241500D01*
X107930969Y-57045962D01*
X107949714Y-57000707D01*
X107994969Y-56981962D01*
X108025801Y-56989879D01*
X108161196Y-57064314D01*
X108321612Y-57105501D01*
X108321613Y-57105501D01*
X108443644Y-57105501D01*
X108445664Y-57105501D01*
X108568734Y-57089954D01*
X108722721Y-57028986D01*
X108856709Y-56931638D01*
X108962278Y-56804027D01*
X109000812Y-56722137D01*
X109037041Y-56689173D01*
X109085970Y-56691480D01*
G37*
%TD.AperFunction*%
%TD*%
M02*
