M48
; DRILL file {KiCad 7.0.2} date Wed Jul 26 16:03:31 2023
; FORMAT={-:-/ absolute / inch / decimal}
; #@! TF.CreationDate,2023-07-26T16:03:31+02:00
; #@! TF.GenerationSoftware,Kicad,Pcbnew,7.0.2
; #@! TF.FileFunction,Plated,1,4,PTH
FMAT,2
INCH
; #@! TA.AperFunction,Plated,PTH,ViaDrill
T1C0.0079
; #@! TA.AperFunction,Plated,PTH,ComponentDrill
T2C0.0236
; #@! TA.AperFunction,Plated,PTH,ComponentDrill
T3C0.0256
%
G90
G05
T1
X3.9232Y-2.585
X3.9232Y-2.6194
X3.9537Y-2.4472
X3.9698Y-2.4803
X3.9698Y-2.8685
X3.9808Y-2.741
X3.9834Y-2.3126
X4.0061Y-2.406
X4.0061Y-2.4355
X4.0065Y-2.3765
X4.0108Y-2.2598
X4.0131Y-2.6024
X4.0131Y-2.6319
X4.0135Y-2.6736
X4.024Y-2.5749
X4.0403Y-2.8685
X4.0472Y-2.6983
X4.0502Y-2.4024
X4.0528Y-2.5105
X4.0682Y-2.3071
X4.0797Y-2.6323
X4.0836Y-2.4419
X4.0885Y-2.6983
X4.0958Y-2.5126
X4.097Y-2.8346
X4.1115Y-2.6746
X4.1127Y-2.8061
X4.1426Y-2.3071
X4.1549Y-2.686
X4.1757Y-2.3976
X4.1781Y-2.7867
X4.1942Y-2.5787
X4.1997Y-2.2598
X4.2042Y-2.6083
X4.2076Y-2.7859
X4.236Y-2.3819
X4.2482Y-2.4512
X4.2555Y-2.3425
X4.2618Y-2.7218
X4.2651Y-2.2717
X4.2981Y-2.8661
X4.308Y-2.699
T3
X3.8552Y-2.3197
X3.8552Y-2.3697
X3.8552Y-2.4197
X3.8552Y-2.4697
X3.8552Y-2.5197
X3.8552Y-2.5697
X3.8552Y-2.6197
X3.8552Y-2.6697
X3.8552Y-2.7197
X3.8552Y-2.7697
X3.8552Y-2.8197
X3.8552Y-2.8697
X4.0052Y-2.9197
X4.0552Y-2.9197
X4.1052Y-2.9197
X4.1552Y-2.9197
X4.2052Y-2.9197
X4.3552Y-2.3197
X4.3552Y-2.3697
X4.3552Y-2.4197
X4.3552Y-2.4697
X4.3552Y-2.5197
X4.3552Y-2.5697
X4.3552Y-2.6197
X4.3552Y-2.6697
X4.3552Y-2.7197
X4.3552Y-2.7697
X4.3552Y-2.8197
X4.3552Y-2.8697
T2
G00X3.8848Y-2.0489
M15
G01X3.8848Y-2.0922
M16
G05
G00X3.8848Y-2.2123
M15
G01X3.8848Y-2.2438
M16
G05
G00X4.3257Y-2.0489
M15
G01X4.3257Y-2.0922
M16
G05
G00X4.3257Y-2.2123
M15
G01X4.3257Y-2.2438
M16
G05
T0
M30
