%TF.GenerationSoftware,KiCad,Pcbnew,7.0.2*%
%TF.CreationDate,2023-07-26T16:03:34+02:00*%
%TF.ProjectId,epi,6570692e-6b69-4636-9164-5f7063625858,1_2_0*%
%TF.SameCoordinates,Original*%
%TF.FileFunction,Copper,L3,Inr*%
%TF.FilePolarity,Positive*%
%FSLAX46Y46*%
G04 Gerber Fmt 4.6, Leading zero omitted, Abs format (unit mm)*
G04 Created by KiCad (PCBNEW 7.0.2) date 2023-07-26 16:03:34*
%MOMM*%
%LPD*%
G01*
G04 APERTURE LIST*
G04 Aperture macros list*
%AMRoundRect*
0 Rectangle with rounded corners*
0 $1 Rounding radius*
0 $2 $3 $4 $5 $6 $7 $8 $9 X,Y pos of 4 corners*
0 Add a 4 corners polygon primitive as box body*
4,1,4,$2,$3,$4,$5,$6,$7,$8,$9,$2,$3,0*
0 Add four circle primitives for the rounded corners*
1,1,$1+$1,$2,$3*
1,1,$1+$1,$4,$5*
1,1,$1+$1,$6,$7*
1,1,$1+$1,$8,$9*
0 Add four rect primitives between the rounded corners*
20,1,$1+$1,$2,$3,$4,$5,0*
20,1,$1+$1,$4,$5,$6,$7,0*
20,1,$1+$1,$6,$7,$8,$9,0*
20,1,$1+$1,$8,$9,$2,$3,0*%
G04 Aperture macros list end*
%TA.AperFunction,CastellatedPad*%
%ADD10RoundRect,0.250000X-0.500000X-0.250000X0.500000X-0.250000X0.500000X0.250000X-0.500000X0.250000X0*%
%TD*%
%TA.AperFunction,CastellatedPad*%
%ADD11RoundRect,0.250000X-0.250000X0.500000X-0.250000X-0.500000X0.250000X-0.500000X0.250000X0.500000X0*%
%TD*%
%TA.AperFunction,ComponentPad*%
%ADD12O,1.200000X2.000000*%
%TD*%
%TA.AperFunction,ComponentPad*%
%ADD13O,1.200000X2.300000*%
%TD*%
%TA.AperFunction,ViaPad*%
%ADD14C,0.600000*%
%TD*%
%TA.AperFunction,Conductor*%
%ADD15C,0.150000*%
%TD*%
G04 APERTURE END LIST*
D10*
%TO.N,D1{slash}TX*%
%TO.C,J1*%
X97923220Y-58920000D03*
%TO.N,D0{slash}RX*%
X97923220Y-60190000D03*
%TO.N,GND*%
X97923220Y-61460000D03*
X97923220Y-62730000D03*
%TO.N,D2{slash}SDA*%
X97923220Y-64000000D03*
%TO.N,D3{slash}SCL*%
X97923220Y-65270000D03*
%TO.N,D4*%
X97923220Y-66540000D03*
%TO.N,D5*%
X97923220Y-67810000D03*
%TO.N,D6*%
X97923220Y-69080000D03*
%TO.N,D7*%
X97923220Y-70350000D03*
%TO.N,D8*%
X97923220Y-71620000D03*
%TO.N,D9*%
X97923220Y-72890000D03*
%TD*%
D11*
%TO.N,D11*%
%TO.C,J3*%
X106813220Y-74160000D03*
%TO.N,D12*%
X105543220Y-74160000D03*
%TO.N,D13*%
X104273220Y-74160000D03*
%TO.N,D17{slash}SS*%
X103003220Y-74160000D03*
%TO.N,A5*%
X101733220Y-74160000D03*
%TD*%
D12*
%TO.N,Net-(J4-SHIELD)*%
%TO.C,J4*%
X109873220Y-56591500D03*
D13*
X109873220Y-52591500D03*
D12*
X98673220Y-56591500D03*
D13*
X98673220Y-52591500D03*
%TD*%
D10*
%TO.N,+5V*%
%TO.C,J2*%
X110623220Y-58920000D03*
%TO.N,GND*%
X110623220Y-60190000D03*
%TO.N,RST*%
X110623220Y-61460000D03*
%TO.N,A4*%
X110623220Y-62730000D03*
%TO.N,A3*%
X110623220Y-64000000D03*
%TO.N,A2*%
X110623220Y-65270000D03*
%TO.N,A1*%
X110623220Y-66540000D03*
%TO.N,A0*%
X110623220Y-67810000D03*
%TO.N,D15{slash}SCK*%
X110623220Y-69080000D03*
%TO.N,D14{slash}MISO*%
X110623220Y-70350000D03*
%TO.N,D16{slash}MOSI*%
X110623220Y-71620000D03*
%TO.N,D10*%
X110623220Y-72890000D03*
%TD*%
D14*
%TO.N,+5V*%
X108249098Y-69134122D03*
X106062720Y-60900000D03*
X103723720Y-62023055D03*
X100423220Y-62160000D03*
%TO.N,GND*%
X107593220Y-60500000D03*
X102874422Y-61020000D03*
X108333220Y-57700000D03*
X109422512Y-68554867D03*
X100833220Y-72860000D03*
X102623220Y-72860000D03*
X103623220Y-66860000D03*
X101112342Y-69620878D03*
%TO.N,Net-(U1-XTAL1)*%
X104462720Y-71275203D03*
X101933220Y-66100000D03*
%TO.N,RST*%
X104033220Y-63819920D03*
X107903220Y-62260000D03*
%TO.N,D1{slash}TX*%
X99648720Y-65660000D03*
%TO.N,D0{slash}RX*%
X99648720Y-66532544D03*
%TO.N,A4*%
X106533220Y-65500000D03*
%TO.N,Net-(U1-XTAL2)*%
X102208720Y-65402542D03*
X104063718Y-72000000D03*
%TO.N,D17{slash}SS*%
X101765572Y-60363083D03*
%TO.N,Net-(J4-D+-PadA6)*%
X103333220Y-58600000D03*
%TO.N,D7*%
X101941860Y-67908641D03*
%TO.N,D15{slash}SCK*%
X102941848Y-63766872D03*
%TO.N,D16{slash}MOSI*%
X101754098Y-61862000D03*
%TO.N,D14{slash}MISO*%
X101754098Y-61112497D03*
%TO.N,D3{slash}SCL*%
X101933220Y-66850500D03*
%TO.N,Net-(J4-D--PadA7)*%
X105223220Y-58600000D03*
%TO.N,D9*%
X103847220Y-68537000D03*
%TO.N,D5*%
X102797720Y-68537000D03*
%TO.N,D10*%
X106123822Y-70782529D03*
%TO.N,A3*%
X106786311Y-66249757D03*
%TO.N,A5*%
X105533220Y-68224500D03*
%TO.N,D11*%
X100833220Y-63000000D03*
%TO.N,D12*%
X104433220Y-67936000D03*
%TO.N,D13*%
X106873031Y-70761567D03*
X109172720Y-72800000D03*
%TO.N,Net-(FB1-Pad1)*%
X108088720Y-59500000D03*
X106673220Y-57400000D03*
X101873220Y-57400000D03*
X101177662Y-58740576D03*
%TD*%
D15*
%TO.N,Net-(U1-XTAL1)*%
X101933220Y-66100000D02*
X101408220Y-66625000D01*
X101408220Y-66625000D02*
X101408220Y-68750736D01*
X103932687Y-71275203D02*
X104462720Y-71275203D01*
X101408220Y-68750736D02*
X103932687Y-71275203D01*
%TO.N,Net-(U1-XTAL2)*%
X104063718Y-72000000D02*
X104063718Y-71830498D01*
X104063718Y-71830498D02*
X101108220Y-68875000D01*
X101108220Y-68875000D02*
X101108220Y-66182537D01*
X101888215Y-65402542D02*
X102208720Y-65402542D01*
X101108220Y-66182537D02*
X101888215Y-65402542D01*
%TO.N,D17{slash}SS*%
X101423220Y-63160000D02*
X100323220Y-64260000D01*
X101423220Y-62847537D02*
X101423220Y-63160000D01*
X100323220Y-71328249D02*
X103003220Y-74008249D01*
X100323220Y-64260000D02*
X100323220Y-71328249D01*
X101720773Y-60363736D02*
X100948220Y-61136289D01*
X100948220Y-61136289D02*
X100948220Y-62372537D01*
X103003220Y-74008249D02*
X103003220Y-74160000D01*
X100948220Y-62372537D02*
X101423220Y-62847537D01*
%TD*%
%TA.AperFunction,Conductor*%
%TO.N,GND*%
G36*
X109085970Y-56691480D02*
G01*
X109118936Y-56727710D01*
X109122720Y-56749389D01*
X109122720Y-57035209D01*
X109122936Y-57037063D01*
X109122937Y-57037068D01*
X109137978Y-57165756D01*
X109197981Y-57330615D01*
X109248033Y-57406714D01*
X109294390Y-57477196D01*
X109422002Y-57597592D01*
X109573939Y-57685312D01*
X109742010Y-57735630D01*
X109906322Y-57745200D01*
X109917154Y-57745831D01*
X109917154Y-57745830D01*
X109917155Y-57745831D01*
X110089931Y-57715365D01*
X110251024Y-57645877D01*
X110370503Y-57556927D01*
X110417995Y-57544940D01*
X110460056Y-57570046D01*
X110472720Y-57608264D01*
X110472720Y-58205500D01*
X110453975Y-58250755D01*
X110408720Y-58269500D01*
X110091700Y-58269500D01*
X109997916Y-58284353D01*
X109884879Y-58341949D01*
X109795169Y-58431659D01*
X109737574Y-58544695D01*
X109722720Y-58638480D01*
X109722720Y-59201519D01*
X109737573Y-59295303D01*
X109793015Y-59404112D01*
X109795170Y-59408342D01*
X109884878Y-59498050D01*
X109885283Y-59498256D01*
X109886441Y-59499612D01*
X109892046Y-59505217D01*
X109891604Y-59505658D01*
X109917095Y-59535504D01*
X109913251Y-59584336D01*
X109885285Y-59612303D01*
X109885176Y-59612358D01*
X109795578Y-59701956D01*
X109738055Y-59814851D01*
X109723220Y-59908518D01*
X109723220Y-60090000D01*
X110313759Y-60090000D01*
X110298220Y-60132694D01*
X110298220Y-60247306D01*
X110313759Y-60290000D01*
X109723221Y-60290000D01*
X109723221Y-60471480D01*
X109738054Y-60565147D01*
X109795578Y-60678043D01*
X109885175Y-60767641D01*
X109885281Y-60767695D01*
X109885584Y-60768050D01*
X109892343Y-60774809D01*
X109891811Y-60775340D01*
X109917094Y-60804943D01*
X109913251Y-60853775D01*
X109885284Y-60881743D01*
X109884880Y-60881948D01*
X109795169Y-60971659D01*
X109737574Y-61084695D01*
X109722720Y-61178480D01*
X109722720Y-61741519D01*
X109737573Y-61835303D01*
X109777640Y-61913937D01*
X109795170Y-61948342D01*
X109884878Y-62038050D01*
X109884880Y-62038051D01*
X109892046Y-62045217D01*
X109891437Y-62045825D01*
X109916545Y-62075225D01*
X109912700Y-62124057D01*
X109892010Y-62144746D01*
X109892046Y-62144783D01*
X109884879Y-62151949D01*
X109884878Y-62151950D01*
X109830861Y-62205967D01*
X109795169Y-62241659D01*
X109737574Y-62354695D01*
X109722720Y-62448480D01*
X109722720Y-63011519D01*
X109737573Y-63105303D01*
X109759296Y-63147936D01*
X109795170Y-63218342D01*
X109884878Y-63308050D01*
X109884880Y-63308051D01*
X109892046Y-63315217D01*
X109891437Y-63315825D01*
X109916545Y-63345225D01*
X109912700Y-63394057D01*
X109892010Y-63414746D01*
X109892046Y-63414783D01*
X109884879Y-63421949D01*
X109884878Y-63421950D01*
X109830876Y-63475952D01*
X109795169Y-63511659D01*
X109737574Y-63624695D01*
X109722720Y-63718480D01*
X109722720Y-64281519D01*
X109737573Y-64375303D01*
X109793015Y-64484112D01*
X109795170Y-64488342D01*
X109884878Y-64578050D01*
X109884880Y-64578051D01*
X109892046Y-64585217D01*
X109891437Y-64585825D01*
X109916545Y-64615225D01*
X109912700Y-64664057D01*
X109892010Y-64684746D01*
X109892046Y-64684783D01*
X109884879Y-64691949D01*
X109884878Y-64691950D01*
X109795169Y-64781658D01*
X109795169Y-64781659D01*
X109737574Y-64894695D01*
X109722720Y-64988480D01*
X109722720Y-65551519D01*
X109737573Y-65645303D01*
X109789141Y-65746509D01*
X109795170Y-65758342D01*
X109884878Y-65848050D01*
X109884880Y-65848051D01*
X109892046Y-65855217D01*
X109891437Y-65855825D01*
X109916545Y-65885225D01*
X109912700Y-65934057D01*
X109892010Y-65954746D01*
X109892046Y-65954783D01*
X109884879Y-65961949D01*
X109884878Y-65961950D01*
X109843134Y-66003694D01*
X109795169Y-66051659D01*
X109737574Y-66164695D01*
X109722720Y-66258480D01*
X109722720Y-66821519D01*
X109737573Y-66915303D01*
X109769889Y-66978726D01*
X109795170Y-67028342D01*
X109884878Y-67118050D01*
X109884880Y-67118051D01*
X109892046Y-67125217D01*
X109891437Y-67125825D01*
X109916545Y-67155225D01*
X109912700Y-67204057D01*
X109892010Y-67224747D01*
X109892046Y-67224783D01*
X109884879Y-67231949D01*
X109884878Y-67231950D01*
X109815828Y-67301000D01*
X109795169Y-67321659D01*
X109737574Y-67434695D01*
X109722720Y-67528480D01*
X109722720Y-68091519D01*
X109737573Y-68185303D01*
X109741512Y-68193033D01*
X109795170Y-68298342D01*
X109884878Y-68388050D01*
X109884880Y-68388051D01*
X109892046Y-68395217D01*
X109891437Y-68395825D01*
X109916545Y-68425225D01*
X109912700Y-68474057D01*
X109892010Y-68494747D01*
X109892046Y-68494783D01*
X109884879Y-68501949D01*
X109884878Y-68501950D01*
X109818361Y-68568467D01*
X109795169Y-68591659D01*
X109737574Y-68704695D01*
X109722720Y-68798480D01*
X109722720Y-69361519D01*
X109737573Y-69455303D01*
X109784868Y-69548124D01*
X109795170Y-69568342D01*
X109884878Y-69658050D01*
X109884880Y-69658051D01*
X109892046Y-69665217D01*
X109891437Y-69665825D01*
X109916545Y-69695225D01*
X109912700Y-69744057D01*
X109892010Y-69764747D01*
X109892046Y-69764783D01*
X109884879Y-69771949D01*
X109884878Y-69771950D01*
X109795169Y-69861658D01*
X109795169Y-69861659D01*
X109737574Y-69974695D01*
X109722720Y-70068480D01*
X109722720Y-70631519D01*
X109737573Y-70725303D01*
X109788221Y-70824703D01*
X109795170Y-70838342D01*
X109884878Y-70928050D01*
X109884880Y-70928051D01*
X109892046Y-70935217D01*
X109891437Y-70935825D01*
X109916545Y-70965225D01*
X109912700Y-71014057D01*
X109892010Y-71034747D01*
X109892046Y-71034783D01*
X109884879Y-71041949D01*
X109884878Y-71041950D01*
X109843344Y-71083484D01*
X109795169Y-71131659D01*
X109737574Y-71244695D01*
X109722720Y-71338480D01*
X109722720Y-71901519D01*
X109737573Y-71995303D01*
X109793015Y-72104112D01*
X109795170Y-72108342D01*
X109884878Y-72198050D01*
X109884880Y-72198051D01*
X109892046Y-72205217D01*
X109891437Y-72205825D01*
X109916545Y-72235225D01*
X109912700Y-72284057D01*
X109892010Y-72304747D01*
X109892046Y-72304783D01*
X109884879Y-72311949D01*
X109884878Y-72311950D01*
X109810832Y-72385996D01*
X109795169Y-72401659D01*
X109737574Y-72514695D01*
X109722720Y-72608480D01*
X109722720Y-72625670D01*
X109703975Y-72670925D01*
X109658720Y-72689670D01*
X109613465Y-72670925D01*
X109600504Y-72652257D01*
X109555602Y-72553937D01*
X109470768Y-72456032D01*
X109361791Y-72385997D01*
X109361790Y-72385996D01*
X109361789Y-72385996D01*
X109237492Y-72349500D01*
X109107948Y-72349500D01*
X108983651Y-72385996D01*
X108983648Y-72385997D01*
X108874671Y-72456032D01*
X108789837Y-72553937D01*
X108736023Y-72671772D01*
X108717587Y-72800000D01*
X108736023Y-72928227D01*
X108789837Y-73046062D01*
X108789838Y-73046063D01*
X108874671Y-73143967D01*
X108983651Y-73214004D01*
X109107948Y-73250500D01*
X109107949Y-73250500D01*
X109237491Y-73250500D01*
X109237492Y-73250500D01*
X109361789Y-73214004D01*
X109470769Y-73143967D01*
X109555602Y-73046063D01*
X109600505Y-72947740D01*
X109636354Y-72914363D01*
X109685306Y-72916111D01*
X109718685Y-72951962D01*
X109722720Y-72974328D01*
X109722720Y-73171519D01*
X109737573Y-73265303D01*
X109742185Y-73274354D01*
X109795170Y-73378342D01*
X109884878Y-73468050D01*
X109997916Y-73525646D01*
X110091701Y-73540500D01*
X110408720Y-73540499D01*
X110453975Y-73559244D01*
X110472720Y-73604499D01*
X110472720Y-73945500D01*
X110453975Y-73990755D01*
X110408720Y-74009500D01*
X107527719Y-74009500D01*
X107482464Y-73990755D01*
X107463719Y-73945500D01*
X107463719Y-73628481D01*
X107448866Y-73534696D01*
X107394922Y-73428826D01*
X107391270Y-73421658D01*
X107301562Y-73331950D01*
X107188524Y-73274354D01*
X107094739Y-73259500D01*
X106531700Y-73259500D01*
X106437916Y-73274353D01*
X106324879Y-73331949D01*
X106324878Y-73331949D01*
X106324878Y-73331950D01*
X106235170Y-73421658D01*
X106235169Y-73421659D01*
X106228003Y-73428826D01*
X106227394Y-73428217D01*
X106197992Y-73453325D01*
X106149160Y-73449478D01*
X106128473Y-73428790D01*
X106128438Y-73428826D01*
X106121270Y-73421658D01*
X106031562Y-73331950D01*
X105918524Y-73274354D01*
X105824739Y-73259500D01*
X105261700Y-73259500D01*
X105167916Y-73274353D01*
X105054879Y-73331949D01*
X105054878Y-73331949D01*
X105054878Y-73331950D01*
X104965170Y-73421658D01*
X104965169Y-73421659D01*
X104958003Y-73428826D01*
X104957394Y-73428217D01*
X104927989Y-73453327D01*
X104879157Y-73449478D01*
X104858472Y-73428790D01*
X104858437Y-73428826D01*
X104851271Y-73421660D01*
X104851270Y-73421658D01*
X104761562Y-73331950D01*
X104648524Y-73274354D01*
X104554739Y-73259500D01*
X103991700Y-73259500D01*
X103897916Y-73274353D01*
X103784879Y-73331949D01*
X103784878Y-73331949D01*
X103784878Y-73331950D01*
X103695170Y-73421658D01*
X103695169Y-73421659D01*
X103688003Y-73428826D01*
X103687394Y-73428217D01*
X103657992Y-73453325D01*
X103609160Y-73449478D01*
X103588473Y-73428790D01*
X103588438Y-73428826D01*
X103581270Y-73421658D01*
X103491562Y-73331950D01*
X103378524Y-73274354D01*
X103284739Y-73259500D01*
X102721699Y-73259500D01*
X102625862Y-73274678D01*
X102578233Y-73263242D01*
X102570597Y-73256721D01*
X100567465Y-71253589D01*
X100548720Y-71208334D01*
X100548720Y-66194602D01*
X100877998Y-66194602D01*
X100880539Y-66204083D01*
X100882720Y-66220649D01*
X100882720Y-68867414D01*
X100882632Y-68870764D01*
X100880519Y-68911063D01*
X100889533Y-68934545D01*
X100892384Y-68944172D01*
X100897612Y-68968768D01*
X100903384Y-68976713D01*
X100911353Y-68991391D01*
X100914872Y-69000558D01*
X100932660Y-69018346D01*
X100939182Y-69025983D01*
X100953960Y-69046324D01*
X100962461Y-69051232D01*
X100975716Y-69061402D01*
X103645469Y-71731154D01*
X103664214Y-71776409D01*
X103658431Y-71802995D01*
X103627021Y-71871773D01*
X103608585Y-72000000D01*
X103627021Y-72128227D01*
X103680835Y-72246062D01*
X103765669Y-72343967D01*
X103874649Y-72414004D01*
X103998946Y-72450500D01*
X103998947Y-72450500D01*
X104128489Y-72450500D01*
X104128490Y-72450500D01*
X104252787Y-72414004D01*
X104361767Y-72343967D01*
X104446600Y-72246063D01*
X104500415Y-72128226D01*
X104518851Y-72000000D01*
X104500415Y-71871774D01*
X104475075Y-71816289D01*
X104473327Y-71767338D01*
X104506705Y-71731487D01*
X104518825Y-71728850D01*
X104518663Y-71728295D01*
X104527491Y-71725703D01*
X104527492Y-71725703D01*
X104651789Y-71689207D01*
X104760769Y-71619170D01*
X104845602Y-71521266D01*
X104899417Y-71403429D01*
X104917853Y-71275203D01*
X104899417Y-71146977D01*
X104845602Y-71029140D01*
X104760769Y-70931236D01*
X104760768Y-70931235D01*
X104651791Y-70861200D01*
X104651790Y-70861199D01*
X104651789Y-70861199D01*
X104527492Y-70824703D01*
X104397948Y-70824703D01*
X104351504Y-70838340D01*
X104273648Y-70861200D01*
X104164671Y-70931235D01*
X104090356Y-71017000D01*
X104046554Y-71038926D01*
X104000077Y-71023457D01*
X103996733Y-71020344D01*
X103758917Y-70782528D01*
X105668689Y-70782528D01*
X105687125Y-70910756D01*
X105740939Y-71028591D01*
X105788503Y-71083484D01*
X105825773Y-71126496D01*
X105934753Y-71196533D01*
X106059050Y-71233029D01*
X106059051Y-71233029D01*
X106188593Y-71233029D01*
X106188594Y-71233029D01*
X106312891Y-71196533D01*
X106421871Y-71126496D01*
X106459140Y-71083483D01*
X106502942Y-71061558D01*
X106549419Y-71077027D01*
X106555875Y-71083483D01*
X106574982Y-71105534D01*
X106683962Y-71175571D01*
X106808259Y-71212067D01*
X106808260Y-71212067D01*
X106937802Y-71212067D01*
X106937803Y-71212067D01*
X107062100Y-71175571D01*
X107171080Y-71105534D01*
X107255913Y-71007630D01*
X107309728Y-70889793D01*
X107328164Y-70761567D01*
X107309728Y-70633341D01*
X107255913Y-70515504D01*
X107171080Y-70417600D01*
X107171079Y-70417599D01*
X107062102Y-70347564D01*
X107062101Y-70347563D01*
X107062100Y-70347563D01*
X106937803Y-70311067D01*
X106808259Y-70311067D01*
X106683962Y-70347563D01*
X106683959Y-70347564D01*
X106574981Y-70417600D01*
X106537711Y-70460612D01*
X106493909Y-70482537D01*
X106447432Y-70467067D01*
X106440976Y-70460611D01*
X106421870Y-70438561D01*
X106312893Y-70368526D01*
X106312892Y-70368525D01*
X106312891Y-70368525D01*
X106188594Y-70332029D01*
X106059050Y-70332029D01*
X105934753Y-70368525D01*
X105934750Y-70368526D01*
X105825773Y-70438561D01*
X105740939Y-70536466D01*
X105687125Y-70654301D01*
X105668689Y-70782528D01*
X103758917Y-70782528D01*
X102110512Y-69134122D01*
X107793965Y-69134122D01*
X107812401Y-69262349D01*
X107866215Y-69380184D01*
X107866216Y-69380185D01*
X107951049Y-69478089D01*
X108060029Y-69548126D01*
X108184326Y-69584622D01*
X108184327Y-69584622D01*
X108313869Y-69584622D01*
X108313870Y-69584622D01*
X108438167Y-69548126D01*
X108547147Y-69478089D01*
X108631980Y-69380185D01*
X108685795Y-69262348D01*
X108704231Y-69134122D01*
X108685795Y-69005896D01*
X108631980Y-68888059D01*
X108547147Y-68790155D01*
X108547146Y-68790154D01*
X108438169Y-68720119D01*
X108438168Y-68720118D01*
X108438167Y-68720118D01*
X108313870Y-68683622D01*
X108184326Y-68683622D01*
X108112553Y-68704696D01*
X108060026Y-68720119D01*
X107951049Y-68790154D01*
X107866215Y-68888059D01*
X107812401Y-69005894D01*
X107793965Y-69134122D01*
X102110512Y-69134122D01*
X101652465Y-68676075D01*
X101633720Y-68630820D01*
X101633720Y-68537000D01*
X102342587Y-68537000D01*
X102361023Y-68665227D01*
X102414837Y-68783062D01*
X102428198Y-68798482D01*
X102499671Y-68880967D01*
X102608651Y-68951004D01*
X102732948Y-68987500D01*
X102732949Y-68987500D01*
X102862491Y-68987500D01*
X102862492Y-68987500D01*
X102986789Y-68951004D01*
X103095769Y-68880967D01*
X103180602Y-68783063D01*
X103234417Y-68665226D01*
X103252853Y-68537000D01*
X103392087Y-68537000D01*
X103410523Y-68665227D01*
X103464337Y-68783062D01*
X103477698Y-68798482D01*
X103549171Y-68880967D01*
X103658151Y-68951004D01*
X103782448Y-68987500D01*
X103782449Y-68987500D01*
X103911991Y-68987500D01*
X103911992Y-68987500D01*
X104036289Y-68951004D01*
X104145269Y-68880967D01*
X104230102Y-68783063D01*
X104283917Y-68665226D01*
X104302353Y-68537000D01*
X104291019Y-68458173D01*
X104303133Y-68410713D01*
X104345260Y-68385718D01*
X104359246Y-68386719D01*
X104359246Y-68386500D01*
X104497991Y-68386500D01*
X104497992Y-68386500D01*
X104622289Y-68350004D01*
X104731269Y-68279967D01*
X104779331Y-68224500D01*
X105078087Y-68224500D01*
X105096523Y-68352727D01*
X105150337Y-68470562D01*
X105207905Y-68537000D01*
X105235171Y-68568467D01*
X105344151Y-68638504D01*
X105468448Y-68675000D01*
X105468449Y-68675000D01*
X105597991Y-68675000D01*
X105597992Y-68675000D01*
X105722289Y-68638504D01*
X105831269Y-68568467D01*
X105916102Y-68470563D01*
X105969917Y-68352726D01*
X105988353Y-68224500D01*
X105969917Y-68096274D01*
X105916102Y-67978437D01*
X105831269Y-67880533D01*
X105831268Y-67880532D01*
X105722291Y-67810497D01*
X105722290Y-67810496D01*
X105722289Y-67810496D01*
X105597992Y-67774000D01*
X105468448Y-67774000D01*
X105353422Y-67807774D01*
X105344148Y-67810497D01*
X105235171Y-67880532D01*
X105150337Y-67978437D01*
X105096523Y-68096272D01*
X105078087Y-68224500D01*
X104779331Y-68224500D01*
X104816102Y-68182063D01*
X104869917Y-68064226D01*
X104888353Y-67936000D01*
X104869917Y-67807774D01*
X104816102Y-67689937D01*
X104731269Y-67592033D01*
X104731268Y-67592032D01*
X104622291Y-67521997D01*
X104622290Y-67521996D01*
X104622289Y-67521996D01*
X104497992Y-67485500D01*
X104368448Y-67485500D01*
X104262907Y-67516489D01*
X104244148Y-67521997D01*
X104135171Y-67592032D01*
X104050337Y-67689937D01*
X103996523Y-67807772D01*
X103978087Y-67936000D01*
X103989420Y-68014824D01*
X103977305Y-68062286D01*
X103935179Y-68087281D01*
X103921193Y-68086281D01*
X103921193Y-68086500D01*
X103911992Y-68086500D01*
X103782448Y-68086500D01*
X103673082Y-68118612D01*
X103658148Y-68122997D01*
X103549171Y-68193032D01*
X103464337Y-68290937D01*
X103410523Y-68408772D01*
X103392087Y-68537000D01*
X103252853Y-68537000D01*
X103234417Y-68408774D01*
X103180602Y-68290937D01*
X103095769Y-68193033D01*
X103095768Y-68193032D01*
X102986791Y-68122997D01*
X102986790Y-68122996D01*
X102986789Y-68122996D01*
X102862492Y-68086500D01*
X102732948Y-68086500D01*
X102623582Y-68118612D01*
X102608648Y-68122997D01*
X102499671Y-68193032D01*
X102414837Y-68290937D01*
X102361023Y-68408772D01*
X102342587Y-68537000D01*
X101633720Y-68537000D01*
X101633720Y-68363329D01*
X101652465Y-68318074D01*
X101697720Y-68299329D01*
X101732320Y-68309489D01*
X101752791Y-68322645D01*
X101877088Y-68359141D01*
X101877089Y-68359141D01*
X102006631Y-68359141D01*
X102006632Y-68359141D01*
X102130929Y-68322645D01*
X102239909Y-68252608D01*
X102324742Y-68154704D01*
X102378557Y-68036867D01*
X102396993Y-67908641D01*
X102378557Y-67780415D01*
X102324742Y-67662578D01*
X102239909Y-67564674D01*
X102239908Y-67564673D01*
X102130931Y-67494638D01*
X102130930Y-67494637D01*
X102130929Y-67494637D01*
X102006632Y-67458141D01*
X101877088Y-67458141D01*
X101752791Y-67494637D01*
X101752789Y-67494637D01*
X101752789Y-67494638D01*
X101732319Y-67507793D01*
X101684114Y-67516489D01*
X101643878Y-67488552D01*
X101633720Y-67453955D01*
X101633720Y-67310738D01*
X101652464Y-67265486D01*
X101697719Y-67246741D01*
X101732320Y-67256901D01*
X101744151Y-67264504D01*
X101868448Y-67301000D01*
X101868449Y-67301000D01*
X101997991Y-67301000D01*
X101997992Y-67301000D01*
X102122289Y-67264504D01*
X102231269Y-67194467D01*
X102316102Y-67096563D01*
X102369917Y-66978726D01*
X102388353Y-66850500D01*
X102369917Y-66722274D01*
X102316102Y-66604437D01*
X102240476Y-66517158D01*
X102225008Y-66470684D01*
X102240476Y-66433341D01*
X102316102Y-66346063D01*
X102369917Y-66228226D01*
X102388353Y-66100000D01*
X102369917Y-65971774D01*
X102341385Y-65909300D01*
X102339637Y-65860349D01*
X102373015Y-65824498D01*
X102381563Y-65821309D01*
X102397789Y-65816546D01*
X102506769Y-65746509D01*
X102591602Y-65648605D01*
X102645417Y-65530768D01*
X102649841Y-65500000D01*
X106078087Y-65500000D01*
X106096523Y-65628227D01*
X106150337Y-65746062D01*
X106150338Y-65746063D01*
X106235171Y-65843967D01*
X106344151Y-65914004D01*
X106361670Y-65919147D01*
X106399809Y-65949883D01*
X106405046Y-65998586D01*
X106401854Y-66007142D01*
X106349614Y-66121529D01*
X106331178Y-66249756D01*
X106331178Y-66249757D01*
X106334943Y-66275942D01*
X106349614Y-66377984D01*
X106403428Y-66495819D01*
X106403429Y-66495820D01*
X106488262Y-66593724D01*
X106597242Y-66663761D01*
X106721539Y-66700257D01*
X106721540Y-66700257D01*
X106851082Y-66700257D01*
X106851083Y-66700257D01*
X106975380Y-66663761D01*
X107084360Y-66593724D01*
X107169193Y-66495820D01*
X107223008Y-66377983D01*
X107241444Y-66249757D01*
X107223008Y-66121531D01*
X107169193Y-66003694D01*
X107084360Y-65905790D01*
X107084359Y-65905789D01*
X106975380Y-65835752D01*
X106957860Y-65830608D01*
X106919721Y-65799871D01*
X106914486Y-65751168D01*
X106917677Y-65742614D01*
X106969917Y-65628226D01*
X106988353Y-65500000D01*
X106969917Y-65371774D01*
X106916102Y-65253937D01*
X106831269Y-65156033D01*
X106831268Y-65156032D01*
X106722291Y-65085997D01*
X106722290Y-65085996D01*
X106722289Y-65085996D01*
X106597992Y-65049500D01*
X106468448Y-65049500D01*
X106437541Y-65058575D01*
X106344148Y-65085997D01*
X106235171Y-65156032D01*
X106150337Y-65253937D01*
X106096523Y-65371772D01*
X106078087Y-65500000D01*
X102649841Y-65500000D01*
X102663853Y-65402542D01*
X102645417Y-65274316D01*
X102591602Y-65156479D01*
X102506769Y-65058575D01*
X102506768Y-65058574D01*
X102397791Y-64988539D01*
X102397790Y-64988538D01*
X102397789Y-64988538D01*
X102273492Y-64952042D01*
X102143948Y-64952042D01*
X102019842Y-64988482D01*
X102019648Y-64988539D01*
X101910671Y-65058574D01*
X101825836Y-65156480D01*
X101824177Y-65160113D01*
X101803577Y-65185301D01*
X101786499Y-65197707D01*
X101771827Y-65205674D01*
X101762655Y-65209195D01*
X101744869Y-65226981D01*
X101737235Y-65233501D01*
X101716893Y-65248280D01*
X101711982Y-65256786D01*
X101701813Y-65270037D01*
X100954122Y-66017728D01*
X100951692Y-66020034D01*
X100921711Y-66047029D01*
X100911483Y-66070002D01*
X100906691Y-66078826D01*
X100892993Y-66099919D01*
X100891455Y-66109625D01*
X100886713Y-66125633D01*
X100882720Y-66134603D01*
X100882720Y-66159751D01*
X100881931Y-66169762D01*
X100877998Y-66194602D01*
X100548720Y-66194602D01*
X100548720Y-64379914D01*
X100567464Y-64334660D01*
X101135252Y-63766871D01*
X102486715Y-63766871D01*
X102505151Y-63895099D01*
X102558965Y-64012934D01*
X102558966Y-64012935D01*
X102643799Y-64110839D01*
X102752779Y-64180876D01*
X102877076Y-64217372D01*
X102877077Y-64217372D01*
X103006619Y-64217372D01*
X103006620Y-64217372D01*
X103130917Y-64180876D01*
X103239897Y-64110839D01*
X103324730Y-64012935D01*
X103378545Y-63895098D01*
X103389354Y-63819920D01*
X103578087Y-63819920D01*
X103596523Y-63948147D01*
X103650337Y-64065982D01*
X103650338Y-64065983D01*
X103735171Y-64163887D01*
X103844151Y-64233924D01*
X103968448Y-64270420D01*
X103968449Y-64270420D01*
X104097991Y-64270420D01*
X104097992Y-64270420D01*
X104222289Y-64233924D01*
X104331269Y-64163887D01*
X104416102Y-64065983D01*
X104469917Y-63948146D01*
X104488353Y-63819920D01*
X104469917Y-63691694D01*
X104416102Y-63573857D01*
X104331269Y-63475953D01*
X104331268Y-63475952D01*
X104222291Y-63405917D01*
X104222290Y-63405916D01*
X104222289Y-63405916D01*
X104097992Y-63369420D01*
X103968448Y-63369420D01*
X103844151Y-63405916D01*
X103844148Y-63405917D01*
X103735171Y-63475952D01*
X103650337Y-63573857D01*
X103596523Y-63691692D01*
X103578087Y-63819920D01*
X103389354Y-63819920D01*
X103396981Y-63766872D01*
X103378545Y-63638646D01*
X103324730Y-63520809D01*
X103239897Y-63422905D01*
X103239896Y-63422904D01*
X103130919Y-63352869D01*
X103130918Y-63352868D01*
X103130917Y-63352868D01*
X103006620Y-63316372D01*
X102877076Y-63316372D01*
X102752779Y-63352868D01*
X102752776Y-63352869D01*
X102643799Y-63422904D01*
X102558965Y-63520809D01*
X102505151Y-63638644D01*
X102486715Y-63766871D01*
X101135252Y-63766871D01*
X101577324Y-63324799D01*
X101579737Y-63322511D01*
X101595798Y-63308050D01*
X101609729Y-63295507D01*
X101619958Y-63272530D01*
X101624748Y-63263710D01*
X101638444Y-63242621D01*
X101638443Y-63242621D01*
X101638446Y-63242618D01*
X101639983Y-63232912D01*
X101644727Y-63216900D01*
X101648720Y-63207932D01*
X101648719Y-63182786D01*
X101649507Y-63172774D01*
X101653442Y-63147935D01*
X101650898Y-63138443D01*
X101648719Y-63121894D01*
X101648719Y-62855103D01*
X101648807Y-62851752D01*
X101650919Y-62811473D01*
X101641909Y-62788001D01*
X101639057Y-62778372D01*
X101633827Y-62753768D01*
X101628057Y-62745827D01*
X101620083Y-62731142D01*
X101616565Y-62721977D01*
X101598781Y-62704193D01*
X101592259Y-62696556D01*
X101577479Y-62676213D01*
X101568975Y-62671303D01*
X101555722Y-62661134D01*
X101192465Y-62297877D01*
X101173720Y-62252622D01*
X101173720Y-61885738D01*
X101182481Y-61864585D01*
X101173720Y-61838261D01*
X101173720Y-61256203D01*
X101192464Y-61210949D01*
X101207546Y-61195867D01*
X101252800Y-61177123D01*
X101298055Y-61195868D01*
X101316148Y-61232013D01*
X101317400Y-61240721D01*
X101371215Y-61358559D01*
X101446407Y-61445337D01*
X101461876Y-61491814D01*
X101446408Y-61529158D01*
X101371215Y-61615937D01*
X101317401Y-61733772D01*
X101313090Y-61763758D01*
X101302804Y-61835304D01*
X101301069Y-61847369D01*
X101293124Y-61860758D01*
X101301068Y-61876628D01*
X101306734Y-61916032D01*
X101317401Y-61990227D01*
X101371215Y-62108062D01*
X101403071Y-62144826D01*
X101456049Y-62205967D01*
X101565029Y-62276004D01*
X101689326Y-62312500D01*
X101689327Y-62312500D01*
X101818869Y-62312500D01*
X101818870Y-62312500D01*
X101943167Y-62276004D01*
X102052147Y-62205967D01*
X102136980Y-62108063D01*
X102175803Y-62023054D01*
X103268587Y-62023054D01*
X103287023Y-62151282D01*
X103340837Y-62269117D01*
X103340838Y-62269118D01*
X103425671Y-62367022D01*
X103534651Y-62437059D01*
X103658948Y-62473555D01*
X103658949Y-62473555D01*
X103788491Y-62473555D01*
X103788492Y-62473555D01*
X103912789Y-62437059D01*
X104021769Y-62367022D01*
X104106602Y-62269118D01*
X104110767Y-62259999D01*
X107448087Y-62259999D01*
X107466523Y-62388227D01*
X107520337Y-62506062D01*
X107520338Y-62506063D01*
X107605171Y-62603967D01*
X107714151Y-62674004D01*
X107838448Y-62710500D01*
X107838449Y-62710500D01*
X107967991Y-62710500D01*
X107967992Y-62710500D01*
X108092289Y-62674004D01*
X108201269Y-62603967D01*
X108286102Y-62506063D01*
X108339917Y-62388226D01*
X108358353Y-62260000D01*
X108339917Y-62131774D01*
X108286102Y-62013937D01*
X108201269Y-61916033D01*
X108201268Y-61916032D01*
X108092291Y-61845997D01*
X108092290Y-61845996D01*
X108092289Y-61845996D01*
X107967992Y-61809500D01*
X107838448Y-61809500D01*
X107740495Y-61838261D01*
X107714148Y-61845997D01*
X107605171Y-61916032D01*
X107520337Y-62013937D01*
X107466523Y-62131772D01*
X107448087Y-62259999D01*
X104110767Y-62259999D01*
X104160417Y-62151281D01*
X104178853Y-62023055D01*
X104160417Y-61894829D01*
X104106602Y-61776992D01*
X104021769Y-61679088D01*
X104021768Y-61679087D01*
X103912791Y-61609052D01*
X103912790Y-61609051D01*
X103912789Y-61609051D01*
X103788492Y-61572555D01*
X103658948Y-61572555D01*
X103534651Y-61609051D01*
X103534648Y-61609052D01*
X103425671Y-61679087D01*
X103340837Y-61776992D01*
X103287023Y-61894827D01*
X103268587Y-62023054D01*
X102175803Y-62023054D01*
X102190795Y-61990226D01*
X102209231Y-61862000D01*
X102190795Y-61733774D01*
X102136980Y-61615937D01*
X102061786Y-61529157D01*
X102046318Y-61482682D01*
X102061785Y-61445340D01*
X102136980Y-61358560D01*
X102190795Y-61240723D01*
X102209231Y-61112497D01*
X102190795Y-60984271D01*
X102152309Y-60899999D01*
X105607587Y-60899999D01*
X105626023Y-61028227D01*
X105679837Y-61146062D01*
X105679838Y-61146063D01*
X105764671Y-61243967D01*
X105873651Y-61314004D01*
X105997948Y-61350500D01*
X105997949Y-61350500D01*
X106127491Y-61350500D01*
X106127492Y-61350500D01*
X106251789Y-61314004D01*
X106360769Y-61243967D01*
X106445602Y-61146063D01*
X106499417Y-61028226D01*
X106517853Y-60900000D01*
X106499417Y-60771774D01*
X106445602Y-60653937D01*
X106360769Y-60556033D01*
X106360768Y-60556032D01*
X106251791Y-60485997D01*
X106251790Y-60485996D01*
X106251789Y-60485996D01*
X106127492Y-60449500D01*
X105997948Y-60449500D01*
X105873651Y-60485996D01*
X105873648Y-60485997D01*
X105764671Y-60556032D01*
X105679837Y-60653937D01*
X105626023Y-60771772D01*
X105607587Y-60899999D01*
X102152309Y-60899999D01*
X102136980Y-60866434D01*
X102067562Y-60786320D01*
X102052094Y-60739845D01*
X102067562Y-60702501D01*
X102148454Y-60609146D01*
X102202269Y-60491309D01*
X102220705Y-60363083D01*
X102202269Y-60234857D01*
X102148454Y-60117020D01*
X102063621Y-60019116D01*
X102063620Y-60019115D01*
X101954643Y-59949080D01*
X101954642Y-59949079D01*
X101954641Y-59949079D01*
X101830344Y-59912583D01*
X101700800Y-59912583D01*
X101576503Y-59949079D01*
X101576500Y-59949080D01*
X101467523Y-60019115D01*
X101382689Y-60117020D01*
X101328875Y-60234855D01*
X101310439Y-60363084D01*
X101317454Y-60411880D01*
X101305339Y-60459342D01*
X101299360Y-60466242D01*
X100794122Y-60971480D01*
X100791692Y-60973786D01*
X100761711Y-61000781D01*
X100751483Y-61023754D01*
X100746691Y-61032578D01*
X100732993Y-61053671D01*
X100731455Y-61063377D01*
X100726713Y-61079385D01*
X100722720Y-61088355D01*
X100722720Y-61113503D01*
X100721931Y-61123514D01*
X100717998Y-61148354D01*
X100720539Y-61157835D01*
X100722720Y-61174401D01*
X100722720Y-61699758D01*
X100703975Y-61745013D01*
X100658720Y-61763758D01*
X100624120Y-61753599D01*
X100618710Y-61750123D01*
X100612289Y-61745996D01*
X100487992Y-61709500D01*
X100358448Y-61709500D01*
X100249399Y-61741519D01*
X100234148Y-61745997D01*
X100125171Y-61816032D01*
X100040337Y-61913937D01*
X99986523Y-62031772D01*
X99968087Y-62160000D01*
X99986523Y-62288227D01*
X100040337Y-62406062D01*
X100040338Y-62406063D01*
X100125171Y-62503967D01*
X100234151Y-62574004D01*
X100358448Y-62610500D01*
X100358449Y-62610500D01*
X100434486Y-62610500D01*
X100479741Y-62629245D01*
X100498486Y-62674500D01*
X100482854Y-62716411D01*
X100450337Y-62753937D01*
X100396523Y-62871772D01*
X100378087Y-63000000D01*
X100396523Y-63128227D01*
X100450337Y-63246062D01*
X100535171Y-63343967D01*
X100631565Y-63405916D01*
X100644151Y-63414004D01*
X100700020Y-63430408D01*
X100738160Y-63461142D01*
X100743397Y-63509845D01*
X100727244Y-63537070D01*
X100169122Y-64095191D01*
X100166692Y-64097497D01*
X100136711Y-64124492D01*
X100126483Y-64147465D01*
X100121691Y-64156289D01*
X100107993Y-64177382D01*
X100106455Y-64187088D01*
X100101713Y-64203096D01*
X100097720Y-64212066D01*
X100097720Y-64237214D01*
X100096932Y-64247225D01*
X100093259Y-64270420D01*
X100092998Y-64272065D01*
X100095539Y-64281546D01*
X100097720Y-64298112D01*
X100097719Y-65318649D01*
X100078974Y-65363904D01*
X100033719Y-65382649D01*
X99988464Y-65363904D01*
X99985351Y-65360560D01*
X99946768Y-65316032D01*
X99837791Y-65245997D01*
X99837790Y-65245996D01*
X99837789Y-65245996D01*
X99713492Y-65209500D01*
X99583948Y-65209500D01*
X99459651Y-65245996D01*
X99459648Y-65245997D01*
X99350671Y-65316032D01*
X99265837Y-65413937D01*
X99212023Y-65531772D01*
X99193587Y-65659999D01*
X99212023Y-65788227D01*
X99265837Y-65906062D01*
X99350671Y-66003967D01*
X99410523Y-66042432D01*
X99438459Y-66082668D01*
X99429762Y-66130873D01*
X99410523Y-66150112D01*
X99350671Y-66188576D01*
X99265837Y-66286481D01*
X99212023Y-66404316D01*
X99193587Y-66532544D01*
X99212023Y-66660771D01*
X99265837Y-66778606D01*
X99265838Y-66778607D01*
X99350671Y-66876511D01*
X99459651Y-66946548D01*
X99583948Y-66983044D01*
X99583949Y-66983044D01*
X99713491Y-66983044D01*
X99713492Y-66983044D01*
X99837789Y-66946548D01*
X99946769Y-66876511D01*
X99985352Y-66831982D01*
X100029154Y-66810057D01*
X100075631Y-66825526D01*
X100097557Y-66869328D01*
X100097720Y-66873894D01*
X100097720Y-71320663D01*
X100097632Y-71324013D01*
X100095519Y-71364312D01*
X100104533Y-71387794D01*
X100107384Y-71397421D01*
X100112612Y-71422017D01*
X100118384Y-71429962D01*
X100126353Y-71444640D01*
X100129872Y-71453807D01*
X100147660Y-71471595D01*
X100154182Y-71479232D01*
X100168960Y-71499573D01*
X100177461Y-71504481D01*
X100190716Y-71514651D01*
X101826310Y-73150245D01*
X101845055Y-73195500D01*
X101826310Y-73240755D01*
X101781055Y-73259500D01*
X101451700Y-73259500D01*
X101357916Y-73274353D01*
X101244879Y-73331949D01*
X101155169Y-73421659D01*
X101097574Y-73534695D01*
X101082720Y-73628480D01*
X101082720Y-73945500D01*
X101063975Y-73990755D01*
X101018720Y-74009500D01*
X98137720Y-74009500D01*
X98092465Y-73990755D01*
X98073720Y-73945500D01*
X98073720Y-73604499D01*
X98092465Y-73559244D01*
X98137720Y-73540499D01*
X98454739Y-73540499D01*
X98501630Y-73533072D01*
X98548524Y-73525646D01*
X98661562Y-73468050D01*
X98751270Y-73378342D01*
X98808866Y-73265304D01*
X98823720Y-73171519D01*
X98823719Y-72608482D01*
X98808866Y-72514696D01*
X98751270Y-72401658D01*
X98661562Y-72311950D01*
X98661561Y-72311949D01*
X98654394Y-72304782D01*
X98655002Y-72304173D01*
X98629897Y-72274778D01*
X98633739Y-72225945D01*
X98654430Y-72205254D01*
X98654394Y-72205218D01*
X98661562Y-72198050D01*
X98751270Y-72108342D01*
X98808866Y-71995304D01*
X98823720Y-71901519D01*
X98823719Y-71338482D01*
X98821161Y-71322333D01*
X98808866Y-71244696D01*
X98802921Y-71233029D01*
X98751270Y-71131658D01*
X98661562Y-71041950D01*
X98661561Y-71041949D01*
X98654394Y-71034782D01*
X98655002Y-71034173D01*
X98629897Y-71004778D01*
X98633739Y-70955945D01*
X98654430Y-70935254D01*
X98654394Y-70935218D01*
X98661562Y-70928050D01*
X98751270Y-70838342D01*
X98808866Y-70725304D01*
X98823720Y-70631519D01*
X98823719Y-70068482D01*
X98808866Y-69974696D01*
X98751270Y-69861658D01*
X98661562Y-69771950D01*
X98661561Y-69771949D01*
X98654394Y-69764782D01*
X98655002Y-69764173D01*
X98629897Y-69734778D01*
X98633739Y-69685945D01*
X98654430Y-69665254D01*
X98654394Y-69665218D01*
X98661562Y-69658050D01*
X98751270Y-69568342D01*
X98808866Y-69455304D01*
X98823720Y-69361519D01*
X98823719Y-68798482D01*
X98822400Y-68790155D01*
X98808866Y-68704696D01*
X98771224Y-68630820D01*
X98751270Y-68591658D01*
X98661562Y-68501950D01*
X98661561Y-68501949D01*
X98654394Y-68494782D01*
X98655002Y-68494173D01*
X98629897Y-68464778D01*
X98633739Y-68415945D01*
X98654430Y-68395254D01*
X98654394Y-68395218D01*
X98663894Y-68385718D01*
X98751270Y-68298342D01*
X98808866Y-68185304D01*
X98823720Y-68091519D01*
X98823719Y-67528482D01*
X98820442Y-67507793D01*
X98808866Y-67434696D01*
X98808865Y-67434695D01*
X98751270Y-67321658D01*
X98661562Y-67231950D01*
X98661561Y-67231949D01*
X98654394Y-67224782D01*
X98655002Y-67224173D01*
X98629897Y-67194778D01*
X98633739Y-67145945D01*
X98654430Y-67125254D01*
X98654394Y-67125218D01*
X98661562Y-67118050D01*
X98751270Y-67028342D01*
X98808866Y-66915304D01*
X98823720Y-66821519D01*
X98823719Y-66258482D01*
X98820229Y-66236448D01*
X98808866Y-66164696D01*
X98791632Y-66130873D01*
X98751270Y-66051658D01*
X98661562Y-65961950D01*
X98661561Y-65961949D01*
X98654394Y-65954782D01*
X98655002Y-65954173D01*
X98629897Y-65924778D01*
X98633739Y-65875945D01*
X98654430Y-65855254D01*
X98654394Y-65855218D01*
X98673860Y-65835752D01*
X98751270Y-65758342D01*
X98808866Y-65645304D01*
X98823720Y-65551519D01*
X98823719Y-64988482D01*
X98808866Y-64894696D01*
X98751270Y-64781658D01*
X98661562Y-64691950D01*
X98661561Y-64691949D01*
X98654394Y-64684782D01*
X98655002Y-64684173D01*
X98629897Y-64654778D01*
X98633739Y-64605945D01*
X98654430Y-64585254D01*
X98654394Y-64585218D01*
X98661562Y-64578050D01*
X98751270Y-64488342D01*
X98808866Y-64375304D01*
X98823720Y-64281519D01*
X98823719Y-63718482D01*
X98808866Y-63624696D01*
X98751270Y-63511658D01*
X98661562Y-63421950D01*
X98661156Y-63421743D01*
X98659998Y-63420387D01*
X98654394Y-63414783D01*
X98654835Y-63414341D01*
X98629345Y-63384496D01*
X98633189Y-63335664D01*
X98661160Y-63307694D01*
X98661265Y-63307640D01*
X98750861Y-63218043D01*
X98808384Y-63105148D01*
X98823220Y-63011481D01*
X98823220Y-62830000D01*
X98232681Y-62830000D01*
X98248220Y-62787306D01*
X98248220Y-62672694D01*
X98232681Y-62630000D01*
X98823219Y-62630000D01*
X98823219Y-62448519D01*
X98808385Y-62354852D01*
X98750861Y-62241956D01*
X98661264Y-62152358D01*
X98660610Y-62152025D01*
X98658730Y-62149825D01*
X98654097Y-62145191D01*
X98654461Y-62144826D01*
X98628797Y-62114778D01*
X98632639Y-62065946D01*
X98660610Y-62037975D01*
X98661264Y-62037641D01*
X98750861Y-61948043D01*
X98808384Y-61835148D01*
X98823220Y-61741481D01*
X98823220Y-61560000D01*
X98232681Y-61560000D01*
X98248220Y-61517306D01*
X98248220Y-61402694D01*
X98232681Y-61360000D01*
X98823219Y-61360000D01*
X98823219Y-61178519D01*
X98808385Y-61084852D01*
X98750861Y-60971956D01*
X98661264Y-60882358D01*
X98661159Y-60882305D01*
X98660855Y-60881949D01*
X98654097Y-60875191D01*
X98654628Y-60874659D01*
X98629346Y-60845057D01*
X98633189Y-60796225D01*
X98661160Y-60768255D01*
X98661260Y-60768203D01*
X98661562Y-60768050D01*
X98751270Y-60678342D01*
X98808866Y-60565304D01*
X98823720Y-60471519D01*
X98823719Y-59908482D01*
X98808866Y-59814696D01*
X98751270Y-59701658D01*
X98661562Y-59611950D01*
X98661561Y-59611949D01*
X98654394Y-59604782D01*
X98655002Y-59604173D01*
X98629897Y-59574778D01*
X98633739Y-59525945D01*
X98654430Y-59505254D01*
X98654394Y-59505218D01*
X98659612Y-59500000D01*
X107633587Y-59500000D01*
X107637317Y-59525945D01*
X107652023Y-59628227D01*
X107705837Y-59746062D01*
X107705838Y-59746063D01*
X107790671Y-59843967D01*
X107899651Y-59914004D01*
X108023948Y-59950500D01*
X108023949Y-59950500D01*
X108153491Y-59950500D01*
X108153492Y-59950500D01*
X108277789Y-59914004D01*
X108386769Y-59843967D01*
X108471602Y-59746063D01*
X108525417Y-59628226D01*
X108543853Y-59500000D01*
X108525417Y-59371774D01*
X108471602Y-59253937D01*
X108386769Y-59156033D01*
X108386768Y-59156032D01*
X108277791Y-59085997D01*
X108277790Y-59085996D01*
X108277789Y-59085996D01*
X108153492Y-59049500D01*
X108023948Y-59049500D01*
X107904600Y-59084543D01*
X107899648Y-59085997D01*
X107790671Y-59156032D01*
X107705837Y-59253937D01*
X107652023Y-59371772D01*
X107646765Y-59408342D01*
X107633587Y-59500000D01*
X98659612Y-59500000D01*
X98661562Y-59498050D01*
X98751270Y-59408342D01*
X98808866Y-59295304D01*
X98823720Y-59201519D01*
X98823719Y-58740576D01*
X100722529Y-58740576D01*
X100740965Y-58868803D01*
X100794779Y-58986638D01*
X100850115Y-59050500D01*
X100879613Y-59084543D01*
X100988593Y-59154580D01*
X101112890Y-59191076D01*
X101112891Y-59191076D01*
X101242433Y-59191076D01*
X101242434Y-59191076D01*
X101366731Y-59154580D01*
X101475711Y-59084543D01*
X101560544Y-58986639D01*
X101614359Y-58868802D01*
X101632795Y-58740576D01*
X101614359Y-58612350D01*
X101608719Y-58600000D01*
X102878087Y-58600000D01*
X102896523Y-58728227D01*
X102950337Y-58846062D01*
X102950338Y-58846063D01*
X103035171Y-58943967D01*
X103144151Y-59014004D01*
X103268448Y-59050500D01*
X103268449Y-59050500D01*
X103397991Y-59050500D01*
X103397992Y-59050500D01*
X103522289Y-59014004D01*
X103631269Y-58943967D01*
X103716102Y-58846063D01*
X103769917Y-58728226D01*
X103788353Y-58600000D01*
X104768087Y-58600000D01*
X104786523Y-58728227D01*
X104840337Y-58846062D01*
X104840338Y-58846063D01*
X104925171Y-58943967D01*
X105034151Y-59014004D01*
X105158448Y-59050500D01*
X105158449Y-59050500D01*
X105287991Y-59050500D01*
X105287992Y-59050500D01*
X105412289Y-59014004D01*
X105521269Y-58943967D01*
X105606102Y-58846063D01*
X105659917Y-58728226D01*
X105678353Y-58600000D01*
X105659917Y-58471774D01*
X105606102Y-58353937D01*
X105521269Y-58256033D01*
X105521268Y-58256032D01*
X105412291Y-58185997D01*
X105412290Y-58185996D01*
X105412289Y-58185996D01*
X105287992Y-58149500D01*
X105158448Y-58149500D01*
X105034151Y-58185996D01*
X105034148Y-58185997D01*
X104925171Y-58256032D01*
X104840337Y-58353937D01*
X104786523Y-58471772D01*
X104768087Y-58600000D01*
X103788353Y-58600000D01*
X103769917Y-58471774D01*
X103716102Y-58353937D01*
X103631269Y-58256033D01*
X103631268Y-58256032D01*
X103522291Y-58185997D01*
X103522290Y-58185996D01*
X103522289Y-58185996D01*
X103397992Y-58149500D01*
X103268448Y-58149500D01*
X103144151Y-58185996D01*
X103144148Y-58185997D01*
X103035171Y-58256032D01*
X102950337Y-58353937D01*
X102896523Y-58471772D01*
X102878087Y-58600000D01*
X101608719Y-58600000D01*
X101560544Y-58494513D01*
X101475711Y-58396609D01*
X101475710Y-58396608D01*
X101366733Y-58326573D01*
X101366732Y-58326572D01*
X101366731Y-58326572D01*
X101242434Y-58290076D01*
X101112890Y-58290076D01*
X100988593Y-58326572D01*
X100988590Y-58326573D01*
X100879613Y-58396608D01*
X100794779Y-58494513D01*
X100740965Y-58612348D01*
X100722529Y-58740576D01*
X98823719Y-58740576D01*
X98823719Y-58638482D01*
X98819580Y-58612350D01*
X98808866Y-58544696D01*
X98771709Y-58471772D01*
X98751270Y-58431658D01*
X98661562Y-58341950D01*
X98548524Y-58284354D01*
X98454739Y-58269500D01*
X98137720Y-58269500D01*
X98092465Y-58250755D01*
X98073720Y-58205500D01*
X98073720Y-58149500D01*
X98073720Y-57606060D01*
X98092464Y-57560808D01*
X98137719Y-57542063D01*
X98181638Y-57559511D01*
X98183013Y-57560808D01*
X98222002Y-57597592D01*
X98373939Y-57685312D01*
X98542010Y-57735630D01*
X98706322Y-57745200D01*
X98717154Y-57745831D01*
X98717154Y-57745830D01*
X98717155Y-57745831D01*
X98889931Y-57715365D01*
X99051024Y-57645877D01*
X99191750Y-57541110D01*
X99304522Y-57406714D01*
X99383260Y-57249933D01*
X99423720Y-57079221D01*
X99423720Y-56764204D01*
X99442465Y-56718950D01*
X99487720Y-56700205D01*
X99532975Y-56718950D01*
X99541757Y-56729912D01*
X99542647Y-56731314D01*
X99542648Y-56731317D01*
X99631390Y-56871152D01*
X99752120Y-56984526D01*
X99897252Y-57064313D01*
X99906336Y-57066645D01*
X99945509Y-57096055D01*
X99954422Y-57128634D01*
X99954422Y-58700000D01*
X100454422Y-58700000D01*
X100454422Y-57064757D01*
X100473167Y-57019502D01*
X100480803Y-57012981D01*
X100497656Y-57000735D01*
X100551028Y-56961958D01*
X100592966Y-56951889D01*
X100592966Y-56950498D01*
X100598567Y-56950498D01*
X100663209Y-56950498D01*
X100663215Y-56950500D01*
X100690566Y-56950500D01*
X100724823Y-56950501D01*
X100724825Y-56950500D01*
X101526476Y-56950500D01*
X101571731Y-56969245D01*
X101590476Y-57014500D01*
X101574844Y-57056409D01*
X101567996Y-57064314D01*
X101490337Y-57153937D01*
X101436523Y-57271772D01*
X101418087Y-57400000D01*
X101436523Y-57528227D01*
X101490337Y-57646062D01*
X101490338Y-57646063D01*
X101575171Y-57743967D01*
X101684151Y-57814004D01*
X101808448Y-57850500D01*
X101808449Y-57850500D01*
X101937991Y-57850500D01*
X101937992Y-57850500D01*
X102062289Y-57814004D01*
X102171269Y-57743967D01*
X102256102Y-57646063D01*
X102309917Y-57528226D01*
X102328353Y-57400000D01*
X102309917Y-57271774D01*
X102256102Y-57153937D01*
X102171595Y-57056409D01*
X102156127Y-57009934D01*
X102178053Y-56966132D01*
X102219964Y-56950500D01*
X106326476Y-56950500D01*
X106371731Y-56969245D01*
X106390476Y-57014500D01*
X106374844Y-57056409D01*
X106367996Y-57064314D01*
X106290337Y-57153937D01*
X106236523Y-57271772D01*
X106218087Y-57400000D01*
X106236523Y-57528227D01*
X106290337Y-57646062D01*
X106290338Y-57646063D01*
X106375171Y-57743967D01*
X106484151Y-57814004D01*
X106608448Y-57850500D01*
X106608449Y-57850500D01*
X106737991Y-57850500D01*
X106737992Y-57850500D01*
X106862289Y-57814004D01*
X106971269Y-57743967D01*
X107056102Y-57646063D01*
X107109917Y-57528226D01*
X107128353Y-57400000D01*
X107109917Y-57271774D01*
X107056102Y-57153937D01*
X106971595Y-57056409D01*
X106956127Y-57009934D01*
X106978053Y-56966132D01*
X107019964Y-56950500D01*
X107807343Y-56950500D01*
X107807347Y-56950501D01*
X107820075Y-56950501D01*
X107827895Y-56950501D01*
X107827948Y-56950522D01*
X107854426Y-56950521D01*
X107854426Y-56950522D01*
X107930290Y-56950520D01*
X107951932Y-56950520D01*
X107951932Y-56953092D01*
X107990809Y-56961708D01*
X107997916Y-56967483D01*
X108010691Y-56979480D01*
X108016066Y-56984527D01*
X108161196Y-57064313D01*
X108161200Y-57064315D01*
X108321612Y-57105501D01*
X108321613Y-57105501D01*
X108443644Y-57105501D01*
X108445664Y-57105501D01*
X108568734Y-57089954D01*
X108722721Y-57028986D01*
X108856709Y-56931638D01*
X108962278Y-56804027D01*
X109000812Y-56722137D01*
X109037041Y-56689173D01*
X109085970Y-56691480D01*
G37*
%TD.AperFunction*%
%TD*%
M02*
