%TF.GenerationSoftware,KiCad,Pcbnew,7.0.6*%
%TF.CreationDate,2023-08-08T22:31:42+02:00*%
%TF.ProjectId,epi_JLC,6570695f-4a4c-4432-9e6b-696361645f70,1_2_0*%
%TF.SameCoordinates,Original*%
%TF.FileFunction,Paste,Top*%
%TF.FilePolarity,Positive*%
%FSLAX46Y46*%
G04 Gerber Fmt 4.6, Leading zero omitted, Abs format (unit mm)*
G04 Created by KiCad (PCBNEW 7.0.6) date 2023-08-08 22:31:42*
%MOMM*%
%LPD*%
G01*
G04 APERTURE LIST*
G04 Aperture macros list*
%AMRoundRect*
0 Rectangle with rounded corners*
0 $1 Rounding radius*
0 $2 $3 $4 $5 $6 $7 $8 $9 X,Y pos of 4 corners*
0 Add a 4 corners polygon primitive as box body*
4,1,4,$2,$3,$4,$5,$6,$7,$8,$9,$2,$3,0*
0 Add four circle primitives for the rounded corners*
1,1,$1+$1,$2,$3*
1,1,$1+$1,$4,$5*
1,1,$1+$1,$6,$7*
1,1,$1+$1,$8,$9*
0 Add four rect primitives between the rounded corners*
20,1,$1+$1,$2,$3,$4,$5,0*
20,1,$1+$1,$4,$5,$6,$7,0*
20,1,$1+$1,$6,$7,$8,$9,0*
20,1,$1+$1,$8,$9,$2,$3,0*%
%AMOutline5P*
0 Free polygon, 5 corners , with rotation*
0 The origin of the aperture is its center*
0 number of corners: always 5*
0 $1 to $10 corner X, Y*
0 $11 Rotation angle, in degrees counterclockwise*
0 create outline with 5 corners*
4,1,5,$1,$2,$3,$4,$5,$6,$7,$8,$9,$10,$1,$2,$11*%
%AMOutline6P*
0 Free polygon, 6 corners , with rotation*
0 The origin of the aperture is its center*
0 number of corners: always 6*
0 $1 to $12 corner X, Y*
0 $13 Rotation angle, in degrees counterclockwise*
0 create outline with 6 corners*
4,1,6,$1,$2,$3,$4,$5,$6,$7,$8,$9,$10,$11,$12,$1,$2,$13*%
%AMOutline7P*
0 Free polygon, 7 corners , with rotation*
0 The origin of the aperture is its center*
0 number of corners: always 7*
0 $1 to $14 corner X, Y*
0 $15 Rotation angle, in degrees counterclockwise*
0 create outline with 7 corners*
4,1,7,$1,$2,$3,$4,$5,$6,$7,$8,$9,$10,$11,$12,$13,$14,$1,$2,$15*%
%AMOutline8P*
0 Free polygon, 8 corners , with rotation*
0 The origin of the aperture is its center*
0 number of corners: always 8*
0 $1 to $16 corner X, Y*
0 $17 Rotation angle, in degrees counterclockwise*
0 create outline with 8 corners*
4,1,8,$1,$2,$3,$4,$5,$6,$7,$8,$9,$10,$11,$12,$13,$14,$15,$16,$1,$2,$17*%
G04 Aperture macros list end*
%ADD10RoundRect,0.135000X-0.185000X0.135000X-0.185000X-0.135000X0.185000X-0.135000X0.185000X0.135000X0*%
%ADD11R,0.900000X0.800000*%
%ADD12Outline5P,-0.450000X0.400000X0.450000X0.400000X0.450000X-0.160000X0.210000X-0.400000X-0.450000X-0.400000X0.000000*%
%ADD13RoundRect,0.135000X0.185000X-0.135000X0.185000X0.135000X-0.185000X0.135000X-0.185000X-0.135000X0*%
%ADD14RoundRect,0.135000X-0.135000X-0.185000X0.135000X-0.185000X0.135000X0.185000X-0.135000X0.185000X0*%
%ADD15RoundRect,0.062500X-0.475000X-0.062500X0.475000X-0.062500X0.475000X0.062500X-0.475000X0.062500X0*%
%ADD16RoundRect,0.062500X-0.062500X-0.475000X0.062500X-0.475000X0.062500X0.475000X-0.062500X0.475000X0*%
%ADD17RoundRect,0.175000X-0.700000X-0.825000X0.700000X-0.825000X0.700000X0.825000X-0.700000X0.825000X0*%
%ADD18RoundRect,0.147500X-0.172500X0.147500X-0.172500X-0.147500X0.172500X-0.147500X0.172500X0.147500X0*%
%ADD19RoundRect,0.135000X0.135000X0.185000X-0.135000X0.185000X-0.135000X-0.185000X0.135000X-0.185000X0*%
%ADD20R,0.615500X1.000000*%
%ADD21R,0.307750X1.000000*%
%ADD22R,0.307750X0.500000*%
%ADD23R,0.307750X1.000860*%
%ADD24R,0.600000X0.450000*%
G04 APERTURE END LIST*
D10*
%TO.C,C8*%
X99650000Y-65090000D03*
X99650000Y-66110000D03*
%TD*%
%TO.C,C9*%
X99654422Y-63190000D03*
X99654422Y-64210000D03*
%TD*%
%TO.C,RV1*%
X105683220Y-58490000D03*
X105683220Y-59510000D03*
%TD*%
D11*
%TO.C,Y1*%
X103554422Y-72200000D03*
X104954422Y-72200000D03*
X104954422Y-71100000D03*
D12*
X103554422Y-71100000D03*
%TD*%
D10*
%TO.C,C1*%
X99800000Y-58520000D03*
X99800000Y-59540000D03*
%TD*%
D13*
%TO.C,R4*%
X101923220Y-59510000D03*
X101923220Y-58490000D03*
%TD*%
D14*
%TO.C,R3*%
X99800000Y-60400000D03*
X100820000Y-60400000D03*
%TD*%
D15*
%TO.C,U1*%
X100935720Y-63750000D03*
X100935720Y-64250000D03*
X100935720Y-64750000D03*
X100935720Y-65250000D03*
X100935720Y-65750000D03*
X100935720Y-66250000D03*
X100935720Y-66750000D03*
X100935720Y-67250000D03*
X100935720Y-67750000D03*
X100935720Y-68250000D03*
X100935720Y-68750000D03*
D16*
X101773220Y-69587500D03*
X102273220Y-69587500D03*
X102773220Y-69587500D03*
X103273220Y-69587500D03*
X103773220Y-69587500D03*
X104273220Y-69587500D03*
X104773220Y-69587500D03*
X105273220Y-69587500D03*
X105773220Y-69587500D03*
X106273220Y-69587500D03*
X106773220Y-69587500D03*
D15*
X107610720Y-68750000D03*
X107610720Y-68250000D03*
X107610720Y-67750000D03*
X107610720Y-67250000D03*
X107610720Y-66750000D03*
X107610720Y-66250000D03*
X107610720Y-65750000D03*
X107610720Y-65250000D03*
X107610720Y-64750000D03*
X107610720Y-64250000D03*
X107610720Y-63750000D03*
D16*
X106773220Y-62912500D03*
X106273220Y-62912500D03*
X105773220Y-62912500D03*
X105273220Y-62912500D03*
X104773220Y-62912500D03*
X104273220Y-62912500D03*
X103773220Y-62912500D03*
X103273220Y-62912500D03*
X102773220Y-62912500D03*
X102273220Y-62912500D03*
X101773220Y-62912500D03*
D17*
X104398220Y-66250000D03*
%TD*%
D18*
%TO.C,D1*%
X107300000Y-71215000D03*
X107300000Y-72185000D03*
%TD*%
D10*
%TO.C,R2*%
X104750000Y-58490000D03*
X104750000Y-59510000D03*
%TD*%
D13*
%TO.C,R6*%
X100200000Y-71910000D03*
X100200000Y-70890000D03*
%TD*%
%TO.C,R7*%
X108900000Y-63760000D03*
X108900000Y-62740000D03*
%TD*%
%TO.C,RV3*%
X100983220Y-59510000D03*
X100983220Y-58490000D03*
%TD*%
D10*
%TO.C,R1*%
X103800000Y-58490000D03*
X103800000Y-59510000D03*
%TD*%
%TO.C,RV2*%
X102863220Y-58490000D03*
X102863220Y-59510000D03*
%TD*%
D14*
%TO.C,C6*%
X101344422Y-72300000D03*
X102364422Y-72300000D03*
%TD*%
D10*
%TO.C,C7*%
X108500000Y-58490000D03*
X108500000Y-59510000D03*
%TD*%
%TO.C,C4*%
X99650000Y-67340000D03*
X99650000Y-68360000D03*
%TD*%
D19*
%TO.C,C2*%
X103490000Y-61500000D03*
X102470000Y-61500000D03*
%TD*%
D14*
%TO.C,R9*%
X100590000Y-61500000D03*
X101610000Y-61500000D03*
%TD*%
D10*
%TO.C,R8*%
X108250000Y-71190000D03*
X108250000Y-72210000D03*
%TD*%
D13*
%TO.C,FB1*%
X107563220Y-59510000D03*
X107563220Y-58490000D03*
%TD*%
D20*
%TO.C,J4*%
X107473220Y-57341500D03*
X101073220Y-57341500D03*
X106673220Y-57341500D03*
D21*
X105524143Y-57341500D03*
D22*
X104523190Y-57591500D03*
D23*
X104024389Y-57341930D03*
D20*
X101873220Y-57341500D03*
D21*
X102521031Y-57341500D03*
X103523912Y-57342360D03*
X105023667Y-57341500D03*
%TD*%
D14*
%TO.C,C3*%
X101144422Y-71000000D03*
X102164422Y-71000000D03*
%TD*%
D13*
%TO.C,C5*%
X106154422Y-72150000D03*
X106154422Y-71130000D03*
%TD*%
D14*
%TO.C,C10*%
X106990000Y-61650000D03*
X108010000Y-61650000D03*
%TD*%
D10*
%TO.C,R5*%
X106623220Y-58490000D03*
X106623220Y-59510000D03*
%TD*%
D19*
%TO.C,F1*%
X108460000Y-60600000D03*
X107440000Y-60600000D03*
%TD*%
D24*
%TO.C,D2*%
X104350000Y-60597500D03*
X106450000Y-60597500D03*
%TD*%
M02*
