%TF.GenerationSoftware,KiCad,Pcbnew,7.0.6*%
%TF.CreationDate,2023-08-08T22:31:44+02:00*%
%TF.ProjectId,epi_JLC,6570695f-4a4c-4432-9e6b-696361645f70,1_2_0*%
%TF.SameCoordinates,Original*%
%TF.FileFunction,Drillmap*%
%TF.FilePolarity,Positive*%
%FSLAX45Y45*%
G04 Gerber Fmt 4.5, Leading zero omitted, Abs format (unit mm)*
G04 Created by KiCad (PCBNEW 7.0.6) date 2023-08-08 22:31:44*
%MOMM*%
%LPD*%
G01*
G04 APERTURE LIST*
%ADD10C,0.100000*%
%ADD11C,0.010000*%
%ADD12C,0.200000*%
%ADD13C,0.020000*%
%ADD14C,0.060000*%
%ADD15C,0.065000*%
G04 APERTURE END LIST*
D10*
X9562322Y-5140000D02*
X9792322Y-5140000D01*
X9562322Y-7640000D02*
X9562322Y-5140000D01*
X11262322Y-7640000D02*
X9562322Y-7640000D01*
X11262322Y-5140000D02*
X11262322Y-7640000D01*
X11162322Y-5140000D02*
X11262322Y-5140000D01*
X11062322Y-5140000D02*
X11162322Y-5140000D01*
D11*
X10875442Y-5590000D02*
X10875442Y-5140000D01*
X10785442Y-5680000D02*
X10069048Y-5680000D01*
X9979050Y-5590000D02*
G75*
G03*
X10069048Y-5680000I90000J0D01*
G01*
X9979048Y-5590000D02*
X9979048Y-5140000D01*
X10875442Y-5140000D02*
X11062322Y-5140000D01*
X10785442Y-5680002D02*
G75*
G03*
X10875442Y-5590000I-2J90002D01*
G01*
X9792322Y-5140000D02*
X9979048Y-5140000D01*
D12*
D13*
X9939450Y-7145000D02*
X9959450Y-7165000D01*
X9959450Y-7145000D02*
X9939450Y-7165000D01*
X9954553Y-6499763D02*
X9974553Y-6519763D01*
X9974553Y-6499763D02*
X9954553Y-6519763D01*
X9954950Y-6825109D02*
X9974950Y-6845109D01*
X9974950Y-6825109D02*
X9954950Y-6845109D01*
X9955000Y-6724000D02*
X9975000Y-6744000D01*
X9975000Y-6724000D02*
X9955000Y-6744000D01*
X9955442Y-6411000D02*
X9975442Y-6431000D01*
X9975442Y-6411000D02*
X9955442Y-6431000D01*
X9970000Y-5845000D02*
X9990000Y-5865000D01*
X9990000Y-5845000D02*
X9970000Y-5865000D01*
X10016918Y-7002149D02*
X10036918Y-7022149D01*
X10036918Y-7002149D02*
X10016918Y-7022149D01*
X10047550Y-6140000D02*
X10067550Y-6160000D01*
X10067550Y-6140000D02*
X10047550Y-6160000D01*
X10088419Y-6933300D02*
X10108419Y-6953300D01*
X10108419Y-6933300D02*
X10088419Y-6953300D01*
X10097322Y-5724150D02*
X10117322Y-5744150D01*
X10117322Y-5724150D02*
X10097322Y-5744150D01*
X10105000Y-7090000D02*
X10125000Y-7110000D01*
X10125000Y-7090000D02*
X10105000Y-7110000D01*
X10106758Y-5865154D02*
X10126758Y-5885154D01*
X10126758Y-5865154D02*
X10106758Y-5885154D01*
X10125000Y-7220000D02*
X10145000Y-7240000D01*
X10145000Y-7220000D02*
X10125000Y-7240000D01*
X10177322Y-5724150D02*
X10197322Y-5744150D01*
X10197322Y-5724150D02*
X10177322Y-5744150D01*
X10179140Y-6731742D02*
X10199140Y-6751742D01*
X10199140Y-6731742D02*
X10179140Y-6751742D01*
X10181308Y-6848863D02*
X10201308Y-6868863D01*
X10201308Y-6848863D02*
X10181308Y-6868863D01*
X10181514Y-6501450D02*
X10201514Y-6521450D01*
X10201514Y-6501450D02*
X10181514Y-6521450D01*
X10182272Y-6371022D02*
X10202272Y-6391022D01*
X10202272Y-6371022D02*
X10182272Y-6391022D01*
X10200902Y-6662113D02*
X10220902Y-6682113D01*
X10220902Y-6662113D02*
X10200902Y-6682113D01*
X10205550Y-7090000D02*
X10225550Y-7110000D01*
X10225550Y-7090000D02*
X10205550Y-7110000D01*
X10213839Y-6583336D02*
X10233839Y-6603336D01*
X10233839Y-6583336D02*
X10213839Y-6603336D01*
X10234417Y-6783192D02*
X10254417Y-6803192D01*
X10254417Y-6783192D02*
X10234417Y-6803192D01*
X10256450Y-6501450D02*
X10276450Y-6521450D01*
X10276450Y-6501450D02*
X10256450Y-6521450D01*
X10265685Y-6852050D02*
X10285685Y-6872050D01*
X10285685Y-6852050D02*
X10265685Y-6872050D01*
X10292106Y-5805000D02*
X10312106Y-5825000D01*
X10312106Y-5805000D02*
X10292106Y-5825000D01*
X10298712Y-6608569D02*
X10318712Y-6628569D01*
X10318712Y-6608569D02*
X10298712Y-6628569D01*
X10370000Y-5941000D02*
X10390000Y-5961000D01*
X10390000Y-5941000D02*
X10370000Y-5961000D01*
X10415000Y-7288050D02*
X10435000Y-7308050D01*
X10435000Y-7288050D02*
X10415000Y-7308050D01*
X10430000Y-6620000D02*
X10450000Y-6640000D01*
X10450000Y-6620000D02*
X10430000Y-6640000D01*
X10435000Y-6145000D02*
X10455000Y-6165000D01*
X10455000Y-6145000D02*
X10435000Y-6165000D01*
X10445000Y-6385000D02*
X10465000Y-6405000D01*
X10465000Y-6385000D02*
X10445000Y-6405000D01*
X10465000Y-5941000D02*
X10485000Y-5961000D01*
X10485000Y-5941000D02*
X10465000Y-5961000D01*
X10500000Y-6020000D02*
X10520000Y-6040000D01*
X10520000Y-6020000D02*
X10500000Y-6040000D01*
X10510000Y-5850000D02*
X10530000Y-5870000D01*
X10530000Y-5850000D02*
X10510000Y-5870000D01*
X10510000Y-6145000D02*
X10530000Y-6165000D01*
X10530000Y-6145000D02*
X10510000Y-6165000D01*
X10533611Y-6415150D02*
X10553611Y-6435150D01*
X10553611Y-6415150D02*
X10533611Y-6435150D01*
X10536070Y-6748353D02*
X10556070Y-6768353D01*
X10556070Y-6748353D02*
X10536070Y-6768353D01*
X10584950Y-6145000D02*
X10604950Y-6165000D01*
X10604950Y-6145000D02*
X10584950Y-6165000D01*
X10605000Y-7205000D02*
X10625000Y-7225000D01*
X10625000Y-7205000D02*
X10605000Y-7225000D01*
X10606554Y-6414104D02*
X10626554Y-6434104D01*
X10626554Y-6414104D02*
X10606554Y-6434104D01*
X10610000Y-6525550D02*
X10630000Y-6545550D01*
X10630000Y-6525550D02*
X10610000Y-6545550D01*
X10612822Y-6713550D02*
X10632822Y-6733550D01*
X10632822Y-6713550D02*
X10612822Y-6733550D01*
X10622450Y-6632400D02*
X10642450Y-6652400D01*
X10642450Y-6632400D02*
X10622450Y-6652400D01*
X10657322Y-5724150D02*
X10677322Y-5744150D01*
X10677322Y-5724150D02*
X10657322Y-5744150D01*
X10657436Y-6815000D02*
X10677436Y-6835000D01*
X10677436Y-6815000D02*
X10657436Y-6835000D01*
X10746322Y-5941000D02*
X10766322Y-5961000D01*
X10766322Y-5941000D02*
X10746322Y-5961000D01*
X10750000Y-6925000D02*
X10770000Y-6945000D01*
X10770000Y-6925000D02*
X10750000Y-6945000D01*
X10882372Y-6890000D02*
X10902372Y-6910000D01*
X10902372Y-6890000D02*
X10882372Y-6910000D01*
X10894965Y-7090035D02*
X10914965Y-7110035D01*
X10914965Y-7090035D02*
X10894965Y-7110035D01*
X10900000Y-7225000D02*
X10920000Y-7245000D01*
X10920000Y-7225000D02*
X10900000Y-7245000D01*
D14*
X9897322Y-5259150D02*
G75*
G03*
X9897322Y-5259150I-30000J0D01*
G01*
D12*
X9837322Y-5204150D02*
X9837322Y-5314150D01*
X9837322Y-5314150D02*
G75*
G03*
X9897322Y-5314150I30000J0D01*
G01*
X9897322Y-5314150D02*
X9897322Y-5204150D01*
X9897322Y-5204150D02*
G75*
G03*
X9837322Y-5204150I-30000J0D01*
G01*
D14*
X9897322Y-5659150D02*
G75*
G03*
X9897322Y-5659150I-30000J0D01*
G01*
D12*
X9837322Y-5619150D02*
X9837322Y-5699150D01*
X9837322Y-5699150D02*
G75*
G03*
X9897322Y-5699150I30000J0D01*
G01*
X9897322Y-5699150D02*
X9897322Y-5619150D01*
X9897322Y-5619150D02*
G75*
G03*
X9837322Y-5619150I-30000J0D01*
G01*
D14*
X11017322Y-5259150D02*
G75*
G03*
X11017322Y-5259150I-30000J0D01*
G01*
D12*
X10957322Y-5204150D02*
X10957322Y-5314150D01*
X10957322Y-5314150D02*
G75*
G03*
X11017322Y-5314150I30000J0D01*
G01*
X11017322Y-5314150D02*
X11017322Y-5204150D01*
X11017322Y-5204150D02*
G75*
G03*
X10957322Y-5204150I-30000J0D01*
G01*
D14*
X11017322Y-5659150D02*
G75*
G03*
X11017322Y-5659150I-30000J0D01*
G01*
D12*
X10957322Y-5619150D02*
X10957322Y-5699150D01*
X10957322Y-5699150D02*
G75*
G03*
X11017322Y-5699150I30000J0D01*
G01*
X11017322Y-5699150D02*
X11017322Y-5619150D01*
X11017322Y-5619150D02*
G75*
G03*
X10957322Y-5619150I-30000J0D01*
G01*
D15*
X9792322Y-5859500D02*
X9792322Y-5924500D01*
X9759822Y-5892000D02*
X9824822Y-5892000D01*
X9792322Y-5986500D02*
X9792322Y-6051500D01*
X9759822Y-6019000D02*
X9824822Y-6019000D01*
X9792322Y-6113500D02*
X9792322Y-6178500D01*
X9759822Y-6146000D02*
X9824822Y-6146000D01*
X9792322Y-6240500D02*
X9792322Y-6305500D01*
X9759822Y-6273000D02*
X9824822Y-6273000D01*
X9792322Y-6367500D02*
X9792322Y-6432500D01*
X9759822Y-6400000D02*
X9824822Y-6400000D01*
X9792322Y-6494500D02*
X9792322Y-6559500D01*
X9759822Y-6527000D02*
X9824822Y-6527000D01*
X9792322Y-6621500D02*
X9792322Y-6686500D01*
X9759822Y-6654000D02*
X9824822Y-6654000D01*
X9792322Y-6748500D02*
X9792322Y-6813500D01*
X9759822Y-6781000D02*
X9824822Y-6781000D01*
X9792322Y-6875500D02*
X9792322Y-6940500D01*
X9759822Y-6908000D02*
X9824822Y-6908000D01*
X9792322Y-7002500D02*
X9792322Y-7067500D01*
X9759822Y-7035000D02*
X9824822Y-7035000D01*
X9792322Y-7129500D02*
X9792322Y-7194500D01*
X9759822Y-7162000D02*
X9824822Y-7162000D01*
X9792322Y-7256500D02*
X9792322Y-7321500D01*
X9759822Y-7289000D02*
X9824822Y-7289000D01*
X10173322Y-7383500D02*
X10173322Y-7448500D01*
X10140822Y-7416000D02*
X10205822Y-7416000D01*
X10300322Y-7383500D02*
X10300322Y-7448500D01*
X10267822Y-7416000D02*
X10332822Y-7416000D01*
X10427322Y-7383500D02*
X10427322Y-7448500D01*
X10394822Y-7416000D02*
X10459822Y-7416000D01*
X10554322Y-7383500D02*
X10554322Y-7448500D01*
X10521822Y-7416000D02*
X10586822Y-7416000D01*
X10681322Y-7383500D02*
X10681322Y-7448500D01*
X10648822Y-7416000D02*
X10713822Y-7416000D01*
X11062322Y-5859500D02*
X11062322Y-5924500D01*
X11029822Y-5892000D02*
X11094822Y-5892000D01*
X11062322Y-5986500D02*
X11062322Y-6051500D01*
X11029822Y-6019000D02*
X11094822Y-6019000D01*
X11062322Y-6113500D02*
X11062322Y-6178500D01*
X11029822Y-6146000D02*
X11094822Y-6146000D01*
X11062322Y-6240500D02*
X11062322Y-6305500D01*
X11029822Y-6273000D02*
X11094822Y-6273000D01*
X11062322Y-6367500D02*
X11062322Y-6432500D01*
X11029822Y-6400000D02*
X11094822Y-6400000D01*
X11062322Y-6494500D02*
X11062322Y-6559500D01*
X11029822Y-6527000D02*
X11094822Y-6527000D01*
X11062322Y-6621500D02*
X11062322Y-6686500D01*
X11029822Y-6654000D02*
X11094822Y-6654000D01*
X11062322Y-6748500D02*
X11062322Y-6813500D01*
X11029822Y-6781000D02*
X11094822Y-6781000D01*
X11062322Y-6875500D02*
X11062322Y-6940500D01*
X11029822Y-6908000D02*
X11094822Y-6908000D01*
X11062322Y-7002500D02*
X11062322Y-7067500D01*
X11029822Y-7035000D02*
X11094822Y-7035000D01*
X11062322Y-7129500D02*
X11062322Y-7194500D01*
X11029822Y-7162000D02*
X11094822Y-7162000D01*
X11062322Y-7256500D02*
X11062322Y-7321500D01*
X11029822Y-7289000D02*
X11094822Y-7289000D01*
D12*
X9818099Y-7956484D02*
X9818099Y-7756484D01*
X9818099Y-7756484D02*
X9865718Y-7756484D01*
X9865718Y-7756484D02*
X9894289Y-7766008D01*
X9894289Y-7766008D02*
X9913337Y-7785055D01*
X9913337Y-7785055D02*
X9922861Y-7804103D01*
X9922861Y-7804103D02*
X9932385Y-7842198D01*
X9932385Y-7842198D02*
X9932385Y-7870769D01*
X9932385Y-7870769D02*
X9922861Y-7908865D01*
X9922861Y-7908865D02*
X9913337Y-7927912D01*
X9913337Y-7927912D02*
X9894289Y-7946960D01*
X9894289Y-7946960D02*
X9865718Y-7956484D01*
X9865718Y-7956484D02*
X9818099Y-7956484D01*
X10018099Y-7956484D02*
X10018099Y-7823150D01*
X10018099Y-7861246D02*
X10027623Y-7842198D01*
X10027623Y-7842198D02*
X10037146Y-7832674D01*
X10037146Y-7832674D02*
X10056194Y-7823150D01*
X10056194Y-7823150D02*
X10075242Y-7823150D01*
X10141908Y-7956484D02*
X10141908Y-7823150D01*
X10141908Y-7756484D02*
X10132385Y-7766008D01*
X10132385Y-7766008D02*
X10141908Y-7775531D01*
X10141908Y-7775531D02*
X10151432Y-7766008D01*
X10151432Y-7766008D02*
X10141908Y-7756484D01*
X10141908Y-7756484D02*
X10141908Y-7775531D01*
X10265718Y-7956484D02*
X10246670Y-7946960D01*
X10246670Y-7946960D02*
X10237146Y-7927912D01*
X10237146Y-7927912D02*
X10237146Y-7756484D01*
X10370480Y-7956484D02*
X10351432Y-7946960D01*
X10351432Y-7946960D02*
X10341908Y-7927912D01*
X10341908Y-7927912D02*
X10341908Y-7756484D01*
X10599051Y-7956484D02*
X10599051Y-7756484D01*
X10599051Y-7756484D02*
X10665718Y-7899341D01*
X10665718Y-7899341D02*
X10732385Y-7756484D01*
X10732385Y-7756484D02*
X10732385Y-7956484D01*
X10913337Y-7956484D02*
X10913337Y-7851722D01*
X10913337Y-7851722D02*
X10903813Y-7832674D01*
X10903813Y-7832674D02*
X10884766Y-7823150D01*
X10884766Y-7823150D02*
X10846670Y-7823150D01*
X10846670Y-7823150D02*
X10827623Y-7832674D01*
X10913337Y-7946960D02*
X10894289Y-7956484D01*
X10894289Y-7956484D02*
X10846670Y-7956484D01*
X10846670Y-7956484D02*
X10827623Y-7946960D01*
X10827623Y-7946960D02*
X10818099Y-7927912D01*
X10818099Y-7927912D02*
X10818099Y-7908865D01*
X10818099Y-7908865D02*
X10827623Y-7889817D01*
X10827623Y-7889817D02*
X10846670Y-7880293D01*
X10846670Y-7880293D02*
X10894289Y-7880293D01*
X10894289Y-7880293D02*
X10913337Y-7870769D01*
X11008575Y-7823150D02*
X11008575Y-8023150D01*
X11008575Y-7832674D02*
X11027623Y-7823150D01*
X11027623Y-7823150D02*
X11065718Y-7823150D01*
X11065718Y-7823150D02*
X11084766Y-7832674D01*
X11084766Y-7832674D02*
X11094289Y-7842198D01*
X11094289Y-7842198D02*
X11103813Y-7861246D01*
X11103813Y-7861246D02*
X11103813Y-7918388D01*
X11103813Y-7918388D02*
X11094289Y-7937436D01*
X11094289Y-7937436D02*
X11084766Y-7946960D01*
X11084766Y-7946960D02*
X11065718Y-7956484D01*
X11065718Y-7956484D02*
X11027623Y-7956484D01*
X11027623Y-7956484D02*
X11008575Y-7946960D01*
X11189527Y-7937436D02*
X11199051Y-7946960D01*
X11199051Y-7946960D02*
X11189527Y-7956484D01*
X11189527Y-7956484D02*
X11180004Y-7946960D01*
X11180004Y-7946960D02*
X11189527Y-7937436D01*
X11189527Y-7937436D02*
X11189527Y-7956484D01*
X11189527Y-7832674D02*
X11199051Y-7842198D01*
X11199051Y-7842198D02*
X11189527Y-7851722D01*
X11189527Y-7851722D02*
X11180004Y-7842198D01*
X11180004Y-7842198D02*
X11189527Y-7832674D01*
X11189527Y-7832674D02*
X11189527Y-7851722D01*
D13*
X9537322Y-8275000D02*
X9557322Y-8295000D01*
X9557322Y-8275000D02*
X9537322Y-8295000D01*
D12*
X9856194Y-8176484D02*
X9875242Y-8176484D01*
X9875242Y-8176484D02*
X9894289Y-8186008D01*
X9894289Y-8186008D02*
X9903813Y-8195531D01*
X9903813Y-8195531D02*
X9913337Y-8214579D01*
X9913337Y-8214579D02*
X9922861Y-8252674D01*
X9922861Y-8252674D02*
X9922861Y-8300293D01*
X9922861Y-8300293D02*
X9913337Y-8338388D01*
X9913337Y-8338388D02*
X9903813Y-8357436D01*
X9903813Y-8357436D02*
X9894289Y-8366960D01*
X9894289Y-8366960D02*
X9875242Y-8376484D01*
X9875242Y-8376484D02*
X9856194Y-8376484D01*
X9856194Y-8376484D02*
X9837146Y-8366960D01*
X9837146Y-8366960D02*
X9827623Y-8357436D01*
X9827623Y-8357436D02*
X9818099Y-8338388D01*
X9818099Y-8338388D02*
X9808575Y-8300293D01*
X9808575Y-8300293D02*
X9808575Y-8252674D01*
X9808575Y-8252674D02*
X9818099Y-8214579D01*
X9818099Y-8214579D02*
X9827623Y-8195531D01*
X9827623Y-8195531D02*
X9837146Y-8186008D01*
X9837146Y-8186008D02*
X9856194Y-8176484D01*
X10008575Y-8357436D02*
X10018099Y-8366960D01*
X10018099Y-8366960D02*
X10008575Y-8376484D01*
X10008575Y-8376484D02*
X9999051Y-8366960D01*
X9999051Y-8366960D02*
X10008575Y-8357436D01*
X10008575Y-8357436D02*
X10008575Y-8376484D01*
X10094289Y-8195531D02*
X10103813Y-8186008D01*
X10103813Y-8186008D02*
X10122861Y-8176484D01*
X10122861Y-8176484D02*
X10170480Y-8176484D01*
X10170480Y-8176484D02*
X10189527Y-8186008D01*
X10189527Y-8186008D02*
X10199051Y-8195531D01*
X10199051Y-8195531D02*
X10208575Y-8214579D01*
X10208575Y-8214579D02*
X10208575Y-8233627D01*
X10208575Y-8233627D02*
X10199051Y-8262198D01*
X10199051Y-8262198D02*
X10084766Y-8376484D01*
X10084766Y-8376484D02*
X10208575Y-8376484D01*
X10332385Y-8176484D02*
X10351432Y-8176484D01*
X10351432Y-8176484D02*
X10370480Y-8186008D01*
X10370480Y-8186008D02*
X10380004Y-8195531D01*
X10380004Y-8195531D02*
X10389527Y-8214579D01*
X10389527Y-8214579D02*
X10399051Y-8252674D01*
X10399051Y-8252674D02*
X10399051Y-8300293D01*
X10399051Y-8300293D02*
X10389527Y-8338388D01*
X10389527Y-8338388D02*
X10380004Y-8357436D01*
X10380004Y-8357436D02*
X10370480Y-8366960D01*
X10370480Y-8366960D02*
X10351432Y-8376484D01*
X10351432Y-8376484D02*
X10332385Y-8376484D01*
X10332385Y-8376484D02*
X10313337Y-8366960D01*
X10313337Y-8366960D02*
X10303813Y-8357436D01*
X10303813Y-8357436D02*
X10294289Y-8338388D01*
X10294289Y-8338388D02*
X10284766Y-8300293D01*
X10284766Y-8300293D02*
X10284766Y-8252674D01*
X10284766Y-8252674D02*
X10294289Y-8214579D01*
X10294289Y-8214579D02*
X10303813Y-8195531D01*
X10303813Y-8195531D02*
X10313337Y-8186008D01*
X10313337Y-8186008D02*
X10332385Y-8176484D01*
X10522861Y-8176484D02*
X10541908Y-8176484D01*
X10541908Y-8176484D02*
X10560956Y-8186008D01*
X10560956Y-8186008D02*
X10570480Y-8195531D01*
X10570480Y-8195531D02*
X10580004Y-8214579D01*
X10580004Y-8214579D02*
X10589527Y-8252674D01*
X10589527Y-8252674D02*
X10589527Y-8300293D01*
X10589527Y-8300293D02*
X10580004Y-8338388D01*
X10580004Y-8338388D02*
X10570480Y-8357436D01*
X10570480Y-8357436D02*
X10560956Y-8366960D01*
X10560956Y-8366960D02*
X10541908Y-8376484D01*
X10541908Y-8376484D02*
X10522861Y-8376484D01*
X10522861Y-8376484D02*
X10503813Y-8366960D01*
X10503813Y-8366960D02*
X10494289Y-8357436D01*
X10494289Y-8357436D02*
X10484766Y-8338388D01*
X10484766Y-8338388D02*
X10475242Y-8300293D01*
X10475242Y-8300293D02*
X10475242Y-8252674D01*
X10475242Y-8252674D02*
X10484766Y-8214579D01*
X10484766Y-8214579D02*
X10494289Y-8195531D01*
X10494289Y-8195531D02*
X10503813Y-8186008D01*
X10503813Y-8186008D02*
X10522861Y-8176484D01*
X10675242Y-8376484D02*
X10675242Y-8243150D01*
X10675242Y-8262198D02*
X10684766Y-8252674D01*
X10684766Y-8252674D02*
X10703813Y-8243150D01*
X10703813Y-8243150D02*
X10732385Y-8243150D01*
X10732385Y-8243150D02*
X10751432Y-8252674D01*
X10751432Y-8252674D02*
X10760956Y-8271722D01*
X10760956Y-8271722D02*
X10760956Y-8376484D01*
X10760956Y-8271722D02*
X10770480Y-8252674D01*
X10770480Y-8252674D02*
X10789527Y-8243150D01*
X10789527Y-8243150D02*
X10818099Y-8243150D01*
X10818099Y-8243150D02*
X10837147Y-8252674D01*
X10837147Y-8252674D02*
X10846670Y-8271722D01*
X10846670Y-8271722D02*
X10846670Y-8376484D01*
X10941908Y-8376484D02*
X10941908Y-8243150D01*
X10941908Y-8262198D02*
X10951432Y-8252674D01*
X10951432Y-8252674D02*
X10970480Y-8243150D01*
X10970480Y-8243150D02*
X10999051Y-8243150D01*
X10999051Y-8243150D02*
X11018099Y-8252674D01*
X11018099Y-8252674D02*
X11027623Y-8271722D01*
X11027623Y-8271722D02*
X11027623Y-8376484D01*
X11027623Y-8271722D02*
X11037147Y-8252674D01*
X11037147Y-8252674D02*
X11056194Y-8243150D01*
X11056194Y-8243150D02*
X11084766Y-8243150D01*
X11084766Y-8243150D02*
X11103813Y-8252674D01*
X11103813Y-8252674D02*
X11113337Y-8271722D01*
X11113337Y-8271722D02*
X11113337Y-8376484D01*
X11503813Y-8166960D02*
X11332385Y-8424103D01*
X11760956Y-8176484D02*
X11780004Y-8176484D01*
X11780004Y-8176484D02*
X11799051Y-8186008D01*
X11799051Y-8186008D02*
X11808575Y-8195531D01*
X11808575Y-8195531D02*
X11818099Y-8214579D01*
X11818099Y-8214579D02*
X11827623Y-8252674D01*
X11827623Y-8252674D02*
X11827623Y-8300293D01*
X11827623Y-8300293D02*
X11818099Y-8338388D01*
X11818099Y-8338388D02*
X11808575Y-8357436D01*
X11808575Y-8357436D02*
X11799051Y-8366960D01*
X11799051Y-8366960D02*
X11780004Y-8376484D01*
X11780004Y-8376484D02*
X11760956Y-8376484D01*
X11760956Y-8376484D02*
X11741908Y-8366960D01*
X11741908Y-8366960D02*
X11732385Y-8357436D01*
X11732385Y-8357436D02*
X11722861Y-8338388D01*
X11722861Y-8338388D02*
X11713337Y-8300293D01*
X11713337Y-8300293D02*
X11713337Y-8252674D01*
X11713337Y-8252674D02*
X11722861Y-8214579D01*
X11722861Y-8214579D02*
X11732385Y-8195531D01*
X11732385Y-8195531D02*
X11741908Y-8186008D01*
X11741908Y-8186008D02*
X11760956Y-8176484D01*
X11913337Y-8357436D02*
X11922861Y-8366960D01*
X11922861Y-8366960D02*
X11913337Y-8376484D01*
X11913337Y-8376484D02*
X11903813Y-8366960D01*
X11903813Y-8366960D02*
X11913337Y-8357436D01*
X11913337Y-8357436D02*
X11913337Y-8376484D01*
X12046670Y-8176484D02*
X12065718Y-8176484D01*
X12065718Y-8176484D02*
X12084766Y-8186008D01*
X12084766Y-8186008D02*
X12094289Y-8195531D01*
X12094289Y-8195531D02*
X12103813Y-8214579D01*
X12103813Y-8214579D02*
X12113337Y-8252674D01*
X12113337Y-8252674D02*
X12113337Y-8300293D01*
X12113337Y-8300293D02*
X12103813Y-8338388D01*
X12103813Y-8338388D02*
X12094289Y-8357436D01*
X12094289Y-8357436D02*
X12084766Y-8366960D01*
X12084766Y-8366960D02*
X12065718Y-8376484D01*
X12065718Y-8376484D02*
X12046670Y-8376484D01*
X12046670Y-8376484D02*
X12027623Y-8366960D01*
X12027623Y-8366960D02*
X12018099Y-8357436D01*
X12018099Y-8357436D02*
X12008575Y-8338388D01*
X12008575Y-8338388D02*
X11999051Y-8300293D01*
X11999051Y-8300293D02*
X11999051Y-8252674D01*
X11999051Y-8252674D02*
X12008575Y-8214579D01*
X12008575Y-8214579D02*
X12018099Y-8195531D01*
X12018099Y-8195531D02*
X12027623Y-8186008D01*
X12027623Y-8186008D02*
X12046670Y-8176484D01*
X12237147Y-8176484D02*
X12256194Y-8176484D01*
X12256194Y-8176484D02*
X12275242Y-8186008D01*
X12275242Y-8186008D02*
X12284766Y-8195531D01*
X12284766Y-8195531D02*
X12294289Y-8214579D01*
X12294289Y-8214579D02*
X12303813Y-8252674D01*
X12303813Y-8252674D02*
X12303813Y-8300293D01*
X12303813Y-8300293D02*
X12294289Y-8338388D01*
X12294289Y-8338388D02*
X12284766Y-8357436D01*
X12284766Y-8357436D02*
X12275242Y-8366960D01*
X12275242Y-8366960D02*
X12256194Y-8376484D01*
X12256194Y-8376484D02*
X12237147Y-8376484D01*
X12237147Y-8376484D02*
X12218099Y-8366960D01*
X12218099Y-8366960D02*
X12208575Y-8357436D01*
X12208575Y-8357436D02*
X12199051Y-8338388D01*
X12199051Y-8338388D02*
X12189528Y-8300293D01*
X12189528Y-8300293D02*
X12189528Y-8252674D01*
X12189528Y-8252674D02*
X12199051Y-8214579D01*
X12199051Y-8214579D02*
X12208575Y-8195531D01*
X12208575Y-8195531D02*
X12218099Y-8186008D01*
X12218099Y-8186008D02*
X12237147Y-8176484D01*
X12370480Y-8176484D02*
X12503813Y-8176484D01*
X12503813Y-8176484D02*
X12418099Y-8376484D01*
X12589528Y-8376484D02*
X12627623Y-8376484D01*
X12627623Y-8376484D02*
X12646670Y-8366960D01*
X12646670Y-8366960D02*
X12656194Y-8357436D01*
X12656194Y-8357436D02*
X12675242Y-8328865D01*
X12675242Y-8328865D02*
X12684766Y-8290769D01*
X12684766Y-8290769D02*
X12684766Y-8214579D01*
X12684766Y-8214579D02*
X12675242Y-8195531D01*
X12675242Y-8195531D02*
X12665718Y-8186008D01*
X12665718Y-8186008D02*
X12646670Y-8176484D01*
X12646670Y-8176484D02*
X12608575Y-8176484D01*
X12608575Y-8176484D02*
X12589528Y-8186008D01*
X12589528Y-8186008D02*
X12580004Y-8195531D01*
X12580004Y-8195531D02*
X12570480Y-8214579D01*
X12570480Y-8214579D02*
X12570480Y-8262198D01*
X12570480Y-8262198D02*
X12580004Y-8281246D01*
X12580004Y-8281246D02*
X12589528Y-8290769D01*
X12589528Y-8290769D02*
X12608575Y-8300293D01*
X12608575Y-8300293D02*
X12646670Y-8300293D01*
X12646670Y-8300293D02*
X12665718Y-8290769D01*
X12665718Y-8290769D02*
X12675242Y-8281246D01*
X12675242Y-8281246D02*
X12684766Y-8262198D01*
X12760956Y-8176484D02*
X12760956Y-8214579D01*
X12837147Y-8176484D02*
X12837147Y-8214579D01*
X13132385Y-8452674D02*
X13122861Y-8443150D01*
X13122861Y-8443150D02*
X13103813Y-8414579D01*
X13103813Y-8414579D02*
X13094290Y-8395531D01*
X13094290Y-8395531D02*
X13084766Y-8366960D01*
X13084766Y-8366960D02*
X13075242Y-8319341D01*
X13075242Y-8319341D02*
X13075242Y-8281246D01*
X13075242Y-8281246D02*
X13084766Y-8233627D01*
X13084766Y-8233627D02*
X13094290Y-8205055D01*
X13094290Y-8205055D02*
X13103813Y-8186008D01*
X13103813Y-8186008D02*
X13122861Y-8157436D01*
X13122861Y-8157436D02*
X13132385Y-8147912D01*
X13303813Y-8176484D02*
X13208575Y-8176484D01*
X13208575Y-8176484D02*
X13199051Y-8271722D01*
X13199051Y-8271722D02*
X13208575Y-8262198D01*
X13208575Y-8262198D02*
X13227623Y-8252674D01*
X13227623Y-8252674D02*
X13275242Y-8252674D01*
X13275242Y-8252674D02*
X13294290Y-8262198D01*
X13294290Y-8262198D02*
X13303813Y-8271722D01*
X13303813Y-8271722D02*
X13313337Y-8290769D01*
X13313337Y-8290769D02*
X13313337Y-8338388D01*
X13313337Y-8338388D02*
X13303813Y-8357436D01*
X13303813Y-8357436D02*
X13294290Y-8366960D01*
X13294290Y-8366960D02*
X13275242Y-8376484D01*
X13275242Y-8376484D02*
X13227623Y-8376484D01*
X13227623Y-8376484D02*
X13208575Y-8366960D01*
X13208575Y-8366960D02*
X13199051Y-8357436D01*
X13437147Y-8176484D02*
X13456194Y-8176484D01*
X13456194Y-8176484D02*
X13475242Y-8186008D01*
X13475242Y-8186008D02*
X13484766Y-8195531D01*
X13484766Y-8195531D02*
X13494290Y-8214579D01*
X13494290Y-8214579D02*
X13503813Y-8252674D01*
X13503813Y-8252674D02*
X13503813Y-8300293D01*
X13503813Y-8300293D02*
X13494290Y-8338388D01*
X13494290Y-8338388D02*
X13484766Y-8357436D01*
X13484766Y-8357436D02*
X13475242Y-8366960D01*
X13475242Y-8366960D02*
X13456194Y-8376484D01*
X13456194Y-8376484D02*
X13437147Y-8376484D01*
X13437147Y-8376484D02*
X13418099Y-8366960D01*
X13418099Y-8366960D02*
X13408575Y-8357436D01*
X13408575Y-8357436D02*
X13399051Y-8338388D01*
X13399051Y-8338388D02*
X13389528Y-8300293D01*
X13389528Y-8300293D02*
X13389528Y-8252674D01*
X13389528Y-8252674D02*
X13399051Y-8214579D01*
X13399051Y-8214579D02*
X13408575Y-8195531D01*
X13408575Y-8195531D02*
X13418099Y-8186008D01*
X13418099Y-8186008D02*
X13437147Y-8176484D01*
X13741909Y-8376484D02*
X13741909Y-8176484D01*
X13827623Y-8376484D02*
X13827623Y-8271722D01*
X13827623Y-8271722D02*
X13818099Y-8252674D01*
X13818099Y-8252674D02*
X13799052Y-8243150D01*
X13799052Y-8243150D02*
X13770480Y-8243150D01*
X13770480Y-8243150D02*
X13751432Y-8252674D01*
X13751432Y-8252674D02*
X13741909Y-8262198D01*
X13951432Y-8376484D02*
X13932385Y-8366960D01*
X13932385Y-8366960D02*
X13922861Y-8357436D01*
X13922861Y-8357436D02*
X13913337Y-8338388D01*
X13913337Y-8338388D02*
X13913337Y-8281246D01*
X13913337Y-8281246D02*
X13922861Y-8262198D01*
X13922861Y-8262198D02*
X13932385Y-8252674D01*
X13932385Y-8252674D02*
X13951432Y-8243150D01*
X13951432Y-8243150D02*
X13980004Y-8243150D01*
X13980004Y-8243150D02*
X13999052Y-8252674D01*
X13999052Y-8252674D02*
X14008575Y-8262198D01*
X14008575Y-8262198D02*
X14018099Y-8281246D01*
X14018099Y-8281246D02*
X14018099Y-8338388D01*
X14018099Y-8338388D02*
X14008575Y-8357436D01*
X14008575Y-8357436D02*
X13999052Y-8366960D01*
X13999052Y-8366960D02*
X13980004Y-8376484D01*
X13980004Y-8376484D02*
X13951432Y-8376484D01*
X14132385Y-8376484D02*
X14113337Y-8366960D01*
X14113337Y-8366960D02*
X14103813Y-8347912D01*
X14103813Y-8347912D02*
X14103813Y-8176484D01*
X14284766Y-8366960D02*
X14265718Y-8376484D01*
X14265718Y-8376484D02*
X14227623Y-8376484D01*
X14227623Y-8376484D02*
X14208575Y-8366960D01*
X14208575Y-8366960D02*
X14199052Y-8347912D01*
X14199052Y-8347912D02*
X14199052Y-8271722D01*
X14199052Y-8271722D02*
X14208575Y-8252674D01*
X14208575Y-8252674D02*
X14227623Y-8243150D01*
X14227623Y-8243150D02*
X14265718Y-8243150D01*
X14265718Y-8243150D02*
X14284766Y-8252674D01*
X14284766Y-8252674D02*
X14294290Y-8271722D01*
X14294290Y-8271722D02*
X14294290Y-8290769D01*
X14294290Y-8290769D02*
X14199052Y-8309817D01*
X14370480Y-8366960D02*
X14389528Y-8376484D01*
X14389528Y-8376484D02*
X14427623Y-8376484D01*
X14427623Y-8376484D02*
X14446671Y-8366960D01*
X14446671Y-8366960D02*
X14456194Y-8347912D01*
X14456194Y-8347912D02*
X14456194Y-8338388D01*
X14456194Y-8338388D02*
X14446671Y-8319341D01*
X14446671Y-8319341D02*
X14427623Y-8309817D01*
X14427623Y-8309817D02*
X14399052Y-8309817D01*
X14399052Y-8309817D02*
X14380004Y-8300293D01*
X14380004Y-8300293D02*
X14370480Y-8281246D01*
X14370480Y-8281246D02*
X14370480Y-8271722D01*
X14370480Y-8271722D02*
X14380004Y-8252674D01*
X14380004Y-8252674D02*
X14399052Y-8243150D01*
X14399052Y-8243150D02*
X14427623Y-8243150D01*
X14427623Y-8243150D02*
X14446671Y-8252674D01*
X14522861Y-8452674D02*
X14532385Y-8443150D01*
X14532385Y-8443150D02*
X14551433Y-8414579D01*
X14551433Y-8414579D02*
X14560956Y-8395531D01*
X14560956Y-8395531D02*
X14570480Y-8366960D01*
X14570480Y-8366960D02*
X14580004Y-8319341D01*
X14580004Y-8319341D02*
X14580004Y-8281246D01*
X14580004Y-8281246D02*
X14570480Y-8233627D01*
X14570480Y-8233627D02*
X14560956Y-8205055D01*
X14560956Y-8205055D02*
X14551433Y-8186008D01*
X14551433Y-8186008D02*
X14532385Y-8157436D01*
X14532385Y-8157436D02*
X14522861Y-8147912D01*
D14*
X9557322Y-8549000D02*
G75*
G03*
X9557322Y-8549000I-30000J0D01*
G01*
D12*
X9856194Y-8440484D02*
X9875242Y-8440484D01*
X9875242Y-8440484D02*
X9894289Y-8450008D01*
X9894289Y-8450008D02*
X9903813Y-8459531D01*
X9903813Y-8459531D02*
X9913337Y-8478579D01*
X9913337Y-8478579D02*
X9922861Y-8516674D01*
X9922861Y-8516674D02*
X9922861Y-8564293D01*
X9922861Y-8564293D02*
X9913337Y-8602389D01*
X9913337Y-8602389D02*
X9903813Y-8621436D01*
X9903813Y-8621436D02*
X9894289Y-8630960D01*
X9894289Y-8630960D02*
X9875242Y-8640484D01*
X9875242Y-8640484D02*
X9856194Y-8640484D01*
X9856194Y-8640484D02*
X9837146Y-8630960D01*
X9837146Y-8630960D02*
X9827623Y-8621436D01*
X9827623Y-8621436D02*
X9818099Y-8602389D01*
X9818099Y-8602389D02*
X9808575Y-8564293D01*
X9808575Y-8564293D02*
X9808575Y-8516674D01*
X9808575Y-8516674D02*
X9818099Y-8478579D01*
X9818099Y-8478579D02*
X9827623Y-8459531D01*
X9827623Y-8459531D02*
X9837146Y-8450008D01*
X9837146Y-8450008D02*
X9856194Y-8440484D01*
X10008575Y-8621436D02*
X10018099Y-8630960D01*
X10018099Y-8630960D02*
X10008575Y-8640484D01*
X10008575Y-8640484D02*
X9999051Y-8630960D01*
X9999051Y-8630960D02*
X10008575Y-8621436D01*
X10008575Y-8621436D02*
X10008575Y-8640484D01*
X10189527Y-8440484D02*
X10151432Y-8440484D01*
X10151432Y-8440484D02*
X10132385Y-8450008D01*
X10132385Y-8450008D02*
X10122861Y-8459531D01*
X10122861Y-8459531D02*
X10103813Y-8488103D01*
X10103813Y-8488103D02*
X10094289Y-8526198D01*
X10094289Y-8526198D02*
X10094289Y-8602389D01*
X10094289Y-8602389D02*
X10103813Y-8621436D01*
X10103813Y-8621436D02*
X10113337Y-8630960D01*
X10113337Y-8630960D02*
X10132385Y-8640484D01*
X10132385Y-8640484D02*
X10170480Y-8640484D01*
X10170480Y-8640484D02*
X10189527Y-8630960D01*
X10189527Y-8630960D02*
X10199051Y-8621436D01*
X10199051Y-8621436D02*
X10208575Y-8602389D01*
X10208575Y-8602389D02*
X10208575Y-8554770D01*
X10208575Y-8554770D02*
X10199051Y-8535722D01*
X10199051Y-8535722D02*
X10189527Y-8526198D01*
X10189527Y-8526198D02*
X10170480Y-8516674D01*
X10170480Y-8516674D02*
X10132385Y-8516674D01*
X10132385Y-8516674D02*
X10113337Y-8526198D01*
X10113337Y-8526198D02*
X10103813Y-8535722D01*
X10103813Y-8535722D02*
X10094289Y-8554770D01*
X10332385Y-8440484D02*
X10351432Y-8440484D01*
X10351432Y-8440484D02*
X10370480Y-8450008D01*
X10370480Y-8450008D02*
X10380004Y-8459531D01*
X10380004Y-8459531D02*
X10389527Y-8478579D01*
X10389527Y-8478579D02*
X10399051Y-8516674D01*
X10399051Y-8516674D02*
X10399051Y-8564293D01*
X10399051Y-8564293D02*
X10389527Y-8602389D01*
X10389527Y-8602389D02*
X10380004Y-8621436D01*
X10380004Y-8621436D02*
X10370480Y-8630960D01*
X10370480Y-8630960D02*
X10351432Y-8640484D01*
X10351432Y-8640484D02*
X10332385Y-8640484D01*
X10332385Y-8640484D02*
X10313337Y-8630960D01*
X10313337Y-8630960D02*
X10303813Y-8621436D01*
X10303813Y-8621436D02*
X10294289Y-8602389D01*
X10294289Y-8602389D02*
X10284766Y-8564293D01*
X10284766Y-8564293D02*
X10284766Y-8516674D01*
X10284766Y-8516674D02*
X10294289Y-8478579D01*
X10294289Y-8478579D02*
X10303813Y-8459531D01*
X10303813Y-8459531D02*
X10313337Y-8450008D01*
X10313337Y-8450008D02*
X10332385Y-8440484D01*
X10522861Y-8440484D02*
X10541908Y-8440484D01*
X10541908Y-8440484D02*
X10560956Y-8450008D01*
X10560956Y-8450008D02*
X10570480Y-8459531D01*
X10570480Y-8459531D02*
X10580004Y-8478579D01*
X10580004Y-8478579D02*
X10589527Y-8516674D01*
X10589527Y-8516674D02*
X10589527Y-8564293D01*
X10589527Y-8564293D02*
X10580004Y-8602389D01*
X10580004Y-8602389D02*
X10570480Y-8621436D01*
X10570480Y-8621436D02*
X10560956Y-8630960D01*
X10560956Y-8630960D02*
X10541908Y-8640484D01*
X10541908Y-8640484D02*
X10522861Y-8640484D01*
X10522861Y-8640484D02*
X10503813Y-8630960D01*
X10503813Y-8630960D02*
X10494289Y-8621436D01*
X10494289Y-8621436D02*
X10484766Y-8602389D01*
X10484766Y-8602389D02*
X10475242Y-8564293D01*
X10475242Y-8564293D02*
X10475242Y-8516674D01*
X10475242Y-8516674D02*
X10484766Y-8478579D01*
X10484766Y-8478579D02*
X10494289Y-8459531D01*
X10494289Y-8459531D02*
X10503813Y-8450008D01*
X10503813Y-8450008D02*
X10522861Y-8440484D01*
X10675242Y-8640484D02*
X10675242Y-8507150D01*
X10675242Y-8526198D02*
X10684766Y-8516674D01*
X10684766Y-8516674D02*
X10703813Y-8507150D01*
X10703813Y-8507150D02*
X10732385Y-8507150D01*
X10732385Y-8507150D02*
X10751432Y-8516674D01*
X10751432Y-8516674D02*
X10760956Y-8535722D01*
X10760956Y-8535722D02*
X10760956Y-8640484D01*
X10760956Y-8535722D02*
X10770480Y-8516674D01*
X10770480Y-8516674D02*
X10789527Y-8507150D01*
X10789527Y-8507150D02*
X10818099Y-8507150D01*
X10818099Y-8507150D02*
X10837147Y-8516674D01*
X10837147Y-8516674D02*
X10846670Y-8535722D01*
X10846670Y-8535722D02*
X10846670Y-8640484D01*
X10941908Y-8640484D02*
X10941908Y-8507150D01*
X10941908Y-8526198D02*
X10951432Y-8516674D01*
X10951432Y-8516674D02*
X10970480Y-8507150D01*
X10970480Y-8507150D02*
X10999051Y-8507150D01*
X10999051Y-8507150D02*
X11018099Y-8516674D01*
X11018099Y-8516674D02*
X11027623Y-8535722D01*
X11027623Y-8535722D02*
X11027623Y-8640484D01*
X11027623Y-8535722D02*
X11037147Y-8516674D01*
X11037147Y-8516674D02*
X11056194Y-8507150D01*
X11056194Y-8507150D02*
X11084766Y-8507150D01*
X11084766Y-8507150D02*
X11103813Y-8516674D01*
X11103813Y-8516674D02*
X11113337Y-8535722D01*
X11113337Y-8535722D02*
X11113337Y-8640484D01*
X11503813Y-8430960D02*
X11332385Y-8688103D01*
X11760956Y-8440484D02*
X11780004Y-8440484D01*
X11780004Y-8440484D02*
X11799051Y-8450008D01*
X11799051Y-8450008D02*
X11808575Y-8459531D01*
X11808575Y-8459531D02*
X11818099Y-8478579D01*
X11818099Y-8478579D02*
X11827623Y-8516674D01*
X11827623Y-8516674D02*
X11827623Y-8564293D01*
X11827623Y-8564293D02*
X11818099Y-8602389D01*
X11818099Y-8602389D02*
X11808575Y-8621436D01*
X11808575Y-8621436D02*
X11799051Y-8630960D01*
X11799051Y-8630960D02*
X11780004Y-8640484D01*
X11780004Y-8640484D02*
X11760956Y-8640484D01*
X11760956Y-8640484D02*
X11741908Y-8630960D01*
X11741908Y-8630960D02*
X11732385Y-8621436D01*
X11732385Y-8621436D02*
X11722861Y-8602389D01*
X11722861Y-8602389D02*
X11713337Y-8564293D01*
X11713337Y-8564293D02*
X11713337Y-8516674D01*
X11713337Y-8516674D02*
X11722861Y-8478579D01*
X11722861Y-8478579D02*
X11732385Y-8459531D01*
X11732385Y-8459531D02*
X11741908Y-8450008D01*
X11741908Y-8450008D02*
X11760956Y-8440484D01*
X11913337Y-8621436D02*
X11922861Y-8630960D01*
X11922861Y-8630960D02*
X11913337Y-8640484D01*
X11913337Y-8640484D02*
X11903813Y-8630960D01*
X11903813Y-8630960D02*
X11913337Y-8621436D01*
X11913337Y-8621436D02*
X11913337Y-8640484D01*
X12046670Y-8440484D02*
X12065718Y-8440484D01*
X12065718Y-8440484D02*
X12084766Y-8450008D01*
X12084766Y-8450008D02*
X12094289Y-8459531D01*
X12094289Y-8459531D02*
X12103813Y-8478579D01*
X12103813Y-8478579D02*
X12113337Y-8516674D01*
X12113337Y-8516674D02*
X12113337Y-8564293D01*
X12113337Y-8564293D02*
X12103813Y-8602389D01*
X12103813Y-8602389D02*
X12094289Y-8621436D01*
X12094289Y-8621436D02*
X12084766Y-8630960D01*
X12084766Y-8630960D02*
X12065718Y-8640484D01*
X12065718Y-8640484D02*
X12046670Y-8640484D01*
X12046670Y-8640484D02*
X12027623Y-8630960D01*
X12027623Y-8630960D02*
X12018099Y-8621436D01*
X12018099Y-8621436D02*
X12008575Y-8602389D01*
X12008575Y-8602389D02*
X11999051Y-8564293D01*
X11999051Y-8564293D02*
X11999051Y-8516674D01*
X11999051Y-8516674D02*
X12008575Y-8478579D01*
X12008575Y-8478579D02*
X12018099Y-8459531D01*
X12018099Y-8459531D02*
X12027623Y-8450008D01*
X12027623Y-8450008D02*
X12046670Y-8440484D01*
X12189528Y-8459531D02*
X12199051Y-8450008D01*
X12199051Y-8450008D02*
X12218099Y-8440484D01*
X12218099Y-8440484D02*
X12265718Y-8440484D01*
X12265718Y-8440484D02*
X12284766Y-8450008D01*
X12284766Y-8450008D02*
X12294289Y-8459531D01*
X12294289Y-8459531D02*
X12303813Y-8478579D01*
X12303813Y-8478579D02*
X12303813Y-8497627D01*
X12303813Y-8497627D02*
X12294289Y-8526198D01*
X12294289Y-8526198D02*
X12180004Y-8640484D01*
X12180004Y-8640484D02*
X12303813Y-8640484D01*
X12370480Y-8440484D02*
X12494289Y-8440484D01*
X12494289Y-8440484D02*
X12427623Y-8516674D01*
X12427623Y-8516674D02*
X12456194Y-8516674D01*
X12456194Y-8516674D02*
X12475242Y-8526198D01*
X12475242Y-8526198D02*
X12484766Y-8535722D01*
X12484766Y-8535722D02*
X12494289Y-8554770D01*
X12494289Y-8554770D02*
X12494289Y-8602389D01*
X12494289Y-8602389D02*
X12484766Y-8621436D01*
X12484766Y-8621436D02*
X12475242Y-8630960D01*
X12475242Y-8630960D02*
X12456194Y-8640484D01*
X12456194Y-8640484D02*
X12399051Y-8640484D01*
X12399051Y-8640484D02*
X12380004Y-8630960D01*
X12380004Y-8630960D02*
X12370480Y-8621436D01*
X12665718Y-8440484D02*
X12627623Y-8440484D01*
X12627623Y-8440484D02*
X12608575Y-8450008D01*
X12608575Y-8450008D02*
X12599051Y-8459531D01*
X12599051Y-8459531D02*
X12580004Y-8488103D01*
X12580004Y-8488103D02*
X12570480Y-8526198D01*
X12570480Y-8526198D02*
X12570480Y-8602389D01*
X12570480Y-8602389D02*
X12580004Y-8621436D01*
X12580004Y-8621436D02*
X12589528Y-8630960D01*
X12589528Y-8630960D02*
X12608575Y-8640484D01*
X12608575Y-8640484D02*
X12646670Y-8640484D01*
X12646670Y-8640484D02*
X12665718Y-8630960D01*
X12665718Y-8630960D02*
X12675242Y-8621436D01*
X12675242Y-8621436D02*
X12684766Y-8602389D01*
X12684766Y-8602389D02*
X12684766Y-8554770D01*
X12684766Y-8554770D02*
X12675242Y-8535722D01*
X12675242Y-8535722D02*
X12665718Y-8526198D01*
X12665718Y-8526198D02*
X12646670Y-8516674D01*
X12646670Y-8516674D02*
X12608575Y-8516674D01*
X12608575Y-8516674D02*
X12589528Y-8526198D01*
X12589528Y-8526198D02*
X12580004Y-8535722D01*
X12580004Y-8535722D02*
X12570480Y-8554770D01*
X12760956Y-8440484D02*
X12760956Y-8478579D01*
X12837147Y-8440484D02*
X12837147Y-8478579D01*
X13132385Y-8716674D02*
X13122861Y-8707150D01*
X13122861Y-8707150D02*
X13103813Y-8678579D01*
X13103813Y-8678579D02*
X13094290Y-8659531D01*
X13094290Y-8659531D02*
X13084766Y-8630960D01*
X13084766Y-8630960D02*
X13075242Y-8583341D01*
X13075242Y-8583341D02*
X13075242Y-8545246D01*
X13075242Y-8545246D02*
X13084766Y-8497627D01*
X13084766Y-8497627D02*
X13094290Y-8469055D01*
X13094290Y-8469055D02*
X13103813Y-8450008D01*
X13103813Y-8450008D02*
X13122861Y-8421436D01*
X13122861Y-8421436D02*
X13132385Y-8411912D01*
X13246670Y-8440484D02*
X13265718Y-8440484D01*
X13265718Y-8440484D02*
X13284766Y-8450008D01*
X13284766Y-8450008D02*
X13294290Y-8459531D01*
X13294290Y-8459531D02*
X13303813Y-8478579D01*
X13303813Y-8478579D02*
X13313337Y-8516674D01*
X13313337Y-8516674D02*
X13313337Y-8564293D01*
X13313337Y-8564293D02*
X13303813Y-8602389D01*
X13303813Y-8602389D02*
X13294290Y-8621436D01*
X13294290Y-8621436D02*
X13284766Y-8630960D01*
X13284766Y-8630960D02*
X13265718Y-8640484D01*
X13265718Y-8640484D02*
X13246670Y-8640484D01*
X13246670Y-8640484D02*
X13227623Y-8630960D01*
X13227623Y-8630960D02*
X13218099Y-8621436D01*
X13218099Y-8621436D02*
X13208575Y-8602389D01*
X13208575Y-8602389D02*
X13199051Y-8564293D01*
X13199051Y-8564293D02*
X13199051Y-8516674D01*
X13199051Y-8516674D02*
X13208575Y-8478579D01*
X13208575Y-8478579D02*
X13218099Y-8459531D01*
X13218099Y-8459531D02*
X13227623Y-8450008D01*
X13227623Y-8450008D02*
X13246670Y-8440484D01*
X13551432Y-8640484D02*
X13551432Y-8440484D01*
X13637147Y-8640484D02*
X13637147Y-8535722D01*
X13637147Y-8535722D02*
X13627623Y-8516674D01*
X13627623Y-8516674D02*
X13608575Y-8507150D01*
X13608575Y-8507150D02*
X13580004Y-8507150D01*
X13580004Y-8507150D02*
X13560956Y-8516674D01*
X13560956Y-8516674D02*
X13551432Y-8526198D01*
X13760956Y-8640484D02*
X13741909Y-8630960D01*
X13741909Y-8630960D02*
X13732385Y-8621436D01*
X13732385Y-8621436D02*
X13722861Y-8602389D01*
X13722861Y-8602389D02*
X13722861Y-8545246D01*
X13722861Y-8545246D02*
X13732385Y-8526198D01*
X13732385Y-8526198D02*
X13741909Y-8516674D01*
X13741909Y-8516674D02*
X13760956Y-8507150D01*
X13760956Y-8507150D02*
X13789528Y-8507150D01*
X13789528Y-8507150D02*
X13808575Y-8516674D01*
X13808575Y-8516674D02*
X13818099Y-8526198D01*
X13818099Y-8526198D02*
X13827623Y-8545246D01*
X13827623Y-8545246D02*
X13827623Y-8602389D01*
X13827623Y-8602389D02*
X13818099Y-8621436D01*
X13818099Y-8621436D02*
X13808575Y-8630960D01*
X13808575Y-8630960D02*
X13789528Y-8640484D01*
X13789528Y-8640484D02*
X13760956Y-8640484D01*
X13941909Y-8640484D02*
X13922861Y-8630960D01*
X13922861Y-8630960D02*
X13913337Y-8611912D01*
X13913337Y-8611912D02*
X13913337Y-8440484D01*
X14094290Y-8630960D02*
X14075242Y-8640484D01*
X14075242Y-8640484D02*
X14037147Y-8640484D01*
X14037147Y-8640484D02*
X14018099Y-8630960D01*
X14018099Y-8630960D02*
X14008575Y-8611912D01*
X14008575Y-8611912D02*
X14008575Y-8535722D01*
X14008575Y-8535722D02*
X14018099Y-8516674D01*
X14018099Y-8516674D02*
X14037147Y-8507150D01*
X14037147Y-8507150D02*
X14075242Y-8507150D01*
X14075242Y-8507150D02*
X14094290Y-8516674D01*
X14094290Y-8516674D02*
X14103813Y-8535722D01*
X14103813Y-8535722D02*
X14103813Y-8554770D01*
X14103813Y-8554770D02*
X14008575Y-8573817D01*
X14180004Y-8630960D02*
X14199052Y-8640484D01*
X14199052Y-8640484D02*
X14237147Y-8640484D01*
X14237147Y-8640484D02*
X14256194Y-8630960D01*
X14256194Y-8630960D02*
X14265718Y-8611912D01*
X14265718Y-8611912D02*
X14265718Y-8602389D01*
X14265718Y-8602389D02*
X14256194Y-8583341D01*
X14256194Y-8583341D02*
X14237147Y-8573817D01*
X14237147Y-8573817D02*
X14208575Y-8573817D01*
X14208575Y-8573817D02*
X14189528Y-8564293D01*
X14189528Y-8564293D02*
X14180004Y-8545246D01*
X14180004Y-8545246D02*
X14180004Y-8535722D01*
X14180004Y-8535722D02*
X14189528Y-8516674D01*
X14189528Y-8516674D02*
X14208575Y-8507150D01*
X14208575Y-8507150D02*
X14237147Y-8507150D01*
X14237147Y-8507150D02*
X14256194Y-8516674D01*
X14503814Y-8564293D02*
X14656195Y-8564293D01*
X14580004Y-8640484D02*
X14580004Y-8488103D01*
X14989528Y-8507150D02*
X14989528Y-8640484D01*
X14941909Y-8430960D02*
X14894290Y-8573817D01*
X14894290Y-8573817D02*
X15018099Y-8573817D01*
X15237147Y-8630960D02*
X15256195Y-8640484D01*
X15256195Y-8640484D02*
X15294290Y-8640484D01*
X15294290Y-8640484D02*
X15313337Y-8630960D01*
X15313337Y-8630960D02*
X15322861Y-8611912D01*
X15322861Y-8611912D02*
X15322861Y-8602389D01*
X15322861Y-8602389D02*
X15313337Y-8583341D01*
X15313337Y-8583341D02*
X15294290Y-8573817D01*
X15294290Y-8573817D02*
X15265718Y-8573817D01*
X15265718Y-8573817D02*
X15246671Y-8564293D01*
X15246671Y-8564293D02*
X15237147Y-8545246D01*
X15237147Y-8545246D02*
X15237147Y-8535722D01*
X15237147Y-8535722D02*
X15246671Y-8516674D01*
X15246671Y-8516674D02*
X15265718Y-8507150D01*
X15265718Y-8507150D02*
X15294290Y-8507150D01*
X15294290Y-8507150D02*
X15313337Y-8516674D01*
X15437147Y-8640484D02*
X15418099Y-8630960D01*
X15418099Y-8630960D02*
X15408576Y-8611912D01*
X15408576Y-8611912D02*
X15408576Y-8440484D01*
X15541909Y-8640484D02*
X15522861Y-8630960D01*
X15522861Y-8630960D02*
X15513337Y-8621436D01*
X15513337Y-8621436D02*
X15503814Y-8602389D01*
X15503814Y-8602389D02*
X15503814Y-8545246D01*
X15503814Y-8545246D02*
X15513337Y-8526198D01*
X15513337Y-8526198D02*
X15522861Y-8516674D01*
X15522861Y-8516674D02*
X15541909Y-8507150D01*
X15541909Y-8507150D02*
X15570480Y-8507150D01*
X15570480Y-8507150D02*
X15589528Y-8516674D01*
X15589528Y-8516674D02*
X15599052Y-8526198D01*
X15599052Y-8526198D02*
X15608576Y-8545246D01*
X15608576Y-8545246D02*
X15608576Y-8602389D01*
X15608576Y-8602389D02*
X15599052Y-8621436D01*
X15599052Y-8621436D02*
X15589528Y-8630960D01*
X15589528Y-8630960D02*
X15570480Y-8640484D01*
X15570480Y-8640484D02*
X15541909Y-8640484D01*
X15665718Y-8507150D02*
X15741909Y-8507150D01*
X15694290Y-8440484D02*
X15694290Y-8611912D01*
X15694290Y-8611912D02*
X15703814Y-8630960D01*
X15703814Y-8630960D02*
X15722861Y-8640484D01*
X15722861Y-8640484D02*
X15741909Y-8640484D01*
X15799052Y-8630960D02*
X15818099Y-8640484D01*
X15818099Y-8640484D02*
X15856195Y-8640484D01*
X15856195Y-8640484D02*
X15875242Y-8630960D01*
X15875242Y-8630960D02*
X15884766Y-8611912D01*
X15884766Y-8611912D02*
X15884766Y-8602389D01*
X15884766Y-8602389D02*
X15875242Y-8583341D01*
X15875242Y-8583341D02*
X15856195Y-8573817D01*
X15856195Y-8573817D02*
X15827623Y-8573817D01*
X15827623Y-8573817D02*
X15808576Y-8564293D01*
X15808576Y-8564293D02*
X15799052Y-8545246D01*
X15799052Y-8545246D02*
X15799052Y-8535722D01*
X15799052Y-8535722D02*
X15808576Y-8516674D01*
X15808576Y-8516674D02*
X15827623Y-8507150D01*
X15827623Y-8507150D02*
X15856195Y-8507150D01*
X15856195Y-8507150D02*
X15875242Y-8516674D01*
X15951433Y-8716674D02*
X15960957Y-8707150D01*
X15960957Y-8707150D02*
X15980004Y-8678579D01*
X15980004Y-8678579D02*
X15989528Y-8659531D01*
X15989528Y-8659531D02*
X15999052Y-8630960D01*
X15999052Y-8630960D02*
X16008576Y-8583341D01*
X16008576Y-8583341D02*
X16008576Y-8545246D01*
X16008576Y-8545246D02*
X15999052Y-8497627D01*
X15999052Y-8497627D02*
X15989528Y-8469055D01*
X15989528Y-8469055D02*
X15980004Y-8450008D01*
X15980004Y-8450008D02*
X15960957Y-8421436D01*
X15960957Y-8421436D02*
X15951433Y-8411912D01*
D15*
X9524822Y-8780500D02*
X9524822Y-8845500D01*
X9492322Y-8813000D02*
X9557322Y-8813000D01*
D12*
X9856194Y-8704484D02*
X9875242Y-8704484D01*
X9875242Y-8704484D02*
X9894289Y-8714008D01*
X9894289Y-8714008D02*
X9903813Y-8723531D01*
X9903813Y-8723531D02*
X9913337Y-8742579D01*
X9913337Y-8742579D02*
X9922861Y-8780674D01*
X9922861Y-8780674D02*
X9922861Y-8828293D01*
X9922861Y-8828293D02*
X9913337Y-8866389D01*
X9913337Y-8866389D02*
X9903813Y-8885436D01*
X9903813Y-8885436D02*
X9894289Y-8894960D01*
X9894289Y-8894960D02*
X9875242Y-8904484D01*
X9875242Y-8904484D02*
X9856194Y-8904484D01*
X9856194Y-8904484D02*
X9837146Y-8894960D01*
X9837146Y-8894960D02*
X9827623Y-8885436D01*
X9827623Y-8885436D02*
X9818099Y-8866389D01*
X9818099Y-8866389D02*
X9808575Y-8828293D01*
X9808575Y-8828293D02*
X9808575Y-8780674D01*
X9808575Y-8780674D02*
X9818099Y-8742579D01*
X9818099Y-8742579D02*
X9827623Y-8723531D01*
X9827623Y-8723531D02*
X9837146Y-8714008D01*
X9837146Y-8714008D02*
X9856194Y-8704484D01*
X10008575Y-8885436D02*
X10018099Y-8894960D01*
X10018099Y-8894960D02*
X10008575Y-8904484D01*
X10008575Y-8904484D02*
X9999051Y-8894960D01*
X9999051Y-8894960D02*
X10008575Y-8885436D01*
X10008575Y-8885436D02*
X10008575Y-8904484D01*
X10189527Y-8704484D02*
X10151432Y-8704484D01*
X10151432Y-8704484D02*
X10132385Y-8714008D01*
X10132385Y-8714008D02*
X10122861Y-8723531D01*
X10122861Y-8723531D02*
X10103813Y-8752103D01*
X10103813Y-8752103D02*
X10094289Y-8790198D01*
X10094289Y-8790198D02*
X10094289Y-8866389D01*
X10094289Y-8866389D02*
X10103813Y-8885436D01*
X10103813Y-8885436D02*
X10113337Y-8894960D01*
X10113337Y-8894960D02*
X10132385Y-8904484D01*
X10132385Y-8904484D02*
X10170480Y-8904484D01*
X10170480Y-8904484D02*
X10189527Y-8894960D01*
X10189527Y-8894960D02*
X10199051Y-8885436D01*
X10199051Y-8885436D02*
X10208575Y-8866389D01*
X10208575Y-8866389D02*
X10208575Y-8818770D01*
X10208575Y-8818770D02*
X10199051Y-8799722D01*
X10199051Y-8799722D02*
X10189527Y-8790198D01*
X10189527Y-8790198D02*
X10170480Y-8780674D01*
X10170480Y-8780674D02*
X10132385Y-8780674D01*
X10132385Y-8780674D02*
X10113337Y-8790198D01*
X10113337Y-8790198D02*
X10103813Y-8799722D01*
X10103813Y-8799722D02*
X10094289Y-8818770D01*
X10389527Y-8704484D02*
X10294289Y-8704484D01*
X10294289Y-8704484D02*
X10284766Y-8799722D01*
X10284766Y-8799722D02*
X10294289Y-8790198D01*
X10294289Y-8790198D02*
X10313337Y-8780674D01*
X10313337Y-8780674D02*
X10360956Y-8780674D01*
X10360956Y-8780674D02*
X10380004Y-8790198D01*
X10380004Y-8790198D02*
X10389527Y-8799722D01*
X10389527Y-8799722D02*
X10399051Y-8818770D01*
X10399051Y-8818770D02*
X10399051Y-8866389D01*
X10399051Y-8866389D02*
X10389527Y-8885436D01*
X10389527Y-8885436D02*
X10380004Y-8894960D01*
X10380004Y-8894960D02*
X10360956Y-8904484D01*
X10360956Y-8904484D02*
X10313337Y-8904484D01*
X10313337Y-8904484D02*
X10294289Y-8894960D01*
X10294289Y-8894960D02*
X10284766Y-8885436D01*
X10522861Y-8704484D02*
X10541908Y-8704484D01*
X10541908Y-8704484D02*
X10560956Y-8714008D01*
X10560956Y-8714008D02*
X10570480Y-8723531D01*
X10570480Y-8723531D02*
X10580004Y-8742579D01*
X10580004Y-8742579D02*
X10589527Y-8780674D01*
X10589527Y-8780674D02*
X10589527Y-8828293D01*
X10589527Y-8828293D02*
X10580004Y-8866389D01*
X10580004Y-8866389D02*
X10570480Y-8885436D01*
X10570480Y-8885436D02*
X10560956Y-8894960D01*
X10560956Y-8894960D02*
X10541908Y-8904484D01*
X10541908Y-8904484D02*
X10522861Y-8904484D01*
X10522861Y-8904484D02*
X10503813Y-8894960D01*
X10503813Y-8894960D02*
X10494289Y-8885436D01*
X10494289Y-8885436D02*
X10484766Y-8866389D01*
X10484766Y-8866389D02*
X10475242Y-8828293D01*
X10475242Y-8828293D02*
X10475242Y-8780674D01*
X10475242Y-8780674D02*
X10484766Y-8742579D01*
X10484766Y-8742579D02*
X10494289Y-8723531D01*
X10494289Y-8723531D02*
X10503813Y-8714008D01*
X10503813Y-8714008D02*
X10522861Y-8704484D01*
X10675242Y-8904484D02*
X10675242Y-8771150D01*
X10675242Y-8790198D02*
X10684766Y-8780674D01*
X10684766Y-8780674D02*
X10703813Y-8771150D01*
X10703813Y-8771150D02*
X10732385Y-8771150D01*
X10732385Y-8771150D02*
X10751432Y-8780674D01*
X10751432Y-8780674D02*
X10760956Y-8799722D01*
X10760956Y-8799722D02*
X10760956Y-8904484D01*
X10760956Y-8799722D02*
X10770480Y-8780674D01*
X10770480Y-8780674D02*
X10789527Y-8771150D01*
X10789527Y-8771150D02*
X10818099Y-8771150D01*
X10818099Y-8771150D02*
X10837147Y-8780674D01*
X10837147Y-8780674D02*
X10846670Y-8799722D01*
X10846670Y-8799722D02*
X10846670Y-8904484D01*
X10941908Y-8904484D02*
X10941908Y-8771150D01*
X10941908Y-8790198D02*
X10951432Y-8780674D01*
X10951432Y-8780674D02*
X10970480Y-8771150D01*
X10970480Y-8771150D02*
X10999051Y-8771150D01*
X10999051Y-8771150D02*
X11018099Y-8780674D01*
X11018099Y-8780674D02*
X11027623Y-8799722D01*
X11027623Y-8799722D02*
X11027623Y-8904484D01*
X11027623Y-8799722D02*
X11037147Y-8780674D01*
X11037147Y-8780674D02*
X11056194Y-8771150D01*
X11056194Y-8771150D02*
X11084766Y-8771150D01*
X11084766Y-8771150D02*
X11103813Y-8780674D01*
X11103813Y-8780674D02*
X11113337Y-8799722D01*
X11113337Y-8799722D02*
X11113337Y-8904484D01*
X11503813Y-8694960D02*
X11332385Y-8952103D01*
X11760956Y-8704484D02*
X11780004Y-8704484D01*
X11780004Y-8704484D02*
X11799051Y-8714008D01*
X11799051Y-8714008D02*
X11808575Y-8723531D01*
X11808575Y-8723531D02*
X11818099Y-8742579D01*
X11818099Y-8742579D02*
X11827623Y-8780674D01*
X11827623Y-8780674D02*
X11827623Y-8828293D01*
X11827623Y-8828293D02*
X11818099Y-8866389D01*
X11818099Y-8866389D02*
X11808575Y-8885436D01*
X11808575Y-8885436D02*
X11799051Y-8894960D01*
X11799051Y-8894960D02*
X11780004Y-8904484D01*
X11780004Y-8904484D02*
X11760956Y-8904484D01*
X11760956Y-8904484D02*
X11741908Y-8894960D01*
X11741908Y-8894960D02*
X11732385Y-8885436D01*
X11732385Y-8885436D02*
X11722861Y-8866389D01*
X11722861Y-8866389D02*
X11713337Y-8828293D01*
X11713337Y-8828293D02*
X11713337Y-8780674D01*
X11713337Y-8780674D02*
X11722861Y-8742579D01*
X11722861Y-8742579D02*
X11732385Y-8723531D01*
X11732385Y-8723531D02*
X11741908Y-8714008D01*
X11741908Y-8714008D02*
X11760956Y-8704484D01*
X11913337Y-8885436D02*
X11922861Y-8894960D01*
X11922861Y-8894960D02*
X11913337Y-8904484D01*
X11913337Y-8904484D02*
X11903813Y-8894960D01*
X11903813Y-8894960D02*
X11913337Y-8885436D01*
X11913337Y-8885436D02*
X11913337Y-8904484D01*
X12046670Y-8704484D02*
X12065718Y-8704484D01*
X12065718Y-8704484D02*
X12084766Y-8714008D01*
X12084766Y-8714008D02*
X12094289Y-8723531D01*
X12094289Y-8723531D02*
X12103813Y-8742579D01*
X12103813Y-8742579D02*
X12113337Y-8780674D01*
X12113337Y-8780674D02*
X12113337Y-8828293D01*
X12113337Y-8828293D02*
X12103813Y-8866389D01*
X12103813Y-8866389D02*
X12094289Y-8885436D01*
X12094289Y-8885436D02*
X12084766Y-8894960D01*
X12084766Y-8894960D02*
X12065718Y-8904484D01*
X12065718Y-8904484D02*
X12046670Y-8904484D01*
X12046670Y-8904484D02*
X12027623Y-8894960D01*
X12027623Y-8894960D02*
X12018099Y-8885436D01*
X12018099Y-8885436D02*
X12008575Y-8866389D01*
X12008575Y-8866389D02*
X11999051Y-8828293D01*
X11999051Y-8828293D02*
X11999051Y-8780674D01*
X11999051Y-8780674D02*
X12008575Y-8742579D01*
X12008575Y-8742579D02*
X12018099Y-8723531D01*
X12018099Y-8723531D02*
X12027623Y-8714008D01*
X12027623Y-8714008D02*
X12046670Y-8704484D01*
X12189528Y-8723531D02*
X12199051Y-8714008D01*
X12199051Y-8714008D02*
X12218099Y-8704484D01*
X12218099Y-8704484D02*
X12265718Y-8704484D01*
X12265718Y-8704484D02*
X12284766Y-8714008D01*
X12284766Y-8714008D02*
X12294289Y-8723531D01*
X12294289Y-8723531D02*
X12303813Y-8742579D01*
X12303813Y-8742579D02*
X12303813Y-8761627D01*
X12303813Y-8761627D02*
X12294289Y-8790198D01*
X12294289Y-8790198D02*
X12180004Y-8904484D01*
X12180004Y-8904484D02*
X12303813Y-8904484D01*
X12484766Y-8704484D02*
X12389528Y-8704484D01*
X12389528Y-8704484D02*
X12380004Y-8799722D01*
X12380004Y-8799722D02*
X12389528Y-8790198D01*
X12389528Y-8790198D02*
X12408575Y-8780674D01*
X12408575Y-8780674D02*
X12456194Y-8780674D01*
X12456194Y-8780674D02*
X12475242Y-8790198D01*
X12475242Y-8790198D02*
X12484766Y-8799722D01*
X12484766Y-8799722D02*
X12494289Y-8818770D01*
X12494289Y-8818770D02*
X12494289Y-8866389D01*
X12494289Y-8866389D02*
X12484766Y-8885436D01*
X12484766Y-8885436D02*
X12475242Y-8894960D01*
X12475242Y-8894960D02*
X12456194Y-8904484D01*
X12456194Y-8904484D02*
X12408575Y-8904484D01*
X12408575Y-8904484D02*
X12389528Y-8894960D01*
X12389528Y-8894960D02*
X12380004Y-8885436D01*
X12665718Y-8704484D02*
X12627623Y-8704484D01*
X12627623Y-8704484D02*
X12608575Y-8714008D01*
X12608575Y-8714008D02*
X12599051Y-8723531D01*
X12599051Y-8723531D02*
X12580004Y-8752103D01*
X12580004Y-8752103D02*
X12570480Y-8790198D01*
X12570480Y-8790198D02*
X12570480Y-8866389D01*
X12570480Y-8866389D02*
X12580004Y-8885436D01*
X12580004Y-8885436D02*
X12589528Y-8894960D01*
X12589528Y-8894960D02*
X12608575Y-8904484D01*
X12608575Y-8904484D02*
X12646670Y-8904484D01*
X12646670Y-8904484D02*
X12665718Y-8894960D01*
X12665718Y-8894960D02*
X12675242Y-8885436D01*
X12675242Y-8885436D02*
X12684766Y-8866389D01*
X12684766Y-8866389D02*
X12684766Y-8818770D01*
X12684766Y-8818770D02*
X12675242Y-8799722D01*
X12675242Y-8799722D02*
X12665718Y-8790198D01*
X12665718Y-8790198D02*
X12646670Y-8780674D01*
X12646670Y-8780674D02*
X12608575Y-8780674D01*
X12608575Y-8780674D02*
X12589528Y-8790198D01*
X12589528Y-8790198D02*
X12580004Y-8799722D01*
X12580004Y-8799722D02*
X12570480Y-8818770D01*
X12760956Y-8704484D02*
X12760956Y-8742579D01*
X12837147Y-8704484D02*
X12837147Y-8742579D01*
X13132385Y-8980674D02*
X13122861Y-8971150D01*
X13122861Y-8971150D02*
X13103813Y-8942579D01*
X13103813Y-8942579D02*
X13094290Y-8923531D01*
X13094290Y-8923531D02*
X13084766Y-8894960D01*
X13084766Y-8894960D02*
X13075242Y-8847341D01*
X13075242Y-8847341D02*
X13075242Y-8809246D01*
X13075242Y-8809246D02*
X13084766Y-8761627D01*
X13084766Y-8761627D02*
X13094290Y-8733055D01*
X13094290Y-8733055D02*
X13103813Y-8714008D01*
X13103813Y-8714008D02*
X13122861Y-8685436D01*
X13122861Y-8685436D02*
X13132385Y-8675912D01*
X13199051Y-8723531D02*
X13208575Y-8714008D01*
X13208575Y-8714008D02*
X13227623Y-8704484D01*
X13227623Y-8704484D02*
X13275242Y-8704484D01*
X13275242Y-8704484D02*
X13294290Y-8714008D01*
X13294290Y-8714008D02*
X13303813Y-8723531D01*
X13303813Y-8723531D02*
X13313337Y-8742579D01*
X13313337Y-8742579D02*
X13313337Y-8761627D01*
X13313337Y-8761627D02*
X13303813Y-8790198D01*
X13303813Y-8790198D02*
X13189528Y-8904484D01*
X13189528Y-8904484D02*
X13313337Y-8904484D01*
X13408575Y-8904484D02*
X13446670Y-8904484D01*
X13446670Y-8904484D02*
X13465718Y-8894960D01*
X13465718Y-8894960D02*
X13475242Y-8885436D01*
X13475242Y-8885436D02*
X13494290Y-8856865D01*
X13494290Y-8856865D02*
X13503813Y-8818770D01*
X13503813Y-8818770D02*
X13503813Y-8742579D01*
X13503813Y-8742579D02*
X13494290Y-8723531D01*
X13494290Y-8723531D02*
X13484766Y-8714008D01*
X13484766Y-8714008D02*
X13465718Y-8704484D01*
X13465718Y-8704484D02*
X13427623Y-8704484D01*
X13427623Y-8704484D02*
X13408575Y-8714008D01*
X13408575Y-8714008D02*
X13399051Y-8723531D01*
X13399051Y-8723531D02*
X13389528Y-8742579D01*
X13389528Y-8742579D02*
X13389528Y-8790198D01*
X13389528Y-8790198D02*
X13399051Y-8809246D01*
X13399051Y-8809246D02*
X13408575Y-8818770D01*
X13408575Y-8818770D02*
X13427623Y-8828293D01*
X13427623Y-8828293D02*
X13465718Y-8828293D01*
X13465718Y-8828293D02*
X13484766Y-8818770D01*
X13484766Y-8818770D02*
X13494290Y-8809246D01*
X13494290Y-8809246D02*
X13503813Y-8790198D01*
X13741909Y-8904484D02*
X13741909Y-8704484D01*
X13827623Y-8904484D02*
X13827623Y-8799722D01*
X13827623Y-8799722D02*
X13818099Y-8780674D01*
X13818099Y-8780674D02*
X13799052Y-8771150D01*
X13799052Y-8771150D02*
X13770480Y-8771150D01*
X13770480Y-8771150D02*
X13751432Y-8780674D01*
X13751432Y-8780674D02*
X13741909Y-8790198D01*
X13951432Y-8904484D02*
X13932385Y-8894960D01*
X13932385Y-8894960D02*
X13922861Y-8885436D01*
X13922861Y-8885436D02*
X13913337Y-8866389D01*
X13913337Y-8866389D02*
X13913337Y-8809246D01*
X13913337Y-8809246D02*
X13922861Y-8790198D01*
X13922861Y-8790198D02*
X13932385Y-8780674D01*
X13932385Y-8780674D02*
X13951432Y-8771150D01*
X13951432Y-8771150D02*
X13980004Y-8771150D01*
X13980004Y-8771150D02*
X13999052Y-8780674D01*
X13999052Y-8780674D02*
X14008575Y-8790198D01*
X14008575Y-8790198D02*
X14018099Y-8809246D01*
X14018099Y-8809246D02*
X14018099Y-8866389D01*
X14018099Y-8866389D02*
X14008575Y-8885436D01*
X14008575Y-8885436D02*
X13999052Y-8894960D01*
X13999052Y-8894960D02*
X13980004Y-8904484D01*
X13980004Y-8904484D02*
X13951432Y-8904484D01*
X14132385Y-8904484D02*
X14113337Y-8894960D01*
X14113337Y-8894960D02*
X14103813Y-8875912D01*
X14103813Y-8875912D02*
X14103813Y-8704484D01*
X14284766Y-8894960D02*
X14265718Y-8904484D01*
X14265718Y-8904484D02*
X14227623Y-8904484D01*
X14227623Y-8904484D02*
X14208575Y-8894960D01*
X14208575Y-8894960D02*
X14199052Y-8875912D01*
X14199052Y-8875912D02*
X14199052Y-8799722D01*
X14199052Y-8799722D02*
X14208575Y-8780674D01*
X14208575Y-8780674D02*
X14227623Y-8771150D01*
X14227623Y-8771150D02*
X14265718Y-8771150D01*
X14265718Y-8771150D02*
X14284766Y-8780674D01*
X14284766Y-8780674D02*
X14294290Y-8799722D01*
X14294290Y-8799722D02*
X14294290Y-8818770D01*
X14294290Y-8818770D02*
X14199052Y-8837817D01*
X14370480Y-8894960D02*
X14389528Y-8904484D01*
X14389528Y-8904484D02*
X14427623Y-8904484D01*
X14427623Y-8904484D02*
X14446671Y-8894960D01*
X14446671Y-8894960D02*
X14456194Y-8875912D01*
X14456194Y-8875912D02*
X14456194Y-8866389D01*
X14456194Y-8866389D02*
X14446671Y-8847341D01*
X14446671Y-8847341D02*
X14427623Y-8837817D01*
X14427623Y-8837817D02*
X14399052Y-8837817D01*
X14399052Y-8837817D02*
X14380004Y-8828293D01*
X14380004Y-8828293D02*
X14370480Y-8809246D01*
X14370480Y-8809246D02*
X14370480Y-8799722D01*
X14370480Y-8799722D02*
X14380004Y-8780674D01*
X14380004Y-8780674D02*
X14399052Y-8771150D01*
X14399052Y-8771150D02*
X14427623Y-8771150D01*
X14427623Y-8771150D02*
X14446671Y-8780674D01*
X14522861Y-8980674D02*
X14532385Y-8971150D01*
X14532385Y-8971150D02*
X14551433Y-8942579D01*
X14551433Y-8942579D02*
X14560956Y-8923531D01*
X14560956Y-8923531D02*
X14570480Y-8894960D01*
X14570480Y-8894960D02*
X14580004Y-8847341D01*
X14580004Y-8847341D02*
X14580004Y-8809246D01*
X14580004Y-8809246D02*
X14570480Y-8761627D01*
X14570480Y-8761627D02*
X14560956Y-8733055D01*
X14560956Y-8733055D02*
X14551433Y-8714008D01*
X14551433Y-8714008D02*
X14532385Y-8685436D01*
X14532385Y-8685436D02*
X14522861Y-8675912D01*
M02*
