M48
; DRILL file {KiCad 7.0.6} date Tue Aug  8 22:31:45 2023
; FORMAT={-:-/ absolute / inch / decimal}
; #@! TF.CreationDate,2023-08-08T22:31:45+02:00
; #@! TF.GenerationSoftware,Kicad,Pcbnew,7.0.6
; #@! TF.FileFunction,Plated,1,4,PTH
FMAT,2
INCH
; #@! TA.AperFunction,Plated,PTH,ViaDrill
T1C0.0079
; #@! TA.AperFunction,Plated,PTH,ComponentDrill
T2C0.0236
; #@! TA.AperFunction,Plated,PTH,ComponentDrill
T3C0.0256
%
G90
G05
T1
X3.9171Y-2.8169
X3.9231Y-2.5629
X3.9232Y-2.691
X3.9232Y-2.6512
X3.9234Y-2.528
X3.9291Y-2.3051
X3.9476Y-2.7607
X3.9597Y-2.4213
X3.9758Y-2.7336
X3.9793Y-2.2575
X3.9823Y-2.7953
X3.983Y-2.3131
X3.9902Y-2.8465
X4.0108Y-2.2575
X4.0115Y-2.6542
X4.0123Y-2.7003
X4.0124Y-2.5636
X4.0127Y-2.5122
X4.02Y-2.6268
X4.0219Y-2.7953
X4.0251Y-2.5958
X4.0332Y-2.6745
X4.0419Y-2.5636
X4.0455Y-2.7016
X4.0559Y-2.2894
X4.0585Y-2.6057
X4.0866Y-2.3429
X4.1043Y-2.8732
X4.1102Y-2.6102
X4.1122Y-2.4232
X4.1161Y-2.5177
X4.124Y-2.3429
X4.1378Y-2.374
X4.1417Y-2.3071
X4.1417Y-2.4232
X4.151Y-2.5296
X4.152Y-2.6608
X4.1712Y-2.4232
X4.1791Y-2.8406
X4.1797Y-2.5292
X4.1811Y-2.5731
X4.1822Y-2.6471
X4.186Y-2.6151
X4.1997Y-2.2575
X4.1998Y-2.687
X4.2348Y-2.3429
X4.2362Y-2.7303
X4.2883Y-2.7165
X4.2933Y-2.7953
X4.2953Y-2.8484
T3
X3.8552Y-2.3197
X3.8552Y-2.3697
X3.8552Y-2.4197
X3.8552Y-2.4697
X3.8552Y-2.5197
X3.8552Y-2.5697
X3.8552Y-2.6197
X3.8552Y-2.6697
X3.8552Y-2.7197
X3.8552Y-2.7697
X3.8552Y-2.8197
X3.8552Y-2.8697
X4.0052Y-2.9197
X4.0552Y-2.9197
X4.1052Y-2.9197
X4.1552Y-2.9197
X4.2052Y-2.9197
X4.3552Y-2.3197
X4.3552Y-2.3697
X4.3552Y-2.4197
X4.3552Y-2.4697
X4.3552Y-2.5197
X4.3552Y-2.5697
X4.3552Y-2.6197
X4.3552Y-2.6697
X4.3552Y-2.7197
X4.3552Y-2.7697
X4.3552Y-2.8197
X4.3552Y-2.8697
T2
G00X3.8848Y-2.0489
M15
G01X3.8848Y-2.0922
M16
G05
G00X3.8848Y-2.2123
M15
G01X3.8848Y-2.2438
M16
G05
G00X4.3257Y-2.0489
M15
G01X4.3257Y-2.0922
M16
G05
G00X4.3257Y-2.2123
M15
G01X4.3257Y-2.2438
M16
G05
T0
M30
