%TF.GenerationSoftware,KiCad,Pcbnew,7.0.6*%
%TF.CreationDate,2023-08-08T22:31:42+02:00*%
%TF.ProjectId,epi_JLC,6570695f-4a4c-4432-9e6b-696361645f70,1_2_0*%
%TF.SameCoordinates,Original*%
%TF.FileFunction,Soldermask,Bot*%
%TF.FilePolarity,Negative*%
%FSLAX46Y46*%
G04 Gerber Fmt 4.6, Leading zero omitted, Abs format (unit mm)*
G04 Created by KiCad (PCBNEW 7.0.6) date 2023-08-08 22:31:42*
%MOMM*%
%LPD*%
G01*
G04 APERTURE LIST*
G04 Aperture macros list*
%AMRoundRect*
0 Rectangle with rounded corners*
0 $1 Rounding radius*
0 $2 $3 $4 $5 $6 $7 $8 $9 X,Y pos of 4 corners*
0 Add a 4 corners polygon primitive as box body*
4,1,4,$2,$3,$4,$5,$6,$7,$8,$9,$2,$3,0*
0 Add four circle primitives for the rounded corners*
1,1,$1+$1,$2,$3*
1,1,$1+$1,$4,$5*
1,1,$1+$1,$6,$7*
1,1,$1+$1,$8,$9*
0 Add four rect primitives between the rounded corners*
20,1,$1+$1,$2,$3,$4,$5,0*
20,1,$1+$1,$4,$5,$6,$7,0*
20,1,$1+$1,$6,$7,$8,$9,0*
20,1,$1+$1,$8,$9,$2,$3,0*%
%AMFreePoly0*
4,1,15,-0.375000,0.250000,-0.359410,0.357001,-0.305193,0.467904,-0.217904,0.555193,-0.107001,0.609410,0.000000,0.625000,0.375000,0.625000,0.375000,-0.625000,0.000000,-0.625000,-0.107001,-0.609410,-0.217904,-0.555193,-0.305193,-0.467904,-0.359410,-0.357001,-0.375000,-0.250000,-0.375000,0.250000,-0.375000,0.250000,$1*%
%AMFreePoly1*
4,1,15,-0.375000,0.625000,0.000000,0.625000,0.107001,0.609410,0.217904,0.555193,0.305193,0.467904,0.359410,0.357001,0.375000,0.250000,0.375000,-0.250000,0.359410,-0.357001,0.305193,-0.467904,0.217904,-0.555193,0.107001,-0.609410,0.000000,-0.625000,-0.375000,-0.625000,-0.375000,0.625000,-0.375000,0.625000,$1*%
G04 Aperture macros list end*
%ADD10C,2.000000*%
%ADD11C,1.000000*%
%ADD12RoundRect,0.250000X-0.500000X-0.250000X0.500000X-0.250000X0.500000X0.250000X-0.500000X0.250000X0*%
%ADD13RoundRect,0.250000X-0.250000X0.500000X-0.250000X-0.500000X0.250000X-0.500000X0.250000X0.500000X0*%
%ADD14O,1.200000X2.000000*%
%ADD15O,1.200000X2.300000*%
%ADD16FreePoly0,180.000000*%
%ADD17FreePoly1,180.000000*%
G04 APERTURE END LIST*
%TO.C,JP1*%
G36*
X100369422Y-57900000D02*
G01*
X100009422Y-57900000D01*
X100009422Y-57700000D01*
X100369422Y-57700000D01*
X100369422Y-57900000D01*
G37*
%TD*%
D10*
%TO.C,DRILL4*%
X110625000Y-54650000D03*
%TD*%
%TO.C,DRILL3*%
X97925000Y-54650000D03*
%TD*%
D11*
%TO.C,DRILL2*%
X108404422Y-56450001D03*
%TD*%
%TO.C,DRILL1*%
X100140476Y-56450000D03*
%TD*%
D12*
%TO.C,J1*%
X97923220Y-58920000D03*
X97923220Y-60190000D03*
X97923220Y-61460000D03*
X97923220Y-62730000D03*
X97923220Y-64000000D03*
X97923220Y-65270000D03*
X97923220Y-66540000D03*
X97923220Y-67810000D03*
X97923220Y-69080000D03*
X97923220Y-70350000D03*
X97923220Y-71620000D03*
X97923220Y-72890000D03*
%TD*%
D13*
%TO.C,J3*%
X106813220Y-74160000D03*
X105543220Y-74160000D03*
X104273220Y-74160000D03*
X103003220Y-74160000D03*
X101733220Y-74160000D03*
%TD*%
D14*
%TO.C,J4*%
X98673220Y-56591500D03*
X109873220Y-56591500D03*
D15*
X109873220Y-52591500D03*
X98673220Y-52591500D03*
%TD*%
D12*
%TO.C,J2*%
X110623220Y-58920000D03*
X110623220Y-60190000D03*
X110623220Y-61460000D03*
X110623220Y-62730000D03*
X110623220Y-64000000D03*
X110623220Y-65270000D03*
X110623220Y-66540000D03*
X110623220Y-67810000D03*
X110623220Y-69080000D03*
X110623220Y-70350000D03*
X110623220Y-71620000D03*
X110623220Y-72890000D03*
%TD*%
D11*
%TO.C,TP2*%
X106068220Y-58750000D03*
%TD*%
%TO.C,TP1*%
X102478220Y-58750000D03*
%TD*%
D16*
%TO.C,JP1*%
X100734422Y-57800000D03*
D17*
X99634422Y-57800000D03*
%TD*%
M02*
