%TF.GenerationSoftware,KiCad,Pcbnew,7.0.6*%
%TF.CreationDate,2023-08-08T22:31:42+02:00*%
%TF.ProjectId,epi_JLC,6570695f-4a4c-4432-9e6b-696361645f70,1_2_0*%
%TF.SameCoordinates,Original*%
%TF.FileFunction,Copper,L2,Inr*%
%TF.FilePolarity,Positive*%
%FSLAX46Y46*%
G04 Gerber Fmt 4.6, Leading zero omitted, Abs format (unit mm)*
G04 Created by KiCad (PCBNEW 7.0.6) date 2023-08-08 22:31:42*
%MOMM*%
%LPD*%
G01*
G04 APERTURE LIST*
G04 Aperture macros list*
%AMRoundRect*
0 Rectangle with rounded corners*
0 $1 Rounding radius*
0 $2 $3 $4 $5 $6 $7 $8 $9 X,Y pos of 4 corners*
0 Add a 4 corners polygon primitive as box body*
4,1,4,$2,$3,$4,$5,$6,$7,$8,$9,$2,$3,0*
0 Add four circle primitives for the rounded corners*
1,1,$1+$1,$2,$3*
1,1,$1+$1,$4,$5*
1,1,$1+$1,$6,$7*
1,1,$1+$1,$8,$9*
0 Add four rect primitives between the rounded corners*
20,1,$1+$1,$2,$3,$4,$5,0*
20,1,$1+$1,$4,$5,$6,$7,0*
20,1,$1+$1,$6,$7,$8,$9,0*
20,1,$1+$1,$8,$9,$2,$3,0*%
G04 Aperture macros list end*
%TA.AperFunction,CastellatedPad*%
%ADD10RoundRect,0.250000X-0.500000X-0.250000X0.500000X-0.250000X0.500000X0.250000X-0.500000X0.250000X0*%
%TD*%
%TA.AperFunction,CastellatedPad*%
%ADD11RoundRect,0.250000X-0.250000X0.500000X-0.250000X-0.500000X0.250000X-0.500000X0.250000X0.500000X0*%
%TD*%
%TA.AperFunction,ComponentPad*%
%ADD12O,1.200000X2.000000*%
%TD*%
%TA.AperFunction,ComponentPad*%
%ADD13O,1.200000X2.300000*%
%TD*%
%TA.AperFunction,ViaPad*%
%ADD14C,0.600000*%
%TD*%
%TA.AperFunction,Conductor*%
%ADD15C,0.130000*%
%TD*%
G04 APERTURE END LIST*
D10*
%TO.N,D1{slash}TX*%
%TO.C,J1*%
X97923220Y-58920000D03*
%TO.N,D0{slash}RX*%
X97923220Y-60190000D03*
%TO.N,GND*%
X97923220Y-61460000D03*
X97923220Y-62730000D03*
%TO.N,D2{slash}SDA*%
X97923220Y-64000000D03*
%TO.N,D3{slash}SCL*%
X97923220Y-65270000D03*
%TO.N,D4*%
X97923220Y-66540000D03*
%TO.N,D5*%
X97923220Y-67810000D03*
%TO.N,D6*%
X97923220Y-69080000D03*
%TO.N,D7*%
X97923220Y-70350000D03*
%TO.N,D8*%
X97923220Y-71620000D03*
%TO.N,D9*%
X97923220Y-72890000D03*
%TD*%
D11*
%TO.N,D11*%
%TO.C,J3*%
X106813220Y-74160000D03*
%TO.N,D12*%
X105543220Y-74160000D03*
%TO.N,D13*%
X104273220Y-74160000D03*
%TO.N,D17{slash}SS*%
X103003220Y-74160000D03*
%TO.N,A5*%
X101733220Y-74160000D03*
%TD*%
D12*
%TO.N,Net-(J4-SHIELD)*%
%TO.C,J4*%
X98673220Y-56591500D03*
%TO.N,N/C*%
X109873220Y-56591500D03*
D13*
X109873220Y-52591500D03*
X98673220Y-52591500D03*
%TD*%
D10*
%TO.N,+5V*%
%TO.C,J2*%
X110623220Y-58920000D03*
%TO.N,GND*%
X110623220Y-60190000D03*
%TO.N,RST*%
X110623220Y-61460000D03*
%TO.N,A4*%
X110623220Y-62730000D03*
%TO.N,A3*%
X110623220Y-64000000D03*
%TO.N,A2*%
X110623220Y-65270000D03*
%TO.N,A1*%
X110623220Y-66540000D03*
%TO.N,A0*%
X110623220Y-67810000D03*
%TO.N,D15{slash}SCK*%
X110623220Y-69080000D03*
%TO.N,D14{slash}MISO*%
X110623220Y-70350000D03*
%TO.N,D16{slash}MOSI*%
X110623220Y-71620000D03*
%TO.N,D10*%
X110623220Y-72890000D03*
%TD*%
D14*
%TO.N,+5V*%
X99650000Y-67340000D03*
X102155500Y-71000000D03*
X105100000Y-60300000D03*
X100575500Y-61500000D03*
X99654422Y-64210000D03*
%TO.N,GND*%
X104400000Y-66300000D03*
X101073220Y-57341500D03*
X109100000Y-72350000D03*
X107600000Y-69350000D03*
X106150000Y-72150000D03*
X101350000Y-72300000D03*
X101150000Y-71000000D03*
X99645531Y-65097634D03*
X99649500Y-68351092D03*
%TO.N,Net-(C2-Pad2)*%
X106674363Y-68250000D03*
X101922720Y-63810223D03*
%TO.N,RST*%
X102756849Y-68620500D03*
X104550000Y-63950000D03*
%TO.N,D1{slash}TX*%
X102238388Y-65933364D03*
%TO.N,D0{slash}RX*%
X102109022Y-66721135D03*
%TO.N,A4*%
X104450000Y-61550000D03*
%TO.N,Net-(J4-D+-PadA6)*%
X103021062Y-58150000D03*
%TO.N,D+*%
X103800000Y-59510000D03*
X101915140Y-65114500D03*
%TO.N,D-*%
X102664500Y-65114500D03*
X104750000Y-59510000D03*
%TO.N,D15{slash}SCK*%
X101913083Y-68588627D03*
%TO.N,D16{slash}MOSI*%
X99494500Y-71550000D03*
%TO.N,D14{slash}MISO*%
X100269176Y-70121494D03*
%TO.N,D3{slash}SCL*%
X102444172Y-67931922D03*
%TO.N,D2{slash}SDA*%
X101891403Y-67417422D03*
%TO.N,Net-(J4-D--PadA7)*%
X105200000Y-58600000D03*
%TO.N,D4*%
X105460703Y-67583535D03*
%TO.N,D6*%
X108923720Y-69000000D03*
%TO.N,D8*%
X106228223Y-67235500D03*
%TO.N,D9*%
X106324500Y-66424003D03*
%TO.N,D5*%
X106200000Y-65355500D03*
%TO.N,D10*%
X109049648Y-71000352D03*
%TO.N,A0*%
X106165541Y-64241045D03*
%TO.N,A1*%
X105436113Y-64251505D03*
%TO.N,A2*%
X105949503Y-61550000D03*
%TO.N,A3*%
X105200000Y-61550000D03*
%TO.N,A5*%
X103087118Y-66185688D03*
%TO.N,Net-(J4-SHIELD)*%
X99800000Y-58550000D03*
%TO.N,D11*%
X100984191Y-69433000D03*
%TO.N,D12*%
X104250000Y-72980500D03*
%TO.N,Net-(FB1-Pad1)*%
X107563220Y-59510000D03*
X101167581Y-58751539D03*
X101873220Y-57341500D03*
X106673220Y-57341500D03*
%TD*%
D15*
%TO.N,Net-(C2-Pad2)*%
X106950000Y-67974363D02*
X106950000Y-66100000D01*
X106674363Y-68250000D02*
X106950000Y-67974363D01*
X105050000Y-65850000D02*
X103010223Y-63810223D01*
X106950000Y-66100000D02*
X106700000Y-65850000D01*
X106700000Y-65850000D02*
X105050000Y-65850000D01*
X103010223Y-63810223D02*
X101922720Y-63810223D01*
%TO.N,RST*%
X104550000Y-63950000D02*
X107040000Y-61460000D01*
X107040000Y-61460000D02*
X110623220Y-61460000D01*
%TO.N,D15{slash}SCK*%
X102564456Y-69240000D02*
X106549841Y-69240000D01*
X107389841Y-68400000D02*
X109650000Y-68400000D01*
X106549841Y-69240000D02*
X107389841Y-68400000D01*
X101913083Y-68588627D02*
X102564456Y-69240000D01*
X110330000Y-69080000D02*
X110623220Y-69080000D01*
X109650000Y-68400000D02*
X110330000Y-69080000D01*
%TO.N,D4*%
X100700000Y-63550000D02*
X99586102Y-63550000D01*
X98900000Y-64236102D02*
X98900000Y-65776720D01*
X105460703Y-67583535D02*
X105460703Y-66628399D01*
X98136720Y-66540000D02*
X97923220Y-66540000D01*
X99586102Y-63550000D02*
X98900000Y-64236102D01*
X98900000Y-65776720D02*
X98136720Y-66540000D01*
X105460703Y-66628399D02*
X103382304Y-64550000D01*
X103382304Y-64550000D02*
X101700000Y-64550000D01*
X101700000Y-64550000D02*
X100700000Y-63550000D01*
%TO.N,D6*%
X98065220Y-68938000D02*
X97923220Y-69080000D01*
X102025922Y-69500000D02*
X101463922Y-68938000D01*
X107307537Y-68850000D02*
X106657537Y-69500000D01*
X108773720Y-68850000D02*
X107307537Y-68850000D01*
X101463922Y-68938000D02*
X98065220Y-68938000D01*
X106657537Y-69500000D02*
X102025922Y-69500000D01*
X108923720Y-69000000D02*
X108773720Y-68850000D01*
%TO.N,D11*%
X101311191Y-69760000D02*
X105910000Y-69760000D01*
X106813220Y-70663220D02*
X106813220Y-74160000D01*
X105910000Y-69760000D02*
X106813220Y-70663220D01*
X100984191Y-69433000D02*
X101311191Y-69760000D01*
%TD*%
%TA.AperFunction,Conductor*%
%TO.N,+5V*%
G36*
X100633624Y-63774245D02*
G01*
X101522312Y-64662933D01*
X101534717Y-64680415D01*
X101535202Y-64681422D01*
X101556020Y-64698024D01*
X101561443Y-64702349D01*
X101564120Y-64704742D01*
X101571063Y-64711684D01*
X101579377Y-64716907D01*
X101582295Y-64718978D01*
X101584101Y-64720417D01*
X101584985Y-64721122D01*
X101608686Y-64763990D01*
X101595134Y-64811061D01*
X101593458Y-64813077D01*
X101540759Y-64873895D01*
X101540756Y-64873899D01*
X101488137Y-64989118D01*
X101470110Y-65114500D01*
X101488137Y-65239881D01*
X101540756Y-65355100D01*
X101540758Y-65355104D01*
X101623705Y-65450829D01*
X101623707Y-65450831D01*
X101730268Y-65519314D01*
X101851806Y-65555000D01*
X101851813Y-65555000D01*
X101852782Y-65555140D01*
X101853270Y-65555429D01*
X101856197Y-65556289D01*
X101855977Y-65557035D01*
X101894910Y-65580132D01*
X101907027Y-65627593D01*
X101892047Y-65660399D01*
X101864006Y-65692760D01*
X101864004Y-65692763D01*
X101811385Y-65807982D01*
X101793358Y-65933363D01*
X101811385Y-66058745D01*
X101864004Y-66173964D01*
X101864006Y-66173968D01*
X101916380Y-66234410D01*
X101931849Y-66280887D01*
X101909923Y-66324689D01*
X101902614Y-66330161D01*
X101817587Y-66384805D01*
X101734640Y-66480530D01*
X101734638Y-66480534D01*
X101682019Y-66595753D01*
X101665087Y-66713519D01*
X101663992Y-66721135D01*
X101681690Y-66844227D01*
X101682020Y-66846518D01*
X101723184Y-66936655D01*
X101724933Y-66985607D01*
X101699570Y-67017081D01*
X101599968Y-67081092D01*
X101517021Y-67176817D01*
X101517019Y-67176821D01*
X101464400Y-67292040D01*
X101446373Y-67417422D01*
X101464400Y-67542803D01*
X101517019Y-67658022D01*
X101517021Y-67658026D01*
X101599968Y-67753751D01*
X101599970Y-67753753D01*
X101706531Y-67822236D01*
X101828069Y-67857922D01*
X101828070Y-67857922D01*
X101935922Y-67857922D01*
X101981177Y-67876667D01*
X101999922Y-67921922D01*
X101999270Y-67931033D01*
X101999142Y-67931921D01*
X102017169Y-68057303D01*
X102017277Y-68057538D01*
X102017282Y-68057687D01*
X102018459Y-68061695D01*
X102017436Y-68061995D01*
X102019028Y-68106490D01*
X101985651Y-68142342D01*
X101959062Y-68148127D01*
X101849749Y-68148127D01*
X101728211Y-68183813D01*
X101728209Y-68183813D01*
X101621650Y-68252295D01*
X101621648Y-68252297D01*
X101538701Y-68348022D01*
X101538699Y-68348026D01*
X101486080Y-68463245D01*
X101468383Y-68586329D01*
X101468053Y-68588627D01*
X101477569Y-68654814D01*
X101478228Y-68659392D01*
X101466114Y-68706854D01*
X101423987Y-68731849D01*
X101414879Y-68732500D01*
X100042014Y-68732500D01*
X99996759Y-68713755D01*
X99978014Y-68668500D01*
X99993646Y-68626589D01*
X100023881Y-68591695D01*
X100023883Y-68591693D01*
X100076503Y-68476471D01*
X100094530Y-68351092D01*
X100076503Y-68225713D01*
X100068149Y-68207421D01*
X100023883Y-68110491D01*
X100023881Y-68110487D01*
X99940934Y-68014762D01*
X99940932Y-68014760D01*
X99834372Y-67946278D01*
X99811107Y-67939447D01*
X99712834Y-67910592D01*
X99586166Y-67910592D01*
X99464628Y-67946278D01*
X99464626Y-67946278D01*
X99358067Y-68014760D01*
X99358065Y-68014762D01*
X99275118Y-68110487D01*
X99275116Y-68110491D01*
X99222497Y-68225710D01*
X99204470Y-68351091D01*
X99222497Y-68476473D01*
X99275116Y-68591692D01*
X99275118Y-68591695D01*
X99305354Y-68626589D01*
X99320823Y-68673066D01*
X99298897Y-68716868D01*
X99256986Y-68732500D01*
X98851028Y-68732500D01*
X98805773Y-68713755D01*
X98794006Y-68697560D01*
X98743079Y-68597609D01*
X98655611Y-68510141D01*
X98639679Y-68502023D01*
X98607868Y-68464775D01*
X98611712Y-68415942D01*
X98639681Y-68387975D01*
X98655611Y-68379859D01*
X98743079Y-68292391D01*
X98799237Y-68182175D01*
X98813720Y-68090735D01*
X98813719Y-67529266D01*
X98799237Y-67437825D01*
X98743079Y-67327609D01*
X98655611Y-67240141D01*
X98639679Y-67232023D01*
X98607868Y-67194775D01*
X98611712Y-67145942D01*
X98639681Y-67117975D01*
X98655611Y-67109859D01*
X98743079Y-67022391D01*
X98799237Y-66912175D01*
X98813720Y-66820735D01*
X98813719Y-66259266D01*
X98804375Y-66200271D01*
X98815810Y-66152644D01*
X98822326Y-66145013D01*
X99012935Y-65954404D01*
X99030422Y-65941999D01*
X99031422Y-65941518D01*
X99052354Y-65915268D01*
X99054735Y-65912604D01*
X99061684Y-65905657D01*
X99066912Y-65897333D01*
X99068973Y-65894428D01*
X99089911Y-65868176D01*
X99090158Y-65867090D01*
X99098362Y-65847284D01*
X99098957Y-65846338D01*
X99102717Y-65812958D01*
X99103314Y-65809450D01*
X99105500Y-65799875D01*
X99105500Y-65790061D01*
X99105701Y-65786475D01*
X99106332Y-65780874D01*
X99109459Y-65753120D01*
X99109091Y-65752070D01*
X99105499Y-65730929D01*
X99105499Y-65269718D01*
X99124244Y-65224463D01*
X99169499Y-65205718D01*
X99214754Y-65224463D01*
X99227715Y-65243131D01*
X99271147Y-65338234D01*
X99271149Y-65338238D01*
X99354096Y-65433963D01*
X99354098Y-65433965D01*
X99460659Y-65502448D01*
X99582197Y-65538134D01*
X99582198Y-65538134D01*
X99708864Y-65538134D01*
X99708865Y-65538134D01*
X99830403Y-65502448D01*
X99936964Y-65433965D01*
X100005300Y-65355101D01*
X100019912Y-65338238D01*
X100019914Y-65338234D01*
X100051205Y-65269718D01*
X100072534Y-65223013D01*
X100090561Y-65097634D01*
X100072534Y-64972255D01*
X100038544Y-64897828D01*
X100019914Y-64857033D01*
X100019912Y-64857029D01*
X99936965Y-64761304D01*
X99936963Y-64761302D01*
X99830403Y-64692820D01*
X99791584Y-64681422D01*
X99708865Y-64657134D01*
X99582197Y-64657134D01*
X99460659Y-64692820D01*
X99460657Y-64692820D01*
X99354098Y-64761302D01*
X99354096Y-64761304D01*
X99271149Y-64857029D01*
X99271147Y-64857033D01*
X99227715Y-64952136D01*
X99191864Y-64985514D01*
X99142912Y-64983765D01*
X99109534Y-64947914D01*
X99105499Y-64925552D01*
X99105499Y-64347730D01*
X99124243Y-64302479D01*
X99652478Y-63774244D01*
X99697733Y-63755500D01*
X100588369Y-63755500D01*
X100633624Y-63774245D01*
G37*
%TD.AperFunction*%
%TA.AperFunction,Conductor*%
G36*
X98032665Y-51569245D02*
G01*
X98051410Y-51614500D01*
X98044603Y-51643223D01*
X97972640Y-51786512D01*
X97932720Y-51954948D01*
X97932720Y-53184628D01*
X97947773Y-53313426D01*
X97947775Y-53313434D01*
X97982416Y-53408611D01*
X97980281Y-53457547D01*
X97944167Y-53490640D01*
X97922277Y-53494500D01*
X97871581Y-53494500D01*
X97743730Y-53506347D01*
X97711767Y-53509309D01*
X97505792Y-53567914D01*
X97314107Y-53663362D01*
X97314104Y-53663364D01*
X97143215Y-53792411D01*
X96998941Y-53950672D01*
X96886208Y-54132741D01*
X96808848Y-54332428D01*
X96808846Y-54332437D01*
X96769500Y-54542924D01*
X96769500Y-54757075D01*
X96808846Y-54967562D01*
X96808848Y-54967571D01*
X96886208Y-55167258D01*
X96998941Y-55349327D01*
X97115586Y-55477281D01*
X97143215Y-55507588D01*
X97256962Y-55593484D01*
X97314102Y-55636634D01*
X97314103Y-55636634D01*
X97314104Y-55636635D01*
X97314107Y-55636637D01*
X97505792Y-55732085D01*
X97505794Y-55732085D01*
X97505797Y-55732087D01*
X97711768Y-55790691D01*
X97871581Y-55805500D01*
X97871585Y-55805500D01*
X97934677Y-55805500D01*
X97979932Y-55824245D01*
X97998677Y-55869500D01*
X97991870Y-55898220D01*
X97972641Y-55936510D01*
X97972640Y-55936512D01*
X97932720Y-56104948D01*
X97932720Y-57034628D01*
X97947773Y-57163426D01*
X97947775Y-57163437D01*
X98006980Y-57326098D01*
X98006982Y-57326103D01*
X98102100Y-57470723D01*
X98102102Y-57470726D01*
X98168942Y-57533785D01*
X98228014Y-57589516D01*
X98377926Y-57676068D01*
X98543758Y-57725715D01*
X98716569Y-57735780D01*
X98887044Y-57705720D01*
X99045990Y-57637157D01*
X99184841Y-57533787D01*
X99296110Y-57401181D01*
X99373799Y-57246490D01*
X99413720Y-57078052D01*
X99413720Y-56738596D01*
X99432465Y-56693342D01*
X99477720Y-56674597D01*
X99522975Y-56693342D01*
X99538586Y-56718818D01*
X99542648Y-56731317D01*
X99631390Y-56871152D01*
X99752120Y-56984526D01*
X99897252Y-57064313D01*
X99897256Y-57064314D01*
X100057661Y-57105499D01*
X100057665Y-57105499D01*
X100057667Y-57105500D01*
X100057668Y-57105500D01*
X100181718Y-57105500D01*
X100304782Y-57089954D01*
X100304783Y-57089953D01*
X100304788Y-57089953D01*
X100458775Y-57028985D01*
X100551028Y-56961958D01*
X100595693Y-56951235D01*
X100595779Y-56950254D01*
X100598565Y-56950497D01*
X100598567Y-56950498D01*
X100663209Y-56950498D01*
X100663215Y-56950500D01*
X100670662Y-56950500D01*
X100689017Y-56950500D01*
X100734272Y-56969245D01*
X100753017Y-57014500D01*
X100737385Y-57056411D01*
X100698838Y-57100895D01*
X100698836Y-57100899D01*
X100646217Y-57216118D01*
X100628190Y-57341499D01*
X100646217Y-57466881D01*
X100698836Y-57582100D01*
X100698838Y-57582104D01*
X100780259Y-57676068D01*
X100781787Y-57677831D01*
X100888348Y-57746314D01*
X101009886Y-57782000D01*
X101009887Y-57782000D01*
X101136553Y-57782000D01*
X101136554Y-57782000D01*
X101258092Y-57746314D01*
X101364653Y-57677831D01*
X101424852Y-57608356D01*
X101468654Y-57586431D01*
X101515131Y-57601900D01*
X101521586Y-57608355D01*
X101581787Y-57677831D01*
X101688348Y-57746314D01*
X101809886Y-57782000D01*
X101809887Y-57782000D01*
X101936553Y-57782000D01*
X101936554Y-57782000D01*
X102058092Y-57746314D01*
X102164653Y-57677831D01*
X102241180Y-57589514D01*
X102247601Y-57582104D01*
X102247603Y-57582100D01*
X102298467Y-57470725D01*
X102300223Y-57466879D01*
X102318250Y-57341500D01*
X102300223Y-57216121D01*
X102247603Y-57100899D01*
X102247601Y-57100895D01*
X102209055Y-57056411D01*
X102193586Y-57009934D01*
X102215512Y-56966132D01*
X102257423Y-56950500D01*
X106289017Y-56950500D01*
X106334272Y-56969245D01*
X106353017Y-57014500D01*
X106337385Y-57056411D01*
X106298838Y-57100895D01*
X106298836Y-57100899D01*
X106246217Y-57216118D01*
X106228190Y-57341499D01*
X106246217Y-57466881D01*
X106298836Y-57582100D01*
X106298838Y-57582104D01*
X106380259Y-57676068D01*
X106381787Y-57677831D01*
X106488348Y-57746314D01*
X106609886Y-57782000D01*
X106609887Y-57782000D01*
X106736553Y-57782000D01*
X106736554Y-57782000D01*
X106858092Y-57746314D01*
X106964653Y-57677831D01*
X107041180Y-57589514D01*
X107047601Y-57582104D01*
X107047603Y-57582100D01*
X107098467Y-57470725D01*
X107100223Y-57466879D01*
X107118250Y-57341500D01*
X107100223Y-57216121D01*
X107047603Y-57100899D01*
X107047601Y-57100895D01*
X107009055Y-57056411D01*
X106993586Y-57009934D01*
X107015512Y-56966132D01*
X107057423Y-56950500D01*
X107807343Y-56950500D01*
X107807347Y-56950501D01*
X107820075Y-56950501D01*
X107827895Y-56950501D01*
X107827948Y-56950522D01*
X107854426Y-56950521D01*
X107854426Y-56950522D01*
X107946319Y-56950520D01*
X107946337Y-56950520D01*
X107948475Y-56950333D01*
X107949068Y-56950520D01*
X107949127Y-56950520D01*
X107949127Y-56950538D01*
X107995191Y-56965061D01*
X107997865Y-56967435D01*
X108016065Y-56984526D01*
X108016066Y-56984527D01*
X108161198Y-57064314D01*
X108161202Y-57064315D01*
X108321607Y-57105500D01*
X108321611Y-57105500D01*
X108321613Y-57105501D01*
X108321614Y-57105501D01*
X108445664Y-57105501D01*
X108568728Y-57089955D01*
X108568729Y-57089954D01*
X108568734Y-57089954D01*
X108722721Y-57028986D01*
X108856709Y-56931638D01*
X108962278Y-56804027D01*
X109010811Y-56700888D01*
X109047041Y-56667923D01*
X109095970Y-56670230D01*
X109128936Y-56706460D01*
X109132720Y-56728139D01*
X109132720Y-57034628D01*
X109147773Y-57163426D01*
X109147775Y-57163437D01*
X109206980Y-57326098D01*
X109206982Y-57326103D01*
X109302100Y-57470723D01*
X109302102Y-57470726D01*
X109368942Y-57533785D01*
X109428014Y-57589516D01*
X109577926Y-57676068D01*
X109743758Y-57725715D01*
X109916569Y-57735780D01*
X110087044Y-57705720D01*
X110245990Y-57637157D01*
X110384841Y-57533787D01*
X110496110Y-57401181D01*
X110573799Y-57246490D01*
X110613720Y-57078052D01*
X110613720Y-56148371D01*
X110598665Y-56019566D01*
X110552012Y-55891388D01*
X110554148Y-55842453D01*
X110590262Y-55809360D01*
X110612152Y-55805500D01*
X110678415Y-55805500D01*
X110678419Y-55805500D01*
X110838232Y-55790691D01*
X111044203Y-55732087D01*
X111235898Y-55636634D01*
X111360573Y-55542483D01*
X111406784Y-55507588D01*
X111406785Y-55507586D01*
X111406790Y-55507583D01*
X111551059Y-55349327D01*
X111663792Y-55167257D01*
X111741151Y-54967572D01*
X111780500Y-54757073D01*
X111780500Y-54542927D01*
X111741151Y-54332428D01*
X111663792Y-54132743D01*
X111551059Y-53950673D01*
X111406790Y-53792417D01*
X111406788Y-53792415D01*
X111406784Y-53792411D01*
X111235895Y-53663364D01*
X111235892Y-53663362D01*
X111044207Y-53567914D01*
X110838232Y-53509309D01*
X110838232Y-53509308D01*
X110678419Y-53494500D01*
X110628336Y-53494500D01*
X110583081Y-53475755D01*
X110564336Y-53430500D01*
X110571143Y-53401778D01*
X110573799Y-53396490D01*
X110613720Y-53228052D01*
X110613720Y-51998371D01*
X110598665Y-51869566D01*
X110539460Y-51706902D01*
X110539458Y-51706899D01*
X110539457Y-51706896D01*
X110501818Y-51649668D01*
X110492611Y-51601558D01*
X110520121Y-51561029D01*
X110555289Y-51550500D01*
X110643034Y-51550500D01*
X111603406Y-51550500D01*
X112408720Y-51550500D01*
X112453975Y-51569245D01*
X112472720Y-51614500D01*
X112472720Y-76185500D01*
X112453975Y-76230755D01*
X112408720Y-76249500D01*
X95837720Y-76249500D01*
X95792465Y-76230755D01*
X95773720Y-76185500D01*
X95773720Y-73170732D01*
X97032720Y-73170732D01*
X97047202Y-73262171D01*
X97047205Y-73262180D01*
X97103358Y-73372386D01*
X97103361Y-73372391D01*
X97190829Y-73459859D01*
X97190831Y-73459860D01*
X97190832Y-73459861D01*
X97301039Y-73516014D01*
X97301045Y-73516017D01*
X97392485Y-73530500D01*
X98453954Y-73530499D01*
X98545395Y-73516017D01*
X98655607Y-73459861D01*
X98655608Y-73459861D01*
X98655608Y-73459860D01*
X98655611Y-73459859D01*
X98743079Y-73372391D01*
X98799237Y-73262175D01*
X98813720Y-73170735D01*
X98813719Y-72609266D01*
X98799237Y-72517825D01*
X98743079Y-72407609D01*
X98655611Y-72320141D01*
X98639679Y-72312023D01*
X98629411Y-72300000D01*
X100904970Y-72300000D01*
X100922997Y-72425381D01*
X100975616Y-72540600D01*
X100975618Y-72540604D01*
X101058565Y-72636329D01*
X101058567Y-72636331D01*
X101165128Y-72704814D01*
X101286666Y-72740500D01*
X101286667Y-72740500D01*
X101413333Y-72740500D01*
X101413334Y-72740500D01*
X101534872Y-72704814D01*
X101641433Y-72636331D01*
X101693982Y-72575686D01*
X101724381Y-72540604D01*
X101724383Y-72540600D01*
X101777002Y-72425381D01*
X101777001Y-72425381D01*
X101777003Y-72425379D01*
X101795030Y-72300000D01*
X101777003Y-72174621D01*
X101747215Y-72109395D01*
X101724383Y-72059399D01*
X101724381Y-72059395D01*
X101641434Y-71963670D01*
X101641432Y-71963668D01*
X101534872Y-71895186D01*
X101504707Y-71886329D01*
X101413334Y-71859500D01*
X101286666Y-71859500D01*
X101165128Y-71895186D01*
X101165126Y-71895186D01*
X101058567Y-71963668D01*
X101058565Y-71963670D01*
X100975618Y-72059395D01*
X100975616Y-72059399D01*
X100922997Y-72174618D01*
X100904970Y-72300000D01*
X98629411Y-72300000D01*
X98607868Y-72274775D01*
X98611712Y-72225942D01*
X98639681Y-72197975D01*
X98655611Y-72189859D01*
X98743079Y-72102391D01*
X98799237Y-71992175D01*
X98813720Y-71900735D01*
X98813719Y-71549999D01*
X99049470Y-71549999D01*
X99067497Y-71675381D01*
X99120116Y-71790600D01*
X99120118Y-71790604D01*
X99194023Y-71875894D01*
X99203067Y-71886331D01*
X99309628Y-71954814D01*
X99431166Y-71990500D01*
X99431167Y-71990500D01*
X99557833Y-71990500D01*
X99557834Y-71990500D01*
X99679372Y-71954814D01*
X99785933Y-71886331D01*
X99848895Y-71813669D01*
X99868881Y-71790604D01*
X99868883Y-71790600D01*
X99921502Y-71675381D01*
X99921501Y-71675381D01*
X99921503Y-71675379D01*
X99939530Y-71550000D01*
X99921503Y-71424621D01*
X99912618Y-71405166D01*
X99868883Y-71309399D01*
X99868881Y-71309395D01*
X99785934Y-71213670D01*
X99785932Y-71213668D01*
X99679372Y-71145186D01*
X99653577Y-71137612D01*
X99557834Y-71109500D01*
X99431166Y-71109500D01*
X99309628Y-71145186D01*
X99309626Y-71145186D01*
X99203067Y-71213668D01*
X99203065Y-71213670D01*
X99120118Y-71309395D01*
X99120116Y-71309399D01*
X99067497Y-71424618D01*
X99049470Y-71549999D01*
X98813719Y-71549999D01*
X98813719Y-71339266D01*
X98799237Y-71247825D01*
X98743079Y-71137609D01*
X98655611Y-71050141D01*
X98639679Y-71042023D01*
X98607868Y-71004775D01*
X98608244Y-71000000D01*
X100704970Y-71000000D01*
X100722997Y-71125381D01*
X100775616Y-71240600D01*
X100775618Y-71240604D01*
X100835230Y-71309399D01*
X100858567Y-71336331D01*
X100965128Y-71404814D01*
X101086666Y-71440500D01*
X101086667Y-71440500D01*
X101213333Y-71440500D01*
X101213334Y-71440500D01*
X101334872Y-71404814D01*
X101441433Y-71336331D01*
X101518123Y-71247826D01*
X101524381Y-71240604D01*
X101524383Y-71240600D01*
X101536683Y-71213668D01*
X101577003Y-71125379D01*
X101595030Y-71000000D01*
X101577003Y-70874621D01*
X101524383Y-70759399D01*
X101524381Y-70759395D01*
X101441434Y-70663670D01*
X101441432Y-70663668D01*
X101334872Y-70595186D01*
X101294902Y-70583450D01*
X101213334Y-70559500D01*
X101086666Y-70559500D01*
X100965128Y-70595186D01*
X100965126Y-70595186D01*
X100858567Y-70663668D01*
X100858565Y-70663670D01*
X100775618Y-70759395D01*
X100775616Y-70759399D01*
X100722997Y-70874618D01*
X100704970Y-71000000D01*
X98608244Y-71000000D01*
X98611712Y-70955942D01*
X98639681Y-70927975D01*
X98655611Y-70919859D01*
X98743079Y-70832391D01*
X98799237Y-70722175D01*
X98813720Y-70630735D01*
X98813719Y-70069266D01*
X98799237Y-69977825D01*
X98793059Y-69965701D01*
X98749848Y-69880893D01*
X98743079Y-69867609D01*
X98655611Y-69780141D01*
X98639679Y-69772023D01*
X98607868Y-69734775D01*
X98611712Y-69685942D01*
X98639681Y-69657975D01*
X98655611Y-69649859D01*
X98743079Y-69562391D01*
X98799237Y-69452175D01*
X98813720Y-69360735D01*
X98813720Y-69207499D01*
X98832465Y-69162245D01*
X98877720Y-69143500D01*
X100532554Y-69143500D01*
X100577809Y-69162245D01*
X100596554Y-69207500D01*
X100590770Y-69234087D01*
X100557188Y-69307618D01*
X100539161Y-69433000D01*
X100557188Y-69558381D01*
X100611709Y-69677764D01*
X100609109Y-69678951D01*
X100616217Y-69718187D01*
X100588308Y-69758442D01*
X100540109Y-69767173D01*
X100519069Y-69758466D01*
X100454048Y-69716680D01*
X100429455Y-69709459D01*
X100332510Y-69680994D01*
X100205842Y-69680994D01*
X100084304Y-69716680D01*
X100084302Y-69716680D01*
X99977743Y-69785162D01*
X99977741Y-69785164D01*
X99894794Y-69880889D01*
X99894792Y-69880893D01*
X99842173Y-69996112D01*
X99824146Y-70121494D01*
X99842173Y-70246875D01*
X99894792Y-70362094D01*
X99894794Y-70362098D01*
X99977741Y-70457823D01*
X99977743Y-70457825D01*
X100084304Y-70526308D01*
X100205842Y-70561994D01*
X100205843Y-70561994D01*
X100332509Y-70561994D01*
X100332510Y-70561994D01*
X100454048Y-70526308D01*
X100560609Y-70457825D01*
X100606238Y-70405165D01*
X100643557Y-70362098D01*
X100643559Y-70362094D01*
X100696178Y-70246875D01*
X100696177Y-70246875D01*
X100696179Y-70246873D01*
X100714206Y-70121494D01*
X100696179Y-69996115D01*
X100690758Y-69984245D01*
X100641658Y-69876730D01*
X100644269Y-69875537D01*
X100637137Y-69836363D01*
X100665009Y-69796082D01*
X100713200Y-69787308D01*
X100734297Y-69796027D01*
X100734383Y-69796082D01*
X100799319Y-69837814D01*
X100920857Y-69873500D01*
X100920858Y-69873500D01*
X101047526Y-69873500D01*
X101074795Y-69865493D01*
X101123498Y-69870728D01*
X101142861Y-69886994D01*
X101146391Y-69891420D01*
X101146392Y-69891421D01*
X101146393Y-69891422D01*
X101162363Y-69904157D01*
X101172634Y-69912349D01*
X101175311Y-69914742D01*
X101182254Y-69921684D01*
X101182255Y-69921685D01*
X101190561Y-69926903D01*
X101193493Y-69928983D01*
X101219733Y-69949910D01*
X101219734Y-69949910D01*
X101219735Y-69949911D01*
X101220821Y-69950158D01*
X101240627Y-69958363D01*
X101241573Y-69958957D01*
X101274941Y-69962716D01*
X101278459Y-69963314D01*
X101288036Y-69965500D01*
X101297849Y-69965500D01*
X101301434Y-69965701D01*
X101304838Y-69966084D01*
X101334792Y-69969459D01*
X101335432Y-69969234D01*
X101335842Y-69969092D01*
X101356980Y-69965500D01*
X105798369Y-69965500D01*
X105843624Y-69984245D01*
X106588975Y-70729596D01*
X106607720Y-70774851D01*
X106607720Y-71833983D01*
X106588975Y-71879238D01*
X106543720Y-71897983D01*
X106498465Y-71879238D01*
X106495352Y-71875894D01*
X106441434Y-71813670D01*
X106441432Y-71813668D01*
X106334872Y-71745186D01*
X106334871Y-71745185D01*
X106213334Y-71709500D01*
X106086666Y-71709500D01*
X105965128Y-71745186D01*
X105965126Y-71745186D01*
X105858567Y-71813668D01*
X105858565Y-71813670D01*
X105775618Y-71909395D01*
X105775616Y-71909399D01*
X105722997Y-72024618D01*
X105704970Y-72150000D01*
X105722997Y-72275381D01*
X105775616Y-72390600D01*
X105775618Y-72390604D01*
X105858565Y-72486329D01*
X105858567Y-72486331D01*
X105965128Y-72554814D01*
X106086666Y-72590500D01*
X106086667Y-72590500D01*
X106213333Y-72590500D01*
X106213334Y-72590500D01*
X106334872Y-72554814D01*
X106441433Y-72486331D01*
X106495351Y-72424105D01*
X106539154Y-72402179D01*
X106585631Y-72417648D01*
X106607557Y-72461450D01*
X106607720Y-72466016D01*
X106607719Y-73205500D01*
X106588974Y-73250755D01*
X106543724Y-73269500D01*
X106532488Y-73269500D01*
X106441048Y-73283982D01*
X106441039Y-73283985D01*
X106330833Y-73340138D01*
X106330832Y-73340138D01*
X106243359Y-73427611D01*
X106235242Y-73443541D01*
X106197994Y-73475351D01*
X106149161Y-73471506D01*
X106121195Y-73443538D01*
X106113079Y-73427609D01*
X106025611Y-73340141D01*
X106025608Y-73340139D01*
X106025606Y-73340138D01*
X105915400Y-73283985D01*
X105915393Y-73283982D01*
X105861460Y-73275440D01*
X105823955Y-73269500D01*
X105823952Y-73269500D01*
X105262487Y-73269500D01*
X105171048Y-73283982D01*
X105171039Y-73283985D01*
X105060833Y-73340138D01*
X105060832Y-73340138D01*
X104973359Y-73427611D01*
X104965242Y-73443541D01*
X104927994Y-73475351D01*
X104879161Y-73471506D01*
X104851195Y-73443538D01*
X104843079Y-73427609D01*
X104755611Y-73340141D01*
X104755608Y-73340139D01*
X104659684Y-73291263D01*
X104627872Y-73254016D01*
X104630523Y-73207654D01*
X104677003Y-73105879D01*
X104695030Y-72980500D01*
X104677003Y-72855121D01*
X104624383Y-72739899D01*
X104624381Y-72739895D01*
X104541434Y-72644170D01*
X104541432Y-72644168D01*
X104434872Y-72575686D01*
X104434872Y-72575685D01*
X104313334Y-72540000D01*
X104186666Y-72540000D01*
X104065128Y-72575686D01*
X104065126Y-72575686D01*
X103958567Y-72644168D01*
X103958565Y-72644170D01*
X103875618Y-72739895D01*
X103875616Y-72739899D01*
X103822997Y-72855118D01*
X103804970Y-72980500D01*
X103822997Y-73105881D01*
X103877518Y-73225264D01*
X103875441Y-73226212D01*
X103882782Y-73266937D01*
X103854839Y-73307168D01*
X103849303Y-73310346D01*
X103790831Y-73340139D01*
X103703359Y-73427611D01*
X103695242Y-73443541D01*
X103657994Y-73475351D01*
X103609161Y-73471506D01*
X103581195Y-73443538D01*
X103573079Y-73427609D01*
X103485611Y-73340141D01*
X103485608Y-73340139D01*
X103485606Y-73340138D01*
X103375400Y-73283985D01*
X103375393Y-73283982D01*
X103321460Y-73275440D01*
X103283955Y-73269500D01*
X103283952Y-73269500D01*
X102722487Y-73269500D01*
X102631048Y-73283982D01*
X102631039Y-73283985D01*
X102520833Y-73340138D01*
X102520832Y-73340138D01*
X102433359Y-73427611D01*
X102425242Y-73443541D01*
X102387994Y-73475351D01*
X102339161Y-73471506D01*
X102311195Y-73443538D01*
X102303079Y-73427609D01*
X102215611Y-73340141D01*
X102215608Y-73340139D01*
X102215606Y-73340138D01*
X102105400Y-73283985D01*
X102105393Y-73283982D01*
X102051460Y-73275440D01*
X102013955Y-73269500D01*
X102013952Y-73269500D01*
X101452487Y-73269500D01*
X101361048Y-73283982D01*
X101361039Y-73283985D01*
X101250833Y-73340138D01*
X101250832Y-73340138D01*
X101163358Y-73427612D01*
X101163358Y-73427613D01*
X101107205Y-73537819D01*
X101107202Y-73537826D01*
X101092720Y-73629267D01*
X101092720Y-74690732D01*
X101107202Y-74782171D01*
X101107205Y-74782180D01*
X101163358Y-74892386D01*
X101163361Y-74892391D01*
X101250829Y-74979859D01*
X101250831Y-74979860D01*
X101250832Y-74979861D01*
X101361039Y-75036014D01*
X101361045Y-75036017D01*
X101452485Y-75050500D01*
X102013954Y-75050499D01*
X102105395Y-75036017D01*
X102215607Y-74979861D01*
X102215608Y-74979861D01*
X102215608Y-74979860D01*
X102215611Y-74979859D01*
X102303079Y-74892391D01*
X102311195Y-74876461D01*
X102348442Y-74844649D01*
X102397274Y-74848491D01*
X102425244Y-74876461D01*
X102433361Y-74892391D01*
X102520829Y-74979859D01*
X102520831Y-74979860D01*
X102520832Y-74979861D01*
X102631039Y-75036014D01*
X102631045Y-75036017D01*
X102722485Y-75050500D01*
X103283954Y-75050499D01*
X103375395Y-75036017D01*
X103485607Y-74979861D01*
X103485608Y-74979861D01*
X103485608Y-74979860D01*
X103485611Y-74979859D01*
X103573079Y-74892391D01*
X103581195Y-74876461D01*
X103618442Y-74844649D01*
X103667274Y-74848491D01*
X103695244Y-74876461D01*
X103703361Y-74892391D01*
X103790829Y-74979859D01*
X103790831Y-74979860D01*
X103790832Y-74979861D01*
X103901039Y-75036014D01*
X103901045Y-75036017D01*
X103992485Y-75050500D01*
X104553954Y-75050499D01*
X104645395Y-75036017D01*
X104755607Y-74979861D01*
X104755608Y-74979861D01*
X104755608Y-74979860D01*
X104755611Y-74979859D01*
X104843079Y-74892391D01*
X104851195Y-74876461D01*
X104888442Y-74844649D01*
X104937274Y-74848491D01*
X104965244Y-74876461D01*
X104973361Y-74892391D01*
X105060829Y-74979859D01*
X105060831Y-74979860D01*
X105060832Y-74979861D01*
X105171039Y-75036014D01*
X105171045Y-75036017D01*
X105262485Y-75050500D01*
X105823954Y-75050499D01*
X105915395Y-75036017D01*
X106025607Y-74979861D01*
X106025608Y-74979861D01*
X106025608Y-74979860D01*
X106025611Y-74979859D01*
X106113079Y-74892391D01*
X106121195Y-74876461D01*
X106158442Y-74844649D01*
X106207274Y-74848491D01*
X106235244Y-74876461D01*
X106243361Y-74892391D01*
X106330829Y-74979859D01*
X106330831Y-74979860D01*
X106330832Y-74979861D01*
X106441039Y-75036014D01*
X106441045Y-75036017D01*
X106532485Y-75050500D01*
X107093954Y-75050499D01*
X107185395Y-75036017D01*
X107295607Y-74979861D01*
X107295608Y-74979861D01*
X107295608Y-74979860D01*
X107295611Y-74979859D01*
X107383079Y-74892391D01*
X107439237Y-74782175D01*
X107453720Y-74690735D01*
X107453719Y-73629266D01*
X107439237Y-73537825D01*
X107383079Y-73427609D01*
X107295611Y-73340141D01*
X107295608Y-73340139D01*
X107295606Y-73340138D01*
X107185400Y-73283985D01*
X107185393Y-73283982D01*
X107131460Y-73275440D01*
X107093955Y-73269500D01*
X107093952Y-73269500D01*
X107082720Y-73269500D01*
X107037465Y-73250755D01*
X107018720Y-73205500D01*
X107018720Y-72350000D01*
X108654970Y-72350000D01*
X108672997Y-72475381D01*
X108725616Y-72590600D01*
X108725618Y-72590604D01*
X108808565Y-72686329D01*
X108808567Y-72686331D01*
X108915128Y-72754814D01*
X109036666Y-72790500D01*
X109036667Y-72790500D01*
X109163333Y-72790500D01*
X109163334Y-72790500D01*
X109284872Y-72754814D01*
X109391433Y-72686331D01*
X109458211Y-72609265D01*
X109474381Y-72590604D01*
X109474383Y-72590600D01*
X109490727Y-72554813D01*
X109527003Y-72475379D01*
X109545030Y-72350000D01*
X109527003Y-72224621D01*
X109514833Y-72197973D01*
X109474383Y-72109399D01*
X109474381Y-72109395D01*
X109391434Y-72013670D01*
X109391432Y-72013668D01*
X109284872Y-71945186D01*
X109284872Y-71945185D01*
X109163334Y-71909500D01*
X109036666Y-71909500D01*
X108915128Y-71945186D01*
X108915126Y-71945186D01*
X108808567Y-72013668D01*
X108808565Y-72013670D01*
X108725618Y-72109395D01*
X108725616Y-72109399D01*
X108672997Y-72224618D01*
X108654970Y-72350000D01*
X107018720Y-72350000D01*
X107018720Y-71000352D01*
X108604618Y-71000352D01*
X108622645Y-71125733D01*
X108675264Y-71240952D01*
X108675266Y-71240956D01*
X108734573Y-71309399D01*
X108758215Y-71336683D01*
X108864776Y-71405166D01*
X108986314Y-71440852D01*
X108986315Y-71440852D01*
X109112981Y-71440852D01*
X109112982Y-71440852D01*
X109234520Y-71405166D01*
X109341081Y-71336683D01*
X109418076Y-71247826D01*
X109424029Y-71240956D01*
X109424031Y-71240952D01*
X109424192Y-71240601D01*
X109476651Y-71125731D01*
X109494678Y-71000352D01*
X109476651Y-70874973D01*
X109476490Y-70874621D01*
X109424031Y-70759751D01*
X109424029Y-70759747D01*
X109341082Y-70664022D01*
X109341080Y-70664020D01*
X109234520Y-70595538D01*
X109153551Y-70571764D01*
X109112982Y-70559852D01*
X108986314Y-70559852D01*
X108864776Y-70595538D01*
X108864774Y-70595538D01*
X108758215Y-70664020D01*
X108758213Y-70664022D01*
X108675266Y-70759747D01*
X108675264Y-70759751D01*
X108622645Y-70874970D01*
X108604618Y-71000352D01*
X107018720Y-71000352D01*
X107018720Y-70709007D01*
X107022311Y-70687871D01*
X107022679Y-70686820D01*
X107018921Y-70653462D01*
X107018720Y-70649877D01*
X107018720Y-70640069D01*
X107018720Y-70640065D01*
X107016533Y-70630485D01*
X107015937Y-70626983D01*
X107012177Y-70593602D01*
X107011583Y-70592656D01*
X107003378Y-70572848D01*
X107003131Y-70571764D01*
X107003130Y-70571763D01*
X107003130Y-70571762D01*
X106982203Y-70545522D01*
X106980123Y-70542590D01*
X106974905Y-70534284D01*
X106974904Y-70534283D01*
X106967962Y-70527340D01*
X106965569Y-70524663D01*
X106961244Y-70519240D01*
X106944642Y-70498422D01*
X106943635Y-70497937D01*
X106926153Y-70485532D01*
X106255376Y-69814755D01*
X106236631Y-69769500D01*
X106255376Y-69724245D01*
X106300631Y-69705500D01*
X106611749Y-69705500D01*
X106632887Y-69709092D01*
X106633496Y-69709304D01*
X106633937Y-69709459D01*
X106664489Y-69706017D01*
X106667295Y-69705701D01*
X106670880Y-69705500D01*
X106680690Y-69705500D01*
X106680692Y-69705500D01*
X106690267Y-69703314D01*
X106693775Y-69702717D01*
X106727155Y-69698957D01*
X106728101Y-69698362D01*
X106747907Y-69690158D01*
X106748993Y-69689911D01*
X106775245Y-69668973D01*
X106778150Y-69666912D01*
X106786474Y-69661684D01*
X106793421Y-69654735D01*
X106796085Y-69652354D01*
X106822335Y-69631422D01*
X106822816Y-69630422D01*
X106835221Y-69612935D01*
X107057421Y-69390735D01*
X107102675Y-69371991D01*
X107147930Y-69390736D01*
X107166023Y-69426882D01*
X107172996Y-69475376D01*
X107172997Y-69475380D01*
X107225616Y-69590600D01*
X107225618Y-69590604D01*
X107302172Y-69678951D01*
X107308567Y-69686331D01*
X107415128Y-69754814D01*
X107536666Y-69790500D01*
X107536667Y-69790500D01*
X107663333Y-69790500D01*
X107663334Y-69790500D01*
X107784872Y-69754814D01*
X107891433Y-69686331D01*
X107939012Y-69631422D01*
X107974381Y-69590604D01*
X107974383Y-69590600D01*
X107990870Y-69554500D01*
X108027003Y-69475379D01*
X108045030Y-69350000D01*
X108027003Y-69224621D01*
X107991138Y-69146087D01*
X107989389Y-69097134D01*
X108022767Y-69061284D01*
X108049354Y-69055500D01*
X108431214Y-69055500D01*
X108476469Y-69074245D01*
X108494562Y-69110391D01*
X108496051Y-69120752D01*
X108496717Y-69125381D01*
X108549336Y-69240600D01*
X108549338Y-69240604D01*
X108632285Y-69336329D01*
X108632287Y-69336331D01*
X108738848Y-69404814D01*
X108860386Y-69440500D01*
X108860387Y-69440500D01*
X108987053Y-69440500D01*
X108987054Y-69440500D01*
X109108592Y-69404814D01*
X109215153Y-69336331D01*
X109271202Y-69271647D01*
X109298101Y-69240604D01*
X109298103Y-69240600D01*
X109301078Y-69234087D01*
X109350723Y-69125379D01*
X109368750Y-69000000D01*
X109350723Y-68874621D01*
X109344548Y-68861100D01*
X109298103Y-68759399D01*
X109298101Y-68759395D01*
X109256522Y-68711411D01*
X109241053Y-68664934D01*
X109262979Y-68621132D01*
X109304890Y-68605500D01*
X109538369Y-68605500D01*
X109583624Y-68624245D01*
X109713975Y-68754596D01*
X109732720Y-68799851D01*
X109732720Y-69360732D01*
X109747202Y-69452171D01*
X109747205Y-69452180D01*
X109803358Y-69562386D01*
X109803361Y-69562391D01*
X109890829Y-69649859D01*
X109890833Y-69649861D01*
X109906758Y-69657976D01*
X109938571Y-69695223D01*
X109934727Y-69744055D01*
X109906758Y-69772024D01*
X109890833Y-69780138D01*
X109890832Y-69780138D01*
X109803358Y-69867612D01*
X109803358Y-69867613D01*
X109747205Y-69977819D01*
X109747202Y-69977826D01*
X109732720Y-70069267D01*
X109732720Y-70630732D01*
X109747202Y-70722171D01*
X109747205Y-70722180D01*
X109803358Y-70832386D01*
X109803361Y-70832391D01*
X109890829Y-70919859D01*
X109890833Y-70919861D01*
X109906758Y-70927976D01*
X109938571Y-70965223D01*
X109934727Y-71014055D01*
X109906758Y-71042024D01*
X109890833Y-71050138D01*
X109890832Y-71050138D01*
X109803358Y-71137612D01*
X109803358Y-71137613D01*
X109747205Y-71247819D01*
X109747202Y-71247826D01*
X109737451Y-71309395D01*
X109733130Y-71336681D01*
X109732720Y-71339267D01*
X109732720Y-71900732D01*
X109747202Y-71992171D01*
X109747205Y-71992180D01*
X109763735Y-72024621D01*
X109803361Y-72102391D01*
X109890829Y-72189859D01*
X109890833Y-72189861D01*
X109906758Y-72197976D01*
X109938571Y-72235223D01*
X109934727Y-72284055D01*
X109906758Y-72312024D01*
X109890833Y-72320138D01*
X109890832Y-72320138D01*
X109803358Y-72407612D01*
X109803358Y-72407613D01*
X109747205Y-72517819D01*
X109747202Y-72517826D01*
X109732720Y-72609267D01*
X109732720Y-73170732D01*
X109747202Y-73262171D01*
X109747205Y-73262180D01*
X109803358Y-73372386D01*
X109803361Y-73372391D01*
X109890829Y-73459859D01*
X110001045Y-73516017D01*
X110092485Y-73530500D01*
X111153954Y-73530499D01*
X111245395Y-73516017D01*
X111355607Y-73459861D01*
X111355608Y-73459861D01*
X111355608Y-73459860D01*
X111355611Y-73459859D01*
X111443079Y-73372391D01*
X111499237Y-73262175D01*
X111513720Y-73170735D01*
X111513719Y-72609266D01*
X111499237Y-72517825D01*
X111443079Y-72407609D01*
X111355611Y-72320141D01*
X111339679Y-72312023D01*
X111307868Y-72274775D01*
X111311712Y-72225942D01*
X111339681Y-72197975D01*
X111355611Y-72189859D01*
X111443079Y-72102391D01*
X111499237Y-71992175D01*
X111513720Y-71900735D01*
X111513719Y-71339266D01*
X111499237Y-71247825D01*
X111443079Y-71137609D01*
X111355611Y-71050141D01*
X111339679Y-71042023D01*
X111307868Y-71004775D01*
X111311712Y-70955942D01*
X111339681Y-70927975D01*
X111355611Y-70919859D01*
X111443079Y-70832391D01*
X111499237Y-70722175D01*
X111513720Y-70630735D01*
X111513719Y-70069266D01*
X111499237Y-69977825D01*
X111493059Y-69965701D01*
X111449848Y-69880893D01*
X111443079Y-69867609D01*
X111355611Y-69780141D01*
X111339679Y-69772023D01*
X111307868Y-69734775D01*
X111311712Y-69685942D01*
X111339681Y-69657975D01*
X111355611Y-69649859D01*
X111443079Y-69562391D01*
X111499237Y-69452175D01*
X111513720Y-69360735D01*
X111513719Y-68799266D01*
X111499237Y-68707825D01*
X111443079Y-68597609D01*
X111355611Y-68510141D01*
X111339679Y-68502023D01*
X111307868Y-68464775D01*
X111311712Y-68415942D01*
X111339681Y-68387975D01*
X111355611Y-68379859D01*
X111443079Y-68292391D01*
X111499237Y-68182175D01*
X111513720Y-68090735D01*
X111513719Y-67529266D01*
X111499237Y-67437825D01*
X111443079Y-67327609D01*
X111355611Y-67240141D01*
X111339679Y-67232023D01*
X111307868Y-67194775D01*
X111311712Y-67145942D01*
X111339681Y-67117975D01*
X111355611Y-67109859D01*
X111443079Y-67022391D01*
X111499237Y-66912175D01*
X111513720Y-66820735D01*
X111513719Y-66259266D01*
X111499237Y-66167825D01*
X111443079Y-66057609D01*
X111355611Y-65970141D01*
X111339679Y-65962023D01*
X111307868Y-65924775D01*
X111311712Y-65875942D01*
X111339681Y-65847975D01*
X111355611Y-65839859D01*
X111443079Y-65752391D01*
X111499237Y-65642175D01*
X111513720Y-65550735D01*
X111513719Y-64989266D01*
X111499237Y-64897825D01*
X111443079Y-64787609D01*
X111355611Y-64700141D01*
X111339679Y-64692023D01*
X111307868Y-64654775D01*
X111311712Y-64605942D01*
X111339681Y-64577975D01*
X111355611Y-64569859D01*
X111443079Y-64482391D01*
X111499237Y-64372175D01*
X111513720Y-64280735D01*
X111513719Y-63719266D01*
X111499237Y-63627825D01*
X111487363Y-63604522D01*
X111443081Y-63517613D01*
X111443079Y-63517609D01*
X111355611Y-63430141D01*
X111339679Y-63422023D01*
X111307868Y-63384775D01*
X111311712Y-63335942D01*
X111339681Y-63307975D01*
X111355611Y-63299859D01*
X111443079Y-63212391D01*
X111499237Y-63102175D01*
X111513720Y-63010735D01*
X111513719Y-62449266D01*
X111499237Y-62357825D01*
X111443079Y-62247609D01*
X111355611Y-62160141D01*
X111339679Y-62152023D01*
X111307868Y-62114775D01*
X111311712Y-62065942D01*
X111339681Y-62037975D01*
X111355611Y-62029859D01*
X111443079Y-61942391D01*
X111499237Y-61832175D01*
X111513720Y-61740735D01*
X111513719Y-61179266D01*
X111499237Y-61087825D01*
X111443079Y-60977609D01*
X111355611Y-60890141D01*
X111339679Y-60882023D01*
X111307868Y-60844775D01*
X111311712Y-60795942D01*
X111339681Y-60767975D01*
X111355611Y-60759859D01*
X111443079Y-60672391D01*
X111499237Y-60562175D01*
X111513720Y-60470735D01*
X111513719Y-59909266D01*
X111499237Y-59817825D01*
X111443079Y-59707609D01*
X111355611Y-59620141D01*
X111355608Y-59620139D01*
X111350144Y-59617355D01*
X111318332Y-59580107D01*
X111322176Y-59531275D01*
X111350147Y-59503306D01*
X111361261Y-59497643D01*
X111450862Y-59408042D01*
X111450863Y-59408040D01*
X111508384Y-59295150D01*
X111508385Y-59295146D01*
X111523220Y-59201479D01*
X111523220Y-59020000D01*
X110932681Y-59020000D01*
X110948220Y-58977306D01*
X110948220Y-58862694D01*
X110932681Y-58820000D01*
X111523219Y-58820000D01*
X111523219Y-58638522D01*
X111508385Y-58544855D01*
X111508382Y-58544846D01*
X111450863Y-58431959D01*
X111450862Y-58431958D01*
X111361262Y-58342357D01*
X111361260Y-58342356D01*
X111248370Y-58284835D01*
X111248366Y-58284834D01*
X111154699Y-58270000D01*
X110723220Y-58270000D01*
X110723219Y-58607618D01*
X110651656Y-58595000D01*
X110594784Y-58595000D01*
X110523219Y-58607618D01*
X110523220Y-58270000D01*
X110091742Y-58270000D01*
X109998075Y-58284834D01*
X109998066Y-58284837D01*
X109885179Y-58342356D01*
X109885177Y-58342357D01*
X109795577Y-58431957D01*
X109795576Y-58431959D01*
X109738055Y-58544849D01*
X109738054Y-58544853D01*
X109723220Y-58638520D01*
X109723220Y-58820000D01*
X110313759Y-58820000D01*
X110298220Y-58862694D01*
X110298220Y-58977306D01*
X110313759Y-59020000D01*
X109723221Y-59020000D01*
X109723221Y-59201477D01*
X109738054Y-59295144D01*
X109738057Y-59295153D01*
X109795576Y-59408040D01*
X109795577Y-59408042D01*
X109885176Y-59497641D01*
X109896294Y-59503306D01*
X109928106Y-59540553D01*
X109924264Y-59589386D01*
X109896298Y-59617354D01*
X109890831Y-59620139D01*
X109803358Y-59707612D01*
X109803358Y-59707613D01*
X109747205Y-59817819D01*
X109747202Y-59817826D01*
X109732720Y-59909267D01*
X109732720Y-60470732D01*
X109747202Y-60562171D01*
X109747205Y-60562180D01*
X109803358Y-60672386D01*
X109803361Y-60672391D01*
X109890829Y-60759859D01*
X109890833Y-60759861D01*
X109906758Y-60767976D01*
X109938571Y-60805223D01*
X109934727Y-60854055D01*
X109906758Y-60882024D01*
X109890833Y-60890138D01*
X109890832Y-60890138D01*
X109803358Y-60977612D01*
X109803358Y-60977613D01*
X109747205Y-61087819D01*
X109747202Y-61087826D01*
X109732720Y-61179267D01*
X109732720Y-61190500D01*
X109713975Y-61235755D01*
X109668720Y-61254500D01*
X107085789Y-61254500D01*
X107064651Y-61250908D01*
X107063602Y-61250541D01*
X107063601Y-61250541D01*
X107047885Y-61252311D01*
X107030243Y-61254299D01*
X107026658Y-61254500D01*
X107016845Y-61254500D01*
X107007267Y-61256684D01*
X107003735Y-61257284D01*
X106999580Y-61257752D01*
X106970380Y-61261042D01*
X106970379Y-61261043D01*
X106969428Y-61261641D01*
X106949638Y-61269838D01*
X106948546Y-61270087D01*
X106948545Y-61270087D01*
X106922307Y-61291012D01*
X106919380Y-61293089D01*
X106911062Y-61298316D01*
X106911060Y-61298318D01*
X106904117Y-61305260D01*
X106901443Y-61307650D01*
X106875203Y-61328576D01*
X106875200Y-61328581D01*
X106874715Y-61329588D01*
X106862313Y-61347064D01*
X106486028Y-61723349D01*
X106440773Y-61742094D01*
X106395518Y-61723349D01*
X106376773Y-61678094D01*
X106377422Y-61669003D01*
X106394533Y-61550000D01*
X106376506Y-61424621D01*
X106323886Y-61309399D01*
X106323884Y-61309395D01*
X106240937Y-61213670D01*
X106240935Y-61213668D01*
X106134375Y-61145186D01*
X106134374Y-61145185D01*
X106012837Y-61109500D01*
X105886169Y-61109500D01*
X105764631Y-61145186D01*
X105764629Y-61145186D01*
X105658070Y-61213668D01*
X105658067Y-61213671D01*
X105623118Y-61254004D01*
X105579316Y-61275929D01*
X105532839Y-61260459D01*
X105526383Y-61254003D01*
X105491434Y-61213670D01*
X105491432Y-61213668D01*
X105384872Y-61145186D01*
X105384872Y-61145185D01*
X105263334Y-61109500D01*
X105136666Y-61109500D01*
X105015128Y-61145186D01*
X105015126Y-61145186D01*
X104908567Y-61213668D01*
X104908565Y-61213670D01*
X104873368Y-61254290D01*
X104829565Y-61276216D01*
X104783089Y-61260747D01*
X104776632Y-61254290D01*
X104741434Y-61213670D01*
X104741432Y-61213668D01*
X104634872Y-61145186D01*
X104634872Y-61145185D01*
X104513334Y-61109500D01*
X104386666Y-61109500D01*
X104265128Y-61145186D01*
X104265126Y-61145186D01*
X104158567Y-61213668D01*
X104158565Y-61213670D01*
X104075618Y-61309395D01*
X104075616Y-61309399D01*
X104022997Y-61424618D01*
X104004970Y-61550000D01*
X104022997Y-61675381D01*
X104075616Y-61790600D01*
X104075618Y-61790604D01*
X104158565Y-61886329D01*
X104158567Y-61886331D01*
X104265128Y-61954814D01*
X104386666Y-61990500D01*
X104386667Y-61990500D01*
X104513333Y-61990500D01*
X104513334Y-61990500D01*
X104634872Y-61954814D01*
X104741433Y-61886331D01*
X104776631Y-61845709D01*
X104820434Y-61823783D01*
X104866911Y-61839252D01*
X104873368Y-61845709D01*
X104908567Y-61886331D01*
X105015128Y-61954814D01*
X105136666Y-61990500D01*
X105136667Y-61990500D01*
X105263333Y-61990500D01*
X105263334Y-61990500D01*
X105384872Y-61954814D01*
X105491433Y-61886331D01*
X105526384Y-61845994D01*
X105570184Y-61824069D01*
X105616661Y-61839537D01*
X105623118Y-61845994D01*
X105658070Y-61886331D01*
X105764631Y-61954814D01*
X105886169Y-61990500D01*
X105886170Y-61990500D01*
X106012838Y-61990500D01*
X106046104Y-61980732D01*
X106063933Y-61975497D01*
X106112634Y-61980732D01*
X106143370Y-62018873D01*
X106138135Y-62067575D01*
X106127218Y-62082159D01*
X104707085Y-63502292D01*
X104661830Y-63521037D01*
X104643801Y-63518445D01*
X104624523Y-63512785D01*
X104613334Y-63509500D01*
X104486666Y-63509500D01*
X104365128Y-63545186D01*
X104365126Y-63545186D01*
X104258567Y-63613668D01*
X104258565Y-63613670D01*
X104175618Y-63709395D01*
X104175616Y-63709399D01*
X104122997Y-63824618D01*
X104104970Y-63950000D01*
X104122997Y-64075381D01*
X104175616Y-64190600D01*
X104175618Y-64190604D01*
X104228390Y-64251505D01*
X104258567Y-64286331D01*
X104365128Y-64354814D01*
X104486666Y-64390500D01*
X104486667Y-64390500D01*
X104613333Y-64390500D01*
X104613334Y-64390500D01*
X104734872Y-64354814D01*
X104841433Y-64286331D01*
X104882307Y-64239158D01*
X104926109Y-64217233D01*
X104972586Y-64232702D01*
X104994023Y-64271961D01*
X105009109Y-64376882D01*
X105009110Y-64376885D01*
X105061729Y-64492105D01*
X105061731Y-64492109D01*
X105136136Y-64577976D01*
X105144680Y-64587836D01*
X105251241Y-64656319D01*
X105372779Y-64692005D01*
X105372780Y-64692005D01*
X105499446Y-64692005D01*
X105499447Y-64692005D01*
X105620985Y-64656319D01*
X105727546Y-64587836D01*
X105756990Y-64553854D01*
X105800791Y-64531928D01*
X105847268Y-64547396D01*
X105853726Y-64553854D01*
X105867594Y-64569859D01*
X105874108Y-64577376D01*
X105980669Y-64645859D01*
X106102207Y-64681545D01*
X106102208Y-64681545D01*
X106228874Y-64681545D01*
X106228875Y-64681545D01*
X106350413Y-64645859D01*
X106456974Y-64577376D01*
X106530858Y-64492109D01*
X106539922Y-64481649D01*
X106539924Y-64481645D01*
X106589919Y-64372173D01*
X106592544Y-64366424D01*
X106610571Y-64241045D01*
X106592544Y-64115666D01*
X106561711Y-64048152D01*
X106539924Y-64000444D01*
X106539922Y-64000440D01*
X106456975Y-63904715D01*
X106456973Y-63904713D01*
X106350413Y-63836231D01*
X106310862Y-63824618D01*
X106228875Y-63800545D01*
X106102207Y-63800545D01*
X105980669Y-63836231D01*
X105980667Y-63836231D01*
X105874109Y-63904713D01*
X105844662Y-63938696D01*
X105800860Y-63960621D01*
X105754383Y-63945151D01*
X105747927Y-63938695D01*
X105727547Y-63915175D01*
X105727545Y-63915173D01*
X105620985Y-63846691D01*
X105620985Y-63846690D01*
X105499447Y-63811005D01*
X105372779Y-63811005D01*
X105251241Y-63846691D01*
X105251239Y-63846691D01*
X105144681Y-63915173D01*
X105103805Y-63962346D01*
X105060002Y-63984271D01*
X105013525Y-63968802D01*
X104992088Y-63929544D01*
X104980178Y-63846708D01*
X104992292Y-63799249D01*
X104998265Y-63792354D01*
X107106375Y-61684245D01*
X107151631Y-61665500D01*
X109668721Y-61665500D01*
X109713976Y-61684245D01*
X109732721Y-61729499D01*
X109732721Y-61740734D01*
X109739434Y-61783122D01*
X109747202Y-61832171D01*
X109747205Y-61832180D01*
X109803358Y-61942386D01*
X109803361Y-61942391D01*
X109890829Y-62029859D01*
X109890833Y-62029861D01*
X109906758Y-62037976D01*
X109938571Y-62075223D01*
X109934727Y-62124055D01*
X109906758Y-62152024D01*
X109890833Y-62160138D01*
X109890832Y-62160138D01*
X109803358Y-62247612D01*
X109803358Y-62247613D01*
X109747205Y-62357819D01*
X109747202Y-62357826D01*
X109732720Y-62449267D01*
X109732720Y-63010732D01*
X109747202Y-63102171D01*
X109747205Y-63102180D01*
X109803358Y-63212386D01*
X109803361Y-63212391D01*
X109890829Y-63299859D01*
X109890833Y-63299861D01*
X109906758Y-63307976D01*
X109938571Y-63345223D01*
X109934727Y-63394055D01*
X109906758Y-63422024D01*
X109890833Y-63430138D01*
X109890832Y-63430138D01*
X109803358Y-63517612D01*
X109803358Y-63517613D01*
X109747205Y-63627819D01*
X109747202Y-63627826D01*
X109732720Y-63719267D01*
X109732720Y-64280732D01*
X109747202Y-64372171D01*
X109747205Y-64372180D01*
X109803358Y-64482386D01*
X109803361Y-64482391D01*
X109890829Y-64569859D01*
X109890833Y-64569861D01*
X109906758Y-64577976D01*
X109938571Y-64615223D01*
X109934727Y-64664055D01*
X109906758Y-64692024D01*
X109890833Y-64700138D01*
X109890832Y-64700138D01*
X109803358Y-64787612D01*
X109803358Y-64787613D01*
X109747205Y-64897819D01*
X109747202Y-64897826D01*
X109738830Y-64950686D01*
X109732744Y-64989118D01*
X109732720Y-64989267D01*
X109732720Y-65550732D01*
X109747202Y-65642171D01*
X109747205Y-65642180D01*
X109803198Y-65752072D01*
X109803361Y-65752391D01*
X109890829Y-65839859D01*
X109890833Y-65839861D01*
X109906758Y-65847976D01*
X109938571Y-65885223D01*
X109934727Y-65934055D01*
X109906758Y-65962024D01*
X109890833Y-65970138D01*
X109890832Y-65970138D01*
X109803358Y-66057612D01*
X109803358Y-66057613D01*
X109747205Y-66167819D01*
X109747202Y-66167826D01*
X109732720Y-66259267D01*
X109732720Y-66820732D01*
X109747202Y-66912171D01*
X109747205Y-66912180D01*
X109798376Y-67012608D01*
X109803361Y-67022391D01*
X109890829Y-67109859D01*
X109890833Y-67109861D01*
X109906758Y-67117976D01*
X109938571Y-67155223D01*
X109934727Y-67204055D01*
X109906758Y-67232024D01*
X109890833Y-67240138D01*
X109890832Y-67240138D01*
X109803358Y-67327612D01*
X109803358Y-67327613D01*
X109747205Y-67437819D01*
X109747202Y-67437826D01*
X109732720Y-67529267D01*
X109732720Y-68090731D01*
X109733153Y-68093464D01*
X109737433Y-68120489D01*
X109725999Y-68168118D01*
X109684234Y-68193712D01*
X109674222Y-68194500D01*
X109663343Y-68194500D01*
X109659758Y-68194299D01*
X109647765Y-68192948D01*
X109626400Y-68190541D01*
X109626399Y-68190541D01*
X109626398Y-68190541D01*
X109625350Y-68190908D01*
X109604212Y-68194500D01*
X107435629Y-68194500D01*
X107414491Y-68190908D01*
X107413442Y-68190541D01*
X107413441Y-68190541D01*
X107396511Y-68192448D01*
X107380086Y-68194299D01*
X107376500Y-68194500D01*
X107366686Y-68194500D01*
X107359664Y-68196102D01*
X107357111Y-68196685D01*
X107353574Y-68197286D01*
X107320221Y-68201043D01*
X107320220Y-68201044D01*
X107319272Y-68201640D01*
X107299480Y-68209839D01*
X107298384Y-68210089D01*
X107272138Y-68231018D01*
X107269213Y-68233094D01*
X107260900Y-68238318D01*
X107260899Y-68238319D01*
X107253956Y-68245261D01*
X107251282Y-68247651D01*
X107220010Y-68272591D01*
X107172941Y-68286153D01*
X107130069Y-68262460D01*
X107116756Y-68231664D01*
X107104136Y-68143889D01*
X107113292Y-68100740D01*
X107116919Y-68094966D01*
X107118976Y-68092068D01*
X107139911Y-68065819D01*
X107140158Y-68064733D01*
X107148362Y-68044927D01*
X107148957Y-68043981D01*
X107152249Y-68014760D01*
X107152716Y-68010621D01*
X107153314Y-68007091D01*
X107155500Y-67997518D01*
X107155500Y-67987704D01*
X107155701Y-67984118D01*
X107159459Y-67950762D01*
X107159090Y-67949709D01*
X107155500Y-67928579D01*
X107155500Y-66145787D01*
X107159091Y-66124651D01*
X107159459Y-66123600D01*
X107155701Y-66090245D01*
X107155500Y-66086659D01*
X107155500Y-66076846D01*
X107155499Y-66076842D01*
X107153314Y-66067269D01*
X107152712Y-66063727D01*
X107152327Y-66060306D01*
X107148956Y-66030382D01*
X107148364Y-66029440D01*
X107140157Y-66009623D01*
X107139911Y-66008545D01*
X107139911Y-66008544D01*
X107118979Y-65982297D01*
X107116909Y-65979380D01*
X107111683Y-65971062D01*
X107110759Y-65970138D01*
X107104742Y-65964120D01*
X107102349Y-65961443D01*
X107096738Y-65954407D01*
X107081422Y-65935202D01*
X107080415Y-65934717D01*
X107062933Y-65922312D01*
X106877687Y-65737066D01*
X106865283Y-65719585D01*
X106864798Y-65718578D01*
X106864796Y-65718576D01*
X106838555Y-65697649D01*
X106835878Y-65695256D01*
X106828938Y-65688317D01*
X106828936Y-65688315D01*
X106820620Y-65683090D01*
X106817690Y-65681011D01*
X106791456Y-65660089D01*
X106791454Y-65660088D01*
X106790363Y-65659839D01*
X106770565Y-65651638D01*
X106769616Y-65651042D01*
X106736255Y-65647282D01*
X106732719Y-65646682D01*
X106723155Y-65644500D01*
X106713343Y-65644500D01*
X106709758Y-65644299D01*
X106690948Y-65642180D01*
X106676400Y-65640541D01*
X106676399Y-65640541D01*
X106676398Y-65640541D01*
X106675350Y-65640908D01*
X106654212Y-65644500D01*
X106651866Y-65644500D01*
X106606611Y-65625755D01*
X106587866Y-65580500D01*
X106593650Y-65553914D01*
X106627001Y-65480883D01*
X106627000Y-65480883D01*
X106627003Y-65480879D01*
X106645030Y-65355500D01*
X106627003Y-65230121D01*
X106574383Y-65114899D01*
X106574381Y-65114895D01*
X106491434Y-65019170D01*
X106491432Y-65019168D01*
X106384872Y-64950686D01*
X106299261Y-64925549D01*
X106263334Y-64915000D01*
X106136666Y-64915000D01*
X106015128Y-64950686D01*
X106015126Y-64950686D01*
X105908567Y-65019168D01*
X105908565Y-65019170D01*
X105825618Y-65114895D01*
X105825616Y-65114899D01*
X105772997Y-65230118D01*
X105757452Y-65338235D01*
X105754970Y-65355500D01*
X105768676Y-65450829D01*
X105772998Y-65480883D01*
X105806350Y-65553914D01*
X105808099Y-65602866D01*
X105774720Y-65638716D01*
X105748134Y-65644500D01*
X105161631Y-65644500D01*
X105116376Y-65625755D01*
X103187910Y-63697289D01*
X103175506Y-63679808D01*
X103175021Y-63678801D01*
X103175019Y-63678799D01*
X103148778Y-63657872D01*
X103146101Y-63655479D01*
X103139161Y-63648540D01*
X103139159Y-63648538D01*
X103130843Y-63643313D01*
X103127913Y-63641234D01*
X103111103Y-63627828D01*
X103101679Y-63620312D01*
X103101677Y-63620311D01*
X103100586Y-63620062D01*
X103080788Y-63611861D01*
X103079839Y-63611265D01*
X103046478Y-63607505D01*
X103042942Y-63606905D01*
X103033378Y-63604723D01*
X103023566Y-63604723D01*
X103019981Y-63604522D01*
X103007988Y-63603171D01*
X102986623Y-63600764D01*
X102986622Y-63600764D01*
X102986621Y-63600764D01*
X102985573Y-63601131D01*
X102964435Y-63604723D01*
X102354263Y-63604723D01*
X102309008Y-63585978D01*
X102300093Y-63573135D01*
X102299575Y-63573469D01*
X102297101Y-63569618D01*
X102214154Y-63473893D01*
X102214152Y-63473891D01*
X102107592Y-63405409D01*
X101986054Y-63369723D01*
X101859386Y-63369723D01*
X101737848Y-63405409D01*
X101737846Y-63405409D01*
X101631287Y-63473891D01*
X101631285Y-63473893D01*
X101548338Y-63569618D01*
X101548336Y-63569622D01*
X101495717Y-63684841D01*
X101477690Y-63810223D01*
X101488417Y-63884829D01*
X101476303Y-63932291D01*
X101434176Y-63957286D01*
X101386714Y-63945172D01*
X101379813Y-63939192D01*
X100877687Y-63437066D01*
X100865283Y-63419585D01*
X100864798Y-63418578D01*
X100864796Y-63418576D01*
X100838555Y-63397649D01*
X100835878Y-63395256D01*
X100828938Y-63388317D01*
X100828936Y-63388315D01*
X100820620Y-63383090D01*
X100817693Y-63381013D01*
X100791456Y-63360089D01*
X100791454Y-63360088D01*
X100790363Y-63359839D01*
X100770565Y-63351638D01*
X100769616Y-63351042D01*
X100736255Y-63347282D01*
X100732719Y-63346682D01*
X100723155Y-63344500D01*
X100713343Y-63344500D01*
X100709758Y-63344299D01*
X100697765Y-63342948D01*
X100676400Y-63340541D01*
X100676399Y-63340541D01*
X100676398Y-63340541D01*
X100675350Y-63340908D01*
X100654212Y-63344500D01*
X99631891Y-63344500D01*
X99610753Y-63340908D01*
X99609704Y-63340541D01*
X99609703Y-63340541D01*
X99593987Y-63342311D01*
X99576345Y-63344299D01*
X99572760Y-63344500D01*
X99562947Y-63344500D01*
X99553369Y-63346684D01*
X99549837Y-63347284D01*
X99545682Y-63347752D01*
X99516482Y-63351042D01*
X99516481Y-63351043D01*
X99515530Y-63351641D01*
X99495740Y-63359838D01*
X99494648Y-63360087D01*
X99494647Y-63360087D01*
X99468409Y-63381012D01*
X99465482Y-63383089D01*
X99457164Y-63388316D01*
X99457162Y-63388318D01*
X99450219Y-63395260D01*
X99447545Y-63397650D01*
X99421305Y-63418576D01*
X99421302Y-63418581D01*
X99420817Y-63419588D01*
X99408415Y-63437064D01*
X98922974Y-63922506D01*
X98877719Y-63941251D01*
X98832464Y-63922506D01*
X98813719Y-63877251D01*
X98813719Y-63719267D01*
X98812156Y-63709399D01*
X98799237Y-63627825D01*
X98787363Y-63604522D01*
X98743081Y-63517613D01*
X98743079Y-63517609D01*
X98655611Y-63430141D01*
X98639679Y-63422023D01*
X98607868Y-63384775D01*
X98611712Y-63335942D01*
X98639681Y-63307975D01*
X98655611Y-63299859D01*
X98743079Y-63212391D01*
X98799237Y-63102175D01*
X98813720Y-63010735D01*
X98813719Y-62449266D01*
X98799237Y-62357825D01*
X98743079Y-62247609D01*
X98655611Y-62160141D01*
X98639679Y-62152023D01*
X98607868Y-62114775D01*
X98611712Y-62065942D01*
X98639681Y-62037975D01*
X98655611Y-62029859D01*
X98743079Y-61942391D01*
X98799237Y-61832175D01*
X98813720Y-61740735D01*
X98813719Y-61179266D01*
X98799237Y-61087825D01*
X98743079Y-60977609D01*
X98655611Y-60890141D01*
X98639679Y-60882023D01*
X98607868Y-60844775D01*
X98611712Y-60795942D01*
X98639681Y-60767975D01*
X98655611Y-60759859D01*
X98743079Y-60672391D01*
X98799237Y-60562175D01*
X98813720Y-60470735D01*
X98813719Y-59909266D01*
X98799237Y-59817825D01*
X98743079Y-59707609D01*
X98655611Y-59620141D01*
X98639679Y-59612023D01*
X98607868Y-59574775D01*
X98611712Y-59525942D01*
X98627655Y-59510000D01*
X103354970Y-59510000D01*
X103372997Y-59635381D01*
X103425616Y-59750600D01*
X103425618Y-59750604D01*
X103483867Y-59817826D01*
X103508567Y-59846331D01*
X103615128Y-59914814D01*
X103736666Y-59950500D01*
X103736667Y-59950500D01*
X103863333Y-59950500D01*
X103863334Y-59950500D01*
X103984872Y-59914814D01*
X104091433Y-59846331D01*
X104137062Y-59793671D01*
X104174381Y-59750604D01*
X104174383Y-59750600D01*
X104216784Y-59657756D01*
X104252634Y-59624378D01*
X104301587Y-59626127D01*
X104333216Y-59657756D01*
X104375616Y-59750600D01*
X104375618Y-59750604D01*
X104433867Y-59817826D01*
X104458567Y-59846331D01*
X104565128Y-59914814D01*
X104686666Y-59950500D01*
X104686667Y-59950500D01*
X104813333Y-59950500D01*
X104813334Y-59950500D01*
X104934872Y-59914814D01*
X105041433Y-59846331D01*
X105087062Y-59793671D01*
X105124381Y-59750604D01*
X105124383Y-59750600D01*
X105144017Y-59707609D01*
X105177003Y-59635379D01*
X105195030Y-59510000D01*
X105195030Y-59509999D01*
X107118190Y-59509999D01*
X107136217Y-59635381D01*
X107188836Y-59750600D01*
X107188838Y-59750604D01*
X107247087Y-59817826D01*
X107271787Y-59846331D01*
X107378348Y-59914814D01*
X107499886Y-59950500D01*
X107499887Y-59950500D01*
X107626553Y-59950500D01*
X107626554Y-59950500D01*
X107748092Y-59914814D01*
X107854653Y-59846331D01*
X107900282Y-59793671D01*
X107937601Y-59750604D01*
X107937603Y-59750600D01*
X107957237Y-59707609D01*
X107990223Y-59635379D01*
X108008250Y-59510000D01*
X107990223Y-59384621D01*
X107980003Y-59362243D01*
X107937603Y-59269399D01*
X107937601Y-59269395D01*
X107854654Y-59173670D01*
X107854652Y-59173668D01*
X107748092Y-59105186D01*
X107626554Y-59069500D01*
X107499886Y-59069500D01*
X107378348Y-59105186D01*
X107378346Y-59105186D01*
X107271787Y-59173668D01*
X107271785Y-59173670D01*
X107188838Y-59269395D01*
X107188836Y-59269399D01*
X107136217Y-59384618D01*
X107118190Y-59509999D01*
X105195030Y-59509999D01*
X105177003Y-59384621D01*
X105166783Y-59362243D01*
X105124383Y-59269399D01*
X105124381Y-59269395D01*
X105041434Y-59173670D01*
X105041432Y-59173668D01*
X104950874Y-59115470D01*
X104945252Y-59107372D01*
X104937940Y-59106587D01*
X104934872Y-59105186D01*
X104934872Y-59105185D01*
X104813334Y-59069500D01*
X104686666Y-59069500D01*
X104565128Y-59105186D01*
X104565126Y-59105186D01*
X104458567Y-59173668D01*
X104458565Y-59173670D01*
X104375618Y-59269395D01*
X104375616Y-59269399D01*
X104333216Y-59362243D01*
X104297366Y-59395621D01*
X104248413Y-59393872D01*
X104216784Y-59362243D01*
X104174383Y-59269399D01*
X104174381Y-59269395D01*
X104091434Y-59173670D01*
X104091432Y-59173668D01*
X103984872Y-59105186D01*
X103984872Y-59105185D01*
X103863334Y-59069500D01*
X103736666Y-59069500D01*
X103615128Y-59105186D01*
X103615126Y-59105186D01*
X103508567Y-59173668D01*
X103508565Y-59173670D01*
X103425618Y-59269395D01*
X103425616Y-59269399D01*
X103372997Y-59384618D01*
X103354970Y-59510000D01*
X98627655Y-59510000D01*
X98639681Y-59497975D01*
X98655611Y-59489859D01*
X98743079Y-59402391D01*
X98799237Y-59292175D01*
X98813720Y-59200735D01*
X98813719Y-58639266D01*
X98799581Y-58550000D01*
X99354970Y-58550000D01*
X99372997Y-58675381D01*
X99425616Y-58790600D01*
X99425618Y-58790604D01*
X99500412Y-58876920D01*
X99508567Y-58886331D01*
X99615128Y-58954814D01*
X99736666Y-58990500D01*
X99736667Y-58990500D01*
X99863333Y-58990500D01*
X99863334Y-58990500D01*
X99984872Y-58954814D01*
X100091433Y-58886331D01*
X100148910Y-58819999D01*
X100174381Y-58790604D01*
X100174383Y-58790600D01*
X100190645Y-58754993D01*
X100192223Y-58751538D01*
X100722551Y-58751538D01*
X100740578Y-58876920D01*
X100793197Y-58992139D01*
X100793199Y-58992143D01*
X100860230Y-59069500D01*
X100876148Y-59087870D01*
X100982709Y-59156353D01*
X101104247Y-59192039D01*
X101104248Y-59192039D01*
X101230914Y-59192039D01*
X101230915Y-59192039D01*
X101352453Y-59156353D01*
X101459014Y-59087870D01*
X101504643Y-59035210D01*
X101541962Y-58992143D01*
X101541964Y-58992139D01*
X101559011Y-58954813D01*
X101594584Y-58876918D01*
X101612611Y-58751539D01*
X101594584Y-58626160D01*
X101582637Y-58600000D01*
X104754970Y-58600000D01*
X104772997Y-58725381D01*
X104825616Y-58840600D01*
X104825618Y-58840604D01*
X104908565Y-58936329D01*
X104908567Y-58936331D01*
X104999125Y-58994529D01*
X105004747Y-59002627D01*
X105012063Y-59003414D01*
X105015122Y-59004810D01*
X105015128Y-59004814D01*
X105136666Y-59040500D01*
X105136667Y-59040500D01*
X105263333Y-59040500D01*
X105263334Y-59040500D01*
X105384872Y-59004814D01*
X105491433Y-58936331D01*
X105542914Y-58876918D01*
X105574381Y-58840604D01*
X105574383Y-58840600D01*
X105583792Y-58819999D01*
X105627003Y-58725379D01*
X105645030Y-58600000D01*
X105627003Y-58474621D01*
X105604167Y-58424618D01*
X105574383Y-58359399D01*
X105574381Y-58359395D01*
X105491434Y-58263670D01*
X105491432Y-58263668D01*
X105384872Y-58195186D01*
X105384872Y-58195185D01*
X105263334Y-58159500D01*
X105136666Y-58159500D01*
X105015128Y-58195186D01*
X105015126Y-58195186D01*
X104908567Y-58263668D01*
X104908565Y-58263670D01*
X104825618Y-58359395D01*
X104825616Y-58359399D01*
X104772997Y-58474618D01*
X104754970Y-58600000D01*
X101582637Y-58600000D01*
X101562001Y-58554814D01*
X101541964Y-58510938D01*
X101541962Y-58510934D01*
X101459015Y-58415209D01*
X101459013Y-58415207D01*
X101352453Y-58346725D01*
X101337573Y-58342356D01*
X101230915Y-58311039D01*
X101104247Y-58311039D01*
X100982709Y-58346725D01*
X100982707Y-58346725D01*
X100876148Y-58415207D01*
X100876146Y-58415209D01*
X100793199Y-58510934D01*
X100793197Y-58510938D01*
X100740578Y-58626157D01*
X100722551Y-58751538D01*
X100192223Y-58751538D01*
X100227003Y-58675379D01*
X100245030Y-58550000D01*
X100227003Y-58424621D01*
X100222704Y-58415208D01*
X100174383Y-58309399D01*
X100174381Y-58309395D01*
X100091434Y-58213670D01*
X100091432Y-58213668D01*
X99992363Y-58150000D01*
X102576032Y-58150000D01*
X102594059Y-58275381D01*
X102646678Y-58390600D01*
X102646680Y-58390604D01*
X102719482Y-58474621D01*
X102729629Y-58486331D01*
X102836190Y-58554814D01*
X102957728Y-58590500D01*
X102957729Y-58590500D01*
X103084395Y-58590500D01*
X103084396Y-58590500D01*
X103205934Y-58554814D01*
X103312495Y-58486331D01*
X103374124Y-58415207D01*
X103395443Y-58390604D01*
X103395445Y-58390600D01*
X103413924Y-58350138D01*
X103448065Y-58275379D01*
X103466092Y-58150000D01*
X103448065Y-58024621D01*
X103395445Y-57909399D01*
X103395443Y-57909395D01*
X103312496Y-57813670D01*
X103312494Y-57813668D01*
X103205934Y-57745186D01*
X103139620Y-57725715D01*
X103084396Y-57709500D01*
X102957728Y-57709500D01*
X102836190Y-57745186D01*
X102836188Y-57745186D01*
X102729629Y-57813668D01*
X102729627Y-57813670D01*
X102646680Y-57909395D01*
X102646678Y-57909399D01*
X102594059Y-58024618D01*
X102576032Y-58150000D01*
X99992363Y-58150000D01*
X99984872Y-58145186D01*
X99984872Y-58145185D01*
X99863334Y-58109500D01*
X99736666Y-58109500D01*
X99615128Y-58145186D01*
X99615126Y-58145186D01*
X99508567Y-58213668D01*
X99508565Y-58213670D01*
X99425618Y-58309395D01*
X99425616Y-58309399D01*
X99372997Y-58424618D01*
X99354970Y-58550000D01*
X98799581Y-58550000D01*
X98799237Y-58547825D01*
X98743079Y-58437609D01*
X98655611Y-58350141D01*
X98655608Y-58350139D01*
X98655606Y-58350138D01*
X98545400Y-58293985D01*
X98545393Y-58293982D01*
X98491460Y-58285440D01*
X98453955Y-58279500D01*
X98453952Y-58279500D01*
X97392487Y-58279500D01*
X97301048Y-58293982D01*
X97301039Y-58293985D01*
X97190833Y-58350138D01*
X97190832Y-58350138D01*
X97103358Y-58437612D01*
X97103358Y-58437613D01*
X97047205Y-58547819D01*
X97047202Y-58547826D01*
X97032720Y-58639267D01*
X97032720Y-59200732D01*
X97047202Y-59292171D01*
X97047205Y-59292180D01*
X97103358Y-59402386D01*
X97103361Y-59402391D01*
X97190829Y-59489859D01*
X97190833Y-59489861D01*
X97206758Y-59497976D01*
X97238571Y-59535223D01*
X97234727Y-59584055D01*
X97206758Y-59612024D01*
X97190833Y-59620138D01*
X97190832Y-59620138D01*
X97103358Y-59707612D01*
X97103358Y-59707613D01*
X97047205Y-59817819D01*
X97047202Y-59817826D01*
X97032720Y-59909267D01*
X97032720Y-60470732D01*
X97047202Y-60562171D01*
X97047205Y-60562180D01*
X97103358Y-60672386D01*
X97103361Y-60672391D01*
X97190829Y-60759859D01*
X97190833Y-60759861D01*
X97206758Y-60767976D01*
X97238571Y-60805223D01*
X97234727Y-60854055D01*
X97206758Y-60882024D01*
X97190833Y-60890138D01*
X97190832Y-60890138D01*
X97103358Y-60977612D01*
X97103358Y-60977613D01*
X97047205Y-61087819D01*
X97047202Y-61087826D01*
X97032720Y-61179267D01*
X97032720Y-61740732D01*
X97047202Y-61832171D01*
X97047205Y-61832180D01*
X97103358Y-61942386D01*
X97103361Y-61942391D01*
X97190829Y-62029859D01*
X97190833Y-62029861D01*
X97206758Y-62037976D01*
X97238571Y-62075223D01*
X97234727Y-62124055D01*
X97206758Y-62152024D01*
X97190833Y-62160138D01*
X97190832Y-62160138D01*
X97103358Y-62247612D01*
X97103358Y-62247613D01*
X97047205Y-62357819D01*
X97047202Y-62357826D01*
X97032720Y-62449267D01*
X97032720Y-63010732D01*
X97047202Y-63102171D01*
X97047205Y-63102180D01*
X97103358Y-63212386D01*
X97103361Y-63212391D01*
X97190829Y-63299859D01*
X97190833Y-63299861D01*
X97206758Y-63307976D01*
X97238571Y-63345223D01*
X97234727Y-63394055D01*
X97206758Y-63422024D01*
X97190833Y-63430138D01*
X97190832Y-63430138D01*
X97103358Y-63517612D01*
X97103358Y-63517613D01*
X97047205Y-63627819D01*
X97047202Y-63627826D01*
X97032720Y-63719267D01*
X97032720Y-64280732D01*
X97047202Y-64372171D01*
X97047205Y-64372180D01*
X97103358Y-64482386D01*
X97103361Y-64482391D01*
X97190829Y-64569859D01*
X97190833Y-64569861D01*
X97206758Y-64577976D01*
X97238571Y-64615223D01*
X97234727Y-64664055D01*
X97206758Y-64692024D01*
X97190833Y-64700138D01*
X97190832Y-64700138D01*
X97103358Y-64787612D01*
X97103358Y-64787613D01*
X97047205Y-64897819D01*
X97047202Y-64897826D01*
X97038830Y-64950686D01*
X97032744Y-64989118D01*
X97032720Y-64989267D01*
X97032720Y-65550732D01*
X97047202Y-65642171D01*
X97047205Y-65642180D01*
X97103198Y-65752072D01*
X97103361Y-65752391D01*
X97190829Y-65839859D01*
X97190831Y-65839860D01*
X97190832Y-65839861D01*
X97206758Y-65847976D01*
X97238571Y-65885223D01*
X97234727Y-65934055D01*
X97206758Y-65962024D01*
X97190833Y-65970138D01*
X97190832Y-65970138D01*
X97103358Y-66057612D01*
X97103358Y-66057613D01*
X97047205Y-66167819D01*
X97047202Y-66167826D01*
X97032720Y-66259267D01*
X97032720Y-66820732D01*
X97047202Y-66912171D01*
X97047205Y-66912180D01*
X97098376Y-67012608D01*
X97103361Y-67022391D01*
X97190829Y-67109859D01*
X97190831Y-67109860D01*
X97190832Y-67109861D01*
X97206758Y-67117976D01*
X97238571Y-67155223D01*
X97234727Y-67204055D01*
X97206758Y-67232024D01*
X97190833Y-67240138D01*
X97190832Y-67240138D01*
X97103358Y-67327612D01*
X97103358Y-67327613D01*
X97047205Y-67437819D01*
X97047202Y-67437826D01*
X97032720Y-67529267D01*
X97032720Y-68090732D01*
X97047202Y-68182171D01*
X97047205Y-68182180D01*
X97103358Y-68292386D01*
X97103361Y-68292391D01*
X97190829Y-68379859D01*
X97190831Y-68379860D01*
X97190832Y-68379861D01*
X97206758Y-68387976D01*
X97238571Y-68425223D01*
X97234727Y-68474055D01*
X97206758Y-68502024D01*
X97190833Y-68510138D01*
X97190832Y-68510138D01*
X97103358Y-68597612D01*
X97103358Y-68597613D01*
X97047205Y-68707819D01*
X97047202Y-68707826D01*
X97032720Y-68799267D01*
X97032720Y-69360732D01*
X97047202Y-69452171D01*
X97047205Y-69452180D01*
X97103358Y-69562386D01*
X97103361Y-69562391D01*
X97190829Y-69649859D01*
X97190831Y-69649860D01*
X97190832Y-69649861D01*
X97206758Y-69657976D01*
X97238571Y-69695223D01*
X97234727Y-69744055D01*
X97206758Y-69772024D01*
X97190833Y-69780138D01*
X97190832Y-69780138D01*
X97103358Y-69867612D01*
X97103358Y-69867613D01*
X97047205Y-69977819D01*
X97047202Y-69977826D01*
X97032720Y-70069267D01*
X97032720Y-70630732D01*
X97047202Y-70722171D01*
X97047205Y-70722180D01*
X97103358Y-70832386D01*
X97103361Y-70832391D01*
X97190829Y-70919859D01*
X97190831Y-70919860D01*
X97190832Y-70919861D01*
X97206758Y-70927976D01*
X97238571Y-70965223D01*
X97234727Y-71014055D01*
X97206758Y-71042024D01*
X97190833Y-71050138D01*
X97190832Y-71050138D01*
X97103358Y-71137612D01*
X97103358Y-71137613D01*
X97047205Y-71247819D01*
X97047202Y-71247826D01*
X97037451Y-71309395D01*
X97033130Y-71336681D01*
X97032720Y-71339267D01*
X97032720Y-71900732D01*
X97047202Y-71992171D01*
X97047205Y-71992180D01*
X97063735Y-72024621D01*
X97103361Y-72102391D01*
X97190829Y-72189859D01*
X97190831Y-72189860D01*
X97190832Y-72189861D01*
X97206758Y-72197976D01*
X97238571Y-72235223D01*
X97234727Y-72284055D01*
X97206758Y-72312024D01*
X97190833Y-72320138D01*
X97190832Y-72320138D01*
X97103358Y-72407612D01*
X97103358Y-72407613D01*
X97047205Y-72517819D01*
X97047202Y-72517826D01*
X97032720Y-72609267D01*
X97032720Y-73170732D01*
X95773720Y-73170732D01*
X95773720Y-51614500D01*
X95792465Y-51569245D01*
X95837720Y-51550500D01*
X97903406Y-51550500D01*
X97987410Y-51550500D01*
X98032665Y-51569245D01*
G37*
%TD.AperFunction*%
%TD*%
M02*
