%TF.GenerationSoftware,KiCad,Pcbnew,7.0.6*%
%TF.CreationDate,2023-08-08T22:31:42+02:00*%
%TF.ProjectId,epi_JLC,6570695f-4a4c-4432-9e6b-696361645f70,1_2_0*%
%TF.SameCoordinates,Original*%
%TF.FileFunction,Legend,Top*%
%TF.FilePolarity,Positive*%
%FSLAX46Y46*%
G04 Gerber Fmt 4.6, Leading zero omitted, Abs format (unit mm)*
G04 Created by KiCad (PCBNEW 7.0.6) date 2023-08-08 22:31:42*
%MOMM*%
%LPD*%
G01*
G04 APERTURE LIST*
%ADD10C,0.120000*%
%ADD11C,0.460000*%
%ADD12C,0.150000*%
G04 APERTURE END LIST*
D10*
%TO.C,C8*%
X100030000Y-65446359D02*
X100030000Y-65753641D01*
X99270000Y-65446359D02*
X99270000Y-65753641D01*
%TO.C,C9*%
X100034422Y-63546359D02*
X100034422Y-63853641D01*
X99274422Y-63546359D02*
X99274422Y-63853641D01*
%TO.C,RV1*%
X106063220Y-58846359D02*
X106063220Y-59153641D01*
X105303220Y-58846359D02*
X105303220Y-59153641D01*
%TO.C,C1*%
X100180000Y-58876359D02*
X100180000Y-59183641D01*
X99420000Y-58876359D02*
X99420000Y-59183641D01*
%TO.C,R4*%
X101543220Y-59153641D02*
X101543220Y-58846359D01*
X102303220Y-59153641D02*
X102303220Y-58846359D01*
%TO.C,R3*%
X100156359Y-60020000D02*
X100463641Y-60020000D01*
X100156359Y-60780000D02*
X100463641Y-60780000D01*
%TO.C,U1*%
X100663220Y-69860000D02*
X100663220Y-69135000D01*
X101388220Y-69860000D02*
X100663220Y-69860000D01*
X107158220Y-62640000D02*
X107883220Y-62640000D01*
X107158220Y-69860000D02*
X107883220Y-69860000D01*
X107883220Y-62640000D02*
X107883220Y-63365000D01*
X107883220Y-69860000D02*
X107883220Y-69135000D01*
D11*
X101103220Y-62850000D02*
G75*
G03*
X101103220Y-62850000I-230000J0D01*
G01*
%TO.C,D1*%
D12*
X107375000Y-70650000D02*
G75*
G03*
X107375000Y-70650000I-75000J0D01*
G01*
D10*
%TO.C,R2*%
X105130000Y-58846359D02*
X105130000Y-59153641D01*
X104370000Y-58846359D02*
X104370000Y-59153641D01*
%TO.C,R6*%
X99820000Y-71553641D02*
X99820000Y-71246359D01*
X100580000Y-71553641D02*
X100580000Y-71246359D01*
%TO.C,R7*%
X108520000Y-63403641D02*
X108520000Y-63096359D01*
X109280000Y-63403641D02*
X109280000Y-63096359D01*
%TO.C,RV3*%
X100603220Y-59153641D02*
X100603220Y-58846359D01*
X101363220Y-59153641D02*
X101363220Y-58846359D01*
%TO.C,R1*%
X104180000Y-58846359D02*
X104180000Y-59153641D01*
X103420000Y-58846359D02*
X103420000Y-59153641D01*
%TO.C,RV2*%
X103243220Y-58846359D02*
X103243220Y-59153641D01*
X102483220Y-58846359D02*
X102483220Y-59153641D01*
%TO.C,C6*%
X101700781Y-71920000D02*
X102008063Y-71920000D01*
X101700781Y-72680000D02*
X102008063Y-72680000D01*
%TO.C,C7*%
X108880000Y-58846359D02*
X108880000Y-59153641D01*
X108120000Y-58846359D02*
X108120000Y-59153641D01*
%TO.C,C4*%
X100030000Y-67696359D02*
X100030000Y-68003641D01*
X99270000Y-67696359D02*
X99270000Y-68003641D01*
%TO.C,C2*%
X103133641Y-61880000D02*
X102826359Y-61880000D01*
X103133641Y-61120000D02*
X102826359Y-61120000D01*
%TO.C,R9*%
X100946359Y-61120000D02*
X101253641Y-61120000D01*
X100946359Y-61880000D02*
X101253641Y-61880000D01*
%TO.C,R8*%
X108630000Y-71546359D02*
X108630000Y-71853641D01*
X107870000Y-71546359D02*
X107870000Y-71853641D01*
%TO.C,FB1*%
X107183220Y-59153641D02*
X107183220Y-58846359D01*
X107943220Y-59153641D02*
X107943220Y-58846359D01*
%TO.C,C3*%
X101500781Y-70620000D02*
X101808063Y-70620000D01*
X101500781Y-71380000D02*
X101808063Y-71380000D01*
%TO.C,C5*%
X105774422Y-71793641D02*
X105774422Y-71486359D01*
X106534422Y-71793641D02*
X106534422Y-71486359D01*
%TO.C,C10*%
X107346359Y-61270000D02*
X107653641Y-61270000D01*
X107346359Y-62030000D02*
X107653641Y-62030000D01*
%TO.C,R5*%
X107003220Y-58846359D02*
X107003220Y-59153641D01*
X106243220Y-58846359D02*
X106243220Y-59153641D01*
%TO.C,F1*%
X108103641Y-60980000D02*
X107796359Y-60980000D01*
X108103641Y-60220000D02*
X107796359Y-60220000D01*
%TO.C,D2*%
X104850000Y-59997500D02*
X104850000Y-61247500D01*
X104850000Y-60622500D02*
X105650000Y-60100000D01*
X105650000Y-60100000D02*
X105650000Y-61100000D01*
X105650000Y-61100000D02*
X104850000Y-60622500D01*
%TD*%
M02*
