%TF.GenerationSoftware,KiCad,Pcbnew,7.0.6*%
%TF.CreationDate,2023-08-08T22:31:44+02:00*%
%TF.ProjectId,epi_JLC,6570695f-4a4c-4432-9e6b-696361645f70,1_2_0*%
%TF.SameCoordinates,Original*%
%TF.FileFunction,Drillmap*%
%TF.FilePolarity,Positive*%
%FSLAX45Y45*%
G04 Gerber Fmt 4.5, Leading zero omitted, Abs format (unit mm)*
G04 Created by KiCad (PCBNEW 7.0.6) date 2023-08-08 22:31:44*
%MOMM*%
%LPD*%
G01*
G04 APERTURE LIST*
%ADD10C,0.100000*%
%ADD11C,0.010000*%
%ADD12C,0.200000*%
G04 APERTURE END LIST*
D10*
X9562322Y-5140000D02*
X9792322Y-5140000D01*
X9562322Y-7640000D02*
X9562322Y-5140000D01*
X11262322Y-7640000D02*
X9562322Y-7640000D01*
X11262322Y-5140000D02*
X11262322Y-7640000D01*
X11162322Y-5140000D02*
X11262322Y-5140000D01*
X11062322Y-5140000D02*
X11162322Y-5140000D01*
D11*
X10875442Y-5590000D02*
X10875442Y-5140000D01*
X10785442Y-5680000D02*
X10069048Y-5680000D01*
X9979050Y-5590000D02*
G75*
G03*
X10069048Y-5680000I90000J0D01*
G01*
X9979048Y-5590000D02*
X9979048Y-5140000D01*
X10875442Y-5140000D02*
X11062322Y-5140000D01*
X10785442Y-5680002D02*
G75*
G03*
X10875442Y-5590000I-2J90002D01*
G01*
X9792322Y-5140000D02*
X9979048Y-5140000D01*
D12*
D10*
X9964048Y-5595000D02*
X10064048Y-5695000D01*
X10064048Y-5595000D02*
X9964048Y-5695000D01*
X10790442Y-5595000D02*
X10890442Y-5695000D01*
X10890442Y-5595000D02*
X10790442Y-5695000D01*
D12*
X9892500Y-5465000D02*
G75*
G03*
X9892500Y-5465000I-100000J0D01*
G01*
X11162500Y-5465000D02*
G75*
G03*
X11162500Y-5465000I-100000J0D01*
G01*
X9818099Y-7956484D02*
X9818099Y-7756484D01*
X9818099Y-7756484D02*
X9865718Y-7756484D01*
X9865718Y-7756484D02*
X9894289Y-7766008D01*
X9894289Y-7766008D02*
X9913337Y-7785055D01*
X9913337Y-7785055D02*
X9922861Y-7804103D01*
X9922861Y-7804103D02*
X9932385Y-7842198D01*
X9932385Y-7842198D02*
X9932385Y-7870769D01*
X9932385Y-7870769D02*
X9922861Y-7908865D01*
X9922861Y-7908865D02*
X9913337Y-7927912D01*
X9913337Y-7927912D02*
X9894289Y-7946960D01*
X9894289Y-7946960D02*
X9865718Y-7956484D01*
X9865718Y-7956484D02*
X9818099Y-7956484D01*
X10018099Y-7956484D02*
X10018099Y-7823150D01*
X10018099Y-7861246D02*
X10027623Y-7842198D01*
X10027623Y-7842198D02*
X10037146Y-7832674D01*
X10037146Y-7832674D02*
X10056194Y-7823150D01*
X10056194Y-7823150D02*
X10075242Y-7823150D01*
X10141908Y-7956484D02*
X10141908Y-7823150D01*
X10141908Y-7756484D02*
X10132385Y-7766008D01*
X10132385Y-7766008D02*
X10141908Y-7775531D01*
X10141908Y-7775531D02*
X10151432Y-7766008D01*
X10151432Y-7766008D02*
X10141908Y-7756484D01*
X10141908Y-7756484D02*
X10141908Y-7775531D01*
X10265718Y-7956484D02*
X10246670Y-7946960D01*
X10246670Y-7946960D02*
X10237146Y-7927912D01*
X10237146Y-7927912D02*
X10237146Y-7756484D01*
X10370480Y-7956484D02*
X10351432Y-7946960D01*
X10351432Y-7946960D02*
X10341908Y-7927912D01*
X10341908Y-7927912D02*
X10341908Y-7756484D01*
X10599051Y-7956484D02*
X10599051Y-7756484D01*
X10599051Y-7756484D02*
X10665718Y-7899341D01*
X10665718Y-7899341D02*
X10732385Y-7756484D01*
X10732385Y-7756484D02*
X10732385Y-7956484D01*
X10913337Y-7956484D02*
X10913337Y-7851722D01*
X10913337Y-7851722D02*
X10903813Y-7832674D01*
X10903813Y-7832674D02*
X10884766Y-7823150D01*
X10884766Y-7823150D02*
X10846670Y-7823150D01*
X10846670Y-7823150D02*
X10827623Y-7832674D01*
X10913337Y-7946960D02*
X10894289Y-7956484D01*
X10894289Y-7956484D02*
X10846670Y-7956484D01*
X10846670Y-7956484D02*
X10827623Y-7946960D01*
X10827623Y-7946960D02*
X10818099Y-7927912D01*
X10818099Y-7927912D02*
X10818099Y-7908865D01*
X10818099Y-7908865D02*
X10827623Y-7889817D01*
X10827623Y-7889817D02*
X10846670Y-7880293D01*
X10846670Y-7880293D02*
X10894289Y-7880293D01*
X10894289Y-7880293D02*
X10913337Y-7870769D01*
X11008575Y-7823150D02*
X11008575Y-8023150D01*
X11008575Y-7832674D02*
X11027623Y-7823150D01*
X11027623Y-7823150D02*
X11065718Y-7823150D01*
X11065718Y-7823150D02*
X11084766Y-7832674D01*
X11084766Y-7832674D02*
X11094289Y-7842198D01*
X11094289Y-7842198D02*
X11103813Y-7861246D01*
X11103813Y-7861246D02*
X11103813Y-7918388D01*
X11103813Y-7918388D02*
X11094289Y-7937436D01*
X11094289Y-7937436D02*
X11084766Y-7946960D01*
X11084766Y-7946960D02*
X11065718Y-7956484D01*
X11065718Y-7956484D02*
X11027623Y-7956484D01*
X11027623Y-7956484D02*
X11008575Y-7946960D01*
X11189527Y-7937436D02*
X11199051Y-7946960D01*
X11199051Y-7946960D02*
X11189527Y-7956484D01*
X11189527Y-7956484D02*
X11180004Y-7946960D01*
X11180004Y-7946960D02*
X11189527Y-7937436D01*
X11189527Y-7937436D02*
X11189527Y-7956484D01*
X11189527Y-7832674D02*
X11199051Y-7842198D01*
X11199051Y-7842198D02*
X11189527Y-7851722D01*
X11189527Y-7851722D02*
X11180004Y-7842198D01*
X11180004Y-7842198D02*
X11189527Y-7832674D01*
X11189527Y-7832674D02*
X11189527Y-7851722D01*
D10*
X9457322Y-8235000D02*
X9557322Y-8335000D01*
X9557322Y-8235000D02*
X9457322Y-8335000D01*
D12*
X9922861Y-8376484D02*
X9808575Y-8376484D01*
X9865718Y-8376484D02*
X9865718Y-8176484D01*
X9865718Y-8176484D02*
X9846670Y-8205055D01*
X9846670Y-8205055D02*
X9827623Y-8224103D01*
X9827623Y-8224103D02*
X9808575Y-8233627D01*
X10008575Y-8357436D02*
X10018099Y-8366960D01*
X10018099Y-8366960D02*
X10008575Y-8376484D01*
X10008575Y-8376484D02*
X9999051Y-8366960D01*
X9999051Y-8366960D02*
X10008575Y-8357436D01*
X10008575Y-8357436D02*
X10008575Y-8376484D01*
X10141908Y-8176484D02*
X10160956Y-8176484D01*
X10160956Y-8176484D02*
X10180004Y-8186008D01*
X10180004Y-8186008D02*
X10189527Y-8195531D01*
X10189527Y-8195531D02*
X10199051Y-8214579D01*
X10199051Y-8214579D02*
X10208575Y-8252674D01*
X10208575Y-8252674D02*
X10208575Y-8300293D01*
X10208575Y-8300293D02*
X10199051Y-8338388D01*
X10199051Y-8338388D02*
X10189527Y-8357436D01*
X10189527Y-8357436D02*
X10180004Y-8366960D01*
X10180004Y-8366960D02*
X10160956Y-8376484D01*
X10160956Y-8376484D02*
X10141908Y-8376484D01*
X10141908Y-8376484D02*
X10122861Y-8366960D01*
X10122861Y-8366960D02*
X10113337Y-8357436D01*
X10113337Y-8357436D02*
X10103813Y-8338388D01*
X10103813Y-8338388D02*
X10094289Y-8300293D01*
X10094289Y-8300293D02*
X10094289Y-8252674D01*
X10094289Y-8252674D02*
X10103813Y-8214579D01*
X10103813Y-8214579D02*
X10113337Y-8195531D01*
X10113337Y-8195531D02*
X10122861Y-8186008D01*
X10122861Y-8186008D02*
X10141908Y-8176484D01*
X10332385Y-8176484D02*
X10351432Y-8176484D01*
X10351432Y-8176484D02*
X10370480Y-8186008D01*
X10370480Y-8186008D02*
X10380004Y-8195531D01*
X10380004Y-8195531D02*
X10389527Y-8214579D01*
X10389527Y-8214579D02*
X10399051Y-8252674D01*
X10399051Y-8252674D02*
X10399051Y-8300293D01*
X10399051Y-8300293D02*
X10389527Y-8338388D01*
X10389527Y-8338388D02*
X10380004Y-8357436D01*
X10380004Y-8357436D02*
X10370480Y-8366960D01*
X10370480Y-8366960D02*
X10351432Y-8376484D01*
X10351432Y-8376484D02*
X10332385Y-8376484D01*
X10332385Y-8376484D02*
X10313337Y-8366960D01*
X10313337Y-8366960D02*
X10303813Y-8357436D01*
X10303813Y-8357436D02*
X10294289Y-8338388D01*
X10294289Y-8338388D02*
X10284766Y-8300293D01*
X10284766Y-8300293D02*
X10284766Y-8252674D01*
X10284766Y-8252674D02*
X10294289Y-8214579D01*
X10294289Y-8214579D02*
X10303813Y-8195531D01*
X10303813Y-8195531D02*
X10313337Y-8186008D01*
X10313337Y-8186008D02*
X10332385Y-8176484D01*
X10522861Y-8176484D02*
X10541908Y-8176484D01*
X10541908Y-8176484D02*
X10560956Y-8186008D01*
X10560956Y-8186008D02*
X10570480Y-8195531D01*
X10570480Y-8195531D02*
X10580004Y-8214579D01*
X10580004Y-8214579D02*
X10589527Y-8252674D01*
X10589527Y-8252674D02*
X10589527Y-8300293D01*
X10589527Y-8300293D02*
X10580004Y-8338388D01*
X10580004Y-8338388D02*
X10570480Y-8357436D01*
X10570480Y-8357436D02*
X10560956Y-8366960D01*
X10560956Y-8366960D02*
X10541908Y-8376484D01*
X10541908Y-8376484D02*
X10522861Y-8376484D01*
X10522861Y-8376484D02*
X10503813Y-8366960D01*
X10503813Y-8366960D02*
X10494289Y-8357436D01*
X10494289Y-8357436D02*
X10484766Y-8338388D01*
X10484766Y-8338388D02*
X10475242Y-8300293D01*
X10475242Y-8300293D02*
X10475242Y-8252674D01*
X10475242Y-8252674D02*
X10484766Y-8214579D01*
X10484766Y-8214579D02*
X10494289Y-8195531D01*
X10494289Y-8195531D02*
X10503813Y-8186008D01*
X10503813Y-8186008D02*
X10522861Y-8176484D01*
X10675242Y-8376484D02*
X10675242Y-8243150D01*
X10675242Y-8262198D02*
X10684766Y-8252674D01*
X10684766Y-8252674D02*
X10703813Y-8243150D01*
X10703813Y-8243150D02*
X10732385Y-8243150D01*
X10732385Y-8243150D02*
X10751432Y-8252674D01*
X10751432Y-8252674D02*
X10760956Y-8271722D01*
X10760956Y-8271722D02*
X10760956Y-8376484D01*
X10760956Y-8271722D02*
X10770480Y-8252674D01*
X10770480Y-8252674D02*
X10789527Y-8243150D01*
X10789527Y-8243150D02*
X10818099Y-8243150D01*
X10818099Y-8243150D02*
X10837147Y-8252674D01*
X10837147Y-8252674D02*
X10846670Y-8271722D01*
X10846670Y-8271722D02*
X10846670Y-8376484D01*
X10941908Y-8376484D02*
X10941908Y-8243150D01*
X10941908Y-8262198D02*
X10951432Y-8252674D01*
X10951432Y-8252674D02*
X10970480Y-8243150D01*
X10970480Y-8243150D02*
X10999051Y-8243150D01*
X10999051Y-8243150D02*
X11018099Y-8252674D01*
X11018099Y-8252674D02*
X11027623Y-8271722D01*
X11027623Y-8271722D02*
X11027623Y-8376484D01*
X11027623Y-8271722D02*
X11037147Y-8252674D01*
X11037147Y-8252674D02*
X11056194Y-8243150D01*
X11056194Y-8243150D02*
X11084766Y-8243150D01*
X11084766Y-8243150D02*
X11103813Y-8252674D01*
X11103813Y-8252674D02*
X11113337Y-8271722D01*
X11113337Y-8271722D02*
X11113337Y-8376484D01*
X11503813Y-8166960D02*
X11332385Y-8424103D01*
X11760956Y-8176484D02*
X11780004Y-8176484D01*
X11780004Y-8176484D02*
X11799051Y-8186008D01*
X11799051Y-8186008D02*
X11808575Y-8195531D01*
X11808575Y-8195531D02*
X11818099Y-8214579D01*
X11818099Y-8214579D02*
X11827623Y-8252674D01*
X11827623Y-8252674D02*
X11827623Y-8300293D01*
X11827623Y-8300293D02*
X11818099Y-8338388D01*
X11818099Y-8338388D02*
X11808575Y-8357436D01*
X11808575Y-8357436D02*
X11799051Y-8366960D01*
X11799051Y-8366960D02*
X11780004Y-8376484D01*
X11780004Y-8376484D02*
X11760956Y-8376484D01*
X11760956Y-8376484D02*
X11741908Y-8366960D01*
X11741908Y-8366960D02*
X11732385Y-8357436D01*
X11732385Y-8357436D02*
X11722861Y-8338388D01*
X11722861Y-8338388D02*
X11713337Y-8300293D01*
X11713337Y-8300293D02*
X11713337Y-8252674D01*
X11713337Y-8252674D02*
X11722861Y-8214579D01*
X11722861Y-8214579D02*
X11732385Y-8195531D01*
X11732385Y-8195531D02*
X11741908Y-8186008D01*
X11741908Y-8186008D02*
X11760956Y-8176484D01*
X11913337Y-8357436D02*
X11922861Y-8366960D01*
X11922861Y-8366960D02*
X11913337Y-8376484D01*
X11913337Y-8376484D02*
X11903813Y-8366960D01*
X11903813Y-8366960D02*
X11913337Y-8357436D01*
X11913337Y-8357436D02*
X11913337Y-8376484D01*
X12046670Y-8176484D02*
X12065718Y-8176484D01*
X12065718Y-8176484D02*
X12084766Y-8186008D01*
X12084766Y-8186008D02*
X12094289Y-8195531D01*
X12094289Y-8195531D02*
X12103813Y-8214579D01*
X12103813Y-8214579D02*
X12113337Y-8252674D01*
X12113337Y-8252674D02*
X12113337Y-8300293D01*
X12113337Y-8300293D02*
X12103813Y-8338388D01*
X12103813Y-8338388D02*
X12094289Y-8357436D01*
X12094289Y-8357436D02*
X12084766Y-8366960D01*
X12084766Y-8366960D02*
X12065718Y-8376484D01*
X12065718Y-8376484D02*
X12046670Y-8376484D01*
X12046670Y-8376484D02*
X12027623Y-8366960D01*
X12027623Y-8366960D02*
X12018099Y-8357436D01*
X12018099Y-8357436D02*
X12008575Y-8338388D01*
X12008575Y-8338388D02*
X11999051Y-8300293D01*
X11999051Y-8300293D02*
X11999051Y-8252674D01*
X11999051Y-8252674D02*
X12008575Y-8214579D01*
X12008575Y-8214579D02*
X12018099Y-8195531D01*
X12018099Y-8195531D02*
X12027623Y-8186008D01*
X12027623Y-8186008D02*
X12046670Y-8176484D01*
X12180004Y-8176484D02*
X12303813Y-8176484D01*
X12303813Y-8176484D02*
X12237147Y-8252674D01*
X12237147Y-8252674D02*
X12265718Y-8252674D01*
X12265718Y-8252674D02*
X12284766Y-8262198D01*
X12284766Y-8262198D02*
X12294289Y-8271722D01*
X12294289Y-8271722D02*
X12303813Y-8290769D01*
X12303813Y-8290769D02*
X12303813Y-8338388D01*
X12303813Y-8338388D02*
X12294289Y-8357436D01*
X12294289Y-8357436D02*
X12284766Y-8366960D01*
X12284766Y-8366960D02*
X12265718Y-8376484D01*
X12265718Y-8376484D02*
X12208575Y-8376484D01*
X12208575Y-8376484D02*
X12189528Y-8366960D01*
X12189528Y-8366960D02*
X12180004Y-8357436D01*
X12399051Y-8376484D02*
X12437147Y-8376484D01*
X12437147Y-8376484D02*
X12456194Y-8366960D01*
X12456194Y-8366960D02*
X12465718Y-8357436D01*
X12465718Y-8357436D02*
X12484766Y-8328865D01*
X12484766Y-8328865D02*
X12494289Y-8290769D01*
X12494289Y-8290769D02*
X12494289Y-8214579D01*
X12494289Y-8214579D02*
X12484766Y-8195531D01*
X12484766Y-8195531D02*
X12475242Y-8186008D01*
X12475242Y-8186008D02*
X12456194Y-8176484D01*
X12456194Y-8176484D02*
X12418099Y-8176484D01*
X12418099Y-8176484D02*
X12399051Y-8186008D01*
X12399051Y-8186008D02*
X12389528Y-8195531D01*
X12389528Y-8195531D02*
X12380004Y-8214579D01*
X12380004Y-8214579D02*
X12380004Y-8262198D01*
X12380004Y-8262198D02*
X12389528Y-8281246D01*
X12389528Y-8281246D02*
X12399051Y-8290769D01*
X12399051Y-8290769D02*
X12418099Y-8300293D01*
X12418099Y-8300293D02*
X12456194Y-8300293D01*
X12456194Y-8300293D02*
X12475242Y-8290769D01*
X12475242Y-8290769D02*
X12484766Y-8281246D01*
X12484766Y-8281246D02*
X12494289Y-8262198D01*
X12665718Y-8243150D02*
X12665718Y-8376484D01*
X12618099Y-8166960D02*
X12570480Y-8309817D01*
X12570480Y-8309817D02*
X12694289Y-8309817D01*
X12760956Y-8176484D02*
X12760956Y-8214579D01*
X12837147Y-8176484D02*
X12837147Y-8214579D01*
X13132385Y-8452674D02*
X13122861Y-8443150D01*
X13122861Y-8443150D02*
X13103813Y-8414579D01*
X13103813Y-8414579D02*
X13094290Y-8395531D01*
X13094290Y-8395531D02*
X13084766Y-8366960D01*
X13084766Y-8366960D02*
X13075242Y-8319341D01*
X13075242Y-8319341D02*
X13075242Y-8281246D01*
X13075242Y-8281246D02*
X13084766Y-8233627D01*
X13084766Y-8233627D02*
X13094290Y-8205055D01*
X13094290Y-8205055D02*
X13103813Y-8186008D01*
X13103813Y-8186008D02*
X13122861Y-8157436D01*
X13122861Y-8157436D02*
X13132385Y-8147912D01*
X13199051Y-8195531D02*
X13208575Y-8186008D01*
X13208575Y-8186008D02*
X13227623Y-8176484D01*
X13227623Y-8176484D02*
X13275242Y-8176484D01*
X13275242Y-8176484D02*
X13294290Y-8186008D01*
X13294290Y-8186008D02*
X13303813Y-8195531D01*
X13303813Y-8195531D02*
X13313337Y-8214579D01*
X13313337Y-8214579D02*
X13313337Y-8233627D01*
X13313337Y-8233627D02*
X13303813Y-8262198D01*
X13303813Y-8262198D02*
X13189528Y-8376484D01*
X13189528Y-8376484D02*
X13313337Y-8376484D01*
X13551432Y-8376484D02*
X13551432Y-8176484D01*
X13637147Y-8376484D02*
X13637147Y-8271722D01*
X13637147Y-8271722D02*
X13627623Y-8252674D01*
X13627623Y-8252674D02*
X13608575Y-8243150D01*
X13608575Y-8243150D02*
X13580004Y-8243150D01*
X13580004Y-8243150D02*
X13560956Y-8252674D01*
X13560956Y-8252674D02*
X13551432Y-8262198D01*
X13760956Y-8376484D02*
X13741909Y-8366960D01*
X13741909Y-8366960D02*
X13732385Y-8357436D01*
X13732385Y-8357436D02*
X13722861Y-8338388D01*
X13722861Y-8338388D02*
X13722861Y-8281246D01*
X13722861Y-8281246D02*
X13732385Y-8262198D01*
X13732385Y-8262198D02*
X13741909Y-8252674D01*
X13741909Y-8252674D02*
X13760956Y-8243150D01*
X13760956Y-8243150D02*
X13789528Y-8243150D01*
X13789528Y-8243150D02*
X13808575Y-8252674D01*
X13808575Y-8252674D02*
X13818099Y-8262198D01*
X13818099Y-8262198D02*
X13827623Y-8281246D01*
X13827623Y-8281246D02*
X13827623Y-8338388D01*
X13827623Y-8338388D02*
X13818099Y-8357436D01*
X13818099Y-8357436D02*
X13808575Y-8366960D01*
X13808575Y-8366960D02*
X13789528Y-8376484D01*
X13789528Y-8376484D02*
X13760956Y-8376484D01*
X13941909Y-8376484D02*
X13922861Y-8366960D01*
X13922861Y-8366960D02*
X13913337Y-8347912D01*
X13913337Y-8347912D02*
X13913337Y-8176484D01*
X14094290Y-8366960D02*
X14075242Y-8376484D01*
X14075242Y-8376484D02*
X14037147Y-8376484D01*
X14037147Y-8376484D02*
X14018099Y-8366960D01*
X14018099Y-8366960D02*
X14008575Y-8347912D01*
X14008575Y-8347912D02*
X14008575Y-8271722D01*
X14008575Y-8271722D02*
X14018099Y-8252674D01*
X14018099Y-8252674D02*
X14037147Y-8243150D01*
X14037147Y-8243150D02*
X14075242Y-8243150D01*
X14075242Y-8243150D02*
X14094290Y-8252674D01*
X14094290Y-8252674D02*
X14103813Y-8271722D01*
X14103813Y-8271722D02*
X14103813Y-8290769D01*
X14103813Y-8290769D02*
X14008575Y-8309817D01*
X14180004Y-8366960D02*
X14199052Y-8376484D01*
X14199052Y-8376484D02*
X14237147Y-8376484D01*
X14237147Y-8376484D02*
X14256194Y-8366960D01*
X14256194Y-8366960D02*
X14265718Y-8347912D01*
X14265718Y-8347912D02*
X14265718Y-8338388D01*
X14265718Y-8338388D02*
X14256194Y-8319341D01*
X14256194Y-8319341D02*
X14237147Y-8309817D01*
X14237147Y-8309817D02*
X14208575Y-8309817D01*
X14208575Y-8309817D02*
X14189528Y-8300293D01*
X14189528Y-8300293D02*
X14180004Y-8281246D01*
X14180004Y-8281246D02*
X14180004Y-8271722D01*
X14180004Y-8271722D02*
X14189528Y-8252674D01*
X14189528Y-8252674D02*
X14208575Y-8243150D01*
X14208575Y-8243150D02*
X14237147Y-8243150D01*
X14237147Y-8243150D02*
X14256194Y-8252674D01*
X14332385Y-8452674D02*
X14341909Y-8443150D01*
X14341909Y-8443150D02*
X14360956Y-8414579D01*
X14360956Y-8414579D02*
X14370480Y-8395531D01*
X14370480Y-8395531D02*
X14380004Y-8366960D01*
X14380004Y-8366960D02*
X14389528Y-8319341D01*
X14389528Y-8319341D02*
X14389528Y-8281246D01*
X14389528Y-8281246D02*
X14380004Y-8233627D01*
X14380004Y-8233627D02*
X14370480Y-8205055D01*
X14370480Y-8205055D02*
X14360956Y-8186008D01*
X14360956Y-8186008D02*
X14341909Y-8157436D01*
X14341909Y-8157436D02*
X14332385Y-8147912D01*
X14694290Y-8452674D02*
X14684766Y-8443150D01*
X14684766Y-8443150D02*
X14665718Y-8414579D01*
X14665718Y-8414579D02*
X14656194Y-8395531D01*
X14656194Y-8395531D02*
X14646671Y-8366960D01*
X14646671Y-8366960D02*
X14637147Y-8319341D01*
X14637147Y-8319341D02*
X14637147Y-8281246D01*
X14637147Y-8281246D02*
X14646671Y-8233627D01*
X14646671Y-8233627D02*
X14656194Y-8205055D01*
X14656194Y-8205055D02*
X14665718Y-8186008D01*
X14665718Y-8186008D02*
X14684766Y-8157436D01*
X14684766Y-8157436D02*
X14694290Y-8147912D01*
X14770480Y-8243150D02*
X14770480Y-8376484D01*
X14770480Y-8262198D02*
X14780004Y-8252674D01*
X14780004Y-8252674D02*
X14799052Y-8243150D01*
X14799052Y-8243150D02*
X14827623Y-8243150D01*
X14827623Y-8243150D02*
X14846671Y-8252674D01*
X14846671Y-8252674D02*
X14856194Y-8271722D01*
X14856194Y-8271722D02*
X14856194Y-8376484D01*
X14980004Y-8376484D02*
X14960956Y-8366960D01*
X14960956Y-8366960D02*
X14951433Y-8357436D01*
X14951433Y-8357436D02*
X14941909Y-8338388D01*
X14941909Y-8338388D02*
X14941909Y-8281246D01*
X14941909Y-8281246D02*
X14951433Y-8262198D01*
X14951433Y-8262198D02*
X14960956Y-8252674D01*
X14960956Y-8252674D02*
X14980004Y-8243150D01*
X14980004Y-8243150D02*
X15008575Y-8243150D01*
X15008575Y-8243150D02*
X15027623Y-8252674D01*
X15027623Y-8252674D02*
X15037147Y-8262198D01*
X15037147Y-8262198D02*
X15046671Y-8281246D01*
X15046671Y-8281246D02*
X15046671Y-8338388D01*
X15046671Y-8338388D02*
X15037147Y-8357436D01*
X15037147Y-8357436D02*
X15027623Y-8366960D01*
X15027623Y-8366960D02*
X15008575Y-8376484D01*
X15008575Y-8376484D02*
X14980004Y-8376484D01*
X15103814Y-8243150D02*
X15180004Y-8243150D01*
X15132385Y-8176484D02*
X15132385Y-8347912D01*
X15132385Y-8347912D02*
X15141909Y-8366960D01*
X15141909Y-8366960D02*
X15160956Y-8376484D01*
X15160956Y-8376484D02*
X15180004Y-8376484D01*
X15399052Y-8243150D02*
X15399052Y-8443150D01*
X15399052Y-8252674D02*
X15418099Y-8243150D01*
X15418099Y-8243150D02*
X15456195Y-8243150D01*
X15456195Y-8243150D02*
X15475242Y-8252674D01*
X15475242Y-8252674D02*
X15484766Y-8262198D01*
X15484766Y-8262198D02*
X15494290Y-8281246D01*
X15494290Y-8281246D02*
X15494290Y-8338388D01*
X15494290Y-8338388D02*
X15484766Y-8357436D01*
X15484766Y-8357436D02*
X15475242Y-8366960D01*
X15475242Y-8366960D02*
X15456195Y-8376484D01*
X15456195Y-8376484D02*
X15418099Y-8376484D01*
X15418099Y-8376484D02*
X15399052Y-8366960D01*
X15608575Y-8376484D02*
X15589528Y-8366960D01*
X15589528Y-8366960D02*
X15580004Y-8347912D01*
X15580004Y-8347912D02*
X15580004Y-8176484D01*
X15770480Y-8376484D02*
X15770480Y-8271722D01*
X15770480Y-8271722D02*
X15760956Y-8252674D01*
X15760956Y-8252674D02*
X15741909Y-8243150D01*
X15741909Y-8243150D02*
X15703814Y-8243150D01*
X15703814Y-8243150D02*
X15684766Y-8252674D01*
X15770480Y-8366960D02*
X15751433Y-8376484D01*
X15751433Y-8376484D02*
X15703814Y-8376484D01*
X15703814Y-8376484D02*
X15684766Y-8366960D01*
X15684766Y-8366960D02*
X15675242Y-8347912D01*
X15675242Y-8347912D02*
X15675242Y-8328865D01*
X15675242Y-8328865D02*
X15684766Y-8309817D01*
X15684766Y-8309817D02*
X15703814Y-8300293D01*
X15703814Y-8300293D02*
X15751433Y-8300293D01*
X15751433Y-8300293D02*
X15770480Y-8290769D01*
X15837147Y-8243150D02*
X15913337Y-8243150D01*
X15865718Y-8176484D02*
X15865718Y-8347912D01*
X15865718Y-8347912D02*
X15875242Y-8366960D01*
X15875242Y-8366960D02*
X15894290Y-8376484D01*
X15894290Y-8376484D02*
X15913337Y-8376484D01*
X16056195Y-8366960D02*
X16037147Y-8376484D01*
X16037147Y-8376484D02*
X15999052Y-8376484D01*
X15999052Y-8376484D02*
X15980004Y-8366960D01*
X15980004Y-8366960D02*
X15970480Y-8347912D01*
X15970480Y-8347912D02*
X15970480Y-8271722D01*
X15970480Y-8271722D02*
X15980004Y-8252674D01*
X15980004Y-8252674D02*
X15999052Y-8243150D01*
X15999052Y-8243150D02*
X16037147Y-8243150D01*
X16037147Y-8243150D02*
X16056195Y-8252674D01*
X16056195Y-8252674D02*
X16065718Y-8271722D01*
X16065718Y-8271722D02*
X16065718Y-8290769D01*
X16065718Y-8290769D02*
X15970480Y-8309817D01*
X16237147Y-8376484D02*
X16237147Y-8176484D01*
X16237147Y-8366960D02*
X16218099Y-8376484D01*
X16218099Y-8376484D02*
X16180004Y-8376484D01*
X16180004Y-8376484D02*
X16160956Y-8366960D01*
X16160956Y-8366960D02*
X16151433Y-8357436D01*
X16151433Y-8357436D02*
X16141909Y-8338388D01*
X16141909Y-8338388D02*
X16141909Y-8281246D01*
X16141909Y-8281246D02*
X16151433Y-8262198D01*
X16151433Y-8262198D02*
X16160956Y-8252674D01*
X16160956Y-8252674D02*
X16180004Y-8243150D01*
X16180004Y-8243150D02*
X16218099Y-8243150D01*
X16218099Y-8243150D02*
X16237147Y-8252674D01*
X16313337Y-8452674D02*
X16322861Y-8443150D01*
X16322861Y-8443150D02*
X16341909Y-8414579D01*
X16341909Y-8414579D02*
X16351433Y-8395531D01*
X16351433Y-8395531D02*
X16360956Y-8366960D01*
X16360956Y-8366960D02*
X16370480Y-8319341D01*
X16370480Y-8319341D02*
X16370480Y-8281246D01*
X16370480Y-8281246D02*
X16360956Y-8233627D01*
X16360956Y-8233627D02*
X16351433Y-8205055D01*
X16351433Y-8205055D02*
X16341909Y-8186008D01*
X16341909Y-8186008D02*
X16322861Y-8157436D01*
X16322861Y-8157436D02*
X16313337Y-8147912D01*
X9557322Y-8549000D02*
G75*
G03*
X9557322Y-8549000I-100000J0D01*
G01*
X9808575Y-8459531D02*
X9818099Y-8450008D01*
X9818099Y-8450008D02*
X9837146Y-8440484D01*
X9837146Y-8440484D02*
X9884766Y-8440484D01*
X9884766Y-8440484D02*
X9903813Y-8450008D01*
X9903813Y-8450008D02*
X9913337Y-8459531D01*
X9913337Y-8459531D02*
X9922861Y-8478579D01*
X9922861Y-8478579D02*
X9922861Y-8497627D01*
X9922861Y-8497627D02*
X9913337Y-8526198D01*
X9913337Y-8526198D02*
X9799051Y-8640484D01*
X9799051Y-8640484D02*
X9922861Y-8640484D01*
X10008575Y-8621436D02*
X10018099Y-8630960D01*
X10018099Y-8630960D02*
X10008575Y-8640484D01*
X10008575Y-8640484D02*
X9999051Y-8630960D01*
X9999051Y-8630960D02*
X10008575Y-8621436D01*
X10008575Y-8621436D02*
X10008575Y-8640484D01*
X10141908Y-8440484D02*
X10160956Y-8440484D01*
X10160956Y-8440484D02*
X10180004Y-8450008D01*
X10180004Y-8450008D02*
X10189527Y-8459531D01*
X10189527Y-8459531D02*
X10199051Y-8478579D01*
X10199051Y-8478579D02*
X10208575Y-8516674D01*
X10208575Y-8516674D02*
X10208575Y-8564293D01*
X10208575Y-8564293D02*
X10199051Y-8602389D01*
X10199051Y-8602389D02*
X10189527Y-8621436D01*
X10189527Y-8621436D02*
X10180004Y-8630960D01*
X10180004Y-8630960D02*
X10160956Y-8640484D01*
X10160956Y-8640484D02*
X10141908Y-8640484D01*
X10141908Y-8640484D02*
X10122861Y-8630960D01*
X10122861Y-8630960D02*
X10113337Y-8621436D01*
X10113337Y-8621436D02*
X10103813Y-8602389D01*
X10103813Y-8602389D02*
X10094289Y-8564293D01*
X10094289Y-8564293D02*
X10094289Y-8516674D01*
X10094289Y-8516674D02*
X10103813Y-8478579D01*
X10103813Y-8478579D02*
X10113337Y-8459531D01*
X10113337Y-8459531D02*
X10122861Y-8450008D01*
X10122861Y-8450008D02*
X10141908Y-8440484D01*
X10332385Y-8440484D02*
X10351432Y-8440484D01*
X10351432Y-8440484D02*
X10370480Y-8450008D01*
X10370480Y-8450008D02*
X10380004Y-8459531D01*
X10380004Y-8459531D02*
X10389527Y-8478579D01*
X10389527Y-8478579D02*
X10399051Y-8516674D01*
X10399051Y-8516674D02*
X10399051Y-8564293D01*
X10399051Y-8564293D02*
X10389527Y-8602389D01*
X10389527Y-8602389D02*
X10380004Y-8621436D01*
X10380004Y-8621436D02*
X10370480Y-8630960D01*
X10370480Y-8630960D02*
X10351432Y-8640484D01*
X10351432Y-8640484D02*
X10332385Y-8640484D01*
X10332385Y-8640484D02*
X10313337Y-8630960D01*
X10313337Y-8630960D02*
X10303813Y-8621436D01*
X10303813Y-8621436D02*
X10294289Y-8602389D01*
X10294289Y-8602389D02*
X10284766Y-8564293D01*
X10284766Y-8564293D02*
X10284766Y-8516674D01*
X10284766Y-8516674D02*
X10294289Y-8478579D01*
X10294289Y-8478579D02*
X10303813Y-8459531D01*
X10303813Y-8459531D02*
X10313337Y-8450008D01*
X10313337Y-8450008D02*
X10332385Y-8440484D01*
X10522861Y-8440484D02*
X10541908Y-8440484D01*
X10541908Y-8440484D02*
X10560956Y-8450008D01*
X10560956Y-8450008D02*
X10570480Y-8459531D01*
X10570480Y-8459531D02*
X10580004Y-8478579D01*
X10580004Y-8478579D02*
X10589527Y-8516674D01*
X10589527Y-8516674D02*
X10589527Y-8564293D01*
X10589527Y-8564293D02*
X10580004Y-8602389D01*
X10580004Y-8602389D02*
X10570480Y-8621436D01*
X10570480Y-8621436D02*
X10560956Y-8630960D01*
X10560956Y-8630960D02*
X10541908Y-8640484D01*
X10541908Y-8640484D02*
X10522861Y-8640484D01*
X10522861Y-8640484D02*
X10503813Y-8630960D01*
X10503813Y-8630960D02*
X10494289Y-8621436D01*
X10494289Y-8621436D02*
X10484766Y-8602389D01*
X10484766Y-8602389D02*
X10475242Y-8564293D01*
X10475242Y-8564293D02*
X10475242Y-8516674D01*
X10475242Y-8516674D02*
X10484766Y-8478579D01*
X10484766Y-8478579D02*
X10494289Y-8459531D01*
X10494289Y-8459531D02*
X10503813Y-8450008D01*
X10503813Y-8450008D02*
X10522861Y-8440484D01*
X10675242Y-8640484D02*
X10675242Y-8507150D01*
X10675242Y-8526198D02*
X10684766Y-8516674D01*
X10684766Y-8516674D02*
X10703813Y-8507150D01*
X10703813Y-8507150D02*
X10732385Y-8507150D01*
X10732385Y-8507150D02*
X10751432Y-8516674D01*
X10751432Y-8516674D02*
X10760956Y-8535722D01*
X10760956Y-8535722D02*
X10760956Y-8640484D01*
X10760956Y-8535722D02*
X10770480Y-8516674D01*
X10770480Y-8516674D02*
X10789527Y-8507150D01*
X10789527Y-8507150D02*
X10818099Y-8507150D01*
X10818099Y-8507150D02*
X10837147Y-8516674D01*
X10837147Y-8516674D02*
X10846670Y-8535722D01*
X10846670Y-8535722D02*
X10846670Y-8640484D01*
X10941908Y-8640484D02*
X10941908Y-8507150D01*
X10941908Y-8526198D02*
X10951432Y-8516674D01*
X10951432Y-8516674D02*
X10970480Y-8507150D01*
X10970480Y-8507150D02*
X10999051Y-8507150D01*
X10999051Y-8507150D02*
X11018099Y-8516674D01*
X11018099Y-8516674D02*
X11027623Y-8535722D01*
X11027623Y-8535722D02*
X11027623Y-8640484D01*
X11027623Y-8535722D02*
X11037147Y-8516674D01*
X11037147Y-8516674D02*
X11056194Y-8507150D01*
X11056194Y-8507150D02*
X11084766Y-8507150D01*
X11084766Y-8507150D02*
X11103813Y-8516674D01*
X11103813Y-8516674D02*
X11113337Y-8535722D01*
X11113337Y-8535722D02*
X11113337Y-8640484D01*
X11503813Y-8430960D02*
X11332385Y-8688103D01*
X11760956Y-8440484D02*
X11780004Y-8440484D01*
X11780004Y-8440484D02*
X11799051Y-8450008D01*
X11799051Y-8450008D02*
X11808575Y-8459531D01*
X11808575Y-8459531D02*
X11818099Y-8478579D01*
X11818099Y-8478579D02*
X11827623Y-8516674D01*
X11827623Y-8516674D02*
X11827623Y-8564293D01*
X11827623Y-8564293D02*
X11818099Y-8602389D01*
X11818099Y-8602389D02*
X11808575Y-8621436D01*
X11808575Y-8621436D02*
X11799051Y-8630960D01*
X11799051Y-8630960D02*
X11780004Y-8640484D01*
X11780004Y-8640484D02*
X11760956Y-8640484D01*
X11760956Y-8640484D02*
X11741908Y-8630960D01*
X11741908Y-8630960D02*
X11732385Y-8621436D01*
X11732385Y-8621436D02*
X11722861Y-8602389D01*
X11722861Y-8602389D02*
X11713337Y-8564293D01*
X11713337Y-8564293D02*
X11713337Y-8516674D01*
X11713337Y-8516674D02*
X11722861Y-8478579D01*
X11722861Y-8478579D02*
X11732385Y-8459531D01*
X11732385Y-8459531D02*
X11741908Y-8450008D01*
X11741908Y-8450008D02*
X11760956Y-8440484D01*
X11913337Y-8621436D02*
X11922861Y-8630960D01*
X11922861Y-8630960D02*
X11913337Y-8640484D01*
X11913337Y-8640484D02*
X11903813Y-8630960D01*
X11903813Y-8630960D02*
X11913337Y-8621436D01*
X11913337Y-8621436D02*
X11913337Y-8640484D01*
X12046670Y-8440484D02*
X12065718Y-8440484D01*
X12065718Y-8440484D02*
X12084766Y-8450008D01*
X12084766Y-8450008D02*
X12094289Y-8459531D01*
X12094289Y-8459531D02*
X12103813Y-8478579D01*
X12103813Y-8478579D02*
X12113337Y-8516674D01*
X12113337Y-8516674D02*
X12113337Y-8564293D01*
X12113337Y-8564293D02*
X12103813Y-8602389D01*
X12103813Y-8602389D02*
X12094289Y-8621436D01*
X12094289Y-8621436D02*
X12084766Y-8630960D01*
X12084766Y-8630960D02*
X12065718Y-8640484D01*
X12065718Y-8640484D02*
X12046670Y-8640484D01*
X12046670Y-8640484D02*
X12027623Y-8630960D01*
X12027623Y-8630960D02*
X12018099Y-8621436D01*
X12018099Y-8621436D02*
X12008575Y-8602389D01*
X12008575Y-8602389D02*
X11999051Y-8564293D01*
X11999051Y-8564293D02*
X11999051Y-8516674D01*
X11999051Y-8516674D02*
X12008575Y-8478579D01*
X12008575Y-8478579D02*
X12018099Y-8459531D01*
X12018099Y-8459531D02*
X12027623Y-8450008D01*
X12027623Y-8450008D02*
X12046670Y-8440484D01*
X12180004Y-8440484D02*
X12313337Y-8440484D01*
X12313337Y-8440484D02*
X12227623Y-8640484D01*
X12418099Y-8526198D02*
X12399051Y-8516674D01*
X12399051Y-8516674D02*
X12389528Y-8507150D01*
X12389528Y-8507150D02*
X12380004Y-8488103D01*
X12380004Y-8488103D02*
X12380004Y-8478579D01*
X12380004Y-8478579D02*
X12389528Y-8459531D01*
X12389528Y-8459531D02*
X12399051Y-8450008D01*
X12399051Y-8450008D02*
X12418099Y-8440484D01*
X12418099Y-8440484D02*
X12456194Y-8440484D01*
X12456194Y-8440484D02*
X12475242Y-8450008D01*
X12475242Y-8450008D02*
X12484766Y-8459531D01*
X12484766Y-8459531D02*
X12494289Y-8478579D01*
X12494289Y-8478579D02*
X12494289Y-8488103D01*
X12494289Y-8488103D02*
X12484766Y-8507150D01*
X12484766Y-8507150D02*
X12475242Y-8516674D01*
X12475242Y-8516674D02*
X12456194Y-8526198D01*
X12456194Y-8526198D02*
X12418099Y-8526198D01*
X12418099Y-8526198D02*
X12399051Y-8535722D01*
X12399051Y-8535722D02*
X12389528Y-8545246D01*
X12389528Y-8545246D02*
X12380004Y-8564293D01*
X12380004Y-8564293D02*
X12380004Y-8602389D01*
X12380004Y-8602389D02*
X12389528Y-8621436D01*
X12389528Y-8621436D02*
X12399051Y-8630960D01*
X12399051Y-8630960D02*
X12418099Y-8640484D01*
X12418099Y-8640484D02*
X12456194Y-8640484D01*
X12456194Y-8640484D02*
X12475242Y-8630960D01*
X12475242Y-8630960D02*
X12484766Y-8621436D01*
X12484766Y-8621436D02*
X12494289Y-8602389D01*
X12494289Y-8602389D02*
X12494289Y-8564293D01*
X12494289Y-8564293D02*
X12484766Y-8545246D01*
X12484766Y-8545246D02*
X12475242Y-8535722D01*
X12475242Y-8535722D02*
X12456194Y-8526198D01*
X12560956Y-8440484D02*
X12694289Y-8440484D01*
X12694289Y-8440484D02*
X12608575Y-8640484D01*
X12760956Y-8440484D02*
X12760956Y-8478579D01*
X12837147Y-8440484D02*
X12837147Y-8478579D01*
X13132385Y-8716674D02*
X13122861Y-8707150D01*
X13122861Y-8707150D02*
X13103813Y-8678579D01*
X13103813Y-8678579D02*
X13094290Y-8659531D01*
X13094290Y-8659531D02*
X13084766Y-8630960D01*
X13084766Y-8630960D02*
X13075242Y-8583341D01*
X13075242Y-8583341D02*
X13075242Y-8545246D01*
X13075242Y-8545246D02*
X13084766Y-8497627D01*
X13084766Y-8497627D02*
X13094290Y-8469055D01*
X13094290Y-8469055D02*
X13103813Y-8450008D01*
X13103813Y-8450008D02*
X13122861Y-8421436D01*
X13122861Y-8421436D02*
X13132385Y-8411912D01*
X13199051Y-8459531D02*
X13208575Y-8450008D01*
X13208575Y-8450008D02*
X13227623Y-8440484D01*
X13227623Y-8440484D02*
X13275242Y-8440484D01*
X13275242Y-8440484D02*
X13294290Y-8450008D01*
X13294290Y-8450008D02*
X13303813Y-8459531D01*
X13303813Y-8459531D02*
X13313337Y-8478579D01*
X13313337Y-8478579D02*
X13313337Y-8497627D01*
X13313337Y-8497627D02*
X13303813Y-8526198D01*
X13303813Y-8526198D02*
X13189528Y-8640484D01*
X13189528Y-8640484D02*
X13313337Y-8640484D01*
X13551432Y-8640484D02*
X13551432Y-8440484D01*
X13637147Y-8640484D02*
X13637147Y-8535722D01*
X13637147Y-8535722D02*
X13627623Y-8516674D01*
X13627623Y-8516674D02*
X13608575Y-8507150D01*
X13608575Y-8507150D02*
X13580004Y-8507150D01*
X13580004Y-8507150D02*
X13560956Y-8516674D01*
X13560956Y-8516674D02*
X13551432Y-8526198D01*
X13760956Y-8640484D02*
X13741909Y-8630960D01*
X13741909Y-8630960D02*
X13732385Y-8621436D01*
X13732385Y-8621436D02*
X13722861Y-8602389D01*
X13722861Y-8602389D02*
X13722861Y-8545246D01*
X13722861Y-8545246D02*
X13732385Y-8526198D01*
X13732385Y-8526198D02*
X13741909Y-8516674D01*
X13741909Y-8516674D02*
X13760956Y-8507150D01*
X13760956Y-8507150D02*
X13789528Y-8507150D01*
X13789528Y-8507150D02*
X13808575Y-8516674D01*
X13808575Y-8516674D02*
X13818099Y-8526198D01*
X13818099Y-8526198D02*
X13827623Y-8545246D01*
X13827623Y-8545246D02*
X13827623Y-8602389D01*
X13827623Y-8602389D02*
X13818099Y-8621436D01*
X13818099Y-8621436D02*
X13808575Y-8630960D01*
X13808575Y-8630960D02*
X13789528Y-8640484D01*
X13789528Y-8640484D02*
X13760956Y-8640484D01*
X13941909Y-8640484D02*
X13922861Y-8630960D01*
X13922861Y-8630960D02*
X13913337Y-8611912D01*
X13913337Y-8611912D02*
X13913337Y-8440484D01*
X14094290Y-8630960D02*
X14075242Y-8640484D01*
X14075242Y-8640484D02*
X14037147Y-8640484D01*
X14037147Y-8640484D02*
X14018099Y-8630960D01*
X14018099Y-8630960D02*
X14008575Y-8611912D01*
X14008575Y-8611912D02*
X14008575Y-8535722D01*
X14008575Y-8535722D02*
X14018099Y-8516674D01*
X14018099Y-8516674D02*
X14037147Y-8507150D01*
X14037147Y-8507150D02*
X14075242Y-8507150D01*
X14075242Y-8507150D02*
X14094290Y-8516674D01*
X14094290Y-8516674D02*
X14103813Y-8535722D01*
X14103813Y-8535722D02*
X14103813Y-8554770D01*
X14103813Y-8554770D02*
X14008575Y-8573817D01*
X14180004Y-8630960D02*
X14199052Y-8640484D01*
X14199052Y-8640484D02*
X14237147Y-8640484D01*
X14237147Y-8640484D02*
X14256194Y-8630960D01*
X14256194Y-8630960D02*
X14265718Y-8611912D01*
X14265718Y-8611912D02*
X14265718Y-8602389D01*
X14265718Y-8602389D02*
X14256194Y-8583341D01*
X14256194Y-8583341D02*
X14237147Y-8573817D01*
X14237147Y-8573817D02*
X14208575Y-8573817D01*
X14208575Y-8573817D02*
X14189528Y-8564293D01*
X14189528Y-8564293D02*
X14180004Y-8545246D01*
X14180004Y-8545246D02*
X14180004Y-8535722D01*
X14180004Y-8535722D02*
X14189528Y-8516674D01*
X14189528Y-8516674D02*
X14208575Y-8507150D01*
X14208575Y-8507150D02*
X14237147Y-8507150D01*
X14237147Y-8507150D02*
X14256194Y-8516674D01*
X14332385Y-8716674D02*
X14341909Y-8707150D01*
X14341909Y-8707150D02*
X14360956Y-8678579D01*
X14360956Y-8678579D02*
X14370480Y-8659531D01*
X14370480Y-8659531D02*
X14380004Y-8630960D01*
X14380004Y-8630960D02*
X14389528Y-8583341D01*
X14389528Y-8583341D02*
X14389528Y-8545246D01*
X14389528Y-8545246D02*
X14380004Y-8497627D01*
X14380004Y-8497627D02*
X14370480Y-8469055D01*
X14370480Y-8469055D02*
X14360956Y-8450008D01*
X14360956Y-8450008D02*
X14341909Y-8421436D01*
X14341909Y-8421436D02*
X14332385Y-8411912D01*
X14694290Y-8716674D02*
X14684766Y-8707150D01*
X14684766Y-8707150D02*
X14665718Y-8678579D01*
X14665718Y-8678579D02*
X14656194Y-8659531D01*
X14656194Y-8659531D02*
X14646671Y-8630960D01*
X14646671Y-8630960D02*
X14637147Y-8583341D01*
X14637147Y-8583341D02*
X14637147Y-8545246D01*
X14637147Y-8545246D02*
X14646671Y-8497627D01*
X14646671Y-8497627D02*
X14656194Y-8469055D01*
X14656194Y-8469055D02*
X14665718Y-8450008D01*
X14665718Y-8450008D02*
X14684766Y-8421436D01*
X14684766Y-8421436D02*
X14694290Y-8411912D01*
X14770480Y-8507150D02*
X14770480Y-8640484D01*
X14770480Y-8526198D02*
X14780004Y-8516674D01*
X14780004Y-8516674D02*
X14799052Y-8507150D01*
X14799052Y-8507150D02*
X14827623Y-8507150D01*
X14827623Y-8507150D02*
X14846671Y-8516674D01*
X14846671Y-8516674D02*
X14856194Y-8535722D01*
X14856194Y-8535722D02*
X14856194Y-8640484D01*
X14980004Y-8640484D02*
X14960956Y-8630960D01*
X14960956Y-8630960D02*
X14951433Y-8621436D01*
X14951433Y-8621436D02*
X14941909Y-8602389D01*
X14941909Y-8602389D02*
X14941909Y-8545246D01*
X14941909Y-8545246D02*
X14951433Y-8526198D01*
X14951433Y-8526198D02*
X14960956Y-8516674D01*
X14960956Y-8516674D02*
X14980004Y-8507150D01*
X14980004Y-8507150D02*
X15008575Y-8507150D01*
X15008575Y-8507150D02*
X15027623Y-8516674D01*
X15027623Y-8516674D02*
X15037147Y-8526198D01*
X15037147Y-8526198D02*
X15046671Y-8545246D01*
X15046671Y-8545246D02*
X15046671Y-8602389D01*
X15046671Y-8602389D02*
X15037147Y-8621436D01*
X15037147Y-8621436D02*
X15027623Y-8630960D01*
X15027623Y-8630960D02*
X15008575Y-8640484D01*
X15008575Y-8640484D02*
X14980004Y-8640484D01*
X15103814Y-8507150D02*
X15180004Y-8507150D01*
X15132385Y-8440484D02*
X15132385Y-8611912D01*
X15132385Y-8611912D02*
X15141909Y-8630960D01*
X15141909Y-8630960D02*
X15160956Y-8640484D01*
X15160956Y-8640484D02*
X15180004Y-8640484D01*
X15399052Y-8507150D02*
X15399052Y-8707150D01*
X15399052Y-8516674D02*
X15418099Y-8507150D01*
X15418099Y-8507150D02*
X15456195Y-8507150D01*
X15456195Y-8507150D02*
X15475242Y-8516674D01*
X15475242Y-8516674D02*
X15484766Y-8526198D01*
X15484766Y-8526198D02*
X15494290Y-8545246D01*
X15494290Y-8545246D02*
X15494290Y-8602389D01*
X15494290Y-8602389D02*
X15484766Y-8621436D01*
X15484766Y-8621436D02*
X15475242Y-8630960D01*
X15475242Y-8630960D02*
X15456195Y-8640484D01*
X15456195Y-8640484D02*
X15418099Y-8640484D01*
X15418099Y-8640484D02*
X15399052Y-8630960D01*
X15608575Y-8640484D02*
X15589528Y-8630960D01*
X15589528Y-8630960D02*
X15580004Y-8611912D01*
X15580004Y-8611912D02*
X15580004Y-8440484D01*
X15770480Y-8640484D02*
X15770480Y-8535722D01*
X15770480Y-8535722D02*
X15760956Y-8516674D01*
X15760956Y-8516674D02*
X15741909Y-8507150D01*
X15741909Y-8507150D02*
X15703814Y-8507150D01*
X15703814Y-8507150D02*
X15684766Y-8516674D01*
X15770480Y-8630960D02*
X15751433Y-8640484D01*
X15751433Y-8640484D02*
X15703814Y-8640484D01*
X15703814Y-8640484D02*
X15684766Y-8630960D01*
X15684766Y-8630960D02*
X15675242Y-8611912D01*
X15675242Y-8611912D02*
X15675242Y-8592865D01*
X15675242Y-8592865D02*
X15684766Y-8573817D01*
X15684766Y-8573817D02*
X15703814Y-8564293D01*
X15703814Y-8564293D02*
X15751433Y-8564293D01*
X15751433Y-8564293D02*
X15770480Y-8554770D01*
X15837147Y-8507150D02*
X15913337Y-8507150D01*
X15865718Y-8440484D02*
X15865718Y-8611912D01*
X15865718Y-8611912D02*
X15875242Y-8630960D01*
X15875242Y-8630960D02*
X15894290Y-8640484D01*
X15894290Y-8640484D02*
X15913337Y-8640484D01*
X16056195Y-8630960D02*
X16037147Y-8640484D01*
X16037147Y-8640484D02*
X15999052Y-8640484D01*
X15999052Y-8640484D02*
X15980004Y-8630960D01*
X15980004Y-8630960D02*
X15970480Y-8611912D01*
X15970480Y-8611912D02*
X15970480Y-8535722D01*
X15970480Y-8535722D02*
X15980004Y-8516674D01*
X15980004Y-8516674D02*
X15999052Y-8507150D01*
X15999052Y-8507150D02*
X16037147Y-8507150D01*
X16037147Y-8507150D02*
X16056195Y-8516674D01*
X16056195Y-8516674D02*
X16065718Y-8535722D01*
X16065718Y-8535722D02*
X16065718Y-8554770D01*
X16065718Y-8554770D02*
X15970480Y-8573817D01*
X16237147Y-8640484D02*
X16237147Y-8440484D01*
X16237147Y-8630960D02*
X16218099Y-8640484D01*
X16218099Y-8640484D02*
X16180004Y-8640484D01*
X16180004Y-8640484D02*
X16160956Y-8630960D01*
X16160956Y-8630960D02*
X16151433Y-8621436D01*
X16151433Y-8621436D02*
X16141909Y-8602389D01*
X16141909Y-8602389D02*
X16141909Y-8545246D01*
X16141909Y-8545246D02*
X16151433Y-8526198D01*
X16151433Y-8526198D02*
X16160956Y-8516674D01*
X16160956Y-8516674D02*
X16180004Y-8507150D01*
X16180004Y-8507150D02*
X16218099Y-8507150D01*
X16218099Y-8507150D02*
X16237147Y-8516674D01*
X16313337Y-8716674D02*
X16322861Y-8707150D01*
X16322861Y-8707150D02*
X16341909Y-8678579D01*
X16341909Y-8678579D02*
X16351433Y-8659531D01*
X16351433Y-8659531D02*
X16360956Y-8630960D01*
X16360956Y-8630960D02*
X16370480Y-8583341D01*
X16370480Y-8583341D02*
X16370480Y-8545246D01*
X16370480Y-8545246D02*
X16360956Y-8497627D01*
X16360956Y-8497627D02*
X16351433Y-8469055D01*
X16351433Y-8469055D02*
X16341909Y-8450008D01*
X16341909Y-8450008D02*
X16322861Y-8421436D01*
X16322861Y-8421436D02*
X16313337Y-8411912D01*
M02*
