%TF.GenerationSoftware,KiCad,Pcbnew,7.0.6*%
%TF.CreationDate,2023-08-08T22:31:42+02:00*%
%TF.ProjectId,epi_JLC,6570695f-4a4c-4432-9e6b-696361645f70,1_2_0*%
%TF.SameCoordinates,Original*%
%TF.FileFunction,Copper,L1,Top*%
%TF.FilePolarity,Positive*%
%FSLAX46Y46*%
G04 Gerber Fmt 4.6, Leading zero omitted, Abs format (unit mm)*
G04 Created by KiCad (PCBNEW 7.0.6) date 2023-08-08 22:31:42*
%MOMM*%
%LPD*%
G01*
G04 APERTURE LIST*
G04 Aperture macros list*
%AMRoundRect*
0 Rectangle with rounded corners*
0 $1 Rounding radius*
0 $2 $3 $4 $5 $6 $7 $8 $9 X,Y pos of 4 corners*
0 Add a 4 corners polygon primitive as box body*
4,1,4,$2,$3,$4,$5,$6,$7,$8,$9,$2,$3,0*
0 Add four circle primitives for the rounded corners*
1,1,$1+$1,$2,$3*
1,1,$1+$1,$4,$5*
1,1,$1+$1,$6,$7*
1,1,$1+$1,$8,$9*
0 Add four rect primitives between the rounded corners*
20,1,$1+$1,$2,$3,$4,$5,0*
20,1,$1+$1,$4,$5,$6,$7,0*
20,1,$1+$1,$6,$7,$8,$9,0*
20,1,$1+$1,$8,$9,$2,$3,0*%
%AMOutline5P*
0 Free polygon, 5 corners , with rotation*
0 The origin of the aperture is its center*
0 number of corners: always 5*
0 $1 to $10 corner X, Y*
0 $11 Rotation angle, in degrees counterclockwise*
0 create outline with 5 corners*
4,1,5,$1,$2,$3,$4,$5,$6,$7,$8,$9,$10,$1,$2,$11*%
%AMOutline6P*
0 Free polygon, 6 corners , with rotation*
0 The origin of the aperture is its center*
0 number of corners: always 6*
0 $1 to $12 corner X, Y*
0 $13 Rotation angle, in degrees counterclockwise*
0 create outline with 6 corners*
4,1,6,$1,$2,$3,$4,$5,$6,$7,$8,$9,$10,$11,$12,$1,$2,$13*%
%AMOutline7P*
0 Free polygon, 7 corners , with rotation*
0 The origin of the aperture is its center*
0 number of corners: always 7*
0 $1 to $14 corner X, Y*
0 $15 Rotation angle, in degrees counterclockwise*
0 create outline with 7 corners*
4,1,7,$1,$2,$3,$4,$5,$6,$7,$8,$9,$10,$11,$12,$13,$14,$1,$2,$15*%
%AMOutline8P*
0 Free polygon, 8 corners , with rotation*
0 The origin of the aperture is its center*
0 number of corners: always 8*
0 $1 to $16 corner X, Y*
0 $17 Rotation angle, in degrees counterclockwise*
0 create outline with 8 corners*
4,1,8,$1,$2,$3,$4,$5,$6,$7,$8,$9,$10,$11,$12,$13,$14,$15,$16,$1,$2,$17*%
G04 Aperture macros list end*
%TA.AperFunction,SMDPad,CuDef*%
%ADD10RoundRect,0.135000X-0.185000X0.135000X-0.185000X-0.135000X0.185000X-0.135000X0.185000X0.135000X0*%
%TD*%
%TA.AperFunction,SMDPad,CuDef*%
%ADD11R,0.900000X0.800000*%
%TD*%
%TA.AperFunction,SMDPad,CuDef*%
%ADD12Outline5P,-0.450000X0.400000X0.450000X0.400000X0.450000X-0.160000X0.210000X-0.400000X-0.450000X-0.400000X0.000000*%
%TD*%
%TA.AperFunction,SMDPad,CuDef*%
%ADD13RoundRect,0.135000X0.185000X-0.135000X0.185000X0.135000X-0.185000X0.135000X-0.185000X-0.135000X0*%
%TD*%
%TA.AperFunction,SMDPad,CuDef*%
%ADD14RoundRect,0.135000X-0.135000X-0.185000X0.135000X-0.185000X0.135000X0.185000X-0.135000X0.185000X0*%
%TD*%
%TA.AperFunction,SMDPad,CuDef*%
%ADD15RoundRect,0.062500X-0.475000X-0.062500X0.475000X-0.062500X0.475000X0.062500X-0.475000X0.062500X0*%
%TD*%
%TA.AperFunction,SMDPad,CuDef*%
%ADD16RoundRect,0.062500X-0.062500X-0.475000X0.062500X-0.475000X0.062500X0.475000X-0.062500X0.475000X0*%
%TD*%
%TA.AperFunction,SMDPad,CuDef*%
%ADD17RoundRect,0.175000X-0.700000X-0.825000X0.700000X-0.825000X0.700000X0.825000X-0.700000X0.825000X0*%
%TD*%
%TA.AperFunction,SMDPad,CuDef*%
%ADD18RoundRect,0.147500X-0.172500X0.147500X-0.172500X-0.147500X0.172500X-0.147500X0.172500X0.147500X0*%
%TD*%
%TA.AperFunction,CastellatedPad*%
%ADD19RoundRect,0.250000X-0.500000X-0.250000X0.500000X-0.250000X0.500000X0.250000X-0.500000X0.250000X0*%
%TD*%
%TA.AperFunction,CastellatedPad*%
%ADD20RoundRect,0.250000X-0.250000X0.500000X-0.250000X-0.500000X0.250000X-0.500000X0.250000X0.500000X0*%
%TD*%
%TA.AperFunction,SMDPad,CuDef*%
%ADD21RoundRect,0.135000X0.135000X0.185000X-0.135000X0.185000X-0.135000X-0.185000X0.135000X-0.185000X0*%
%TD*%
%TA.AperFunction,SMDPad,CuDef*%
%ADD22R,0.615500X1.000000*%
%TD*%
%TA.AperFunction,SMDPad,CuDef*%
%ADD23R,0.307750X1.000000*%
%TD*%
%TA.AperFunction,SMDPad,CuDef*%
%ADD24R,0.307750X0.500000*%
%TD*%
%TA.AperFunction,SMDPad,CuDef*%
%ADD25R,0.307750X1.000860*%
%TD*%
%TA.AperFunction,ComponentPad*%
%ADD26O,1.200000X2.000000*%
%TD*%
%TA.AperFunction,ComponentPad*%
%ADD27O,1.200000X2.300000*%
%TD*%
%TA.AperFunction,SMDPad,CuDef*%
%ADD28R,0.600000X0.450000*%
%TD*%
%TA.AperFunction,ViaPad*%
%ADD29C,0.600000*%
%TD*%
%TA.AperFunction,Conductor*%
%ADD30C,0.250000*%
%TD*%
%TA.AperFunction,Conductor*%
%ADD31C,0.130000*%
%TD*%
G04 APERTURE END LIST*
D10*
%TO.P,C8,1*%
%TO.N,GND*%
X99650000Y-65090000D03*
%TO.P,C8,2*%
%TO.N,Net-(U1-UCAP)*%
X99650000Y-66110000D03*
%TD*%
%TO.P,C9,1*%
%TO.N,GND*%
X99654422Y-63190000D03*
%TO.P,C9,2*%
%TO.N,+5V*%
X99654422Y-64210000D03*
%TD*%
%TO.P,RV1,1*%
%TO.N,Net-(J4-D--PadA7)*%
X105683220Y-58490000D03*
%TO.P,RV1,2*%
%TO.N,GND*%
X105683220Y-59510000D03*
%TD*%
D11*
%TO.P,Y1,1,1*%
%TO.N,Net-(U1-XTAL2)*%
X103554422Y-72200000D03*
%TO.P,Y1,2,2*%
%TO.N,GND*%
X104954422Y-72200000D03*
%TO.P,Y1,3,3*%
%TO.N,Net-(U1-XTAL1)*%
X104954422Y-71100000D03*
D12*
%TO.P,Y1,4,4*%
%TO.N,GND*%
X103554422Y-71100000D03*
%TD*%
D10*
%TO.P,C1,1*%
%TO.N,Net-(J4-SHIELD)*%
X99800000Y-58520000D03*
%TO.P,C1,2*%
%TO.N,GND*%
X99800000Y-59540000D03*
%TD*%
D13*
%TO.P,R4,1*%
%TO.N,GND*%
X101923220Y-59510000D03*
%TO.P,R4,2*%
%TO.N,Net-(J4-CC2)*%
X101923220Y-58490000D03*
%TD*%
D14*
%TO.P,R3,1*%
%TO.N,Net-(J4-SHIELD)*%
X99800000Y-60400000D03*
%TO.P,R3,2*%
%TO.N,GND*%
X100820000Y-60400000D03*
%TD*%
D15*
%TO.P,U1,1,PE6*%
%TO.N,D7*%
X100935720Y-63750000D03*
%TO.P,U1,2,UVCC*%
%TO.N,+5V*%
X100935720Y-64250000D03*
%TO.P,U1,3,D-*%
%TO.N,D-*%
X100935720Y-64750000D03*
%TO.P,U1,4,D+*%
%TO.N,D+*%
X100935720Y-65250000D03*
%TO.P,U1,5,UGND*%
%TO.N,GND*%
X100935720Y-65750000D03*
%TO.P,U1,6,UCAP*%
%TO.N,Net-(U1-UCAP)*%
X100935720Y-66250000D03*
%TO.P,U1,7,VBUS*%
%TO.N,+5V*%
X100935720Y-66750000D03*
%TO.P,U1,8,PB0*%
%TO.N,D17{slash}SS*%
X100935720Y-67250000D03*
%TO.P,U1,9,PB1*%
%TO.N,D15{slash}SCK*%
X100935720Y-67750000D03*
%TO.P,U1,10,PB2*%
%TO.N,D16{slash}MOSI*%
X100935720Y-68250000D03*
%TO.P,U1,11,PB3*%
%TO.N,D14{slash}MISO*%
X100935720Y-68750000D03*
D16*
%TO.P,U1,12,PB7*%
%TO.N,D11*%
X101773220Y-69587500D03*
%TO.P,U1,13,~{RESET}*%
%TO.N,RST*%
X102273220Y-69587500D03*
%TO.P,U1,14,VCC*%
%TO.N,+5V*%
X102773220Y-69587500D03*
%TO.P,U1,15,GND*%
%TO.N,GND*%
X103273220Y-69587500D03*
%TO.P,U1,16,XTAL2*%
%TO.N,Net-(U1-XTAL2)*%
X103773220Y-69587500D03*
%TO.P,U1,17,XTAL1*%
%TO.N,Net-(U1-XTAL1)*%
X104273220Y-69587500D03*
%TO.P,U1,18,PD0*%
%TO.N,D3{slash}SCL*%
X104773220Y-69587500D03*
%TO.P,U1,19,PD1*%
%TO.N,D2{slash}SDA*%
X105273220Y-69587500D03*
%TO.P,U1,20,PD2*%
%TO.N,D0{slash}RX*%
X105773220Y-69587500D03*
%TO.P,U1,21,PD3*%
%TO.N,D1{slash}TX*%
X106273220Y-69587500D03*
%TO.P,U1,22,PD5*%
%TO.N,unconnected-(U1-PD5-Pad22)*%
X106773220Y-69587500D03*
D15*
%TO.P,U1,23,GND*%
%TO.N,GND*%
X107610720Y-68750000D03*
%TO.P,U1,24,AVCC*%
%TO.N,Net-(C2-Pad2)*%
X107610720Y-68250000D03*
%TO.P,U1,25,PD4*%
%TO.N,D4*%
X107610720Y-67750000D03*
%TO.P,U1,26,PD6*%
%TO.N,D12*%
X107610720Y-67250000D03*
%TO.P,U1,27,PD7*%
%TO.N,D6*%
X107610720Y-66750000D03*
%TO.P,U1,28,PB4*%
%TO.N,D8*%
X107610720Y-66250000D03*
%TO.P,U1,29,PB5*%
%TO.N,D9*%
X107610720Y-65750000D03*
%TO.P,U1,30,PB6*%
%TO.N,D10*%
X107610720Y-65250000D03*
%TO.P,U1,31,PC6*%
%TO.N,D5*%
X107610720Y-64750000D03*
%TO.P,U1,32,PC7*%
%TO.N,D13*%
X107610720Y-64250000D03*
%TO.P,U1,33,~{HWB}/PE2*%
%TO.N,Net-(U1-~{HWB}{slash}PE2)*%
X107610720Y-63750000D03*
D16*
%TO.P,U1,34,VCC*%
%TO.N,+5V*%
X106773220Y-62912500D03*
%TO.P,U1,35,GND*%
%TO.N,GND*%
X106273220Y-62912500D03*
%TO.P,U1,36,PF7*%
%TO.N,A0*%
X105773220Y-62912500D03*
%TO.P,U1,37,PF6*%
%TO.N,A1*%
X105273220Y-62912500D03*
%TO.P,U1,38,PF5*%
%TO.N,A2*%
X104773220Y-62912500D03*
%TO.P,U1,39,PF4*%
%TO.N,A3*%
X104273220Y-62912500D03*
%TO.P,U1,40,PF1*%
%TO.N,A4*%
X103773220Y-62912500D03*
%TO.P,U1,41,PF0*%
%TO.N,A5*%
X103273220Y-62912500D03*
%TO.P,U1,42,AREF*%
%TO.N,unconnected-(U1-AREF-Pad42)*%
X102773220Y-62912500D03*
%TO.P,U1,43,GND*%
%TO.N,GND*%
X102273220Y-62912500D03*
%TO.P,U1,44,AVCC*%
%TO.N,Net-(C2-Pad2)*%
X101773220Y-62912500D03*
D17*
%TO.P,U1,45,GND*%
%TO.N,GND*%
X104398220Y-66250000D03*
%TD*%
D18*
%TO.P,D1,1,K*%
%TO.N,Net-(D1-K)*%
X107300000Y-71215000D03*
%TO.P,D1,2,A*%
%TO.N,D13*%
X107300000Y-72185000D03*
%TD*%
D10*
%TO.P,R2,1*%
%TO.N,Net-(J4-D--PadA7)*%
X104750000Y-58490000D03*
%TO.P,R2,2*%
%TO.N,D-*%
X104750000Y-59510000D03*
%TD*%
D13*
%TO.P,R6,1*%
%TO.N,+5V*%
X100200000Y-71910000D03*
%TO.P,R6,2*%
%TO.N,RST*%
X100200000Y-70890000D03*
%TD*%
%TO.P,R7,1*%
%TO.N,Net-(U1-~{HWB}{slash}PE2)*%
X108900000Y-63760000D03*
%TO.P,R7,2*%
%TO.N,GND*%
X108900000Y-62740000D03*
%TD*%
%TO.P,RV3,1*%
%TO.N,GND*%
X100983220Y-59510000D03*
%TO.P,RV3,2*%
%TO.N,Net-(FB1-Pad1)*%
X100983220Y-58490000D03*
%TD*%
D10*
%TO.P,R1,1*%
%TO.N,Net-(J4-D+-PadA6)*%
X103800000Y-58490000D03*
%TO.P,R1,2*%
%TO.N,D+*%
X103800000Y-59510000D03*
%TD*%
%TO.P,RV2,1*%
%TO.N,Net-(J4-D+-PadA6)*%
X102863220Y-58490000D03*
%TO.P,RV2,2*%
%TO.N,GND*%
X102863220Y-59510000D03*
%TD*%
D14*
%TO.P,C6,1*%
%TO.N,GND*%
X101344422Y-72300000D03*
%TO.P,C6,2*%
%TO.N,Net-(U1-XTAL2)*%
X102364422Y-72300000D03*
%TD*%
D19*
%TO.P,J1,1,Pin_1*%
%TO.N,D1{slash}TX*%
X97923220Y-58920000D03*
%TO.P,J1,2,Pin_2*%
%TO.N,D0{slash}RX*%
X97923220Y-60190000D03*
%TO.P,J1,3,Pin_3*%
%TO.N,GND*%
X97923220Y-61460000D03*
%TO.P,J1,4,Pin_4*%
X97923220Y-62730000D03*
%TO.P,J1,5,Pin_5*%
%TO.N,D2{slash}SDA*%
X97923220Y-64000000D03*
%TO.P,J1,6,Pin_6*%
%TO.N,D3{slash}SCL*%
X97923220Y-65270000D03*
%TO.P,J1,7,Pin_7*%
%TO.N,D4*%
X97923220Y-66540000D03*
%TO.P,J1,8,Pin_8*%
%TO.N,D5*%
X97923220Y-67810000D03*
%TO.P,J1,9,Pin_9*%
%TO.N,D6*%
X97923220Y-69080000D03*
%TO.P,J1,10,Pin_10*%
%TO.N,D7*%
X97923220Y-70350000D03*
%TO.P,J1,11,Pin_11*%
%TO.N,D8*%
X97923220Y-71620000D03*
%TO.P,J1,12,Pin_12*%
%TO.N,D9*%
X97923220Y-72890000D03*
%TD*%
D20*
%TO.P,J3,1,Pin_1*%
%TO.N,D11*%
X106813220Y-74160000D03*
%TO.P,J3,2,Pin_2*%
%TO.N,D12*%
X105543220Y-74160000D03*
%TO.P,J3,3,Pin_3*%
%TO.N,D13*%
X104273220Y-74160000D03*
%TO.P,J3,4,Pin_4*%
%TO.N,D17{slash}SS*%
X103003220Y-74160000D03*
%TO.P,J3,5,Pin_5*%
%TO.N,A5*%
X101733220Y-74160000D03*
%TD*%
D10*
%TO.P,C7,1*%
%TO.N,Net-(C7-Pad1)*%
X108500000Y-58490000D03*
%TO.P,C7,2*%
%TO.N,GND*%
X108500000Y-59510000D03*
%TD*%
%TO.P,C4,1*%
%TO.N,+5V*%
X99650000Y-67340000D03*
%TO.P,C4,2*%
%TO.N,GND*%
X99650000Y-68360000D03*
%TD*%
D21*
%TO.P,C2,1*%
%TO.N,GND*%
X103490000Y-61500000D03*
%TO.P,C2,2*%
%TO.N,Net-(C2-Pad2)*%
X102470000Y-61500000D03*
%TD*%
D14*
%TO.P,R9,1*%
%TO.N,+5V*%
X100590000Y-61500000D03*
%TO.P,R9,2*%
%TO.N,Net-(C2-Pad2)*%
X101610000Y-61500000D03*
%TD*%
D10*
%TO.P,R8,1*%
%TO.N,Net-(D1-K)*%
X108250000Y-71190000D03*
%TO.P,R8,2*%
%TO.N,GND*%
X108250000Y-72210000D03*
%TD*%
D13*
%TO.P,FB1,1*%
%TO.N,Net-(FB1-Pad1)*%
X107563220Y-59510000D03*
%TO.P,FB1,2*%
%TO.N,Net-(C7-Pad1)*%
X107563220Y-58490000D03*
%TD*%
D22*
%TO.P,J4,A1,GND*%
%TO.N,GND*%
X107473220Y-57341500D03*
X101073220Y-57341500D03*
%TO.P,J4,A4,VBUS*%
%TO.N,Net-(FB1-Pad1)*%
X106673220Y-57341500D03*
D23*
%TO.P,J4,A5,CC1*%
%TO.N,Net-(J4-CC1)*%
X105524143Y-57341500D03*
D24*
%TO.P,J4,A6,D+*%
%TO.N,Net-(J4-D+-PadA6)*%
X104523190Y-57591500D03*
D25*
%TO.P,J4,A7,D-*%
%TO.N,Net-(J4-D--PadA7)*%
X104024389Y-57341930D03*
D22*
%TO.P,J4,A9,VBUS*%
%TO.N,Net-(FB1-Pad1)*%
X101873220Y-57341500D03*
D23*
%TO.P,J4,B5,CC2*%
%TO.N,Net-(J4-CC2)*%
X102521031Y-57341500D03*
%TO.P,J4,B6,D+*%
%TO.N,Net-(J4-D+-PadA6)*%
X103523912Y-57342360D03*
%TO.P,J4,B7,D-*%
%TO.N,Net-(J4-D--PadA7)*%
X105023667Y-57341500D03*
D26*
%TO.P,J4,S1,SHIELD*%
%TO.N,Net-(J4-SHIELD)*%
X98673220Y-56591500D03*
%TO.P,J4,S2*%
%TO.N,N/C*%
X109873220Y-56591500D03*
D27*
X109873220Y-52591500D03*
X98673220Y-52591500D03*
%TD*%
D14*
%TO.P,C3,1*%
%TO.N,GND*%
X101144422Y-71000000D03*
%TO.P,C3,2*%
%TO.N,+5V*%
X102164422Y-71000000D03*
%TD*%
D13*
%TO.P,C5,1*%
%TO.N,GND*%
X106154422Y-72150000D03*
%TO.P,C5,2*%
%TO.N,Net-(U1-XTAL1)*%
X106154422Y-71130000D03*
%TD*%
D14*
%TO.P,C10,1*%
%TO.N,+5V*%
X106990000Y-61650000D03*
%TO.P,C10,2*%
%TO.N,GND*%
X108010000Y-61650000D03*
%TD*%
D10*
%TO.P,R5,1*%
%TO.N,Net-(J4-CC1)*%
X106623220Y-58490000D03*
%TO.P,R5,2*%
%TO.N,GND*%
X106623220Y-59510000D03*
%TD*%
D21*
%TO.P,F1,1*%
%TO.N,Net-(C7-Pad1)*%
X108460000Y-60600000D03*
%TO.P,F1,2*%
%TO.N,Net-(D2-A)*%
X107440000Y-60600000D03*
%TD*%
D28*
%TO.P,D2,1,K*%
%TO.N,+5V*%
X104350000Y-60597500D03*
%TO.P,D2,2,A*%
%TO.N,Net-(D2-A)*%
X106450000Y-60597500D03*
%TD*%
D19*
%TO.P,J2,1,Pin_1*%
%TO.N,+5V*%
X110623220Y-58920000D03*
%TO.P,J2,2,Pin_2*%
%TO.N,GND*%
X110623220Y-60190000D03*
%TO.P,J2,3,Pin_3*%
%TO.N,RST*%
X110623220Y-61460000D03*
%TO.P,J2,4,Pin_4*%
%TO.N,A4*%
X110623220Y-62730000D03*
%TO.P,J2,5,Pin_5*%
%TO.N,A3*%
X110623220Y-64000000D03*
%TO.P,J2,6,Pin_6*%
%TO.N,A2*%
X110623220Y-65270000D03*
%TO.P,J2,7,Pin_7*%
%TO.N,A1*%
X110623220Y-66540000D03*
%TO.P,J2,8,Pin_8*%
%TO.N,A0*%
X110623220Y-67810000D03*
%TO.P,J2,9,Pin_9*%
%TO.N,D15{slash}SCK*%
X110623220Y-69080000D03*
%TO.P,J2,10,Pin_10*%
%TO.N,D14{slash}MISO*%
X110623220Y-70350000D03*
%TO.P,J2,11,Pin_11*%
%TO.N,D16{slash}MOSI*%
X110623220Y-71620000D03*
%TO.P,J2,12,Pin_12*%
%TO.N,D10*%
X110623220Y-72890000D03*
%TD*%
D29*
%TO.N,+5V*%
X99650000Y-67340000D03*
X102155500Y-71000000D03*
X105100000Y-60300000D03*
X100575500Y-61500000D03*
X99654422Y-64210000D03*
%TO.N,GND*%
X104400000Y-66300000D03*
X101073220Y-57341500D03*
X109100000Y-72350000D03*
X107600000Y-69350000D03*
X106150000Y-72150000D03*
X101350000Y-72300000D03*
X101150000Y-71000000D03*
X99645531Y-65097634D03*
X99649500Y-68351092D03*
%TO.N,Net-(C2-Pad2)*%
X106674363Y-68250000D03*
X101922720Y-63810223D03*
%TO.N,RST*%
X102756849Y-68620500D03*
X104550000Y-63950000D03*
%TO.N,D1{slash}TX*%
X102238388Y-65933364D03*
%TO.N,D0{slash}RX*%
X102109022Y-66721135D03*
%TO.N,A4*%
X104450000Y-61550000D03*
%TO.N,Net-(J4-D+-PadA6)*%
X103021062Y-58150000D03*
%TO.N,D+*%
X103800000Y-59510000D03*
X101915140Y-65114500D03*
%TO.N,D-*%
X102664500Y-65114500D03*
X104750000Y-59510000D03*
%TO.N,D15{slash}SCK*%
X101913083Y-68588627D03*
%TO.N,D16{slash}MOSI*%
X99494500Y-71550000D03*
%TO.N,D14{slash}MISO*%
X100269176Y-70121494D03*
%TO.N,D3{slash}SCL*%
X102444172Y-67931922D03*
%TO.N,D2{slash}SDA*%
X101891403Y-67417422D03*
%TO.N,Net-(J4-D--PadA7)*%
X105200000Y-58600000D03*
%TO.N,D4*%
X105460703Y-67583535D03*
%TO.N,D6*%
X108923720Y-69000000D03*
%TO.N,D8*%
X106228223Y-67235500D03*
%TO.N,D9*%
X106324500Y-66424003D03*
%TO.N,D5*%
X106200000Y-65355500D03*
%TO.N,D10*%
X109049648Y-71000352D03*
%TO.N,A0*%
X106165541Y-64241045D03*
%TO.N,A1*%
X105436113Y-64251505D03*
%TO.N,A2*%
X105949503Y-61550000D03*
%TO.N,A3*%
X105200000Y-61550000D03*
%TO.N,A5*%
X103087118Y-66185688D03*
%TO.N,Net-(J4-SHIELD)*%
X99800000Y-58550000D03*
%TO.N,D11*%
X100984191Y-69433000D03*
%TO.N,D12*%
X104250000Y-72980500D03*
%TO.N,Net-(FB1-Pad1)*%
X107563220Y-59510000D03*
X101167581Y-58751539D03*
X101873220Y-57341500D03*
X106673220Y-57341500D03*
%TD*%
D30*
%TO.N,+5V*%
X102773220Y-70382280D02*
X102773220Y-69587500D01*
D31*
X107034422Y-61284422D02*
X107034422Y-61700000D01*
D30*
X102155500Y-71000000D02*
X102773220Y-70382280D01*
D31*
X102155500Y-71000000D02*
X101505500Y-71650000D01*
X101505500Y-71650000D02*
X100460000Y-71650000D01*
X105350000Y-60300000D02*
X106067500Y-61017500D01*
X100240000Y-66750000D02*
X100935720Y-66750000D01*
X100460000Y-71650000D02*
X100200000Y-71910000D01*
X106767500Y-61017500D02*
X107034422Y-61284422D01*
X104802500Y-60597500D02*
X104350000Y-60597500D01*
X105100000Y-60300000D02*
X105350000Y-60300000D01*
X99654422Y-64210000D02*
X99694422Y-64250000D01*
X107034422Y-61700000D02*
X106773220Y-61961202D01*
X105100000Y-60300000D02*
X104802500Y-60597500D01*
X99654422Y-64210000D02*
X99654422Y-64019117D01*
X99694422Y-64250000D02*
X100935720Y-64250000D01*
X106773220Y-61961202D02*
X106773220Y-62912500D01*
X99650000Y-67340000D02*
X100240000Y-66750000D01*
X106067500Y-61017500D02*
X106767500Y-61017500D01*
X99650000Y-67340000D02*
X99650000Y-67230000D01*
%TO.N,Net-(C2-Pad2)*%
X101773220Y-61500000D02*
X102500000Y-61500000D01*
X101773220Y-63660723D02*
X101773220Y-62912500D01*
X106674363Y-68250000D02*
X107610720Y-68250000D01*
X101922720Y-63810223D02*
X101773220Y-63660723D01*
X101773220Y-62912500D02*
X101773220Y-61500000D01*
%TO.N,Net-(U1-XTAL1)*%
X106154422Y-71220000D02*
X105024422Y-71220000D01*
X104954422Y-70954422D02*
X104273220Y-70273220D01*
X104273220Y-70273220D02*
X104273220Y-69587500D01*
X104954422Y-71150000D02*
X104954422Y-70954422D01*
X105024422Y-71220000D02*
X104954422Y-71150000D01*
%TO.N,RST*%
X100200000Y-70890000D02*
X100725000Y-70365000D01*
X100725000Y-70365000D02*
X102135000Y-70365000D01*
X102273220Y-70226780D02*
X102273220Y-69587500D01*
X102135000Y-70365000D02*
X102273220Y-70226780D01*
X102273220Y-69587500D02*
X102273220Y-69126780D01*
X102273220Y-69126780D02*
X102756849Y-68643151D01*
%TO.N,D1{slash}TX*%
X104600000Y-67450000D02*
X106273220Y-69123220D01*
X103549961Y-67450000D02*
X104600000Y-67450000D01*
X102238388Y-65933364D02*
X102599158Y-66294134D01*
X102599158Y-66499197D02*
X103549961Y-67450000D01*
X106273220Y-69123220D02*
X106273220Y-69587500D01*
X102599158Y-66294134D02*
X102599158Y-66499197D01*
%TO.N,D0{slash}RX*%
X104492304Y-67710000D02*
X105773220Y-68990916D01*
X102109022Y-66721135D02*
X102453400Y-66721135D01*
X102453400Y-66721135D02*
X103442266Y-67710001D01*
X105773220Y-68990916D02*
X105773220Y-69587500D01*
X103442266Y-67710001D02*
X104492304Y-67710000D01*
%TO.N,A4*%
X104450000Y-61550000D02*
X103773220Y-62226780D01*
X103773220Y-62226780D02*
X103773220Y-62912500D01*
%TO.N,Net-(U1-XTAL2)*%
X104199422Y-70619228D02*
X103773220Y-70193026D01*
X103504422Y-72300000D02*
X104199422Y-71605000D01*
X102334422Y-72300000D02*
X103504422Y-72300000D01*
X103773220Y-70193026D02*
X103773220Y-69587500D01*
X104199422Y-71605000D02*
X104199422Y-70619228D01*
%TO.N,Net-(U1-UCAP)*%
X99654422Y-66080000D02*
X99824422Y-66250000D01*
X99824422Y-66250000D02*
X100935720Y-66250000D01*
%TO.N,Net-(D1-K)*%
X107300000Y-71215000D02*
X108225000Y-71215000D01*
X108225000Y-71215000D02*
X108250000Y-71190000D01*
D30*
%TO.N,Net-(D2-A)*%
X107462500Y-60597500D02*
X107465000Y-60600000D01*
X106450000Y-60597500D02*
X107462500Y-60597500D01*
D31*
%TO.N,D17{slash}SS*%
X100300000Y-67250000D02*
X100165000Y-67385000D01*
X100165000Y-67385000D02*
X100165000Y-67611690D01*
X100165000Y-67611690D02*
X99926690Y-67850000D01*
X99135000Y-69615241D02*
X99000000Y-69750241D01*
X100935720Y-67250000D02*
X100300000Y-67250000D01*
X103003220Y-74008249D02*
X103003220Y-74160000D01*
X99926690Y-67850000D02*
X99373310Y-67850000D01*
X99000000Y-72150000D02*
X100035000Y-73185000D01*
X100035000Y-73185000D02*
X102179971Y-73185000D01*
X99373310Y-67850000D02*
X99135000Y-68088310D01*
X99135000Y-68088310D02*
X99135000Y-69615241D01*
X99000000Y-69750241D02*
X99000000Y-72150000D01*
X102179971Y-73185000D02*
X103003220Y-74008249D01*
%TO.N,Net-(J4-CC1)*%
X106490000Y-58490000D02*
X106228220Y-58228220D01*
X105524143Y-57501806D02*
X105524143Y-57341500D01*
X106228220Y-58228220D02*
X106228220Y-58205883D01*
X106228220Y-58205883D02*
X105524143Y-57501806D01*
X106623220Y-58490000D02*
X106490000Y-58490000D01*
%TO.N,Net-(J4-D+-PadA6)*%
X103800000Y-58440000D02*
X103920883Y-58440000D01*
X103800000Y-58490000D02*
X103885528Y-58490000D01*
X103523912Y-58213912D02*
X103523912Y-57342360D01*
X102863220Y-58490000D02*
X103800000Y-58490000D01*
X104523190Y-57852338D02*
X104523190Y-57591500D01*
X103800000Y-58490000D02*
X103523912Y-58213912D01*
X103885528Y-58490000D02*
X104523190Y-57852338D01*
%TO.N,D+*%
X101915140Y-65114500D02*
X101779640Y-65250000D01*
X101779640Y-65250000D02*
X100935720Y-65250000D01*
%TO.N,D-*%
X101066220Y-64619500D02*
X100935720Y-64750000D01*
X102664500Y-65099922D02*
X102664500Y-64964500D01*
X102664500Y-64964500D02*
X102319500Y-64619500D01*
X102319500Y-64619500D02*
X101066220Y-64619500D01*
%TO.N,D7*%
X100860720Y-63675000D02*
X100935720Y-63750000D01*
X98875000Y-69507545D02*
X98875000Y-64160305D01*
X97923220Y-70350000D02*
X98032545Y-70350000D01*
X98032545Y-70350000D02*
X98875000Y-69507545D01*
X99360305Y-63675000D02*
X100860720Y-63675000D01*
X98875000Y-64160305D02*
X99360305Y-63675000D01*
%TO.N,D15{slash}SCK*%
X101337380Y-67750000D02*
X100935720Y-67750000D01*
X101913083Y-68325703D02*
X101337380Y-67750000D01*
X101379806Y-67750000D02*
X100935720Y-67750000D01*
X101913083Y-68588627D02*
X101913083Y-68325703D01*
%TO.N,D16{slash}MOSI*%
X100200000Y-68600000D02*
X100200000Y-68350000D01*
X100300000Y-68250000D02*
X100935720Y-68250000D01*
X100200000Y-68350000D02*
X100300000Y-68250000D01*
X99494500Y-71550000D02*
X99494500Y-69305500D01*
X99494500Y-69305500D02*
X100200000Y-68600000D01*
%TO.N,D14{slash}MISO*%
X100269176Y-68898520D02*
X100417696Y-68750000D01*
X100417696Y-68750000D02*
X100935720Y-68750000D01*
X100269176Y-70121494D02*
X100269176Y-68898520D01*
%TO.N,D3{slash}SCL*%
X103218589Y-68250000D02*
X104268628Y-68250000D01*
X104773220Y-68754592D02*
X104773220Y-69587500D01*
X102900511Y-67931922D02*
X103218589Y-68250000D01*
X102444172Y-67931922D02*
X102900511Y-67931922D01*
X104268628Y-68250000D02*
X104773220Y-68754592D01*
%TO.N,D2{slash}SDA*%
X103334569Y-67970000D02*
X104384608Y-67970000D01*
X101891403Y-67417422D02*
X102781991Y-67417422D01*
X102781991Y-67417422D02*
X103334569Y-67970000D01*
X105273220Y-68858612D02*
X105273220Y-69587500D01*
X104384608Y-67970000D02*
X105273220Y-68858612D01*
%TO.N,Net-(J4-D--PadA7)*%
X105023667Y-58000000D02*
X105023667Y-57341500D01*
X105023667Y-57188102D02*
X105023667Y-57341500D01*
X104750000Y-58490000D02*
X104750000Y-58273667D01*
X104024389Y-57341930D02*
X104024389Y-57186426D01*
X105513667Y-58490000D02*
X105683220Y-58490000D01*
X104750000Y-58273667D02*
X105023667Y-58000000D01*
X104885565Y-57050000D02*
X105023667Y-57188102D01*
X104024389Y-57186426D02*
X104160815Y-57050000D01*
X104160815Y-57050000D02*
X104885565Y-57050000D01*
%TO.N,D4*%
X105460703Y-67583535D02*
X105627168Y-67750000D01*
X105627168Y-67750000D02*
X107610720Y-67750000D01*
%TO.N,D6*%
X108923720Y-67423720D02*
X108250000Y-66750000D01*
X108923720Y-69000000D02*
X108923720Y-67423720D01*
X108250000Y-66750000D02*
X107610720Y-66750000D01*
%TO.N,D8*%
X106228223Y-67235500D02*
X106524720Y-66939003D01*
X106839500Y-66577134D02*
X107166634Y-66250000D01*
X106524720Y-66939003D02*
X106537820Y-66939003D01*
X107166634Y-66250000D02*
X107610720Y-66250000D01*
X106839500Y-66637323D02*
X106839500Y-66577134D01*
X106537820Y-66939003D02*
X106839500Y-66637323D01*
%TO.N,D9*%
X107020752Y-65750000D02*
X107610720Y-65750000D01*
X106346749Y-66424003D02*
X107020752Y-65750000D01*
X106324500Y-66424003D02*
X106346749Y-66424003D01*
%TO.N,D5*%
X106805500Y-64750000D02*
X107610720Y-64750000D01*
X106200000Y-65355500D02*
X106805500Y-64750000D01*
%TO.N,D10*%
X109418720Y-69231280D02*
X109418720Y-68794964D01*
X109049648Y-69600352D02*
X109418720Y-69231280D01*
X109418720Y-68794964D02*
X109183720Y-68559964D01*
X109183720Y-65633720D02*
X108800000Y-65250000D01*
X109183720Y-68559964D02*
X109183720Y-65633720D01*
X109049648Y-71000352D02*
X109049648Y-69600352D01*
X108800000Y-65250000D02*
X107610720Y-65250000D01*
%TO.N,Net-(J4-CC2)*%
X102521031Y-57892189D02*
X102521031Y-57341500D01*
X101923220Y-58490000D02*
X102521031Y-57892189D01*
%TO.N,A0*%
X106165541Y-64241045D02*
X105773220Y-63848724D01*
X105773220Y-63848724D02*
X105773220Y-62912500D01*
X105773220Y-62912500D02*
X105773220Y-63362889D01*
%TO.N,A1*%
X105273220Y-63623220D02*
X105273220Y-62912500D01*
X105436113Y-63786113D02*
X105273220Y-63623220D01*
X105436113Y-64251505D02*
X105436113Y-63786113D01*
%TO.N,A2*%
X104917732Y-62150000D02*
X104773220Y-62294512D01*
X104773220Y-62294512D02*
X104773220Y-62912500D01*
X105349503Y-62150000D02*
X104917732Y-62150000D01*
X105949503Y-61550000D02*
X105349503Y-62150000D01*
%TO.N,A3*%
X104505000Y-62045000D02*
X104273220Y-62276780D01*
X105200000Y-61550000D02*
X105150036Y-61550000D01*
X104273220Y-62276780D02*
X104273220Y-62912500D01*
X104655036Y-62045000D02*
X104505000Y-62045000D01*
X105150036Y-61550000D02*
X104655036Y-62045000D01*
%TO.N,A5*%
X103250000Y-65676089D02*
X103250000Y-62935720D01*
X103250000Y-62935720D02*
X103273220Y-62912500D01*
X103175000Y-66097806D02*
X103175000Y-65751089D01*
X103087118Y-66185688D02*
X103175000Y-66097806D01*
X103175000Y-65751089D02*
X103250000Y-65676089D01*
%TO.N,Net-(J4-SHIELD)*%
X99800000Y-60400000D02*
X99150000Y-59750000D01*
X99150000Y-59750000D02*
X99150000Y-57068280D01*
X99150000Y-57068280D02*
X98673220Y-56591500D01*
%TO.N,Net-(U1-~{HWB}{slash}PE2)*%
X108900000Y-63760000D02*
X108890000Y-63750000D01*
X108890000Y-63750000D02*
X107610720Y-63750000D01*
%TO.N,D11*%
X101138691Y-69587500D02*
X101773220Y-69587500D01*
X100984191Y-69433000D02*
X101138691Y-69587500D01*
%TO.N,D12*%
X104367000Y-72863500D02*
X106313775Y-72863500D01*
X108343220Y-67343220D02*
X108250000Y-67250000D01*
X104250000Y-72980500D02*
X104367000Y-72863500D01*
X106755000Y-70955632D02*
X108343220Y-69367412D01*
X108250000Y-67250000D02*
X107610720Y-67250000D01*
X108343220Y-69367412D02*
X108343220Y-67343220D01*
X106313775Y-72863500D02*
X106755000Y-72422275D01*
X106755000Y-72422275D02*
X106755000Y-70955632D01*
%TO.N,D13*%
X107770000Y-71715000D02*
X107300000Y-72185000D01*
X109678720Y-71121280D02*
X109085000Y-71715000D01*
X109085000Y-71715000D02*
X107770000Y-71715000D01*
X107300000Y-72185000D02*
X107300000Y-72600000D01*
X104273220Y-74008249D02*
X104273220Y-74160000D01*
X107610720Y-64250000D02*
X108250000Y-64250000D01*
X109443720Y-68452268D02*
X109678720Y-68687268D01*
X105096469Y-73185000D02*
X104273220Y-74008249D01*
X106715000Y-73185000D02*
X105096469Y-73185000D01*
X107300000Y-72600000D02*
X106715000Y-73185000D01*
X109443720Y-65443720D02*
X109443720Y-68452268D01*
X109678720Y-68687268D02*
X109678720Y-71121280D01*
X108250000Y-64250000D02*
X109443720Y-65443720D01*
D30*
%TO.N,Net-(C7-Pad1)*%
X109095000Y-59940000D02*
X109095000Y-59205172D01*
X108354828Y-58465000D02*
X107588220Y-58465000D01*
X109095000Y-59205172D02*
X108354828Y-58465000D01*
X108435000Y-60600000D02*
X109095000Y-59940000D01*
%TD*%
%TA.AperFunction,Conductor*%
%TO.N,GND*%
G36*
X98032665Y-51569245D02*
G01*
X98051410Y-51614500D01*
X98044603Y-51643223D01*
X97972640Y-51786512D01*
X97932720Y-51954948D01*
X97932720Y-53184628D01*
X97947773Y-53313426D01*
X97947775Y-53313434D01*
X97982416Y-53408611D01*
X97980281Y-53457547D01*
X97944167Y-53490640D01*
X97922277Y-53494500D01*
X97871581Y-53494500D01*
X97743730Y-53506347D01*
X97711767Y-53509309D01*
X97505792Y-53567914D01*
X97314107Y-53663362D01*
X97314104Y-53663364D01*
X97143215Y-53792411D01*
X96998941Y-53950672D01*
X96886208Y-54132741D01*
X96808848Y-54332428D01*
X96808846Y-54332437D01*
X96769500Y-54542924D01*
X96769500Y-54757075D01*
X96808846Y-54967562D01*
X96808848Y-54967571D01*
X96886208Y-55167258D01*
X96998941Y-55349327D01*
X97115586Y-55477281D01*
X97143215Y-55507588D01*
X97256962Y-55593484D01*
X97314102Y-55636634D01*
X97314103Y-55636634D01*
X97314104Y-55636635D01*
X97314107Y-55636637D01*
X97505792Y-55732085D01*
X97505794Y-55732085D01*
X97505797Y-55732087D01*
X97711768Y-55790691D01*
X97871581Y-55805500D01*
X97871585Y-55805500D01*
X97934677Y-55805500D01*
X97979932Y-55824245D01*
X97998677Y-55869500D01*
X97991870Y-55898220D01*
X97972641Y-55936510D01*
X97972640Y-55936512D01*
X97932720Y-56104948D01*
X97932720Y-57034628D01*
X97947773Y-57163426D01*
X97947775Y-57163437D01*
X98006980Y-57326098D01*
X98006982Y-57326103D01*
X98102100Y-57470723D01*
X98102102Y-57470726D01*
X98168942Y-57533785D01*
X98228014Y-57589516D01*
X98377926Y-57676068D01*
X98543758Y-57725715D01*
X98716569Y-57735780D01*
X98869387Y-57708833D01*
X98917209Y-57719435D01*
X98943528Y-57760747D01*
X98944500Y-57771861D01*
X98944500Y-59704212D01*
X98940909Y-59725348D01*
X98940541Y-59726399D01*
X98944299Y-59759755D01*
X98944500Y-59763341D01*
X98944500Y-59773155D01*
X98946682Y-59782719D01*
X98947282Y-59786255D01*
X98951042Y-59819615D01*
X98951042Y-59819617D01*
X98951638Y-59820565D01*
X98959839Y-59840363D01*
X98960088Y-59841454D01*
X98960089Y-59841456D01*
X98981011Y-59867690D01*
X98983090Y-59870620D01*
X98988315Y-59878936D01*
X98988317Y-59878938D01*
X98995256Y-59885878D01*
X98997649Y-59888555D01*
X99013571Y-59908520D01*
X99018578Y-59914798D01*
X99019585Y-59915283D01*
X99037066Y-59927687D01*
X99370755Y-60261376D01*
X99389500Y-60306631D01*
X99389500Y-60612134D01*
X99389501Y-60612135D01*
X99405483Y-60692491D01*
X99405483Y-60692492D01*
X99466376Y-60783624D01*
X99557505Y-60844515D01*
X99557507Y-60844516D01*
X99605634Y-60854088D01*
X99637867Y-60860500D01*
X99962132Y-60860499D01*
X99962134Y-60860499D01*
X99962134Y-60860498D01*
X100015462Y-60849891D01*
X100042491Y-60844516D01*
X100042492Y-60844516D01*
X100042492Y-60844515D01*
X100042495Y-60844515D01*
X100133624Y-60783624D01*
X100194515Y-60692495D01*
X100197391Y-60678040D01*
X100202693Y-60651380D01*
X100210500Y-60612133D01*
X100210500Y-60500000D01*
X100400000Y-60500000D01*
X100400000Y-60627555D01*
X100402764Y-60651380D01*
X100445803Y-60748853D01*
X100521146Y-60824196D01*
X100618619Y-60867235D01*
X100642444Y-60869999D01*
X100642446Y-60870000D01*
X100720000Y-60870000D01*
X100720000Y-60500000D01*
X100920000Y-60500000D01*
X100920000Y-60870000D01*
X100997554Y-60870000D01*
X100997555Y-60869999D01*
X101021380Y-60867235D01*
X101118853Y-60824196D01*
X101194196Y-60748853D01*
X101237235Y-60651380D01*
X101239999Y-60627555D01*
X101240000Y-60627553D01*
X101240000Y-60500000D01*
X100920000Y-60500000D01*
X100720000Y-60500000D01*
X100400000Y-60500000D01*
X100210500Y-60500000D01*
X100210499Y-60300000D01*
X100400000Y-60300000D01*
X101240000Y-60300000D01*
X101240000Y-60172446D01*
X101239999Y-60172444D01*
X101237235Y-60148619D01*
X101194196Y-60051146D01*
X101180945Y-60037895D01*
X101162200Y-59992640D01*
X101180945Y-59947385D01*
X101218825Y-59929066D01*
X101234599Y-59927235D01*
X101332073Y-59884196D01*
X101407965Y-59808305D01*
X101453220Y-59789560D01*
X101498475Y-59808305D01*
X101574366Y-59884196D01*
X101671839Y-59927235D01*
X101695664Y-59929999D01*
X101695666Y-59930000D01*
X101823220Y-59930000D01*
X101823220Y-59610000D01*
X102023220Y-59610000D01*
X102023220Y-59930000D01*
X102150774Y-59930000D01*
X102150775Y-59929999D01*
X102174600Y-59927235D01*
X102272073Y-59884196D01*
X102347965Y-59808305D01*
X102393220Y-59789560D01*
X102438475Y-59808305D01*
X102514366Y-59884196D01*
X102611839Y-59927235D01*
X102635664Y-59929999D01*
X102635666Y-59930000D01*
X102763220Y-59930000D01*
X102763220Y-59610000D01*
X102023220Y-59610000D01*
X101823220Y-59610000D01*
X100513220Y-59610000D01*
X100513220Y-59687555D01*
X100515984Y-59711380D01*
X100559023Y-59808853D01*
X100597170Y-59847000D01*
X100615915Y-59892255D01*
X100597170Y-59937510D01*
X100577767Y-59950801D01*
X100521149Y-59975801D01*
X100521146Y-59975803D01*
X100445803Y-60051146D01*
X100402764Y-60148619D01*
X100400000Y-60172444D01*
X100400000Y-60300000D01*
X100210499Y-60300000D01*
X100210499Y-60187868D01*
X100210499Y-60187865D01*
X100210498Y-60187864D01*
X100208737Y-60179012D01*
X100203103Y-60150682D01*
X100194516Y-60107508D01*
X100194516Y-60107507D01*
X100160179Y-60056119D01*
X100133624Y-60016376D01*
X100133623Y-60016375D01*
X100133470Y-60016222D01*
X100133386Y-60016021D01*
X100130122Y-60011135D01*
X100131093Y-60010485D01*
X100114725Y-59970967D01*
X100133470Y-59925712D01*
X100144419Y-59918217D01*
X100143961Y-59917548D01*
X100148853Y-59914196D01*
X100224196Y-59838853D01*
X100267235Y-59741380D01*
X100269999Y-59717555D01*
X100270000Y-59717553D01*
X100270000Y-59640000D01*
X99764000Y-59640000D01*
X99718745Y-59621255D01*
X99700000Y-59576000D01*
X99700000Y-59120000D01*
X99900000Y-59120000D01*
X99900000Y-59440000D01*
X100270000Y-59440000D01*
X100270000Y-59362446D01*
X100269999Y-59362444D01*
X100267235Y-59338619D01*
X100224196Y-59241146D01*
X100148853Y-59165803D01*
X100051380Y-59122764D01*
X100027555Y-59120000D01*
X99900000Y-59120000D01*
X99700000Y-59120000D01*
X99572444Y-59120000D01*
X99548619Y-59122764D01*
X99445721Y-59168199D01*
X99444360Y-59165118D01*
X99407607Y-59172790D01*
X99366623Y-59145963D01*
X99355499Y-59109906D01*
X99355499Y-58932681D01*
X99374244Y-58887428D01*
X99419499Y-58868683D01*
X99455054Y-58879468D01*
X99507505Y-58914515D01*
X99507507Y-58914516D01*
X99560650Y-58925086D01*
X99582765Y-58934015D01*
X99615128Y-58954814D01*
X99736666Y-58990500D01*
X99736667Y-58990500D01*
X99863333Y-58990500D01*
X99863334Y-58990500D01*
X99984872Y-58954814D01*
X100017237Y-58934013D01*
X100039347Y-58925085D01*
X100092495Y-58914515D01*
X100183624Y-58853624D01*
X100244515Y-58762495D01*
X100260500Y-58682133D01*
X100260499Y-58357868D01*
X100260499Y-58357865D01*
X100260498Y-58357864D01*
X100258961Y-58350138D01*
X100254532Y-58327867D01*
X100244516Y-58277508D01*
X100244516Y-58277507D01*
X100244499Y-58277482D01*
X100183624Y-58186376D01*
X100160700Y-58171058D01*
X100092494Y-58125484D01*
X100092492Y-58125483D01*
X100012136Y-58109500D01*
X100012133Y-58109500D01*
X99863335Y-58109500D01*
X99863334Y-58109500D01*
X99736666Y-58109500D01*
X99736663Y-58109500D01*
X99587865Y-58109500D01*
X99587864Y-58109501D01*
X99507508Y-58125483D01*
X99507504Y-58125485D01*
X99455056Y-58160530D01*
X99407014Y-58170086D01*
X99366286Y-58142872D01*
X99355500Y-58107316D01*
X99355500Y-57298093D01*
X99362307Y-57269371D01*
X99373799Y-57246490D01*
X99413720Y-57078052D01*
X99413720Y-56738596D01*
X99432465Y-56693342D01*
X99477720Y-56674597D01*
X99522975Y-56693342D01*
X99538586Y-56718818D01*
X99542648Y-56731317D01*
X99631390Y-56871152D01*
X99752120Y-56984526D01*
X99897252Y-57064313D01*
X99897256Y-57064314D01*
X100057661Y-57105499D01*
X100057665Y-57105499D01*
X100057667Y-57105500D01*
X100057668Y-57105500D01*
X100181718Y-57105500D01*
X100304782Y-57089954D01*
X100304783Y-57089953D01*
X100304788Y-57089953D01*
X100458775Y-57028985D01*
X100513852Y-56988968D01*
X100561481Y-56977534D01*
X100603247Y-57003127D01*
X100615470Y-57040746D01*
X100615470Y-57241500D01*
X101109220Y-57241500D01*
X101154475Y-57260245D01*
X101173220Y-57305500D01*
X101173220Y-57377500D01*
X101154475Y-57422755D01*
X101109220Y-57441500D01*
X100615471Y-57441500D01*
X100615471Y-57856273D01*
X100624173Y-57900026D01*
X100624174Y-57900028D01*
X100657324Y-57949642D01*
X100657327Y-57949645D01*
X100705289Y-57981692D01*
X100732503Y-58022420D01*
X100722947Y-58070462D01*
X100694232Y-58094031D01*
X100690730Y-58095481D01*
X100599595Y-58156376D01*
X100538704Y-58247505D01*
X100538703Y-58247507D01*
X100522720Y-58327864D01*
X100522720Y-58652134D01*
X100522721Y-58652135D01*
X100538703Y-58732491D01*
X100538703Y-58732492D01*
X100538704Y-58732494D01*
X100538705Y-58732495D01*
X100599596Y-58823624D01*
X100690725Y-58884515D01*
X100717250Y-58889791D01*
X100757978Y-58917003D01*
X100762979Y-58925969D01*
X100787994Y-58980745D01*
X100793201Y-58992146D01*
X100793634Y-58992820D01*
X100793715Y-58993272D01*
X100795100Y-58996304D01*
X100794325Y-58996657D01*
X100802323Y-59041027D01*
X100774380Y-59081258D01*
X100747165Y-59090985D01*
X100731842Y-59092762D01*
X100634366Y-59135803D01*
X100559023Y-59211146D01*
X100515984Y-59308619D01*
X100513220Y-59332444D01*
X100513220Y-59410000D01*
X101823220Y-59410000D01*
X101823220Y-59090000D01*
X102023220Y-59090000D01*
X102023220Y-59410000D01*
X102763220Y-59410000D01*
X102763220Y-59090000D01*
X102635664Y-59090000D01*
X102611839Y-59092764D01*
X102514366Y-59135803D01*
X102438475Y-59211694D01*
X102393220Y-59230439D01*
X102347965Y-59211694D01*
X102272073Y-59135803D01*
X102174600Y-59092764D01*
X102150775Y-59090000D01*
X102023220Y-59090000D01*
X101823220Y-59090000D01*
X101695664Y-59090000D01*
X101671839Y-59092764D01*
X101581460Y-59132671D01*
X101532490Y-59133802D01*
X101497062Y-59099975D01*
X101495931Y-59051005D01*
X101507241Y-59032213D01*
X101541962Y-58992142D01*
X101541961Y-58992142D01*
X101541964Y-58992140D01*
X101573377Y-58923353D01*
X101609227Y-58889976D01*
X101644078Y-58887171D01*
X101711087Y-58900500D01*
X102135352Y-58900499D01*
X102135354Y-58900499D01*
X102135354Y-58900498D01*
X102189194Y-58889790D01*
X102215711Y-58884516D01*
X102215712Y-58884516D01*
X102215712Y-58884515D01*
X102215715Y-58884515D01*
X102306844Y-58823624D01*
X102340006Y-58773993D01*
X102380734Y-58746780D01*
X102428776Y-58756336D01*
X102446434Y-58773994D01*
X102479594Y-58823622D01*
X102479595Y-58823623D01*
X102479596Y-58823624D01*
X102524494Y-58853624D01*
X102570725Y-58884515D01*
X102570727Y-58884516D01*
X102618854Y-58894088D01*
X102651087Y-58900500D01*
X103075352Y-58900499D01*
X103075354Y-58900499D01*
X103075354Y-58900498D01*
X103129194Y-58889790D01*
X103155711Y-58884516D01*
X103155712Y-58884516D01*
X103155712Y-58884515D01*
X103155715Y-58884515D01*
X103246844Y-58823624D01*
X103278396Y-58776402D01*
X103319124Y-58749190D01*
X103367167Y-58758746D01*
X103384824Y-58776403D01*
X103416376Y-58823624D01*
X103507505Y-58884515D01*
X103507507Y-58884516D01*
X103555634Y-58894088D01*
X103587867Y-58900500D01*
X104012132Y-58900499D01*
X104012134Y-58900499D01*
X104012134Y-58900498D01*
X104065974Y-58889790D01*
X104092491Y-58884516D01*
X104092492Y-58884516D01*
X104092492Y-58884515D01*
X104092495Y-58884515D01*
X104183624Y-58823624D01*
X104221786Y-58766510D01*
X104262514Y-58739297D01*
X104310556Y-58748853D01*
X104328214Y-58766511D01*
X104366374Y-58823622D01*
X104366375Y-58823623D01*
X104366376Y-58823624D01*
X104411274Y-58853624D01*
X104457505Y-58884515D01*
X104457507Y-58884516D01*
X104505634Y-58894088D01*
X104537867Y-58900500D01*
X104848290Y-58900499D01*
X104893545Y-58919244D01*
X104896657Y-58922587D01*
X104908564Y-58936328D01*
X104908567Y-58936331D01*
X104979100Y-58981660D01*
X105007036Y-59021896D01*
X104998339Y-59070101D01*
X104958103Y-59098037D01*
X104944499Y-59099500D01*
X104924709Y-59099500D01*
X104906679Y-59096908D01*
X104897347Y-59094168D01*
X104813334Y-59069500D01*
X104686666Y-59069500D01*
X104624566Y-59087733D01*
X104593317Y-59096908D01*
X104575289Y-59099500D01*
X104537865Y-59099500D01*
X104537863Y-59099501D01*
X104457508Y-59115483D01*
X104457507Y-59115483D01*
X104366375Y-59176376D01*
X104328213Y-59233489D01*
X104287484Y-59260702D01*
X104239442Y-59251146D01*
X104221785Y-59233488D01*
X104219748Y-59230440D01*
X104183624Y-59176376D01*
X104119908Y-59133802D01*
X104092494Y-59115484D01*
X104092492Y-59115483D01*
X104012136Y-59099500D01*
X104012133Y-59099500D01*
X103974709Y-59099500D01*
X103956679Y-59096908D01*
X103947347Y-59094168D01*
X103863334Y-59069500D01*
X103736666Y-59069500D01*
X103674566Y-59087733D01*
X103643317Y-59096908D01*
X103625289Y-59099500D01*
X103587865Y-59099500D01*
X103587863Y-59099501D01*
X103507508Y-59115483D01*
X103507507Y-59115483D01*
X103416375Y-59176376D01*
X103416374Y-59176377D01*
X103393490Y-59210625D01*
X103352761Y-59237838D01*
X103304719Y-59228280D01*
X103291620Y-59215329D01*
X103291610Y-59215340D01*
X103289848Y-59213578D01*
X103287473Y-59211230D01*
X103287414Y-59211144D01*
X103212073Y-59135803D01*
X103114600Y-59092764D01*
X103090775Y-59090000D01*
X102963220Y-59090000D01*
X102963220Y-59930000D01*
X103090774Y-59930000D01*
X103090775Y-59929999D01*
X103114600Y-59927235D01*
X103212073Y-59884196D01*
X103287415Y-59808854D01*
X103287476Y-59808766D01*
X103287556Y-59808713D01*
X103291610Y-59804660D01*
X103292464Y-59805514D01*
X103328514Y-59782022D01*
X103376444Y-59792130D01*
X103393492Y-59809376D01*
X103416374Y-59843622D01*
X103416375Y-59843623D01*
X103416376Y-59843624D01*
X103489157Y-59892255D01*
X103507505Y-59904515D01*
X103507507Y-59904516D01*
X103559191Y-59914796D01*
X103587867Y-59920500D01*
X103625288Y-59920499D01*
X103643319Y-59923090D01*
X103736666Y-59950500D01*
X103736668Y-59950500D01*
X103863333Y-59950500D01*
X103863334Y-59950500D01*
X103947755Y-59925712D01*
X103956682Y-59923091D01*
X103974712Y-59920499D01*
X104012134Y-59920499D01*
X104012134Y-59920498D01*
X104077256Y-59907546D01*
X104092491Y-59904516D01*
X104092492Y-59904516D01*
X104092492Y-59904515D01*
X104092495Y-59904515D01*
X104183624Y-59843624D01*
X104221786Y-59786510D01*
X104262514Y-59759297D01*
X104310556Y-59768853D01*
X104328214Y-59786511D01*
X104366374Y-59843622D01*
X104366375Y-59843623D01*
X104366376Y-59843624D01*
X104439157Y-59892255D01*
X104457505Y-59904515D01*
X104457507Y-59904516D01*
X104509191Y-59914796D01*
X104537867Y-59920500D01*
X104575288Y-59920499D01*
X104593319Y-59923090D01*
X104686666Y-59950500D01*
X104686669Y-59950500D01*
X104686672Y-59950501D01*
X104689195Y-59950864D01*
X104690456Y-59951612D01*
X104691058Y-59951789D01*
X104691012Y-59951942D01*
X104731321Y-59975859D01*
X104743434Y-60023321D01*
X104728457Y-60056119D01*
X104725621Y-60059391D01*
X104725616Y-60059399D01*
X104672996Y-60174620D01*
X104672638Y-60177115D01*
X104671897Y-60178362D01*
X104671707Y-60179012D01*
X104671541Y-60178963D01*
X104647638Y-60219239D01*
X104609290Y-60232000D01*
X104036160Y-60232000D01*
X103995179Y-60240151D01*
X103995177Y-60240151D01*
X103948705Y-60271204D01*
X103948704Y-60271205D01*
X103917650Y-60317679D01*
X103917649Y-60317682D01*
X103909500Y-60358655D01*
X103909500Y-60836339D01*
X103917651Y-60877320D01*
X103917651Y-60877322D01*
X103948704Y-60923794D01*
X103948705Y-60923795D01*
X103995179Y-60954849D01*
X103995182Y-60954850D01*
X104022373Y-60960258D01*
X104036159Y-60963000D01*
X104663840Y-60962999D01*
X104704821Y-60954849D01*
X104751295Y-60923795D01*
X104782349Y-60877321D01*
X104787619Y-60850824D01*
X104814830Y-60810096D01*
X104843221Y-60799712D01*
X104872118Y-60796457D01*
X104873064Y-60795862D01*
X104892870Y-60787658D01*
X104893956Y-60787411D01*
X104920208Y-60766473D01*
X104923113Y-60764412D01*
X104931437Y-60759184D01*
X104938384Y-60752235D01*
X104941048Y-60749854D01*
X104949343Y-60743239D01*
X104996412Y-60729681D01*
X105007272Y-60731869D01*
X105036666Y-60740500D01*
X105036667Y-60740500D01*
X105163333Y-60740500D01*
X105163334Y-60740500D01*
X105284872Y-60704814D01*
X105350649Y-60662540D01*
X105398854Y-60653843D01*
X105430505Y-60671126D01*
X105796529Y-61037150D01*
X105815274Y-61082405D01*
X105796529Y-61127660D01*
X105769311Y-61143811D01*
X105764634Y-61145184D01*
X105764629Y-61145186D01*
X105658070Y-61213668D01*
X105658067Y-61213671D01*
X105623118Y-61254004D01*
X105579316Y-61275929D01*
X105532839Y-61260459D01*
X105526383Y-61254003D01*
X105491434Y-61213670D01*
X105491432Y-61213668D01*
X105384872Y-61145186D01*
X105350181Y-61135000D01*
X105263334Y-61109500D01*
X105136666Y-61109500D01*
X105015128Y-61145186D01*
X105015126Y-61145186D01*
X104908567Y-61213668D01*
X104908565Y-61213670D01*
X104873368Y-61254290D01*
X104829565Y-61276216D01*
X104783089Y-61260747D01*
X104776632Y-61254290D01*
X104741434Y-61213670D01*
X104741432Y-61213668D01*
X104634872Y-61145186D01*
X104600181Y-61135000D01*
X104513334Y-61109500D01*
X104386666Y-61109500D01*
X104265128Y-61145186D01*
X104265126Y-61145186D01*
X104158567Y-61213668D01*
X104158565Y-61213670D01*
X104075618Y-61309395D01*
X104075616Y-61309399D01*
X104032216Y-61404433D01*
X103996366Y-61437811D01*
X103947413Y-61436062D01*
X103914035Y-61400212D01*
X103910000Y-61377846D01*
X103910000Y-61272446D01*
X103909999Y-61272444D01*
X103907235Y-61248619D01*
X103864196Y-61151146D01*
X103788853Y-61075803D01*
X103691380Y-61032764D01*
X103667555Y-61030000D01*
X103590000Y-61030000D01*
X103590000Y-61969999D01*
X103595477Y-61975477D01*
X103627508Y-61988745D01*
X103646253Y-62034000D01*
X103632289Y-62073905D01*
X103620870Y-62088223D01*
X103618480Y-62090897D01*
X103611538Y-62097840D01*
X103611536Y-62097842D01*
X103606309Y-62106160D01*
X103604232Y-62109087D01*
X103583307Y-62135325D01*
X103583307Y-62135326D01*
X103583058Y-62136418D01*
X103574861Y-62156208D01*
X103574263Y-62157159D01*
X103574263Y-62157160D01*
X103570505Y-62190510D01*
X103569904Y-62194044D01*
X103567720Y-62203622D01*
X103567720Y-62213438D01*
X103567519Y-62217021D01*
X103567263Y-62219291D01*
X103565536Y-62234612D01*
X103541841Y-62277483D01*
X103494772Y-62291042D01*
X103466383Y-62280659D01*
X103414927Y-62246278D01*
X103414923Y-62246276D01*
X103355718Y-62234500D01*
X103355714Y-62234500D01*
X103190726Y-62234500D01*
X103190722Y-62234500D01*
X103131516Y-62246276D01*
X103131512Y-62246278D01*
X103059123Y-62294647D01*
X103057166Y-62291719D01*
X103023220Y-62305780D01*
X102989273Y-62291719D01*
X102987317Y-62294647D01*
X102914927Y-62246278D01*
X102914923Y-62246276D01*
X102855718Y-62234500D01*
X102855714Y-62234500D01*
X102690726Y-62234500D01*
X102690722Y-62234500D01*
X102631516Y-62246276D01*
X102631512Y-62246278D01*
X102566918Y-62289438D01*
X102518876Y-62298994D01*
X102495156Y-62286315D01*
X102494166Y-62287798D01*
X102418633Y-62237329D01*
X102418629Y-62237327D01*
X102373220Y-62228295D01*
X102373220Y-62948500D01*
X102354475Y-62993755D01*
X102309220Y-63012500D01*
X102237220Y-63012500D01*
X102191965Y-62993755D01*
X102173220Y-62948500D01*
X102173220Y-62228295D01*
X102173219Y-62228295D01*
X102127810Y-62237327D01*
X102127806Y-62237329D01*
X102078276Y-62270424D01*
X102030234Y-62279980D01*
X101989506Y-62252766D01*
X101978720Y-62217210D01*
X101978720Y-61858655D01*
X101997465Y-61813400D01*
X102042720Y-61794655D01*
X102087975Y-61813400D01*
X102095934Y-61823099D01*
X102136374Y-61883622D01*
X102136375Y-61883623D01*
X102136376Y-61883624D01*
X102197096Y-61924196D01*
X102227505Y-61944515D01*
X102227507Y-61944516D01*
X102262339Y-61951444D01*
X102307867Y-61960500D01*
X102632132Y-61960499D01*
X102632134Y-61960499D01*
X102632134Y-61960498D01*
X102686622Y-61949661D01*
X102712491Y-61944516D01*
X102712492Y-61944516D01*
X102712492Y-61944515D01*
X102712495Y-61944515D01*
X102803624Y-61883624D01*
X102864515Y-61792495D01*
X102864892Y-61790604D01*
X102872968Y-61750000D01*
X102880500Y-61712133D01*
X102880500Y-61600000D01*
X103070000Y-61600000D01*
X103070000Y-61727555D01*
X103072764Y-61751380D01*
X103115803Y-61848853D01*
X103191146Y-61924196D01*
X103288619Y-61967235D01*
X103312444Y-61969999D01*
X103312446Y-61970000D01*
X103389999Y-61970000D01*
X103390000Y-61600000D01*
X103070000Y-61600000D01*
X102880500Y-61600000D01*
X102880499Y-61400000D01*
X103070000Y-61400000D01*
X103389999Y-61400000D01*
X103390000Y-61030000D01*
X103312444Y-61030000D01*
X103288619Y-61032764D01*
X103191146Y-61075803D01*
X103115803Y-61151146D01*
X103072764Y-61248619D01*
X103070000Y-61272444D01*
X103070000Y-61400000D01*
X102880499Y-61400000D01*
X102880499Y-61287868D01*
X102880499Y-61287867D01*
X102880499Y-61287865D01*
X102880498Y-61287864D01*
X102864516Y-61207508D01*
X102864516Y-61207507D01*
X102846136Y-61180000D01*
X102803624Y-61116376D01*
X102799207Y-61113424D01*
X102712494Y-61055484D01*
X102712492Y-61055483D01*
X102632135Y-61039500D01*
X102307865Y-61039500D01*
X102307864Y-61039501D01*
X102227508Y-61055483D01*
X102227507Y-61055483D01*
X102136375Y-61116376D01*
X102093213Y-61180972D01*
X102052484Y-61208185D01*
X102004442Y-61198629D01*
X101986785Y-61180971D01*
X101986136Y-61180000D01*
X101951164Y-61127660D01*
X101943625Y-61116377D01*
X101943624Y-61116376D01*
X101852494Y-61055484D01*
X101852492Y-61055483D01*
X101772135Y-61039500D01*
X101447865Y-61039500D01*
X101447864Y-61039501D01*
X101367508Y-61055483D01*
X101367507Y-61055483D01*
X101276375Y-61116376D01*
X101215484Y-61207505D01*
X101215483Y-61207507D01*
X101199500Y-61287864D01*
X101199500Y-61712134D01*
X101199501Y-61712135D01*
X101215483Y-61792491D01*
X101215483Y-61792492D01*
X101276376Y-61883624D01*
X101367505Y-61944515D01*
X101367507Y-61944516D01*
X101427503Y-61956449D01*
X101447867Y-61960500D01*
X101503720Y-61960499D01*
X101548974Y-61979243D01*
X101567720Y-62024498D01*
X101567720Y-62266710D01*
X101556934Y-62302265D01*
X101545085Y-62320000D01*
X101519496Y-62358295D01*
X101519496Y-62358296D01*
X101507720Y-62417502D01*
X101507720Y-63407496D01*
X101508155Y-63409685D01*
X101508007Y-63410423D01*
X101508028Y-63410627D01*
X101507966Y-63410633D01*
X101498593Y-63457726D01*
X101457861Y-63484935D01*
X101432905Y-63484935D01*
X101430717Y-63484500D01*
X101430714Y-63484500D01*
X100962235Y-63484500D01*
X100937508Y-63477377D01*
X100937142Y-63478424D01*
X100930335Y-63476042D01*
X100896975Y-63472282D01*
X100893439Y-63471682D01*
X100883875Y-63469500D01*
X100874063Y-63469500D01*
X100870478Y-63469299D01*
X100858485Y-63467948D01*
X100837120Y-63465541D01*
X100837119Y-63465541D01*
X100837118Y-63465541D01*
X100836070Y-63465908D01*
X100814932Y-63469500D01*
X100184143Y-63469500D01*
X100138888Y-63450755D01*
X100120143Y-63405500D01*
X100121386Y-63396194D01*
X100121103Y-63396162D01*
X100124421Y-63367555D01*
X100124422Y-63367553D01*
X100124422Y-63290000D01*
X99184422Y-63290000D01*
X99184422Y-63367555D01*
X99187186Y-63391380D01*
X99219127Y-63463720D01*
X99220258Y-63512691D01*
X99200488Y-63539604D01*
X99195510Y-63543573D01*
X99195505Y-63543581D01*
X99195020Y-63544588D01*
X99182618Y-63562064D01*
X98922974Y-63821709D01*
X98877719Y-63840454D01*
X98832464Y-63821709D01*
X98813719Y-63776454D01*
X98813719Y-63719267D01*
X98812156Y-63709399D01*
X98799237Y-63627825D01*
X98778511Y-63587149D01*
X98743081Y-63517613D01*
X98743079Y-63517609D01*
X98655611Y-63430141D01*
X98655608Y-63430139D01*
X98650144Y-63427355D01*
X98618332Y-63390107D01*
X98622176Y-63341275D01*
X98650147Y-63313306D01*
X98661261Y-63307643D01*
X98750862Y-63218042D01*
X98750863Y-63218040D01*
X98808384Y-63105150D01*
X98808385Y-63105146D01*
X98810784Y-63090000D01*
X99184422Y-63090000D01*
X99554422Y-63090000D01*
X99554422Y-62770000D01*
X99754422Y-62770000D01*
X99754422Y-63090000D01*
X100124422Y-63090000D01*
X100124422Y-63012446D01*
X100124421Y-63012444D01*
X100121657Y-62988619D01*
X100078618Y-62891146D01*
X100003275Y-62815803D01*
X99905802Y-62772764D01*
X99881977Y-62770000D01*
X99754422Y-62770000D01*
X99554422Y-62770000D01*
X99426866Y-62770000D01*
X99403041Y-62772764D01*
X99305568Y-62815803D01*
X99230225Y-62891146D01*
X99187186Y-62988619D01*
X99184422Y-63012444D01*
X99184422Y-63090000D01*
X98810784Y-63090000D01*
X98823220Y-63011479D01*
X98823220Y-62947712D01*
X98824422Y-62944810D01*
X98824422Y-62495192D01*
X98823219Y-62492286D01*
X98823218Y-62448522D01*
X98808385Y-62354855D01*
X98808382Y-62354846D01*
X98750863Y-62241959D01*
X98750862Y-62241958D01*
X98661264Y-62152359D01*
X98660612Y-62152027D01*
X98660291Y-62151651D01*
X98657187Y-62149396D01*
X98657728Y-62148651D01*
X98628797Y-62114782D01*
X98632636Y-62065949D01*
X98657521Y-62041063D01*
X98657187Y-62040604D01*
X98660091Y-62038493D01*
X98660612Y-62037973D01*
X98661264Y-62037640D01*
X98750862Y-61948042D01*
X98750863Y-61948040D01*
X98808384Y-61835150D01*
X98808385Y-61835146D01*
X98823220Y-61741479D01*
X98823220Y-61560000D01*
X98232681Y-61560000D01*
X98248220Y-61517306D01*
X98248220Y-61500000D01*
X100130470Y-61500000D01*
X100148497Y-61625380D01*
X100173717Y-61680606D01*
X100179500Y-61707183D01*
X100179500Y-61712131D01*
X100179501Y-61712137D01*
X100195483Y-61792491D01*
X100195483Y-61792492D01*
X100256376Y-61883624D01*
X100347505Y-61944515D01*
X100347507Y-61944516D01*
X100382339Y-61951444D01*
X100427867Y-61960500D01*
X100752132Y-61960499D01*
X100752134Y-61960499D01*
X100752134Y-61960498D01*
X100806622Y-61949661D01*
X100832491Y-61944516D01*
X100832492Y-61944516D01*
X100832492Y-61944515D01*
X100832495Y-61944515D01*
X100923624Y-61883624D01*
X100984515Y-61792495D01*
X100984892Y-61790604D01*
X101000499Y-61712136D01*
X101000500Y-61712133D01*
X101000499Y-61641406D01*
X101002146Y-61629955D01*
X101001851Y-61629913D01*
X101011903Y-61560000D01*
X101020530Y-61500000D01*
X101002503Y-61374621D01*
X101002502Y-61374619D01*
X101001851Y-61370090D01*
X101002145Y-61370047D01*
X101000499Y-61358594D01*
X101000499Y-61287865D01*
X101000498Y-61287864D01*
X100984516Y-61207508D01*
X100984516Y-61207507D01*
X100966136Y-61180000D01*
X100923624Y-61116376D01*
X100919207Y-61113424D01*
X100832494Y-61055484D01*
X100832492Y-61055483D01*
X100752135Y-61039500D01*
X100427865Y-61039500D01*
X100427864Y-61039501D01*
X100347508Y-61055483D01*
X100347507Y-61055483D01*
X100256375Y-61116376D01*
X100195484Y-61207505D01*
X100195483Y-61207507D01*
X100179500Y-61287864D01*
X100179500Y-61292810D01*
X100173717Y-61319396D01*
X100148497Y-61374619D01*
X100130470Y-61500000D01*
X98248220Y-61500000D01*
X98248220Y-61402694D01*
X98232681Y-61360000D01*
X98823219Y-61360000D01*
X98823219Y-61178522D01*
X98808385Y-61084855D01*
X98808382Y-61084846D01*
X98750863Y-60971959D01*
X98750862Y-60971958D01*
X98661262Y-60882357D01*
X98650144Y-60876692D01*
X98618332Y-60839444D01*
X98622176Y-60790612D01*
X98650146Y-60762643D01*
X98655611Y-60759859D01*
X98743079Y-60672391D01*
X98799237Y-60562175D01*
X98813720Y-60470735D01*
X98813719Y-59909266D01*
X98799237Y-59817825D01*
X98743079Y-59707609D01*
X98655611Y-59620141D01*
X98639679Y-59612023D01*
X98607868Y-59574775D01*
X98611712Y-59525942D01*
X98639681Y-59497975D01*
X98655611Y-59489859D01*
X98743079Y-59402391D01*
X98799237Y-59292175D01*
X98813720Y-59200735D01*
X98813719Y-58639266D01*
X98799237Y-58547825D01*
X98743079Y-58437609D01*
X98655611Y-58350141D01*
X98655608Y-58350139D01*
X98655606Y-58350138D01*
X98545400Y-58293985D01*
X98545393Y-58293982D01*
X98491460Y-58285440D01*
X98453955Y-58279500D01*
X98453952Y-58279500D01*
X97392487Y-58279500D01*
X97301048Y-58293982D01*
X97301039Y-58293985D01*
X97190833Y-58350138D01*
X97190832Y-58350138D01*
X97103358Y-58437612D01*
X97103358Y-58437613D01*
X97047205Y-58547819D01*
X97047202Y-58547826D01*
X97032720Y-58639267D01*
X97032720Y-59200732D01*
X97047202Y-59292171D01*
X97047205Y-59292180D01*
X97103358Y-59402386D01*
X97103361Y-59402391D01*
X97190829Y-59489859D01*
X97190833Y-59489861D01*
X97206758Y-59497976D01*
X97238571Y-59535223D01*
X97234727Y-59584055D01*
X97206758Y-59612024D01*
X97190833Y-59620138D01*
X97190832Y-59620138D01*
X97103358Y-59707612D01*
X97103358Y-59707613D01*
X97047205Y-59817819D01*
X97047202Y-59817826D01*
X97042582Y-59847000D01*
X97032993Y-59907546D01*
X97032720Y-59909267D01*
X97032720Y-60470732D01*
X97047202Y-60562171D01*
X97047205Y-60562180D01*
X97102716Y-60671126D01*
X97103361Y-60672391D01*
X97190829Y-60759859D01*
X97190831Y-60759860D01*
X97196293Y-60762643D01*
X97228106Y-60799889D01*
X97224264Y-60848722D01*
X97196297Y-60876691D01*
X97185177Y-60882357D01*
X97095577Y-60971957D01*
X97095576Y-60971959D01*
X97038055Y-61084849D01*
X97038054Y-61084853D01*
X97023220Y-61178520D01*
X97023220Y-61360000D01*
X97613759Y-61360000D01*
X97598220Y-61402694D01*
X97598220Y-61517306D01*
X97613759Y-61560000D01*
X97023221Y-61560000D01*
X97023221Y-61741477D01*
X97038054Y-61835144D01*
X97038057Y-61835153D01*
X97095576Y-61948040D01*
X97095577Y-61948042D01*
X97185178Y-62037642D01*
X97185179Y-62037643D01*
X97185831Y-62037976D01*
X97186149Y-62038348D01*
X97189253Y-62040604D01*
X97188711Y-62041348D01*
X97217644Y-62075223D01*
X97213800Y-62124055D01*
X97188918Y-62148936D01*
X97189253Y-62149396D01*
X97186348Y-62151506D01*
X97185831Y-62152024D01*
X97185179Y-62152356D01*
X97185177Y-62152357D01*
X97095577Y-62241957D01*
X97095576Y-62241959D01*
X97038055Y-62354849D01*
X97038054Y-62354853D01*
X97023220Y-62448520D01*
X97023220Y-62630000D01*
X97613759Y-62630000D01*
X97598220Y-62672694D01*
X97598220Y-62787306D01*
X97613759Y-62830000D01*
X97023221Y-62830000D01*
X97023221Y-63011477D01*
X97038054Y-63105144D01*
X97038057Y-63105153D01*
X97095576Y-63218040D01*
X97095577Y-63218042D01*
X97185176Y-63307641D01*
X97196294Y-63313306D01*
X97228106Y-63350553D01*
X97224264Y-63399386D01*
X97196298Y-63427354D01*
X97190831Y-63430139D01*
X97103358Y-63517612D01*
X97103358Y-63517613D01*
X97047205Y-63627819D01*
X97047202Y-63627826D01*
X97032720Y-63719267D01*
X97032720Y-64280732D01*
X97047202Y-64372171D01*
X97047205Y-64372180D01*
X97103358Y-64482386D01*
X97103361Y-64482391D01*
X97190829Y-64569859D01*
X97190833Y-64569861D01*
X97206758Y-64577976D01*
X97238571Y-64615223D01*
X97234727Y-64664055D01*
X97206758Y-64692024D01*
X97190833Y-64700138D01*
X97190832Y-64700138D01*
X97103358Y-64787612D01*
X97103358Y-64787613D01*
X97047205Y-64897819D01*
X97047202Y-64897826D01*
X97032720Y-64989267D01*
X97032720Y-65550732D01*
X97047202Y-65642171D01*
X97047205Y-65642180D01*
X97096817Y-65739548D01*
X97103361Y-65752391D01*
X97190829Y-65839859D01*
X97190831Y-65839860D01*
X97190832Y-65839861D01*
X97206758Y-65847976D01*
X97238571Y-65885223D01*
X97234727Y-65934055D01*
X97206758Y-65962024D01*
X97190833Y-65970138D01*
X97190832Y-65970138D01*
X97103358Y-66057612D01*
X97103358Y-66057613D01*
X97047205Y-66167819D01*
X97047202Y-66167826D01*
X97032720Y-66259267D01*
X97032720Y-66820732D01*
X97047202Y-66912171D01*
X97047205Y-66912180D01*
X97098376Y-67012608D01*
X97103361Y-67022391D01*
X97190829Y-67109859D01*
X97190831Y-67109860D01*
X97190832Y-67109861D01*
X97206758Y-67117976D01*
X97238571Y-67155223D01*
X97234727Y-67204055D01*
X97206758Y-67232024D01*
X97190833Y-67240138D01*
X97190832Y-67240138D01*
X97103358Y-67327612D01*
X97103358Y-67327613D01*
X97047205Y-67437819D01*
X97047202Y-67437826D01*
X97032720Y-67529267D01*
X97032720Y-68090732D01*
X97047202Y-68182171D01*
X97047205Y-68182180D01*
X97086115Y-68258544D01*
X97103361Y-68292391D01*
X97190829Y-68379859D01*
X97190831Y-68379860D01*
X97190832Y-68379861D01*
X97206758Y-68387976D01*
X97238571Y-68425223D01*
X97234727Y-68474055D01*
X97206758Y-68502024D01*
X97190833Y-68510138D01*
X97190832Y-68510138D01*
X97103358Y-68597612D01*
X97103358Y-68597613D01*
X97047205Y-68707819D01*
X97047202Y-68707826D01*
X97041175Y-68745881D01*
X97032803Y-68798745D01*
X97032720Y-68799267D01*
X97032720Y-69360732D01*
X97047202Y-69452171D01*
X97047205Y-69452180D01*
X97102832Y-69561353D01*
X97103361Y-69562391D01*
X97190829Y-69649859D01*
X97190831Y-69649860D01*
X97190832Y-69649861D01*
X97206758Y-69657976D01*
X97238571Y-69695223D01*
X97234727Y-69744055D01*
X97206758Y-69772024D01*
X97190833Y-69780138D01*
X97190832Y-69780138D01*
X97103358Y-69867612D01*
X97103358Y-69867613D01*
X97047205Y-69977819D01*
X97047202Y-69977826D01*
X97032720Y-70069267D01*
X97032720Y-70630732D01*
X97047202Y-70722171D01*
X97047205Y-70722180D01*
X97102963Y-70831610D01*
X97103361Y-70832391D01*
X97190829Y-70919859D01*
X97190831Y-70919860D01*
X97190832Y-70919861D01*
X97206758Y-70927976D01*
X97238571Y-70965223D01*
X97234727Y-71014055D01*
X97206758Y-71042024D01*
X97190833Y-71050138D01*
X97190832Y-71050138D01*
X97103358Y-71137612D01*
X97103358Y-71137613D01*
X97047205Y-71247819D01*
X97047202Y-71247826D01*
X97032720Y-71339267D01*
X97032720Y-71900732D01*
X97047202Y-71992171D01*
X97047205Y-71992180D01*
X97103358Y-72102386D01*
X97103361Y-72102391D01*
X97190829Y-72189859D01*
X97190831Y-72189860D01*
X97190832Y-72189861D01*
X97206758Y-72197976D01*
X97238571Y-72235223D01*
X97234727Y-72284055D01*
X97206758Y-72312024D01*
X97190833Y-72320138D01*
X97190832Y-72320138D01*
X97103358Y-72407612D01*
X97103358Y-72407613D01*
X97047205Y-72517819D01*
X97047202Y-72517826D01*
X97032720Y-72609267D01*
X97032720Y-73170732D01*
X97047202Y-73262171D01*
X97047205Y-73262180D01*
X97103358Y-73372386D01*
X97103361Y-73372391D01*
X97190829Y-73459859D01*
X97190831Y-73459860D01*
X97190832Y-73459861D01*
X97301039Y-73516014D01*
X97301045Y-73516017D01*
X97392485Y-73530500D01*
X98453954Y-73530499D01*
X98545395Y-73516017D01*
X98655607Y-73459861D01*
X98655608Y-73459861D01*
X98655608Y-73459860D01*
X98655611Y-73459859D01*
X98743079Y-73372391D01*
X98799237Y-73262175D01*
X98813720Y-73170735D01*
X98813719Y-72609266D01*
X98799237Y-72517825D01*
X98743079Y-72407609D01*
X98655611Y-72320141D01*
X98639679Y-72312023D01*
X98607868Y-72274775D01*
X98611712Y-72225942D01*
X98639681Y-72197975D01*
X98655611Y-72189859D01*
X98689330Y-72156139D01*
X98734583Y-72137394D01*
X98779838Y-72156139D01*
X98798181Y-72194227D01*
X98801042Y-72219615D01*
X98801042Y-72219617D01*
X98801638Y-72220565D01*
X98809839Y-72240363D01*
X98810088Y-72241454D01*
X98810089Y-72241456D01*
X98831011Y-72267690D01*
X98833090Y-72270620D01*
X98838315Y-72278936D01*
X98838317Y-72278938D01*
X98845256Y-72285878D01*
X98847649Y-72288555D01*
X98868576Y-72314796D01*
X98868578Y-72314798D01*
X98869585Y-72315283D01*
X98887066Y-72327687D01*
X99857311Y-73297931D01*
X99869717Y-73315416D01*
X99870200Y-73316419D01*
X99870202Y-73316422D01*
X99896442Y-73337348D01*
X99899119Y-73339739D01*
X99906063Y-73346683D01*
X99914371Y-73351903D01*
X99917294Y-73353977D01*
X99943541Y-73374909D01*
X99943542Y-73374910D01*
X99943543Y-73374910D01*
X99943544Y-73374911D01*
X99944628Y-73375158D01*
X99964443Y-73383366D01*
X99965382Y-73383956D01*
X99998731Y-73387712D01*
X100002269Y-73388314D01*
X100006404Y-73389257D01*
X100011845Y-73390500D01*
X100021659Y-73390500D01*
X100025245Y-73390701D01*
X100028228Y-73391037D01*
X100058600Y-73394459D01*
X100059240Y-73394234D01*
X100059650Y-73394092D01*
X100080788Y-73390500D01*
X101077830Y-73390500D01*
X101123085Y-73409245D01*
X101141830Y-73454500D01*
X101134854Y-73483555D01*
X101107205Y-73537818D01*
X101107202Y-73537826D01*
X101092720Y-73629267D01*
X101092720Y-74690732D01*
X101107202Y-74782171D01*
X101107205Y-74782180D01*
X101163358Y-74892386D01*
X101163361Y-74892391D01*
X101250829Y-74979859D01*
X101250831Y-74979860D01*
X101250832Y-74979861D01*
X101361039Y-75036014D01*
X101361045Y-75036017D01*
X101452485Y-75050500D01*
X102013954Y-75050499D01*
X102105395Y-75036017D01*
X102215607Y-74979861D01*
X102215608Y-74979861D01*
X102215608Y-74979860D01*
X102215611Y-74979859D01*
X102303079Y-74892391D01*
X102311195Y-74876461D01*
X102348442Y-74844649D01*
X102397274Y-74848491D01*
X102425244Y-74876461D01*
X102433361Y-74892391D01*
X102520829Y-74979859D01*
X102520831Y-74979860D01*
X102520832Y-74979861D01*
X102631039Y-75036014D01*
X102631045Y-75036017D01*
X102722485Y-75050500D01*
X103283954Y-75050499D01*
X103375395Y-75036017D01*
X103485607Y-74979861D01*
X103485608Y-74979861D01*
X103485608Y-74979860D01*
X103485611Y-74979859D01*
X103573079Y-74892391D01*
X103581195Y-74876461D01*
X103618442Y-74844649D01*
X103667274Y-74848491D01*
X103695244Y-74876461D01*
X103703361Y-74892391D01*
X103790829Y-74979859D01*
X103790831Y-74979860D01*
X103790832Y-74979861D01*
X103901039Y-75036014D01*
X103901045Y-75036017D01*
X103992485Y-75050500D01*
X104553954Y-75050499D01*
X104645395Y-75036017D01*
X104755607Y-74979861D01*
X104755608Y-74979861D01*
X104755608Y-74979860D01*
X104755611Y-74979859D01*
X104843079Y-74892391D01*
X104851195Y-74876461D01*
X104888442Y-74844649D01*
X104937274Y-74848491D01*
X104965244Y-74876461D01*
X104973361Y-74892391D01*
X105060829Y-74979859D01*
X105060831Y-74979860D01*
X105060832Y-74979861D01*
X105171039Y-75036014D01*
X105171045Y-75036017D01*
X105262485Y-75050500D01*
X105823954Y-75050499D01*
X105915395Y-75036017D01*
X106025607Y-74979861D01*
X106025608Y-74979861D01*
X106025608Y-74979860D01*
X106025611Y-74979859D01*
X106113079Y-74892391D01*
X106121195Y-74876461D01*
X106158442Y-74844649D01*
X106207274Y-74848491D01*
X106235244Y-74876461D01*
X106243361Y-74892391D01*
X106330829Y-74979859D01*
X106330831Y-74979860D01*
X106330832Y-74979861D01*
X106441039Y-75036014D01*
X106441045Y-75036017D01*
X106532485Y-75050500D01*
X107093954Y-75050499D01*
X107185395Y-75036017D01*
X107295607Y-74979861D01*
X107295608Y-74979861D01*
X107295608Y-74979860D01*
X107295611Y-74979859D01*
X107383079Y-74892391D01*
X107439237Y-74782175D01*
X107453720Y-74690735D01*
X107453719Y-73629266D01*
X107439237Y-73537825D01*
X107383079Y-73427609D01*
X107295611Y-73340141D01*
X107295608Y-73340139D01*
X107295606Y-73340138D01*
X107185400Y-73283985D01*
X107185393Y-73283982D01*
X107131460Y-73275440D01*
X107093955Y-73269500D01*
X107093952Y-73269500D01*
X107075630Y-73269500D01*
X107030375Y-73250755D01*
X107011630Y-73205500D01*
X107030375Y-73160245D01*
X107215079Y-72975541D01*
X107412935Y-72777684D01*
X107430422Y-72765279D01*
X107431422Y-72764798D01*
X107452354Y-72738548D01*
X107454735Y-72735884D01*
X107461684Y-72728937D01*
X107466912Y-72720613D01*
X107468973Y-72717708D01*
X107489911Y-72691456D01*
X107490158Y-72690370D01*
X107498362Y-72670564D01*
X107498957Y-72669618D01*
X107498957Y-72669613D01*
X107501338Y-72662812D01*
X107502783Y-72663317D01*
X107522558Y-72627529D01*
X107536615Y-72619015D01*
X107539576Y-72617707D01*
X107539580Y-72617707D01*
X107638079Y-72574215D01*
X107714215Y-72498079D01*
X107714219Y-72498069D01*
X107714231Y-72498053D01*
X107714256Y-72498036D01*
X107718408Y-72493885D01*
X107719282Y-72494759D01*
X107755265Y-72471303D01*
X107803196Y-72481404D01*
X107822120Y-72504187D01*
X107822452Y-72503961D01*
X107824896Y-72507529D01*
X107825583Y-72508356D01*
X107825801Y-72508850D01*
X107825803Y-72508853D01*
X107901146Y-72584196D01*
X107998619Y-72627235D01*
X108022444Y-72629999D01*
X108022446Y-72630000D01*
X108150000Y-72630000D01*
X108150000Y-72629999D01*
X108349999Y-72629999D01*
X108350000Y-72630000D01*
X108477554Y-72630000D01*
X108477555Y-72629999D01*
X108501380Y-72627235D01*
X108598853Y-72584196D01*
X108674196Y-72508853D01*
X108717235Y-72411380D01*
X108719999Y-72387555D01*
X108720000Y-72387553D01*
X108720000Y-72310000D01*
X108350000Y-72310000D01*
X108349999Y-72629999D01*
X108150000Y-72629999D01*
X108150000Y-72174000D01*
X108168745Y-72128745D01*
X108214000Y-72110000D01*
X108720000Y-72110000D01*
X108720000Y-72032446D01*
X108719999Y-72032444D01*
X108717235Y-72008617D01*
X108715972Y-72003974D01*
X108717839Y-72003465D01*
X108716872Y-71961374D01*
X108750704Y-71925950D01*
X108776548Y-71920500D01*
X109039212Y-71920500D01*
X109060350Y-71924092D01*
X109060959Y-71924304D01*
X109061400Y-71924459D01*
X109091637Y-71921052D01*
X109094758Y-71920701D01*
X109098343Y-71920500D01*
X109108153Y-71920500D01*
X109108155Y-71920500D01*
X109117730Y-71918314D01*
X109121238Y-71917717D01*
X109154618Y-71913957D01*
X109155564Y-71913362D01*
X109175370Y-71905158D01*
X109176456Y-71904911D01*
X109202708Y-71883973D01*
X109205613Y-71881912D01*
X109213937Y-71876684D01*
X109220884Y-71869735D01*
X109223548Y-71867354D01*
X109249798Y-71846422D01*
X109250279Y-71845422D01*
X109262684Y-71827935D01*
X109623466Y-71467153D01*
X109668720Y-71448409D01*
X109713975Y-71467154D01*
X109732720Y-71512409D01*
X109732720Y-71900732D01*
X109747202Y-71992171D01*
X109747205Y-71992180D01*
X109803358Y-72102386D01*
X109803361Y-72102391D01*
X109890829Y-72189859D01*
X109890833Y-72189861D01*
X109906758Y-72197976D01*
X109938571Y-72235223D01*
X109934727Y-72284055D01*
X109906758Y-72312024D01*
X109890833Y-72320138D01*
X109890832Y-72320138D01*
X109803358Y-72407612D01*
X109803358Y-72407613D01*
X109747205Y-72517819D01*
X109747202Y-72517826D01*
X109732720Y-72609267D01*
X109732720Y-73170732D01*
X109747202Y-73262171D01*
X109747205Y-73262180D01*
X109803358Y-73372386D01*
X109803361Y-73372391D01*
X109890829Y-73459859D01*
X110001045Y-73516017D01*
X110092485Y-73530500D01*
X111153954Y-73530499D01*
X111245395Y-73516017D01*
X111355607Y-73459861D01*
X111355608Y-73459861D01*
X111355608Y-73459860D01*
X111355611Y-73459859D01*
X111443079Y-73372391D01*
X111499237Y-73262175D01*
X111513720Y-73170735D01*
X111513719Y-72609266D01*
X111499237Y-72517825D01*
X111443079Y-72407609D01*
X111355611Y-72320141D01*
X111339679Y-72312023D01*
X111307868Y-72274775D01*
X111311712Y-72225942D01*
X111339681Y-72197975D01*
X111355611Y-72189859D01*
X111443079Y-72102391D01*
X111499237Y-71992175D01*
X111513720Y-71900735D01*
X111513719Y-71339266D01*
X111499237Y-71247825D01*
X111481052Y-71212136D01*
X111443081Y-71137613D01*
X111443079Y-71137609D01*
X111355611Y-71050141D01*
X111339679Y-71042023D01*
X111307868Y-71004775D01*
X111311712Y-70955942D01*
X111339681Y-70927975D01*
X111355611Y-70919859D01*
X111443079Y-70832391D01*
X111499237Y-70722175D01*
X111513720Y-70630735D01*
X111513719Y-70069266D01*
X111499237Y-69977825D01*
X111443079Y-69867609D01*
X111355611Y-69780141D01*
X111339679Y-69772023D01*
X111307868Y-69734775D01*
X111311712Y-69685942D01*
X111339681Y-69657975D01*
X111355611Y-69649859D01*
X111443079Y-69562391D01*
X111499237Y-69452175D01*
X111513720Y-69360735D01*
X111513719Y-68799266D01*
X111499237Y-68707825D01*
X111443079Y-68597609D01*
X111355611Y-68510141D01*
X111339679Y-68502023D01*
X111307868Y-68464775D01*
X111311712Y-68415942D01*
X111339681Y-68387975D01*
X111355611Y-68379859D01*
X111443079Y-68292391D01*
X111499237Y-68182175D01*
X111513720Y-68090735D01*
X111513719Y-67529266D01*
X111499237Y-67437825D01*
X111443079Y-67327609D01*
X111355611Y-67240141D01*
X111339679Y-67232023D01*
X111307868Y-67194775D01*
X111311712Y-67145942D01*
X111339681Y-67117975D01*
X111355611Y-67109859D01*
X111443079Y-67022391D01*
X111499237Y-66912175D01*
X111513720Y-66820735D01*
X111513719Y-66259266D01*
X111499237Y-66167825D01*
X111499074Y-66167506D01*
X111443081Y-66057613D01*
X111443079Y-66057609D01*
X111355611Y-65970141D01*
X111339679Y-65962023D01*
X111307868Y-65924775D01*
X111311712Y-65875942D01*
X111339681Y-65847975D01*
X111355611Y-65839859D01*
X111443079Y-65752391D01*
X111499237Y-65642175D01*
X111513720Y-65550735D01*
X111513719Y-64989266D01*
X111499237Y-64897825D01*
X111443079Y-64787609D01*
X111355611Y-64700141D01*
X111339679Y-64692023D01*
X111307868Y-64654775D01*
X111311712Y-64605942D01*
X111339681Y-64577975D01*
X111355611Y-64569859D01*
X111443079Y-64482391D01*
X111499237Y-64372175D01*
X111513720Y-64280735D01*
X111513719Y-63719266D01*
X111499237Y-63627825D01*
X111478511Y-63587149D01*
X111443081Y-63517613D01*
X111443079Y-63517609D01*
X111355611Y-63430141D01*
X111339679Y-63422023D01*
X111307868Y-63384775D01*
X111311712Y-63335942D01*
X111339681Y-63307975D01*
X111355611Y-63299859D01*
X111443079Y-63212391D01*
X111499237Y-63102175D01*
X111513720Y-63010735D01*
X111513719Y-62449266D01*
X111499237Y-62357825D01*
X111481372Y-62322764D01*
X111443081Y-62247613D01*
X111443079Y-62247609D01*
X111355611Y-62160141D01*
X111354338Y-62159492D01*
X111339679Y-62152023D01*
X111307868Y-62114775D01*
X111311712Y-62065942D01*
X111339681Y-62037975D01*
X111355611Y-62029859D01*
X111443079Y-61942391D01*
X111499237Y-61832175D01*
X111513720Y-61740735D01*
X111513719Y-61179266D01*
X111499237Y-61087825D01*
X111493111Y-61075803D01*
X111443081Y-60977613D01*
X111443079Y-60977609D01*
X111355611Y-60890141D01*
X111355608Y-60890139D01*
X111350144Y-60887355D01*
X111318332Y-60850107D01*
X111322176Y-60801275D01*
X111350147Y-60773306D01*
X111361261Y-60767643D01*
X111450862Y-60678042D01*
X111450863Y-60678040D01*
X111508384Y-60565150D01*
X111508385Y-60565146D01*
X111523220Y-60471479D01*
X111523220Y-60290000D01*
X110932681Y-60290000D01*
X110948220Y-60247306D01*
X110948220Y-60132694D01*
X110932681Y-60090000D01*
X111523219Y-60090000D01*
X111523219Y-59908522D01*
X111508385Y-59814855D01*
X111508382Y-59814846D01*
X111450863Y-59701959D01*
X111450862Y-59701958D01*
X111361262Y-59612357D01*
X111350144Y-59606692D01*
X111318332Y-59569444D01*
X111322176Y-59520612D01*
X111350146Y-59492643D01*
X111355611Y-59489859D01*
X111443079Y-59402391D01*
X111499237Y-59292175D01*
X111513720Y-59200735D01*
X111513719Y-58639266D01*
X111499237Y-58547825D01*
X111443079Y-58437609D01*
X111355611Y-58350141D01*
X111355608Y-58350139D01*
X111355606Y-58350138D01*
X111245400Y-58293985D01*
X111245393Y-58293982D01*
X111191460Y-58285440D01*
X111153955Y-58279500D01*
X111153952Y-58279500D01*
X110092487Y-58279500D01*
X110001048Y-58293982D01*
X110001039Y-58293985D01*
X109890833Y-58350138D01*
X109890832Y-58350138D01*
X109803358Y-58437612D01*
X109803358Y-58437613D01*
X109747205Y-58547819D01*
X109747202Y-58547826D01*
X109732720Y-58639267D01*
X109732720Y-59200732D01*
X109747202Y-59292171D01*
X109747205Y-59292180D01*
X109803358Y-59402386D01*
X109803361Y-59402391D01*
X109890829Y-59489859D01*
X109890831Y-59489860D01*
X109896293Y-59492643D01*
X109928106Y-59529889D01*
X109924264Y-59578722D01*
X109896297Y-59606691D01*
X109885177Y-59612357D01*
X109795577Y-59701957D01*
X109795576Y-59701959D01*
X109738055Y-59814849D01*
X109738054Y-59814853D01*
X109723220Y-59908520D01*
X109723220Y-60090000D01*
X110313759Y-60090000D01*
X110298220Y-60132694D01*
X110298220Y-60247306D01*
X110313759Y-60290000D01*
X109723221Y-60290000D01*
X109723221Y-60471477D01*
X109738054Y-60565144D01*
X109738057Y-60565153D01*
X109795576Y-60678040D01*
X109795577Y-60678042D01*
X109885176Y-60767641D01*
X109896294Y-60773306D01*
X109928106Y-60810553D01*
X109924264Y-60859386D01*
X109896298Y-60887354D01*
X109890831Y-60890139D01*
X109803358Y-60977612D01*
X109803358Y-60977613D01*
X109747205Y-61087819D01*
X109747202Y-61087826D01*
X109739731Y-61135000D01*
X109734707Y-61166724D01*
X109732720Y-61179267D01*
X109732720Y-61740732D01*
X109747202Y-61832171D01*
X109747205Y-61832180D01*
X109803358Y-61942386D01*
X109803361Y-61942391D01*
X109890829Y-62029859D01*
X109890833Y-62029861D01*
X109906758Y-62037976D01*
X109938571Y-62075223D01*
X109934727Y-62124055D01*
X109906758Y-62152024D01*
X109890833Y-62160138D01*
X109890832Y-62160138D01*
X109803358Y-62247612D01*
X109803358Y-62247613D01*
X109747205Y-62357819D01*
X109747202Y-62357826D01*
X109732720Y-62449267D01*
X109732720Y-63010732D01*
X109747202Y-63102171D01*
X109747205Y-63102180D01*
X109776666Y-63160000D01*
X109803361Y-63212391D01*
X109890829Y-63299859D01*
X109890833Y-63299861D01*
X109906758Y-63307976D01*
X109938571Y-63345223D01*
X109934727Y-63394055D01*
X109906758Y-63422024D01*
X109890833Y-63430138D01*
X109890832Y-63430138D01*
X109803358Y-63517612D01*
X109803358Y-63517613D01*
X109747205Y-63627819D01*
X109747202Y-63627826D01*
X109732720Y-63719267D01*
X109732720Y-64280732D01*
X109747202Y-64372171D01*
X109747205Y-64372180D01*
X109803358Y-64482386D01*
X109803361Y-64482391D01*
X109890829Y-64569859D01*
X109890833Y-64569861D01*
X109906758Y-64577976D01*
X109938571Y-64615223D01*
X109934727Y-64664055D01*
X109906758Y-64692024D01*
X109890833Y-64700138D01*
X109890832Y-64700138D01*
X109803358Y-64787612D01*
X109803358Y-64787613D01*
X109747205Y-64897819D01*
X109747202Y-64897826D01*
X109732720Y-64989267D01*
X109732720Y-65293617D01*
X109713975Y-65338872D01*
X109668720Y-65357617D01*
X109623465Y-65338872D01*
X109618685Y-65333523D01*
X109617510Y-65332051D01*
X109612696Y-65326014D01*
X109610628Y-65323100D01*
X109605403Y-65314783D01*
X109598460Y-65307840D01*
X109596074Y-65305169D01*
X109575142Y-65278922D01*
X109575139Y-65278920D01*
X109574136Y-65278437D01*
X109556651Y-65266031D01*
X108554005Y-64263384D01*
X108535260Y-64218129D01*
X108554005Y-64172874D01*
X108599260Y-64154129D01*
X108611746Y-64155359D01*
X108650232Y-64163013D01*
X108687867Y-64170500D01*
X109112132Y-64170499D01*
X109112134Y-64170499D01*
X109112134Y-64170498D01*
X109188252Y-64155359D01*
X109192491Y-64154516D01*
X109192492Y-64154516D01*
X109192492Y-64154515D01*
X109192495Y-64154515D01*
X109283624Y-64093624D01*
X109344515Y-64002495D01*
X109345012Y-64000000D01*
X109352778Y-63960954D01*
X109360500Y-63922133D01*
X109360499Y-63597868D01*
X109360499Y-63597867D01*
X109360499Y-63597865D01*
X109360498Y-63597864D01*
X109360346Y-63597102D01*
X109349743Y-63543789D01*
X109344516Y-63517508D01*
X109344516Y-63517507D01*
X109337586Y-63507136D01*
X109283624Y-63426376D01*
X109277110Y-63422023D01*
X109192494Y-63365484D01*
X109192492Y-63365483D01*
X109112135Y-63349500D01*
X108687865Y-63349500D01*
X108687864Y-63349501D01*
X108607508Y-63365483D01*
X108607507Y-63365483D01*
X108516375Y-63426376D01*
X108456452Y-63516057D01*
X108415723Y-63543270D01*
X108403238Y-63544500D01*
X108256510Y-63544500D01*
X108220954Y-63533714D01*
X108164927Y-63496278D01*
X108164925Y-63496277D01*
X108164923Y-63496276D01*
X108105718Y-63484500D01*
X108105714Y-63484500D01*
X107115726Y-63484500D01*
X107115719Y-63484500D01*
X107113532Y-63484935D01*
X107112794Y-63484788D01*
X107112593Y-63484808D01*
X107112586Y-63484746D01*
X107065491Y-63475371D01*
X107038284Y-63434639D01*
X107038285Y-63409675D01*
X107038720Y-63407494D01*
X107038720Y-62840000D01*
X108430000Y-62840000D01*
X108430000Y-62917555D01*
X108432764Y-62941380D01*
X108475803Y-63038853D01*
X108551146Y-63114196D01*
X108648619Y-63157235D01*
X108672444Y-63159999D01*
X108672446Y-63160000D01*
X108800000Y-63160000D01*
X108800000Y-62840000D01*
X109000000Y-62840000D01*
X109000000Y-63160000D01*
X109127554Y-63160000D01*
X109127555Y-63159999D01*
X109151380Y-63157235D01*
X109248853Y-63114196D01*
X109324196Y-63038853D01*
X109367235Y-62941380D01*
X109369999Y-62917555D01*
X109370000Y-62917553D01*
X109370000Y-62840000D01*
X109000000Y-62840000D01*
X108800000Y-62840000D01*
X108430000Y-62840000D01*
X107038720Y-62840000D01*
X107038720Y-62640000D01*
X108430000Y-62640000D01*
X108800000Y-62640000D01*
X108800000Y-62320000D01*
X109000000Y-62320000D01*
X109000000Y-62640000D01*
X109370000Y-62640000D01*
X109370000Y-62562446D01*
X109369999Y-62562444D01*
X109367235Y-62538619D01*
X109324196Y-62441146D01*
X109248853Y-62365803D01*
X109151380Y-62322764D01*
X109127555Y-62320000D01*
X109000000Y-62320000D01*
X108800000Y-62320000D01*
X108672444Y-62320000D01*
X108648619Y-62322764D01*
X108551146Y-62365803D01*
X108475803Y-62441146D01*
X108432764Y-62538619D01*
X108430000Y-62562444D01*
X108430000Y-62640000D01*
X107038720Y-62640000D01*
X107038720Y-62417506D01*
X107038720Y-62417505D01*
X107038720Y-62417502D01*
X107026943Y-62358296D01*
X107026943Y-62358295D01*
X107026625Y-62357819D01*
X106989505Y-62302265D01*
X106978720Y-62266710D01*
X106978720Y-62174499D01*
X106997465Y-62129244D01*
X107042720Y-62110499D01*
X107152134Y-62110499D01*
X107152134Y-62110498D01*
X107230057Y-62095000D01*
X107232491Y-62094516D01*
X107232492Y-62094516D01*
X107232492Y-62094515D01*
X107232495Y-62094515D01*
X107323624Y-62033624D01*
X107384515Y-61942495D01*
X107384537Y-61942388D01*
X107395599Y-61886770D01*
X107400500Y-61862133D01*
X107400500Y-61750000D01*
X107590000Y-61750000D01*
X107590000Y-61877555D01*
X107592764Y-61901380D01*
X107635803Y-61998853D01*
X107711146Y-62074196D01*
X107808619Y-62117235D01*
X107832444Y-62119999D01*
X107832446Y-62120000D01*
X107909999Y-62120000D01*
X107909999Y-62119999D01*
X108109999Y-62119999D01*
X108110000Y-62120000D01*
X108187554Y-62120000D01*
X108187555Y-62119999D01*
X108211380Y-62117235D01*
X108308853Y-62074196D01*
X108384196Y-61998853D01*
X108427235Y-61901380D01*
X108429999Y-61877555D01*
X108430000Y-61877553D01*
X108430000Y-61750000D01*
X108110000Y-61750000D01*
X108109999Y-62119999D01*
X107909999Y-62119999D01*
X107910000Y-61750000D01*
X107590000Y-61750000D01*
X107400500Y-61750000D01*
X107400499Y-61550000D01*
X107590000Y-61550000D01*
X107909999Y-61550000D01*
X107909999Y-61549999D01*
X108109999Y-61549999D01*
X108110000Y-61550000D01*
X108430000Y-61550000D01*
X108430000Y-61422446D01*
X108429999Y-61422444D01*
X108427235Y-61398619D01*
X108384196Y-61301146D01*
X108308853Y-61225803D01*
X108211380Y-61182764D01*
X108187555Y-61180000D01*
X108110000Y-61180000D01*
X108109999Y-61549999D01*
X107909999Y-61549999D01*
X107910000Y-61180000D01*
X107832444Y-61180000D01*
X107808619Y-61182764D01*
X107711146Y-61225803D01*
X107635803Y-61301146D01*
X107592764Y-61398619D01*
X107590000Y-61422444D01*
X107590000Y-61550000D01*
X107400499Y-61550000D01*
X107400499Y-61437868D01*
X107400499Y-61437867D01*
X107400499Y-61437865D01*
X107400498Y-61437864D01*
X107400487Y-61437811D01*
X107392967Y-61400000D01*
X107384516Y-61357508D01*
X107384516Y-61357507D01*
X107352368Y-61309395D01*
X107323624Y-61266376D01*
X107305536Y-61254290D01*
X107243875Y-61213089D01*
X107230286Y-61197442D01*
X107228830Y-61198604D01*
X107203405Y-61166724D01*
X107201324Y-61163791D01*
X107195265Y-61154146D01*
X107187066Y-61105854D01*
X107215417Y-61065908D01*
X107261946Y-61057333D01*
X107277867Y-61060500D01*
X107602132Y-61060499D01*
X107602134Y-61060499D01*
X107602134Y-61060498D01*
X107655462Y-61049891D01*
X107682491Y-61044516D01*
X107682492Y-61044516D01*
X107682492Y-61044515D01*
X107682495Y-61044515D01*
X107773624Y-60983624D01*
X107834515Y-60892495D01*
X107834984Y-60890141D01*
X107843222Y-60848722D01*
X107850500Y-60812133D01*
X107850499Y-60387868D01*
X107850499Y-60387867D01*
X107850499Y-60387865D01*
X107850498Y-60387864D01*
X107834516Y-60307508D01*
X107834516Y-60307507D01*
X107789508Y-60240149D01*
X107773624Y-60216376D01*
X107731690Y-60188356D01*
X107682494Y-60155484D01*
X107682492Y-60155483D01*
X107602135Y-60139500D01*
X107277865Y-60139500D01*
X107277864Y-60139501D01*
X107197508Y-60155483D01*
X107197507Y-60155483D01*
X107106375Y-60216376D01*
X107106374Y-60216377D01*
X107048124Y-60303556D01*
X107007396Y-60330770D01*
X106994910Y-60332000D01*
X106926126Y-60332000D01*
X106880871Y-60313255D01*
X106872915Y-60303561D01*
X106851295Y-60271205D01*
X106836586Y-60261376D01*
X106804820Y-60240150D01*
X106804817Y-60240149D01*
X106763844Y-60232000D01*
X106136160Y-60232000D01*
X106095179Y-60240151D01*
X106095177Y-60240151D01*
X106048705Y-60271204D01*
X106048704Y-60271205D01*
X106017650Y-60317679D01*
X106017649Y-60317682D01*
X106009500Y-60358655D01*
X106009500Y-60514368D01*
X105990755Y-60559623D01*
X105945500Y-60578368D01*
X105900245Y-60559623D01*
X105543442Y-60202821D01*
X105529121Y-60178685D01*
X105528904Y-60178785D01*
X105527978Y-60176758D01*
X105527290Y-60175598D01*
X105527004Y-60174625D01*
X105527003Y-60174623D01*
X105527003Y-60174621D01*
X105474383Y-60059399D01*
X105474381Y-60059397D01*
X105474381Y-60059396D01*
X105454031Y-60035911D01*
X105438562Y-59989435D01*
X105460488Y-59945632D01*
X105502399Y-59930000D01*
X105583220Y-59930000D01*
X105583220Y-59610000D01*
X105783220Y-59610000D01*
X105783220Y-59930000D01*
X105910774Y-59930000D01*
X105910775Y-59929999D01*
X105934600Y-59927235D01*
X106032073Y-59884196D01*
X106107965Y-59808305D01*
X106153220Y-59789560D01*
X106198475Y-59808305D01*
X106274366Y-59884196D01*
X106371839Y-59927235D01*
X106395664Y-59929999D01*
X106395666Y-59930000D01*
X106523220Y-59930000D01*
X106723220Y-59930000D01*
X106850774Y-59930000D01*
X106850775Y-59929999D01*
X106874600Y-59927235D01*
X106972073Y-59884196D01*
X107047418Y-59808851D01*
X107049108Y-59806385D01*
X107051338Y-59804931D01*
X107051610Y-59804660D01*
X107051667Y-59804717D01*
X107090148Y-59779643D01*
X107138076Y-59789753D01*
X107155121Y-59806995D01*
X107162358Y-59817825D01*
X107179596Y-59843624D01*
X107270725Y-59904515D01*
X107270727Y-59904516D01*
X107322411Y-59914796D01*
X107351087Y-59920500D01*
X107388508Y-59920499D01*
X107406539Y-59923090D01*
X107499886Y-59950500D01*
X107499888Y-59950500D01*
X107626553Y-59950500D01*
X107626554Y-59950500D01*
X107710975Y-59925712D01*
X107719902Y-59923091D01*
X107737932Y-59920499D01*
X107775354Y-59920499D01*
X107775354Y-59920498D01*
X107840476Y-59907546D01*
X107855711Y-59904516D01*
X107855712Y-59904516D01*
X107855712Y-59904515D01*
X107855715Y-59904515D01*
X107946844Y-59843624D01*
X107969727Y-59809376D01*
X108010456Y-59782162D01*
X108058498Y-59791718D01*
X108071600Y-59804669D01*
X108071610Y-59804660D01*
X108073305Y-59806355D01*
X108075744Y-59808766D01*
X108075804Y-59808854D01*
X108151146Y-59884196D01*
X108248619Y-59927235D01*
X108272444Y-59929999D01*
X108272446Y-59930000D01*
X108400000Y-59930000D01*
X108400000Y-59090000D01*
X108272444Y-59090000D01*
X108248619Y-59092764D01*
X108151146Y-59135803D01*
X108075800Y-59211149D01*
X108075735Y-59211245D01*
X108075648Y-59211301D01*
X108071610Y-59215340D01*
X108070757Y-59214487D01*
X108034690Y-59237979D01*
X107986763Y-59227861D01*
X107969727Y-59210623D01*
X107946845Y-59176377D01*
X107946844Y-59176376D01*
X107855714Y-59115484D01*
X107855712Y-59115483D01*
X107775356Y-59099500D01*
X107775353Y-59099500D01*
X107737929Y-59099500D01*
X107719899Y-59096908D01*
X107710567Y-59094168D01*
X107626554Y-59069500D01*
X107499886Y-59069500D01*
X107437786Y-59087733D01*
X107406537Y-59096908D01*
X107388509Y-59099500D01*
X107351085Y-59099500D01*
X107351083Y-59099501D01*
X107270728Y-59115483D01*
X107270727Y-59115483D01*
X107179595Y-59176376D01*
X107179594Y-59176377D01*
X107155120Y-59213004D01*
X107114391Y-59240217D01*
X107066349Y-59230659D01*
X107049106Y-59213613D01*
X107047416Y-59211146D01*
X106972073Y-59135803D01*
X106874600Y-59092764D01*
X106850775Y-59090000D01*
X106723220Y-59090000D01*
X106723220Y-59930000D01*
X106523220Y-59930000D01*
X106523220Y-59610000D01*
X105783220Y-59610000D01*
X105583220Y-59610000D01*
X105583220Y-59090000D01*
X105783220Y-59090000D01*
X105783220Y-59410000D01*
X106523220Y-59410000D01*
X106523220Y-59090000D01*
X106395664Y-59090000D01*
X106371839Y-59092764D01*
X106274366Y-59135803D01*
X106198475Y-59211695D01*
X106153220Y-59230440D01*
X106107965Y-59211695D01*
X106032073Y-59135803D01*
X105934600Y-59092764D01*
X105910775Y-59090000D01*
X105783220Y-59090000D01*
X105583220Y-59090000D01*
X105470283Y-59090000D01*
X105425028Y-59071255D01*
X105406283Y-59026000D01*
X105425028Y-58980745D01*
X105435682Y-58972160D01*
X105491433Y-58936331D01*
X105503339Y-58922589D01*
X105547142Y-58900662D01*
X105551709Y-58900499D01*
X105895354Y-58900499D01*
X105895354Y-58900498D01*
X105949194Y-58889790D01*
X105975711Y-58884516D01*
X105975712Y-58884516D01*
X105975712Y-58884515D01*
X105975715Y-58884515D01*
X106066844Y-58823624D01*
X106100006Y-58773993D01*
X106140734Y-58746780D01*
X106188776Y-58756336D01*
X106206434Y-58773994D01*
X106239594Y-58823622D01*
X106239595Y-58823623D01*
X106239596Y-58823624D01*
X106284494Y-58853624D01*
X106330725Y-58884515D01*
X106330727Y-58884516D01*
X106378854Y-58894088D01*
X106411087Y-58900500D01*
X106835352Y-58900499D01*
X106835354Y-58900499D01*
X106835354Y-58900498D01*
X106889194Y-58889790D01*
X106915711Y-58884516D01*
X106915712Y-58884516D01*
X106915712Y-58884515D01*
X106915715Y-58884515D01*
X107006844Y-58823624D01*
X107040006Y-58773993D01*
X107080734Y-58746780D01*
X107128776Y-58756336D01*
X107146434Y-58773994D01*
X107179594Y-58823622D01*
X107179595Y-58823623D01*
X107179596Y-58823624D01*
X107224494Y-58853624D01*
X107270725Y-58884515D01*
X107270727Y-58884516D01*
X107318854Y-58894088D01*
X107351087Y-58900500D01*
X107775352Y-58900499D01*
X107775354Y-58900499D01*
X107775354Y-58900498D01*
X107829194Y-58889790D01*
X107855711Y-58884516D01*
X107855712Y-58884516D01*
X107855712Y-58884515D01*
X107855715Y-58884515D01*
X107946844Y-58823624D01*
X107978396Y-58776402D01*
X108019124Y-58749190D01*
X108067167Y-58758746D01*
X108084824Y-58776403D01*
X108116376Y-58823624D01*
X108207505Y-58884515D01*
X108207507Y-58884516D01*
X108255634Y-58894088D01*
X108287867Y-58900500D01*
X108388343Y-58900499D01*
X108433598Y-58919244D01*
X108433599Y-58919244D01*
X108581255Y-59066900D01*
X108600000Y-59112154D01*
X108600000Y-59929999D01*
X108617666Y-59947666D01*
X108620270Y-59948745D01*
X108639015Y-59994000D01*
X108620270Y-60039255D01*
X108538769Y-60120755D01*
X108493514Y-60139500D01*
X108297865Y-60139500D01*
X108297864Y-60139501D01*
X108217508Y-60155483D01*
X108217507Y-60155483D01*
X108126375Y-60216376D01*
X108065484Y-60307505D01*
X108065483Y-60307507D01*
X108049500Y-60387864D01*
X108049500Y-60812134D01*
X108049501Y-60812135D01*
X108065483Y-60892491D01*
X108065483Y-60892492D01*
X108126376Y-60983624D01*
X108217505Y-61044515D01*
X108217507Y-61044516D01*
X108265634Y-61054088D01*
X108297867Y-61060500D01*
X108622132Y-61060499D01*
X108622134Y-61060499D01*
X108622134Y-61060498D01*
X108675462Y-61049891D01*
X108702491Y-61044516D01*
X108702492Y-61044516D01*
X108702492Y-61044515D01*
X108702495Y-61044515D01*
X108793624Y-60983624D01*
X108854515Y-60892495D01*
X108854984Y-60890141D01*
X108863222Y-60848722D01*
X108870500Y-60812133D01*
X108870499Y-60566482D01*
X108889243Y-60521229D01*
X109259795Y-60150677D01*
X109269487Y-60142724D01*
X109286415Y-60131415D01*
X109345095Y-60043593D01*
X109350509Y-60016376D01*
X109365702Y-59940000D01*
X109361729Y-59920031D01*
X109360500Y-59907546D01*
X109360500Y-59237620D01*
X109361730Y-59225133D01*
X109363679Y-59215339D01*
X109365701Y-59205172D01*
X109365701Y-59205171D01*
X109345096Y-59101581D01*
X109345095Y-59101580D01*
X109345095Y-59101579D01*
X109335935Y-59087870D01*
X109286415Y-59013757D01*
X109269483Y-59002443D01*
X109259788Y-58994487D01*
X108977543Y-58712242D01*
X108958798Y-58666987D01*
X108960027Y-58654507D01*
X108960500Y-58652133D01*
X108960499Y-58327868D01*
X108960499Y-58327867D01*
X108960499Y-58327865D01*
X108960498Y-58327864D01*
X108944516Y-58247508D01*
X108944516Y-58247507D01*
X108912438Y-58199500D01*
X108883624Y-58156376D01*
X108863415Y-58142872D01*
X108792494Y-58095484D01*
X108792492Y-58095483D01*
X108712135Y-58079500D01*
X108287865Y-58079500D01*
X108287864Y-58079501D01*
X108207508Y-58095483D01*
X108207507Y-58095483D01*
X108116375Y-58156376D01*
X108116374Y-58156377D01*
X108106565Y-58171058D01*
X108065837Y-58198270D01*
X108053352Y-58199500D01*
X108009868Y-58199500D01*
X107964613Y-58180755D01*
X107956655Y-58171058D01*
X107946845Y-58156377D01*
X107946844Y-58156376D01*
X107855711Y-58095482D01*
X107852212Y-58094033D01*
X107817577Y-58059395D01*
X107817579Y-58010412D01*
X107841150Y-57981691D01*
X107889115Y-57949642D01*
X107922265Y-57900028D01*
X107922266Y-57900027D01*
X107930970Y-57856276D01*
X107930970Y-57441500D01*
X107437220Y-57441500D01*
X107391965Y-57422755D01*
X107373220Y-57377500D01*
X107373220Y-57305500D01*
X107391965Y-57260245D01*
X107437220Y-57241500D01*
X107930969Y-57241500D01*
X107930969Y-57045962D01*
X107949714Y-57000707D01*
X107994969Y-56981962D01*
X108025798Y-56989877D01*
X108161198Y-57064314D01*
X108161202Y-57064315D01*
X108321607Y-57105500D01*
X108321611Y-57105500D01*
X108321613Y-57105501D01*
X108321614Y-57105501D01*
X108445664Y-57105501D01*
X108568728Y-57089955D01*
X108568729Y-57089954D01*
X108568734Y-57089954D01*
X108722721Y-57028986D01*
X108856709Y-56931638D01*
X108962278Y-56804027D01*
X109010811Y-56700888D01*
X109047041Y-56667923D01*
X109095970Y-56670230D01*
X109128936Y-56706460D01*
X109132720Y-56728139D01*
X109132720Y-57034628D01*
X109147773Y-57163426D01*
X109147775Y-57163437D01*
X109206980Y-57326098D01*
X109206982Y-57326103D01*
X109302100Y-57470723D01*
X109302102Y-57470726D01*
X109368942Y-57533785D01*
X109428014Y-57589516D01*
X109577926Y-57676068D01*
X109743758Y-57725715D01*
X109916569Y-57735780D01*
X110087044Y-57705720D01*
X110245990Y-57637157D01*
X110384841Y-57533787D01*
X110496110Y-57401181D01*
X110573799Y-57246490D01*
X110613720Y-57078052D01*
X110613720Y-56148371D01*
X110598665Y-56019566D01*
X110552012Y-55891388D01*
X110554148Y-55842453D01*
X110590262Y-55809360D01*
X110612152Y-55805500D01*
X110678415Y-55805500D01*
X110678419Y-55805500D01*
X110838232Y-55790691D01*
X111044203Y-55732087D01*
X111235898Y-55636634D01*
X111360573Y-55542483D01*
X111406784Y-55507588D01*
X111406785Y-55507586D01*
X111406790Y-55507583D01*
X111551059Y-55349327D01*
X111663792Y-55167257D01*
X111741151Y-54967572D01*
X111780500Y-54757073D01*
X111780500Y-54542927D01*
X111741151Y-54332428D01*
X111663792Y-54132743D01*
X111551059Y-53950673D01*
X111406790Y-53792417D01*
X111406788Y-53792415D01*
X111406784Y-53792411D01*
X111235895Y-53663364D01*
X111235892Y-53663362D01*
X111044207Y-53567914D01*
X110838232Y-53509309D01*
X110838232Y-53509308D01*
X110678419Y-53494500D01*
X110628336Y-53494500D01*
X110583081Y-53475755D01*
X110564336Y-53430500D01*
X110571143Y-53401778D01*
X110573799Y-53396490D01*
X110613720Y-53228052D01*
X110613720Y-51998371D01*
X110598665Y-51869566D01*
X110539460Y-51706902D01*
X110539458Y-51706899D01*
X110539457Y-51706896D01*
X110501818Y-51649668D01*
X110492611Y-51601558D01*
X110520121Y-51561029D01*
X110555289Y-51550500D01*
X110643034Y-51550500D01*
X111603406Y-51550500D01*
X112408720Y-51550500D01*
X112453975Y-51569245D01*
X112472720Y-51614500D01*
X112472720Y-76185500D01*
X112453975Y-76230755D01*
X112408720Y-76249500D01*
X95837720Y-76249500D01*
X95792465Y-76230755D01*
X95773720Y-76185500D01*
X95773720Y-51614500D01*
X95792465Y-51569245D01*
X95837720Y-51550500D01*
X97903406Y-51550500D01*
X97987410Y-51550500D01*
X98032665Y-51569245D01*
G37*
%TD.AperFunction*%
%TA.AperFunction,Conductor*%
G36*
X104202252Y-68474245D02*
G01*
X104548974Y-68820967D01*
X104567719Y-68866222D01*
X104567719Y-68903635D01*
X104548974Y-68948890D01*
X104503719Y-68967635D01*
X104468163Y-68956849D01*
X104414927Y-68921278D01*
X104414923Y-68921276D01*
X104355718Y-68909500D01*
X104355714Y-68909500D01*
X104190726Y-68909500D01*
X104190722Y-68909500D01*
X104131516Y-68921276D01*
X104131512Y-68921278D01*
X104059123Y-68969647D01*
X104057166Y-68966719D01*
X104023220Y-68980780D01*
X103989273Y-68966719D01*
X103987317Y-68969647D01*
X103914927Y-68921278D01*
X103914923Y-68921276D01*
X103855718Y-68909500D01*
X103855714Y-68909500D01*
X103690726Y-68909500D01*
X103690722Y-68909500D01*
X103631516Y-68921276D01*
X103631512Y-68921278D01*
X103566918Y-68964438D01*
X103518876Y-68973994D01*
X103495156Y-68961315D01*
X103494166Y-68962798D01*
X103418633Y-68912329D01*
X103418629Y-68912327D01*
X103373220Y-68903295D01*
X103373220Y-70271702D01*
X103418632Y-70262670D01*
X103476095Y-70224275D01*
X103524137Y-70214719D01*
X103564866Y-70241932D01*
X103572059Y-70256348D01*
X103574261Y-70262641D01*
X103574858Y-70263591D01*
X103583059Y-70283389D01*
X103583308Y-70284480D01*
X103583309Y-70284482D01*
X103600908Y-70306549D01*
X103604231Y-70310716D01*
X103606310Y-70313646D01*
X103611535Y-70321962D01*
X103611537Y-70321964D01*
X103618476Y-70328904D01*
X103620869Y-70331581D01*
X103640446Y-70356129D01*
X103641798Y-70357824D01*
X103642805Y-70358309D01*
X103660286Y-70370713D01*
X103730318Y-70440745D01*
X103749063Y-70486000D01*
X103730318Y-70531255D01*
X103685063Y-70550000D01*
X103654422Y-70550000D01*
X103654422Y-71136000D01*
X103635677Y-71181255D01*
X103590422Y-71200000D01*
X102954423Y-71200000D01*
X102954423Y-71514773D01*
X102963125Y-71558526D01*
X102963126Y-71558528D01*
X102996276Y-71608142D01*
X102999728Y-71611594D01*
X103018473Y-71656849D01*
X103004026Y-71691725D01*
X103006629Y-71693464D01*
X102972072Y-71745179D01*
X102972071Y-71745182D01*
X102963922Y-71786155D01*
X102963922Y-72030500D01*
X102945177Y-72075755D01*
X102899922Y-72094500D01*
X102828765Y-72094500D01*
X102783510Y-72075755D01*
X102765995Y-72042985D01*
X102758938Y-72007508D01*
X102758938Y-72007507D01*
X102756577Y-72003974D01*
X102698046Y-71916376D01*
X102697740Y-71916171D01*
X102606916Y-71855484D01*
X102606914Y-71855483D01*
X102526557Y-71839500D01*
X102202287Y-71839500D01*
X102202286Y-71839501D01*
X102121930Y-71855483D01*
X102121929Y-71855483D01*
X102030797Y-71916376D01*
X101969906Y-72007505D01*
X101969905Y-72007507D01*
X101953922Y-72087864D01*
X101953922Y-72512134D01*
X101953923Y-72512135D01*
X101969905Y-72592491D01*
X101969905Y-72592492D01*
X102030798Y-72683624D01*
X102121927Y-72744515D01*
X102121929Y-72744516D01*
X102170056Y-72754088D01*
X102202289Y-72760500D01*
X102526554Y-72760499D01*
X102526556Y-72760499D01*
X102526556Y-72760498D01*
X102579884Y-72749891D01*
X102606913Y-72744516D01*
X102606914Y-72744516D01*
X102606914Y-72744515D01*
X102606917Y-72744515D01*
X102698046Y-72683624D01*
X102758937Y-72592495D01*
X102762281Y-72575686D01*
X102765995Y-72557015D01*
X102793208Y-72516286D01*
X102828765Y-72505500D01*
X102899923Y-72505500D01*
X102945178Y-72524245D01*
X102963923Y-72569500D01*
X102963922Y-72613839D01*
X102972073Y-72654820D01*
X102972073Y-72654822D01*
X103003126Y-72701294D01*
X103003127Y-72701295D01*
X103049601Y-72732349D01*
X103049604Y-72732350D01*
X103076795Y-72737758D01*
X103090581Y-72740500D01*
X103775757Y-72740499D01*
X103821012Y-72759244D01*
X103839757Y-72804499D01*
X103833974Y-72831085D01*
X103822997Y-72855121D01*
X103804970Y-72980500D01*
X103822997Y-73105881D01*
X103877518Y-73225264D01*
X103875441Y-73226212D01*
X103882782Y-73266937D01*
X103854839Y-73307168D01*
X103849303Y-73310346D01*
X103790831Y-73340139D01*
X103703359Y-73427611D01*
X103695242Y-73443541D01*
X103657994Y-73475351D01*
X103609161Y-73471506D01*
X103581195Y-73443538D01*
X103573079Y-73427609D01*
X103485611Y-73340141D01*
X103485608Y-73340139D01*
X103485606Y-73340138D01*
X103375400Y-73283985D01*
X103375393Y-73283982D01*
X103321460Y-73275440D01*
X103283955Y-73269500D01*
X103283952Y-73269500D01*
X102722487Y-73269500D01*
X102631048Y-73283982D01*
X102626255Y-73285540D01*
X102625784Y-73284092D01*
X102582916Y-73287463D01*
X102557444Y-73271852D01*
X102357658Y-73072066D01*
X102345254Y-73054585D01*
X102344769Y-73053578D01*
X102344767Y-73053576D01*
X102318526Y-73032649D01*
X102315849Y-73030256D01*
X102308909Y-73023317D01*
X102308907Y-73023315D01*
X102300591Y-73018090D01*
X102297661Y-73016011D01*
X102271427Y-72995089D01*
X102271425Y-72995088D01*
X102270334Y-72994839D01*
X102250536Y-72986638D01*
X102249587Y-72986042D01*
X102216226Y-72982282D01*
X102212690Y-72981682D01*
X102203126Y-72979500D01*
X102193314Y-72979500D01*
X102189729Y-72979299D01*
X102177736Y-72977948D01*
X102156371Y-72975541D01*
X102156370Y-72975541D01*
X102156369Y-72975541D01*
X102155321Y-72975908D01*
X102134183Y-72979500D01*
X100146630Y-72979500D01*
X100101375Y-72960755D01*
X99540621Y-72400000D01*
X100924422Y-72400000D01*
X100924422Y-72527555D01*
X100927186Y-72551380D01*
X100970225Y-72648853D01*
X101045568Y-72724196D01*
X101143041Y-72767235D01*
X101166866Y-72769999D01*
X101166868Y-72770000D01*
X101244422Y-72770000D01*
X101244422Y-72400000D01*
X101444422Y-72400000D01*
X101444422Y-72770000D01*
X101521976Y-72770000D01*
X101521977Y-72769999D01*
X101545802Y-72767235D01*
X101643275Y-72724196D01*
X101718618Y-72648853D01*
X101761657Y-72551380D01*
X101764421Y-72527555D01*
X101764422Y-72527548D01*
X101764422Y-72400000D01*
X101444422Y-72400000D01*
X101244422Y-72400000D01*
X100924422Y-72400000D01*
X99540621Y-72400000D01*
X99224245Y-72083624D01*
X99205500Y-72038369D01*
X99205500Y-72005102D01*
X99224245Y-71959847D01*
X99269500Y-71941102D01*
X99304100Y-71951261D01*
X99309628Y-71954814D01*
X99431166Y-71990500D01*
X99431167Y-71990500D01*
X99557832Y-71990500D01*
X99557834Y-71990500D01*
X99657471Y-71961244D01*
X99706172Y-71966481D01*
X99736908Y-72004621D01*
X99739500Y-72022651D01*
X99739500Y-72072133D01*
X99739501Y-72072135D01*
X99755483Y-72152491D01*
X99755483Y-72152492D01*
X99816376Y-72243624D01*
X99907505Y-72304515D01*
X99907507Y-72304516D01*
X99945250Y-72312023D01*
X99987867Y-72320500D01*
X100412132Y-72320499D01*
X100412134Y-72320499D01*
X100412134Y-72320498D01*
X100465462Y-72309891D01*
X100492491Y-72304516D01*
X100492492Y-72304516D01*
X100492492Y-72304515D01*
X100492495Y-72304515D01*
X100583624Y-72243624D01*
X100644515Y-72152495D01*
X100660500Y-72072133D01*
X100660499Y-71919499D01*
X100679244Y-71874245D01*
X100724499Y-71855500D01*
X100914327Y-71855500D01*
X100959582Y-71874245D01*
X100978327Y-71919500D01*
X100970507Y-71944787D01*
X100972621Y-71945721D01*
X100927186Y-72048619D01*
X100924422Y-72072444D01*
X100924422Y-72072446D01*
X100924421Y-72199999D01*
X100924422Y-72200000D01*
X101764421Y-72200000D01*
X101764422Y-72072446D01*
X101764421Y-72072444D01*
X101761657Y-72048619D01*
X101718618Y-71951146D01*
X101653396Y-71885924D01*
X101634651Y-71840669D01*
X101653396Y-71795414D01*
X101658730Y-71790646D01*
X101670298Y-71781422D01*
X101670779Y-71780422D01*
X101683184Y-71762935D01*
X101966876Y-71479243D01*
X102012127Y-71460499D01*
X102326554Y-71460499D01*
X102326556Y-71460499D01*
X102326556Y-71460498D01*
X102387339Y-71448409D01*
X102406913Y-71444516D01*
X102406914Y-71444516D01*
X102406914Y-71444515D01*
X102406917Y-71444515D01*
X102498046Y-71383624D01*
X102558937Y-71292495D01*
X102560525Y-71284515D01*
X102574921Y-71212136D01*
X102574922Y-71212133D01*
X102574921Y-71155902D01*
X102580707Y-71129311D01*
X102582503Y-71125379D01*
X102600530Y-71000000D01*
X102596345Y-70970895D01*
X102608459Y-70923434D01*
X102614432Y-70916540D01*
X102845167Y-70685806D01*
X102890422Y-70667061D01*
X102935677Y-70685806D01*
X102954422Y-70731061D01*
X102954422Y-71000000D01*
X103454422Y-71000000D01*
X103454422Y-70550000D01*
X103088543Y-70550000D01*
X103043288Y-70531255D01*
X103024543Y-70486000D01*
X103025773Y-70473513D01*
X103043922Y-70382280D01*
X103043922Y-70382279D01*
X103039950Y-70362313D01*
X103038720Y-70349826D01*
X103038720Y-70321552D01*
X103057465Y-70276297D01*
X103102720Y-70257552D01*
X103127218Y-70262426D01*
X103127810Y-70262671D01*
X103173220Y-70271702D01*
X103173220Y-68903295D01*
X103166740Y-68897977D01*
X103143650Y-68854777D01*
X103149126Y-68821918D01*
X103149561Y-68820967D01*
X103183852Y-68745879D01*
X103201879Y-68620500D01*
X103189127Y-68531810D01*
X103201241Y-68484350D01*
X103236035Y-68463705D01*
X103235383Y-68461841D01*
X103243239Y-68459092D01*
X103264377Y-68455500D01*
X104156997Y-68455500D01*
X104202252Y-68474245D01*
G37*
%TD.AperFunction*%
%TA.AperFunction,Conductor*%
G36*
X105756370Y-71444245D02*
G01*
X105764328Y-71453942D01*
X105770796Y-71463622D01*
X105770797Y-71463623D01*
X105770798Y-71463624D01*
X105845851Y-71513773D01*
X105861927Y-71524515D01*
X105861929Y-71524516D01*
X105910056Y-71534088D01*
X105942289Y-71540500D01*
X106366554Y-71540499D01*
X106366556Y-71540499D01*
X106366556Y-71540498D01*
X106446917Y-71524515D01*
X106449944Y-71522492D01*
X106497983Y-71512935D01*
X106538713Y-71540147D01*
X106549500Y-71575706D01*
X106549500Y-71697993D01*
X106530755Y-71743248D01*
X106485500Y-71761993D01*
X106459649Y-71756540D01*
X106405802Y-71732764D01*
X106381977Y-71730000D01*
X106254422Y-71730000D01*
X106254422Y-72186000D01*
X106235677Y-72231255D01*
X106190422Y-72250000D01*
X105684422Y-72250000D01*
X105684422Y-72327555D01*
X105687186Y-72351380D01*
X105730225Y-72448853D01*
X105805567Y-72524195D01*
X105831062Y-72535453D01*
X105864888Y-72570881D01*
X105863757Y-72619852D01*
X105828329Y-72653678D01*
X105805210Y-72658000D01*
X105618422Y-72658000D01*
X105573167Y-72639255D01*
X105554422Y-72594000D01*
X105554422Y-72300000D01*
X104354423Y-72300000D01*
X104354422Y-72476000D01*
X104335677Y-72521255D01*
X104290422Y-72540000D01*
X104208921Y-72540000D01*
X104163666Y-72521255D01*
X104144921Y-72476000D01*
X104144921Y-71976631D01*
X104163666Y-71931376D01*
X104199913Y-71895129D01*
X104245168Y-71849873D01*
X104290422Y-71831129D01*
X104335677Y-71849874D01*
X104354422Y-71895129D01*
X104354422Y-72100000D01*
X105554421Y-72100000D01*
X105554421Y-72050000D01*
X105684422Y-72050000D01*
X106054422Y-72050000D01*
X106054422Y-71730000D01*
X105926866Y-71730000D01*
X105903041Y-71732764D01*
X105805568Y-71775803D01*
X105730225Y-71851146D01*
X105687186Y-71948619D01*
X105684422Y-71972444D01*
X105684422Y-72050000D01*
X105554421Y-72050000D01*
X105554420Y-71785226D01*
X105545718Y-71741473D01*
X105545717Y-71741471D01*
X105512567Y-71691857D01*
X105509116Y-71688406D01*
X105490371Y-71643151D01*
X105504817Y-71608274D01*
X105502215Y-71606536D01*
X105505717Y-71601295D01*
X105536771Y-71554821D01*
X105536772Y-71554817D01*
X105544922Y-71513844D01*
X105544922Y-71489500D01*
X105563667Y-71444245D01*
X105608922Y-71425500D01*
X105711115Y-71425500D01*
X105756370Y-71444245D01*
G37*
%TD.AperFunction*%
%TA.AperFunction,Conductor*%
G36*
X101786970Y-70589245D02*
G01*
X101805715Y-70634500D01*
X101794929Y-70670057D01*
X101769906Y-70707505D01*
X101769905Y-70707507D01*
X101753922Y-70787864D01*
X101753922Y-70805024D01*
X101748139Y-70831610D01*
X101728497Y-70874619D01*
X101720186Y-70932422D01*
X101710470Y-71000000D01*
X101724635Y-71098520D01*
X101725321Y-71103287D01*
X101713207Y-71150749D01*
X101707227Y-71157650D01*
X101673677Y-71191200D01*
X101628422Y-71209945D01*
X101583167Y-71191200D01*
X101564422Y-71145945D01*
X101564422Y-71100000D01*
X101108422Y-71100000D01*
X101063167Y-71081255D01*
X101044422Y-71036000D01*
X101044422Y-70964000D01*
X101063167Y-70918745D01*
X101108422Y-70900000D01*
X101564421Y-70900000D01*
X101564422Y-70772446D01*
X101564421Y-70772444D01*
X101561657Y-70748619D01*
X101522683Y-70660351D01*
X101521552Y-70611381D01*
X101555379Y-70575953D01*
X101581230Y-70570500D01*
X101741715Y-70570500D01*
X101786970Y-70589245D01*
G37*
%TD.AperFunction*%
%TA.AperFunction,Conductor*%
G36*
X106270264Y-67974245D02*
G01*
X106289009Y-68019500D01*
X106283225Y-68046087D01*
X106247360Y-68124618D01*
X106232583Y-68227395D01*
X106229333Y-68250000D01*
X106232242Y-68270230D01*
X106247360Y-68375381D01*
X106299979Y-68490600D01*
X106299981Y-68490604D01*
X106382928Y-68586329D01*
X106382930Y-68586331D01*
X106489491Y-68654814D01*
X106611029Y-68690500D01*
X106611030Y-68690500D01*
X106737696Y-68690500D01*
X106737697Y-68690500D01*
X106859235Y-68654814D01*
X106859242Y-68654808D01*
X106863397Y-68652913D01*
X106864135Y-68654529D01*
X106906139Y-68646947D01*
X106911132Y-68650000D01*
X107646720Y-68650000D01*
X107691975Y-68668745D01*
X107710720Y-68714000D01*
X107710720Y-69024999D01*
X108073719Y-69024999D01*
X108118974Y-69043744D01*
X108137719Y-69088999D01*
X108137718Y-69255781D01*
X108118973Y-69301036D01*
X106642064Y-70777945D01*
X106624588Y-70790347D01*
X106623581Y-70790832D01*
X106617941Y-70795330D01*
X106615605Y-70792401D01*
X106584715Y-70809439D01*
X106542047Y-70799049D01*
X106446916Y-70735484D01*
X106446914Y-70735483D01*
X106366557Y-70719500D01*
X105942287Y-70719500D01*
X105942286Y-70719501D01*
X105861930Y-70735483D01*
X105861929Y-70735483D01*
X105770797Y-70796376D01*
X105709906Y-70887505D01*
X105709905Y-70887507D01*
X105694892Y-70962986D01*
X105667678Y-71003714D01*
X105632122Y-71014500D01*
X105608921Y-71014500D01*
X105563666Y-70995755D01*
X105544921Y-70950500D01*
X105544921Y-70686160D01*
X105541756Y-70670245D01*
X105536771Y-70645179D01*
X105529635Y-70634500D01*
X105505717Y-70598705D01*
X105505716Y-70598704D01*
X105459242Y-70567650D01*
X105459239Y-70567649D01*
X105418267Y-70559500D01*
X105418263Y-70559500D01*
X104876630Y-70559500D01*
X104831375Y-70540755D01*
X104665376Y-70374755D01*
X104646631Y-70329500D01*
X104665376Y-70284245D01*
X104710631Y-70265500D01*
X104855717Y-70265500D01*
X104914923Y-70253723D01*
X104914923Y-70253722D01*
X104914927Y-70253722D01*
X104973299Y-70214719D01*
X104987317Y-70205353D01*
X104989273Y-70208280D01*
X105023220Y-70194220D01*
X105057166Y-70208280D01*
X105059123Y-70205353D01*
X105105828Y-70236560D01*
X105131513Y-70253722D01*
X105131514Y-70253722D01*
X105131516Y-70253723D01*
X105190722Y-70265500D01*
X105190726Y-70265500D01*
X105355717Y-70265500D01*
X105414923Y-70253723D01*
X105414923Y-70253722D01*
X105414927Y-70253722D01*
X105473299Y-70214719D01*
X105487317Y-70205353D01*
X105489273Y-70208280D01*
X105523220Y-70194220D01*
X105557166Y-70208280D01*
X105559123Y-70205353D01*
X105605828Y-70236560D01*
X105631513Y-70253722D01*
X105631514Y-70253722D01*
X105631516Y-70253723D01*
X105690722Y-70265500D01*
X105690726Y-70265500D01*
X105855717Y-70265500D01*
X105914923Y-70253723D01*
X105914923Y-70253722D01*
X105914927Y-70253722D01*
X105973299Y-70214719D01*
X105987317Y-70205353D01*
X105989273Y-70208280D01*
X106023220Y-70194220D01*
X106057166Y-70208280D01*
X106059123Y-70205353D01*
X106105828Y-70236560D01*
X106131513Y-70253722D01*
X106131514Y-70253722D01*
X106131516Y-70253723D01*
X106190722Y-70265500D01*
X106190726Y-70265500D01*
X106355717Y-70265500D01*
X106414923Y-70253723D01*
X106414923Y-70253722D01*
X106414927Y-70253722D01*
X106473299Y-70214719D01*
X106487317Y-70205353D01*
X106489273Y-70208280D01*
X106523220Y-70194220D01*
X106557166Y-70208280D01*
X106559123Y-70205353D01*
X106605828Y-70236560D01*
X106631513Y-70253722D01*
X106631514Y-70253722D01*
X106631516Y-70253723D01*
X106690722Y-70265500D01*
X106690726Y-70265500D01*
X106855717Y-70265500D01*
X106914923Y-70253723D01*
X106914923Y-70253722D01*
X106914927Y-70253722D01*
X106982075Y-70208855D01*
X107026942Y-70141707D01*
X107026943Y-70141703D01*
X107038720Y-70082497D01*
X107038720Y-69089362D01*
X107040316Y-69089362D01*
X107053087Y-69047231D01*
X107096282Y-69024131D01*
X107111638Y-69024886D01*
X107111658Y-69024692D01*
X107114786Y-69024999D01*
X107510720Y-69024999D01*
X107510720Y-68850000D01*
X106926517Y-68850000D01*
X106917676Y-68860771D01*
X106913609Y-68881212D01*
X106872879Y-68908422D01*
X106858858Y-68909113D01*
X106858858Y-68909500D01*
X106690722Y-68909500D01*
X106631516Y-68921276D01*
X106631512Y-68921278D01*
X106559123Y-68969647D01*
X106557166Y-68966719D01*
X106523220Y-68980780D01*
X106489273Y-68966719D01*
X106487317Y-68969647D01*
X106414927Y-68921278D01*
X106414924Y-68921276D01*
X106367773Y-68911898D01*
X106335004Y-68894383D01*
X105554407Y-68113786D01*
X105535662Y-68068531D01*
X105554407Y-68023276D01*
X105581628Y-68007124D01*
X105645575Y-67988349D01*
X105680879Y-67965660D01*
X105715481Y-67955500D01*
X106225009Y-67955500D01*
X106270264Y-67974245D01*
G37*
%TD.AperFunction*%
%TA.AperFunction,Conductor*%
G36*
X106610878Y-61241745D02*
G01*
X106629623Y-61287000D01*
X106618837Y-61322557D01*
X106595484Y-61357505D01*
X106595483Y-61357507D01*
X106579500Y-61437864D01*
X106579501Y-61865276D01*
X106578540Y-61865276D01*
X106575947Y-61886770D01*
X106574262Y-61891584D01*
X106570505Y-61924932D01*
X106569904Y-61928466D01*
X106567720Y-61938044D01*
X106567720Y-61947859D01*
X106567519Y-61951444D01*
X106564812Y-61975477D01*
X106563761Y-61984802D01*
X106564128Y-61985853D01*
X106567720Y-62006989D01*
X106567720Y-62217210D01*
X106548975Y-62262465D01*
X106503720Y-62281210D01*
X106468164Y-62270424D01*
X106418633Y-62237329D01*
X106418629Y-62237327D01*
X106373220Y-62228295D01*
X106373220Y-63596702D01*
X106418632Y-63587670D01*
X106418634Y-63587669D01*
X106494166Y-63537202D01*
X106495727Y-63539539D01*
X106531342Y-63524775D01*
X106566917Y-63535560D01*
X106631513Y-63578722D01*
X106631515Y-63578722D01*
X106631516Y-63578723D01*
X106690722Y-63590500D01*
X106690726Y-63590500D01*
X106855712Y-63590500D01*
X106855714Y-63590500D01*
X106857894Y-63590066D01*
X106858632Y-63590213D01*
X106858847Y-63590192D01*
X106858853Y-63590256D01*
X106905936Y-63599620D01*
X106933153Y-63640346D01*
X106933155Y-63665312D01*
X106932720Y-63667499D01*
X106932720Y-63832497D01*
X106944496Y-63891703D01*
X106944498Y-63891707D01*
X106992867Y-63964097D01*
X106989939Y-63966053D01*
X107004000Y-64000000D01*
X106989939Y-64033946D01*
X106992867Y-64035903D01*
X106944498Y-64108292D01*
X106944496Y-64108296D01*
X106932720Y-64167502D01*
X106932720Y-64332497D01*
X106944496Y-64391703D01*
X106944498Y-64391707D01*
X106980069Y-64444944D01*
X106989625Y-64492986D01*
X106962411Y-64533714D01*
X106926855Y-64544500D01*
X106851288Y-64544500D01*
X106830150Y-64540908D01*
X106829101Y-64540541D01*
X106829100Y-64540541D01*
X106812170Y-64542448D01*
X106795745Y-64544299D01*
X106792159Y-64544500D01*
X106782345Y-64544500D01*
X106775323Y-64546102D01*
X106772770Y-64546685D01*
X106769233Y-64547286D01*
X106735880Y-64551043D01*
X106735879Y-64551044D01*
X106734931Y-64551640D01*
X106715139Y-64559839D01*
X106714043Y-64560089D01*
X106687797Y-64581018D01*
X106684872Y-64583094D01*
X106676559Y-64588318D01*
X106676558Y-64588319D01*
X106669615Y-64595261D01*
X106666942Y-64597650D01*
X106640704Y-64618576D01*
X106640700Y-64618581D01*
X106640215Y-64619588D01*
X106627813Y-64637064D01*
X106357085Y-64907792D01*
X106311830Y-64926537D01*
X106293801Y-64923945D01*
X106274523Y-64918285D01*
X106263334Y-64915000D01*
X106136666Y-64915000D01*
X106015128Y-64950686D01*
X106015126Y-64950686D01*
X105908567Y-65019168D01*
X105908565Y-65019170D01*
X105825618Y-65114895D01*
X105825616Y-65114899D01*
X105772997Y-65230118D01*
X105754970Y-65355500D01*
X105772997Y-65480881D01*
X105825616Y-65596100D01*
X105825618Y-65596104D01*
X105890793Y-65671319D01*
X105908567Y-65691831D01*
X106015128Y-65760314D01*
X106136666Y-65796000D01*
X106136667Y-65796000D01*
X106263333Y-65796000D01*
X106263334Y-65796000D01*
X106384872Y-65760314D01*
X106491433Y-65691831D01*
X106544603Y-65630469D01*
X106574381Y-65596104D01*
X106574383Y-65596100D01*
X106574767Y-65595261D01*
X106627003Y-65480879D01*
X106645030Y-65355500D01*
X106630178Y-65252208D01*
X106642292Y-65204749D01*
X106648264Y-65197855D01*
X106871875Y-64974245D01*
X106917131Y-64955500D01*
X106926855Y-64955500D01*
X106972110Y-64974245D01*
X106990855Y-65019500D01*
X106980069Y-65055056D01*
X106944498Y-65108292D01*
X106944496Y-65108296D01*
X106932720Y-65167502D01*
X106932720Y-65332497D01*
X106944496Y-65391703D01*
X106944498Y-65391707D01*
X106986153Y-65454049D01*
X106995709Y-65502091D01*
X106968495Y-65542819D01*
X106954079Y-65550013D01*
X106951130Y-65551044D01*
X106950183Y-65551640D01*
X106930391Y-65559839D01*
X106929295Y-65560089D01*
X106903049Y-65581018D01*
X106900124Y-65583094D01*
X106891811Y-65588318D01*
X106891810Y-65588319D01*
X106884867Y-65595261D01*
X106882194Y-65597650D01*
X106855956Y-65618576D01*
X106855952Y-65618581D01*
X106855467Y-65619588D01*
X106843065Y-65637064D01*
X106498784Y-65981345D01*
X106453529Y-66000090D01*
X106435500Y-65997498D01*
X106406900Y-65989101D01*
X106387834Y-65983503D01*
X106261166Y-65983503D01*
X106139628Y-66019189D01*
X106139626Y-66019189D01*
X106033067Y-66087671D01*
X106033065Y-66087673D01*
X105950118Y-66183398D01*
X105950116Y-66183402D01*
X105897497Y-66298621D01*
X105879470Y-66424003D01*
X105897497Y-66549384D01*
X105950116Y-66664603D01*
X105950118Y-66664607D01*
X106027533Y-66753948D01*
X106043002Y-66800425D01*
X106021076Y-66844227D01*
X106013766Y-66849699D01*
X105936790Y-66899168D01*
X105936788Y-66899170D01*
X105853841Y-66994895D01*
X105853839Y-66994899D01*
X105801220Y-67110119D01*
X105801219Y-67110123D01*
X105793197Y-67165913D01*
X105768202Y-67208039D01*
X105720740Y-67220152D01*
X105695248Y-67210644D01*
X105645575Y-67178721D01*
X105607379Y-67167506D01*
X105524037Y-67143035D01*
X105487220Y-67143035D01*
X105441965Y-67124290D01*
X105423220Y-67079035D01*
X105423220Y-66350000D01*
X104362220Y-66350000D01*
X104316965Y-66331255D01*
X104298220Y-66286000D01*
X104298220Y-65100000D01*
X104498219Y-65100000D01*
X104498219Y-66149999D01*
X104498220Y-66150000D01*
X105423219Y-66150000D01*
X105423219Y-65386918D01*
X105416989Y-65339587D01*
X105368551Y-65235711D01*
X105287509Y-65154669D01*
X105183631Y-65106230D01*
X105183632Y-65106230D01*
X105136310Y-65100000D01*
X104498219Y-65100000D01*
X104298220Y-65100000D01*
X103660138Y-65100000D01*
X103612807Y-65106230D01*
X103546547Y-65137128D01*
X103497610Y-65139264D01*
X103461496Y-65106171D01*
X103455500Y-65079124D01*
X103455500Y-63585820D01*
X103474245Y-63540565D01*
X103483955Y-63532598D01*
X103487327Y-63530346D01*
X103489284Y-63533276D01*
X103523220Y-63519220D01*
X103557166Y-63533280D01*
X103559123Y-63530353D01*
X103601496Y-63558665D01*
X103631513Y-63578722D01*
X103631514Y-63578722D01*
X103631516Y-63578723D01*
X103690722Y-63590500D01*
X103690726Y-63590500D01*
X103855717Y-63590500D01*
X103914923Y-63578723D01*
X103914923Y-63578722D01*
X103914927Y-63578722D01*
X103973471Y-63539604D01*
X103987317Y-63530353D01*
X103989273Y-63533280D01*
X104023220Y-63519220D01*
X104057166Y-63533280D01*
X104059123Y-63530353D01*
X104101496Y-63558665D01*
X104131513Y-63578722D01*
X104131514Y-63578722D01*
X104131516Y-63578723D01*
X104157738Y-63583939D01*
X104198467Y-63611152D01*
X104208023Y-63659194D01*
X104193621Y-63688620D01*
X104175619Y-63709395D01*
X104175616Y-63709399D01*
X104122997Y-63824618D01*
X104104970Y-63950000D01*
X104122997Y-64075381D01*
X104175616Y-64190600D01*
X104175618Y-64190604D01*
X104228390Y-64251505D01*
X104258567Y-64286331D01*
X104365128Y-64354814D01*
X104486666Y-64390500D01*
X104486667Y-64390500D01*
X104613333Y-64390500D01*
X104613334Y-64390500D01*
X104734872Y-64354814D01*
X104841433Y-64286331D01*
X104882307Y-64239158D01*
X104926109Y-64217233D01*
X104972586Y-64232702D01*
X104994023Y-64271961D01*
X105009109Y-64376882D01*
X105009110Y-64376885D01*
X105061729Y-64492105D01*
X105061731Y-64492109D01*
X105140571Y-64583094D01*
X105144680Y-64587836D01*
X105251241Y-64656319D01*
X105372779Y-64692005D01*
X105372780Y-64692005D01*
X105499446Y-64692005D01*
X105499447Y-64692005D01*
X105620985Y-64656319D01*
X105727546Y-64587836D01*
X105756990Y-64553854D01*
X105800791Y-64531928D01*
X105847268Y-64547396D01*
X105853726Y-64553854D01*
X105867594Y-64569859D01*
X105874108Y-64577376D01*
X105980669Y-64645859D01*
X106102207Y-64681545D01*
X106102208Y-64681545D01*
X106228874Y-64681545D01*
X106228875Y-64681545D01*
X106350413Y-64645859D01*
X106456974Y-64577376D01*
X106518331Y-64506566D01*
X106539922Y-64481649D01*
X106539924Y-64481645D01*
X106543304Y-64474245D01*
X106592544Y-64366424D01*
X106610571Y-64241045D01*
X106592544Y-64115666D01*
X106589178Y-64108296D01*
X106539924Y-64000444D01*
X106539922Y-64000440D01*
X106456975Y-63904715D01*
X106456973Y-63904713D01*
X106350413Y-63836231D01*
X106310862Y-63824618D01*
X106228875Y-63800545D01*
X106102207Y-63800545D01*
X106102206Y-63800545D01*
X106071737Y-63809490D01*
X106023034Y-63804252D01*
X106008452Y-63793335D01*
X105997463Y-63782345D01*
X105978720Y-63737092D01*
X105978720Y-63607789D01*
X105997465Y-63562534D01*
X106042720Y-63543789D01*
X106078277Y-63554575D01*
X106127807Y-63587670D01*
X106173220Y-63596702D01*
X106173220Y-62228295D01*
X106173219Y-62228295D01*
X106127810Y-62237327D01*
X106127806Y-62237329D01*
X106052274Y-62287798D01*
X106050716Y-62285466D01*
X106015057Y-62300224D01*
X105979521Y-62289438D01*
X105914927Y-62246278D01*
X105914923Y-62246276D01*
X105855718Y-62234500D01*
X105855714Y-62234500D01*
X105710133Y-62234500D01*
X105664878Y-62215755D01*
X105646133Y-62170500D01*
X105664878Y-62125245D01*
X105728141Y-62061982D01*
X105792417Y-61997705D01*
X105837671Y-61978961D01*
X105855699Y-61981553D01*
X105886169Y-61990500D01*
X106012836Y-61990500D01*
X106012837Y-61990500D01*
X106134375Y-61954814D01*
X106240936Y-61886331D01*
X106288795Y-61831099D01*
X106323884Y-61790604D01*
X106323886Y-61790600D01*
X106326444Y-61785000D01*
X106376506Y-61675379D01*
X106394533Y-61550000D01*
X106376506Y-61424621D01*
X106375512Y-61422444D01*
X106325799Y-61313586D01*
X106324050Y-61264634D01*
X106357429Y-61228784D01*
X106384015Y-61223000D01*
X106565623Y-61223000D01*
X106610878Y-61241745D01*
G37*
%TD.AperFunction*%
%TA.AperFunction,Conductor*%
G36*
X100297110Y-64474245D02*
G01*
X100315855Y-64519500D01*
X100305069Y-64555056D01*
X100269498Y-64608292D01*
X100269496Y-64608296D01*
X100257720Y-64667502D01*
X100257720Y-64832497D01*
X100269496Y-64891703D01*
X100269498Y-64891707D01*
X100317867Y-64964097D01*
X100314939Y-64966053D01*
X100329000Y-65000000D01*
X100314939Y-65033946D01*
X100317867Y-65035903D01*
X100269498Y-65108292D01*
X100269496Y-65108296D01*
X100257720Y-65167502D01*
X100257720Y-65332497D01*
X100269496Y-65391703D01*
X100269498Y-65391707D01*
X100312658Y-65456301D01*
X100322214Y-65504343D01*
X100309538Y-65528065D01*
X100311018Y-65529054D01*
X100260549Y-65604586D01*
X100260547Y-65604590D01*
X100251515Y-65649999D01*
X100251515Y-65650000D01*
X101619922Y-65650000D01*
X101610890Y-65604587D01*
X101591966Y-65576265D01*
X101582410Y-65528223D01*
X101609623Y-65487494D01*
X101657665Y-65477938D01*
X101679781Y-65486868D01*
X101730268Y-65519314D01*
X101851806Y-65555000D01*
X101851813Y-65555000D01*
X101852782Y-65555140D01*
X101853270Y-65555429D01*
X101856197Y-65556289D01*
X101855977Y-65557035D01*
X101894910Y-65580132D01*
X101907027Y-65627593D01*
X101892047Y-65660399D01*
X101864006Y-65692760D01*
X101864004Y-65692763D01*
X101811385Y-65807982D01*
X101793358Y-65933363D01*
X101811385Y-66058745D01*
X101864004Y-66173964D01*
X101864006Y-66173968D01*
X101916380Y-66234410D01*
X101931849Y-66280887D01*
X101909923Y-66324689D01*
X101902614Y-66330161D01*
X101817587Y-66384805D01*
X101734640Y-66480530D01*
X101734638Y-66480534D01*
X101693780Y-66570002D01*
X101657930Y-66603380D01*
X101608977Y-66601631D01*
X101582350Y-66578971D01*
X101553573Y-66535903D01*
X101556500Y-66533946D01*
X101542440Y-66500000D01*
X101556500Y-66466053D01*
X101553573Y-66464097D01*
X101580362Y-66424003D01*
X101601942Y-66391707D01*
X101604419Y-66379255D01*
X101613720Y-66332497D01*
X101613720Y-66167502D01*
X101601943Y-66108296D01*
X101601943Y-66108295D01*
X101588163Y-66087672D01*
X101558780Y-66043697D01*
X101549225Y-65995656D01*
X101561906Y-65971938D01*
X101560422Y-65970946D01*
X101610890Y-65895413D01*
X101610892Y-65895409D01*
X101619925Y-65850000D01*
X100251517Y-65850000D01*
X100260549Y-65895412D01*
X100260550Y-65895414D01*
X100293644Y-65944944D01*
X100303200Y-65992986D01*
X100275986Y-66033714D01*
X100240430Y-66044500D01*
X100174499Y-66044500D01*
X100129244Y-66025755D01*
X100110499Y-65980500D01*
X100110499Y-65947865D01*
X100110498Y-65947864D01*
X100094516Y-65867508D01*
X100094516Y-65867507D01*
X100083891Y-65851606D01*
X100033624Y-65776376D01*
X100019389Y-65766864D01*
X99942494Y-65715484D01*
X99942492Y-65715483D01*
X99862135Y-65699500D01*
X99437865Y-65699500D01*
X99437864Y-65699501D01*
X99357508Y-65715483D01*
X99357507Y-65715483D01*
X99266375Y-65776376D01*
X99205482Y-65867508D01*
X99203627Y-65871988D01*
X99168989Y-65906623D01*
X99120006Y-65906621D01*
X99085371Y-65871983D01*
X99080500Y-65847494D01*
X99080500Y-65363166D01*
X99099245Y-65317911D01*
X99144500Y-65299166D01*
X99189755Y-65317911D01*
X99203047Y-65337315D01*
X99225803Y-65388853D01*
X99301146Y-65464196D01*
X99398619Y-65507235D01*
X99422444Y-65509999D01*
X99422446Y-65510000D01*
X99550000Y-65510000D01*
X99550000Y-65509999D01*
X99749999Y-65509999D01*
X99750000Y-65510000D01*
X99877554Y-65510000D01*
X99877555Y-65509999D01*
X99901380Y-65507235D01*
X99998853Y-65464196D01*
X100074196Y-65388853D01*
X100117235Y-65291380D01*
X100119999Y-65267555D01*
X100120000Y-65267553D01*
X100120000Y-65190000D01*
X99750000Y-65190000D01*
X99749999Y-65509999D01*
X99550000Y-65509999D01*
X99550000Y-65054000D01*
X99568745Y-65008745D01*
X99614000Y-64990000D01*
X100120000Y-64990000D01*
X100120000Y-64912446D01*
X100119999Y-64912444D01*
X100117235Y-64888619D01*
X100074196Y-64791146D01*
X99998853Y-64715803D01*
X99998850Y-64715801D01*
X99973850Y-64704762D01*
X99940023Y-64669334D01*
X99941156Y-64620364D01*
X99964144Y-64593003D01*
X100038046Y-64543624D01*
X100077923Y-64483943D01*
X100118653Y-64456730D01*
X100131138Y-64455500D01*
X100251855Y-64455500D01*
X100297110Y-64474245D01*
G37*
%TD.AperFunction*%
%TA.AperFunction,Conductor*%
G36*
X98575677Y-62648745D02*
G01*
X98594422Y-62694000D01*
X98594422Y-62766000D01*
X98575677Y-62811255D01*
X98530422Y-62830000D01*
X98232681Y-62830000D01*
X98248220Y-62787306D01*
X98248220Y-62672694D01*
X98232681Y-62630000D01*
X98530422Y-62630000D01*
X98575677Y-62648745D01*
G37*
%TD.AperFunction*%
%TA.AperFunction,Conductor*%
G36*
X98023220Y-62417618D02*
G01*
X97951656Y-62405000D01*
X97894784Y-62405000D01*
X97823220Y-62417618D01*
X97823220Y-61772381D01*
X97894784Y-61785000D01*
X97951656Y-61785000D01*
X98023220Y-61772381D01*
X98023220Y-62417618D01*
G37*
%TD.AperFunction*%
%TD*%
M02*
